<?xml version="1.0" standalone="yes"?>
<svg xmlns="http://www.w3.org/2000/svg" width="512" height="512">
<path style="fill:#010101; stroke:none;" d="M0 0L0 512L512 512L512 0L0 0z"/>
<path style="fill:#5f575f; stroke:none;" d="M227 53L286 53C286 43.9832 289.33 26.5269 283.486 19.1088C280.517 15.3403 276.445 15.0242 272 15.0008C261.885 14.9474 236.331 10.4562 229.514 19.1088C223.67 26.5269 227 43.9832 227 53M205 68L205 69L276 69C286.664 69 300.057 66.787 310 71C304.274 65.1525 289.764 68 282 68L205 68z"/>
<path style="fill:#c4d1ee; stroke:none;" d="M204.742 70.0278C202.371 71.9459 203.004 76.3268 203 79C202.99 84.9364 199.924 104.373 205.318 107.972C210.084 111.153 221.426 109 227 109L285 109C290.436 109 304.318 111.475 308.397 107.397C313.095 102.698 310.043 84.3894 309.999 78C309.98 75.2748 310.271 71.7553 307.682 70.0278C302.916 66.8471 291.574 69 286 69L228 69C222.611 69 209.051 66.5415 204.742 70.0278z"/>
<path style="fill:#5f575f; stroke:none;" d="M203 70L204 71L203 70z"/>
<path style="fill:#f7c858; stroke:none;" d="M91 71C88.2311 81.1234 83.321 86.5542 73 89L73 90C83.3139 93.9787 87.3938 97.3402 91 108L92 108C95.6062 97.3402 99.6861 93.9787 110 90L110 89C98.2612 86.2182 96.9813 80.0073 91 71z"/>
<path style="fill:#5f575f; stroke:none;" d="M90.3333 72.6667L90.6667 73.3333L90.3333 72.6667M92.3333 72.6667L92.6667 73.3333L92.3333 72.6667M89 75L90 76L89 75M93 75L94 76L93 75M88 78L89 79L88 78M94 78L95 79L94 78M87 80L88 81L87 80M95 80L96 81L95 80M86 82L87 83L86 82M96 82L97 83L96 82M83 85L84 86L83 85M99 85L100 86L99 85M80 86L81 87L80 86M102 86L103 87L102 86M77.6667 87.3333L78.3333 87.6667L77.6667 87.3333M104.667 87.3333L105.333 87.6667L104.667 87.3333M75 88L76 89L75 88M107 88L108 89L107 88M72 89L73 90L72 89M110 89L111 90L110 89M74 90L75 91L74 90M108.667 90.3333L109.333 90.6667L108.667 90.3333M76 91L77 92L76 91M106 91L107 92L106 91M79 92L80 93L79 92M103 92L104 93L103 92M81.6667 93.3333L82.3333 93.6667L81.6667 93.3333M100.667 93.3333L101.333 93.6667L100.667 93.3333M84 94L85 95L84 94M98 94L99 95L98 94M85 95L86 96L85 95M97 95L98 96L97 95M86 96L87 97L86 96M96 96L97 97L96 96M87 98L88 99L87 98M95 98L96 99L95 98M88 101L89 102L88 101M94 101L95 102L94 101M404.667 102.333L405.333 102.667L404.667 102.333M89 103L90 104L89 103M93.3333 103.667L93.6667 104.333L93.3333 103.667z"/>
<path style="fill:#f7c858; stroke:none;" d="M404 103C401.911 110.637 398.853 122.583 391.981 127.182C386.129 131.099 376.071 131.052 372 137C378.832 138.619 390.751 141.658 395.351 147.214C400.375 153.281 400.656 162.456 405 169C409.344 162.456 409.625 153.281 414.649 147.214C419.341 141.547 431.06 138.645 438 137L416.133 125.725L404 103z"/>
<path style="fill:#5f575f; stroke:none;" d="M403.333 104.667L403.667 105.333L403.333 104.667M406.333 104.667L406.667 105.333L406.333 104.667M90 106L91 107L90 106M92 106L93 107L92 106M203 107L204 108L203 107M309 107L310 108L309 107M402 107L403 108L402 107M407 107L408 108L407 107M91 108L92 109L91 108M204 108L205 109L204 108M308 108L309 109L308 108M206 109L206 110L307 110L276 109L206 109M401 110L402 111L401 110M408 110L409 111L408 110M400 112L401 113L400 112M409.333 112.667L409.667 113.333L409.333 112.667M399 115L400 116L399 115M410 115L411 116L410 115M398 118L399 119L398 118M411 118L412 119L411 118M397 120L398 121L397 120M412 120L413 121L412 120M396 123L397 124L396 123M413 123L414 124L413 123M225 124L225 180L226 180L226 125L287 125L287 180C291.607 169.02 288 149.944 288 138C288 134.685 289.351 127.368 286.397 125.028C283 122.338 274.125 124 270 124L225 124z"/>
<path style="fill:#c4d1ee; stroke:none;" d="M226 125L226 166C226 172.939 226.861 180.377 221.775 185.895C217.008 191.068 209.368 192.113 203 194.345C194.384 197.364 185.879 201.402 178 206C184.251 211.045 203.455 212.066 204.033 221.997C204.33 227.1 198.921 229.5 195 231.039C186.771 234.269 173.085 236.501 166.649 242.699C158.51 250.536 158.716 266.477 152.637 275.895C147.939 283.172 141.128 279.472 138.055 272.999C136.678 270.099 135.708 266.999 134.576 264C132.954 259.7 131.21 255.435 130 251C117.772 261.106 110.813 282.161 106.579 297C92.3525 346.853 103.064 402.444 137.289 442C176.11 486.868 236.434 505.949 294 492.346C310.761 488.385 324.766 480.613 340 473.07C344.934 470.627 347.381 474.647 352 473.843C356.284 473.098 360.796 468.265 364 465.561C366.917 463.099 371.467 459.837 372.583 456C373.607 452.477 370.837 449.607 372.771 446C380.656 431.294 392.665 419.797 399.421 404C411.181 376.502 415.523 345.558 410.565 316C403.343 272.952 378.641 234.308 342 210.344C331.686 203.599 320.576 198.26 309 194.054C302.01 191.514 294.236 190.63 289.703 183.985C285.986 178.535 287 171.247 287 165L287 125L226 125z"/>
<path style="fill:#5f575f; stroke:none;" d="M392 127L393 128L392 127M417 127L418 128L417 127M389 128L390 129L389 128M420 128L421 129L420 128M386.667 129.333L387.333 129.667L386.667 129.333M422.667 129.333L423.333 129.667L422.667 129.333M384 130L385 131L384 130M425 130L426 131L425 130M381 131L382 132L381 131M428 131L429 132L428 131M378.667 132.333L379.333 132.667L378.667 132.333M430.667 132.333L431.333 132.667L430.667 132.333M376 133L377 134L376 133M433 133L434 134L433 133M373 134L374 135L373 134M436 134L437 135L436 134M371.333 135.667L371.667 136.333L371.333 135.667M438.333 135.667L438.667 136.333L438.333 135.667M374 137L375 138L374 137M435 137L436 138L435 137M376.667 138.333L377.333 138.667L376.667 138.333M432.667 138.333L433.333 138.667L432.667 138.333M379 139L380 140L379 139M430 139L431 140L430 139M382 140L383 141L382 140M427 140L428 141L427 140M384 141L385 142L384 141M424.667 141.333L425.333 141.667L424.667 141.333M387 142L388 143L387 142M422 142L423 143L422 142M390 143L391 144L390 143M419.667 143.333L420.333 143.667L419.667 143.333M392 144L393 145L392 144M417 144L418 145L417 144M394 145L395 146L394 145M415 145L416 146L415 145M395 146L396 147L395 146M414 146L415 147L414 146M396 148L397 149L396 148M413 148L414 149L413 148M397.333 150.667L397.667 151.333L397.333 150.667M412.333 150.667L412.667 151.333L412.333 150.667M398 153L399 154L398 153M411 153L412 154L411 153M399 156L400 157L399 156M410 156L411 157L410 156M400.333 158.667L400.667 159.333L400.333 158.667M409.333 158.667L409.667 159.333L409.333 158.667M401 161L402 162L401 161M408 161L409 162L408 161M402 164L403 165L402 164M407 164L408 165L407 164M403.333 166.667L403.667 167.333L403.333 166.667M406 166L407 167L406 166M404.667 169.333L405.333 169.667L404.667 169.333M224 182L225 183L224 182M288 182L289 183L288 182M223 184L224 185L223 184M289 184L290 185L289 184M222 185L223 186L222 185M219 188L220 189L219 188M293 188L294 189L293 188M217 189L218 190L217 189M295 189L296 190L295 189M214.667 190.333L215.333 190.667L214.667 190.333M297.667 190.333L298.333 190.667L297.667 190.333M211 191L212 192L211 191M300.667 191.333L301.333 191.667L300.667 191.333M208 192L209 193L208 192M304 192L305 193L304 192M145.667 193.333L146.333 193.667L145.667 193.333M205 193L206 194L205 193M307 193L308 194L307 193z"/>
<path style="fill:#f7c858; stroke:none;" d="M145 194C140.806 211.696 133.02 215.82 117 222L117 223C133.397 226.886 140.584 233.821 145 250L155.275 231.275L175 222L154.418 211.895L145 194z"/>
<path style="fill:#5f575f; stroke:none;" d="M202 194L203 195L202 194M310 194L311 195L310 194M147.333 195.667L147.667 196.333L147.333 195.667M199 195L200 196L199 195M312.667 195.333L313.333 195.667L312.667 195.333M144 196L145 197L144 196M197 196L198 197L197 196M315 196L316 197L315 196M194.667 197.333L195.333 197.667L194.667 197.333M317 197L318 198L317 197M143.333 198.667L143.667 199.333L143.333 198.667M148 198L149 199L148 198M192 198L193 199L192 198M320 198L321 199L320 198M190 199L191 200L190 199M322 199L323 200L322 199M188 200L189 201L188 200M324 200L325 201L324 200M142 201L143 202L142 201M149 201L150 202L149 201M186 201L187 202L186 201M326 201L327 202L326 201M184 202L185 203L184 202M328 202L329 203L328 202M150.333 203.667L150.667 204.333L150.333 203.667M182 203L183 204L182 203M330 203L331 204L330 203M141 204L142 205L141 204M180 204L181 205L180 204M332 204L333 205L332 204M140.333 206.667L140.667 207.333L140.333 206.667M151 206L152 207L151 206M177 206L178 207L177 206M335 206L336 207L335 206M179 207L180 208L179 207M337 207L338 208L337 207M181 208L182 209L181 208M139 209L140 210L139 209M152 209L153 210L152 209M184 209L185 210L184 209M340 209L341 210L340 209M187 210L188 211L187 210M138 211L139 212L138 211M153 211L154 212L153 211M189 211L190 212L189 211M343 211L344 212L343 211M192 212L193 213L192 212M137 213L138 214L137 213M195 213L196 214L195 213M346 213L347 214L346 213M156 214L157 215L156 214M197 214L198 215L197 214M133.667 215.333L134.333 215.667L133.667 215.333M158 215L159 216L158 215M200 215L201 216L200 215M349 215L350 216L349 215M131 216L132 217L131 216M160.667 216.333L161.333 216.667L160.667 216.333M350 216L351 217L350 216M128 217L129 218L128 217M163 217L164 218L163 217M125.667 218.333L126.333 218.667L125.667 218.333M166 218L167 219L166 218M203 218L204 219L203 218M353 218L354 219L353 218M123 219L124 220L123 219M168 219L169 220L168 219M354 219L355 220L354 219M120 220L121 221L120 220M171 220L172 221L171 220M355 220L356 221L355 220M117.667 221.333L118.333 221.667L117.667 221.333M174 221L175 222L174 221M204 221L204 224L205 224L204 221M116 222L117 223L116 222M175 222L176 223L175 222M119 223L120 224L119 223M172 223L173 224L172 223M359 223L360 224L359 223M122 224L123 225L122 224M169.667 224.333L170.333 224.667L169.667 224.333M360 224L361 225L360 224M124 225L125 226L124 225M167 225L168 226L167 225M361 225L362 226L361 225M127 226L128 227L127 226M164 226L165 227L164 226M362 226L363 227L362 226M129.667 227.333L130.333 227.667L129.667 227.333M161.667 227.333L162.333 227.667L161.667 227.333M202 227L203 228L202 227M363 227L364 228L363 227M132 228L133 229L132 228M159 228L160 229L159 228M364 228L365 229L364 228M135 229L136 230L135 229M156 229L157 230L156 229M198.667 229.333L199.333 229.667L198.667 229.333M365 229L366 230L365 229M136 230L137 231L136 230M155 230L156 231L155 230M196 230L197 231L196 230M366 230L367 231L366 230M154 231L155 232L154 231M193 231L194 232L193 231M367 231L368 232L367 231M138 232L139 233L138 232M153 232L154 233L153 232M190.667 232.333L191.333 232.667L190.667 232.333M368 232L369 233L368 232M188 233L189 234L188 233M369 233L370 234L369 233M139 234L140 235L139 234M185 234L186 235L185 234M370 234L371 235L370 234M152 235L153 236L152 235M183 235L184 236L183 235M371 235L372 236L371 235M180 236L181 237L180 236M372 236L373 237L372 236M140 237L141 238L140 237M151 237L152 238L151 237M177 237L178 238L177 237M373 237L374 238L373 237M175 238L176 239L175 238M374 238L375 239L374 238M141.333 239.667L141.667 240.333L141.333 239.667M172 239L173 240L172 239M150 240L151 241L150 240M169.667 240.333L170.333 240.667L169.667 240.333M167 241L168 242L167 241M142 242L143 243L142 242M149.333 242.667L149.667 243.333L149.333 242.667M165.333 242.667L165.667 243.333L165.333 242.667M377 242L378 243L377 242M378 243L379 244L378 243M143 245L144 246L143 245M148 245L149 246L148 245M164 245L165 246L164 245M144.333 247.667L144.667 248.333L144.333 247.667M381 247L382 248L381 247M147 248L148 249L147 248M163 248L164 249L163 248M382 248L383 249L382 248M129 250L130 251L129 250M145 250L147 252L147 250L145 250M162 250L163 251L162 250M383 250L384 251L383 250M128 251L129 252L128 251M384 251L385 252L384 251M127 252L128 253L127 252M130.333 252.667L130.667 253.333L130.333 252.667M161 253L162 254L161 253M126 254L127 255L126 254M386 254L387 255L386 254M125 255L126 256L125 255M131 255L132 256L131 255M160 256L161 257L160 256M124 257L125 258L124 257M388 257L389 258L388 257M132 258L133 259L132 258M159 258L160 259L159 258M389 259L390 260L389 259M122 260L123 261L122 260M133.333 260.667L133.667 261.333L133.333 260.667M390 260L391 261L390 260M158 261L159 262L158 261M121 262L122 263L121 262M391 262L392 263L391 262M134 263L135 264L134 263M157 264L158 265L157 264M392 264L393 265L392 264M119 265L120 266L119 265M135 266L136 267L135 266M156 266L157 267L156 266M393 266L394 267L393 266M118 267L119 268L118 267M394 267L395 268L394 267M136.333 268.667L136.667 269.333L136.333 268.667M117 269L118 270L117 269M155 269L156 270L155 269M395 269L396 270L395 269M116 271L117 272L116 271M137 271L138 272L137 271M154.333 271.667L154.667 272.333L154.333 271.667M396 271L397 272L396 271M115 273L116 274L115 273M397 273L398 274L397 273M138 274L139 275L138 274M153 274L154 275L153 274M114 275L115 276L114 275M398.333 275.667L398.667 276.333L398.333 275.667M139 276L140 277L139 276M113 277L114 278L113 277M151 278L152 279L151 278M399 278L400 279L399 278M112 280L113 281L112 280M144 280L144 281L148 281L144 280M400 280L401 281L400 280M111 282L112 283L111 282M401.333 282.667L401.667 283.333L401.333 282.667M110 285L111 286L110 285M402 285L403 286L402 285M109 287L110 288L109 287M403.333 287.667L403.667 288.333L403.333 287.667M108 290L109 291L108 290M404.333 290.667L404.667 291.333L404.333 290.667M107 293L108 294L107 293M405.333 293.667L405.667 294.333L405.333 293.667M106.333 296.667L106.667 297.333L106.333 296.667M126 296L126 297L186 297L167 296L126 296M222 296L222 297L387 297C374.355 291.694 351.777 296 338 296L222 296M406.333 296.667L406.667 297.333L406.333 296.667M124 297L125 298L124 297z"/>
<path style="fill:#010101; stroke:none;" d="M125.055 297.742C117.692 300.783 117.546 316.248 116.579 323C112.8 349.394 117.363 378.06 129.248 402C159.397 462.728 229.274 495.328 295 476.573C352.269 460.23 397 406.503 397 346C397 333.576 399.419 309.422 390.297 299.434C384.36 292.932 360.389 297 352 297L255 297C246.805 297 226.836 293.373 220.279 298.603C216.083 301.95 217.089 308.447 222.044 310.397C229.798 313.448 242.701 311 251 311L345 311C352.339 311 372.927 307.452 378.436 312.603C386.029 319.703 383.156 343.754 382.166 353C377.576 395.868 350.67 436.337 311 454.691C279.742 469.152 244.35 471.207 212 458.936C157.423 438.234 117.958 375.628 132.468 317.005C134.104 310.397 139.298 311 145 311L177 311C183.101 311 192.918 311.259 190.677 302.019C189.115 295.579 181.018 297 176 297L141 297C136.177 297 129.592 295.868 125.055 297.742z"/>
<path style="fill:#5f575f; stroke:none;" d="M188 297L189 298L188 297M220 297L221 298L220 297M388 297L389 298L388 297M189 298L190 299L189 298M219 298L220 299L219 298M190 299L191 300L190 299M218 299L219 300L218 299M105 300L106 301L105 300M391 300L392 301L391 300M407.333 300.667L407.667 301.333L407.333 300.667M217.333 301.667L217.667 302.333L217.333 301.667M120 302L121 303L120 302M191 302L191 306L192 306L191 302M392.333 302.667L392.667 303.333L392.333 302.667M104.333 303.667L104.667 304.333L104.333 303.667z"/>
<path style="fill:#d55bf2; stroke:none;" d="M217 304C210.109 304 200.835 302.35 194.224 304.318C190.076 305.553 188.743 310.509 183.999 311.606C175.695 313.526 165.507 312 157 312C151.976 312 137.493 309.536 133.988 313.603C129.96 318.279 131.184 329.212 130.424 335C126.57 364.355 140.063 397.501 158.004 420C201.522 474.576 283.372 481.561 337 438.195C365.023 415.535 379.726 382.302 382.09 347C382.631 338.912 384.573 320.236 378.86 313.603C374.672 308.741 354.203 312 348 312L255 312C244.178 312 221.374 316.723 217 304z"/>
<path style="fill:#5f575f; stroke:none;" d="M408.333 304.667L408.667 305.333L408.333 304.667M119.333 305.667L119.667 306.333L119.333 305.667M217 306L218 307L217 306M393.333 306.667L393.667 307.333L393.333 306.667M103.333 308.667L103.667 309.333L103.333 308.667M190 308L191 309L190 308M218 308L219 309L218 308M409 308L409 311L410 311L409 308M189 309L190 310L189 309M219 309L220 310L219 309M118.333 310.667L118.667 311.333L118.333 310.667M220 310L221 311L220 310M394.333 310.667L394.667 311.333L394.333 310.667M134 311L134 312L186 312L169 311L134 311M223 311L223 312L379 312C366.83 306.893 345.253 311 332 311L223 311M133 312L134 313L133 312M379.333 312.667L379.667 313.333L379.333 312.667M102.333 313.667L102.667 314.333L102.333 313.667M410 313L410 316L411 316L410 313M117 314L117 317L118 317L117 314M395.333 315.667L395.667 316.333L395.333 315.667M132.333 316.667L132.667 317.333L132.333 316.667M380.333 316.667L380.667 317.333L380.333 316.667M101 319L101 322L102 322L101 319M411 319L411 323L412 323L411 319M116 320L116 324L117 324L116 320M396 321L396 325L397 325L396 321M131.333 322.667L131.667 323.333L131.333 322.667M381 322L381 325L382 325L381 322M339.667 326.333L340.333 326.667L339.667 326.333z"/>
<path style="fill:#010101; stroke:none;" d="M341 326.454C309.473 330.756 316.447 377.755 348 373.815C377.898 370.081 370.817 322.386 341 326.454z"/>
<path style="fill:#5f575f; stroke:none;" d="M346 326L346 327L349 327L346 326M100 327L100 334L101 334L100 327M335 327L336 328L335 327M351 327L352 328L351 327M333 328L334 329L333 328M354 328L355 329L354 328M412 328L412 339L413 339L412 328M115 329L115 336L116 336L115 329M331 329L332 330L331 329M130 330L130 335L131 335L130 330M357 330L358 331L357 330M397 330L397 352L398 352L397 330M328 331L329 332L328 331M382 331L382 339L383 339L382 331M327 332L328 333L327 332M326 333L327 334L326 333M325 334L326 335L325 334M363 336L364 337L363 336M323 337L324 338L323 337M365 339L366 340L365 339M321 341L322 342L321 341M341 341L342 342L341 341z"/>
<path style="fill:#d55bf2; stroke:none;" d="M342 341L342 342L345 342L342 341z"/>
<path style="fill:#5f575f; stroke:none;" d="M345.667 341.333L346.333 341.667L345.667 341.333z"/>
<path style="fill:#d55bf2; stroke:none;" d="M339 342L340 343L339 342z"/>
<path style="fill:#c4d1ee; stroke:none;" d="M340.044 342.742C330.103 346.771 337.366 362.013 346.956 358.254C357.546 354.103 350.51 338.5 340.044 342.742z"/>
<path style="fill:#5f575f; stroke:none;" d="M348 342L349 343L348 342M366 342L367 343L366 342M320.333 343.667L320.667 344.333L320.333 343.667M337 343L338 344L337 343z"/>
<path style="fill:#d55bf2; stroke:none;" d="M349 343L350 344L349 343z"/>
<path style="fill:#5f575f; stroke:none;" d="M382 343L382 351L383 351L382 343M412 343L412 354L413 354L412 343M336 344L337 345L336 344z"/>
<path style="fill:#d55bf2; stroke:none;" d="M350 344L351 345L350 344z"/>
<path style="fill:#5f575f; stroke:none;" d="M115 345L115 353L116 353L115 345M351 345L352 346L351 345M367.333 345.667L367.667 346.333L367.333 345.667M335 346L336 347L335 346M130 347L130 353L131 353L130 347M352 347L353 348L352 347z"/>
<path style="fill:#d55bf2; stroke:none;" d="M352 348L353 349L352 348z"/>
<path style="fill:#5f575f; stroke:none;" d="M100 349L100 355L101 355L100 349M172.667 349.333L173.333 349.667L172.667 349.333z"/>
<path style="fill:#010101; stroke:none;" d="M174 349.444C142.101 354.2 150.285 402.241 182 396.671C211.453 391.499 203.333 345.07 174 349.444z"/>
<path style="fill:#5f575f; stroke:none;" d="M180.667 349.333L181.333 349.667L180.667 349.333M319 349L319 352L320 352L319 349M334 349L334 352L335 352L334 349M168 350L169 351L168 350M185 350L186 351L185 350M166 351L167 352L166 351M187 351L188 352L187 351z"/>
<path style="fill:#d55bf2; stroke:none;" d="M352 351L353 352L352 351z"/>
<path style="fill:#5f575f; stroke:none;" d="M164 352L165 353L164 352M189 352L190 353L189 352M352.333 352.667L352.667 353.333L352.333 352.667z"/>
<path style="fill:#d55bf2; stroke:none;" d="M335 353L336 354L335 353z"/>
<path style="fill:#5f575f; stroke:none;" d="M192 354L193 355L192 354M335 354L336 355L335 354z"/>
<path style="fill:#d55bf2; stroke:none;" d="M351 354L352 355L351 354z"/>
<path style="fill:#5f575f; stroke:none;" d="M367.333 354.667L367.667 355.333L367.333 354.667M160 355L161 356L160 355M193 355L194 356L193 355z"/>
<path style="fill:#d55bf2; stroke:none;" d="M336 355L337 356L336 355z"/>
<path style="fill:#5f575f; stroke:none;" d="M351 355L352 356L351 355M159 356L160 357L159 356M194 356L195 357L194 356M320 356L321 357L320 356z"/>
<path style="fill:#d55bf2; stroke:none;" d="M337 356L338 357L337 356z"/>
<path style="fill:#5f575f; stroke:none;" d="M350 356L351 357L350 356M195 357L196 358L195 357z"/>
<path style="fill:#d55bf2; stroke:none;" d="M338 357L339 358L338 357z"/>
<path style="fill:#5f575f; stroke:none;" d="M349 357L350 358L349 357M381 357L381 360L382 360L381 357M396 357L396 361L397 361L396 357M116 358L116 362L117 362L116 358M131 358L131 361L132 361L131 358M339 358L340 359L339 358z"/>
<path style="fill:#d55bf2; stroke:none;" d="M340 358L341 359L340 358z"/>
<path style="fill:#5f575f; stroke:none;" d="M347 358L348 359L347 358M366 358L367 359L366 358M321 359L322 360L321 359M342 359L342 360L345 360L342 359M411 359L411 363L412 363L411 359M101 360L101 364L102 364L101 360M156 360L157 361L156 360M197 360L198 361L197 360M365 360L366 361L365 360M322 361L323 362L322 361M155 362L156 363L155 362M198 362L199 363L198 362M364 362L365 363L364 362M323 363L324 364L323 363M380 363L380 366L381 366L380 363M132.333 364.667L132.667 365.333L132.333 364.667M154 364L155 365L154 364M174 364L175 365L174 364z"/>
<path style="fill:#d55bf2; stroke:none;" d="M175.667 364.333L176.333 364.667L175.667 364.333z"/>
<path style="fill:#c4d1ee; stroke:none;" d="M177 364.798C165.863 364.948 165.994 381.782 177 381.782C188.174 381.782 188.157 364.648 177 364.798z"/>
<path style="fill:#d55bf2; stroke:none;" d="M178 364L179 365L178 364z"/>
<path style="fill:#5f575f; stroke:none;" d="M179 364L180 365L179 364M199 364L200 365L199 364M395 364L395 367L396 367L395 364M117 365L117 368L118 368L117 365z"/>
<path style="fill:#d55bf2; stroke:none;" d="M172 365L173 366L172 365M181 365L182 366L181 365z"/>
<path style="fill:#5f575f; stroke:none;" d="M362 365L363 366L362 365M183 366L184 367L183 366M361 366L362 367L361 366M410 366L410 369L411 369L410 366M102.333 367.667L102.667 368.333L102.333 367.667M153.333 367.667L153.667 368.333L153.333 367.667M200 367L201 368L200 367M360 367L361 368L360 367z"/>
<path style="fill:#d55bf2; stroke:none;" d="M169 368L170 369L169 368M184 368L185 369L184 368z"/>
<path style="fill:#5f575f; stroke:none;" d="M359 368L360 369L359 368M379.333 368.667L379.667 369.333L379.333 368.667M133.333 369.667L133.667 370.333L133.333 369.667M168 369L169 370L168 369M185 369L186 370L185 369M329 369L330 370L329 369M358 369L359 370L358 369M118.333 370.667L118.667 371.333L118.333 370.667z"/>
<path style="fill:#d55bf2; stroke:none;" d="M168 370L169 371L168 370M185 370L186 371L185 370z"/>
<path style="fill:#5f575f; stroke:none;" d="M330 370L331 371L330 370M394.333 370.667L394.667 371.333L394.333 370.667M332 371L333 372L332 371M355 371L356 372L355 371M103.333 372.667L103.667 373.333L103.333 372.667M334 372L335 373L334 372M353 372L354 373L353 372M409.333 372.667L409.667 373.333L409.333 372.667M134.333 373.667L134.667 374.333L134.333 373.667M337 373L338 374L337 373M350 373L351 374L350 373M378 373L379 374L378 373M341 374L341 375L346 375L341 374M393.333 374.667L393.667 375.333L393.333 374.667M119.333 375.667L119.667 376.333L119.333 375.667z"/>
<path style="fill:#d55bf2; stroke:none;" d="M168 375L169 376L168 375z"/>
<path style="fill:#5f575f; stroke:none;" d="M287 375L288 376L287 375z"/>
<path style="fill:#010101; stroke:none;" d="M288 375.468C244.882 383.549 259.341 448.58 302 440.532C344.03 432.603 329.609 367.669 288 375.468z"/>
<path style="fill:#5f575f; stroke:none;" d="M301.667 375.333L302.333 375.667L301.667 375.333M168 376L169 377L168 376M185 376L186 377L185 376M283 376L284 377L283 376M305 376L306 377L305 376M377.333 376.667L377.667 377.333L377.333 376.667M408.333 376.667L408.667 377.333L408.333 376.667M104.333 377.667L104.667 378.333L104.333 377.667M135 377L136 378L135 377M281 377L282 378L281 377M120.333 378.667L120.667 379.333L120.333 378.667M153 378L154 379L153 378M169 378L170 379L169 378M184 378L185 379L184 378M200.333 378.667L200.667 379.333L200.333 378.667M392.333 378.667L392.667 379.333L392.333 378.667M170 379L171 380L170 379M183 379L184 380L183 379M277 379L278 380L277 379M136 380L137 381L136 380M171 380L172 381L171 380M182 380L183 381L182 380M275 380L276 381L275 380M313 380L314 381L313 380M376 380L377 381L376 380M407.333 380.667L407.667 381.333L407.333 380.667M105.333 381.667L105.667 382.333L105.333 381.667M154 381L155 382L154 381M173 381L174 382L173 381M180 381L181 382L180 381M274 381L275 382L274 381M121 382L122 383L121 382M176.667 382.333L177.333 382.667L176.667 382.333M199 382L200 383L199 382M375.333 382.667L375.667 383.333L375.333 382.667M391 382L392 383L391 382M137 383L138 384L137 383M106.333 384.667L106.667 385.333L106.333 384.667M198 384L199 385L198 384M406.333 384.667L406.667 385.333L406.333 384.667M122 385L123 386L122 385M374 385L375 386L374 385M390 385L391 386L390 385M138 386L139 387L138 386M157 387L158 388L157 387M196 387L197 388L196 387M405.333 387.667L405.667 388.333L405.333 387.667M107 388L108 389L107 388M123 388L124 389L123 388M139 388L140 389L139 388M158 388L159 389L158 388M195 388L196 389L195 388M267 388L268 389L267 388M321 388L322 389L321 388M373 388L374 389L373 388M389 388L390 389L389 388M293 389L293 390L296 390L293 389M322 389L323 390L322 389M288.667 390.333L289.333 390.667L288.667 390.333z"/>
<path style="fill:#d55bf2; stroke:none;" d="M290 390L291 391L290 390z"/>
<path style="fill:#c4d1ee; stroke:none;" d="M291 390.468C267.626 394.962 275.593 430.708 299 425.61C321.541 420.7 313.387 386.164 291 390.468z"/>
<path style="fill:#5f575f; stroke:none;" d="M299.667 390.333L300.333 390.667L299.667 390.333M372 390L373 391L372 390M388.333 390.667L388.667 391.333L388.333 390.667M404.333 390.667L404.667 391.333L404.333 390.667M108 391L109 392L108 391M124 391L125 392L124 391M161 391L162 392L161 391M265 391L266 392L265 391M286 391L287 392L286 391M302 391L303 392L302 391M323 391L324 392L323 391M162 392L163 393L162 392M191 392L192 393L191 392M284 392L285 393L284 392M304 392L305 393L304 392M371 392L372 393L371 392M125 393L126 394L125 393M141 393L142 394L141 393M264 393L265 394L264 393M283 393L284 394L283 393z"/>
<path style="fill:#d55bf2; stroke:none;" d="M305 393L306 394L305 393z"/>
<path style="fill:#5f575f; stroke:none;" d="M324 393L325 394L324 393M387 393L388 394L387 393M403.333 393.667L403.667 394.333L403.333 393.667M109 394L110 395L109 394M165 394L166 395L165 394M188 394L189 395L188 394z"/>
<path style="fill:#d55bf2; stroke:none;" d="M282 394L283 395L282 394z"/>
<path style="fill:#5f575f; stroke:none;" d="M142 395L143 396L142 395M167 395L168 396L167 395M186 395L187 396L186 395M263 395L264 396L263 395z"/>
<path style="fill:#d55bf2; stroke:none;" d="M281 395L282 396L281 395z"/>
<path style="fill:#5f575f; stroke:none;" d="M325 395L326 396L325 395M370 395L371 396L370 395M110.333 396.667L110.667 397.333L110.333 396.667M126 396L127 397L126 396M170.667 396.333L171.333 396.667L170.667 396.333M183 396L184 397L183 396z"/>
<path style="fill:#d55bf2; stroke:none;" d="M280 396L281 397L280 396M308 396L309 397L308 396z"/>
<path style="fill:#5f575f; stroke:none;" d="M386 396L387 397L386 396M402 396L403 397L402 396M143 397L144 398L143 397M176.667 397.333L177.333 397.667L176.667 397.333M279 397L280 398L279 397z"/>
<path style="fill:#d55bf2; stroke:none;" d="M309 397L310 398L309 397z"/>
<path style="fill:#5f575f; stroke:none;" d="M326.333 397.667L326.667 398.333L326.333 397.667M127 398L128 399L127 398M262 398L263 399L262 398M310 398L311 399L310 398M385 398L386 399L385 398M111 399L112 400L111 399M144 399L145 400L144 399z"/>
<path style="fill:#d55bf2; stroke:none;" d="M278 399L279 400L278 399z"/>
<path style="fill:#5f575f; stroke:none;" d="M401 399L402 400L401 399M128 400L129 401L128 400M277 400L278 401L277 400M311 400L312 401L311 400M384 400L385 401L384 400M112 401L113 402L112 401M145 401L146 402L145 401z"/>
<path style="fill:#d55bf2; stroke:none;" d="M277 401L278 402L277 401M311 401L312 402L311 401z"/>
<path style="fill:#5f575f; stroke:none;" d="M327.333 401.667L327.667 402.333L327.333 401.667M400 401L401 402L400 401M129 402L130 403L129 402M261.333 402.667L261.667 403.333L261.333 402.667M366 402L367 403L366 402M383 402L384 403L383 402M276.333 403.667L276.667 404.333L276.333 403.667M312 403L313 404L312 403M399.333 403.667L399.667 404.333L399.333 403.667M113 404L114 405L113 404M130 404L131 405L130 404M147 404L148 405L147 404z"/>
<path style="fill:#d55bf2; stroke:none;" d="M312 404L313 405L312 404z"/>
<path style="fill:#5f575f; stroke:none;" d="M365 404L366 405L365 404M382 404L383 405L382 404z"/>
<path style="fill:#d55bf2; stroke:none;" d="M276.333 405.667L276.667 406.333L276.333 405.667z"/>
<path style="fill:#5f575f; stroke:none;" d="M114 406L115 407L114 406M131 406L132 407L131 406M148 406L149 407L148 406M364 406L365 407L364 406M381 406L382 407L381 406M398 406L399 407L398 406M363 407L364 408L363 407M115 408L116 409L115 408M132 408L133 409L132 408M380 408L381 409L380 408M397 408L398 409L397 408M150 409L151 410L150 409z"/>
<path style="fill:#d55bf2; stroke:none;" d="M276.333 409.667L276.667 410.333L276.333 409.667z"/>
<path style="fill:#5f575f; stroke:none;" d="M362 409L363 410L362 409M116 410L117 411L116 410M133 410L134 411L133 410M379 410L380 411L379 410M396 410L397 411L396 410M276.333 411.667L276.667 412.333L276.333 411.667z"/>
<path style="fill:#d55bf2; stroke:none;" d="M312 411L313 412L312 411z"/>
<path style="fill:#5f575f; stroke:none;" d="M378 411L379 412L378 411M117 412L118 413L117 412M152 412L153 413L152 412M261 412L261 415L262 415L261 412M312.333 412.667L312.667 413.333L312.333 412.667M360 412L361 413L360 412M395 412L396 413L395 412M135 413L136 414L135 413M327.333 413.667L327.667 414.333L327.333 413.667M359 413L360 414L359 413M377 413L378 414L377 413M118 414L119 415L118 414z"/>
<path style="fill:#d55bf2; stroke:none;" d="M277 414L278 415L277 414z"/>
<path style="fill:#5f575f; stroke:none;" d="M394 414L395 415L394 414M136 415L137 416L136 415M154 415L155 416L154 415M277 415L278 416L277 415M311 415L312 416L311 415M376 415L377 416L376 415M119 416L120 417L119 416M155 416L156 417L155 416M357 416L358 417L357 416M375 416L376 417L375 416M393 416L394 417L393 416M262 417L263 418L262 417M278 417L279 418L278 417M310 417L311 418L310 417M392 417L393 418L392 417M138 418L139 419L138 418z"/>
<path style="fill:#d55bf2; stroke:none;" d="M279 418L280 419L279 418M309 418L310 419L309 418z"/>
<path style="fill:#5f575f; stroke:none;" d="M326 418L327 419L326 418M374 418L375 419L374 418M121 419L122 420L121 419M391 419L392 420L391 419M158 420L159 421L158 420M263 420L264 421L263 420M308 420L309 421L308 420M325 420L326 421L325 420M354 420L355 421L354 420M122 421L123 422L122 421M140 421L141 422L140 421M159 421L160 422L159 421M307 421L308 422L307 421M353 421L354 422L353 421M372 421L373 422L372 421M390 421L391 422L390 421M141 422L142 423L141 422M264 422L265 423L264 422z"/>
<path style="fill:#d55bf2; stroke:none;" d="M283 422L284 423L283 422z"/>
<path style="fill:#5f575f; stroke:none;" d="M306 422L307 423L306 422M352 422L353 423L352 422M371 422L372 423L371 422M284 423L285 424L284 423z"/>
<path style="fill:#d55bf2; stroke:none;" d="M304 423L305 424L304 423z"/>
<path style="fill:#5f575f; stroke:none;" d="M324 423L325 424L324 423M124 424L125 425L124 424M142 424L143 425L142 424M265 424L266 425L265 424z"/>
<path style="fill:#d55bf2; stroke:none;" d="M286 424L287 425L286 424M302 424L303 425L302 424z"/>
<path style="fill:#5f575f; stroke:none;" d="M303 424L304 425L303 424M388 424L389 425L388 424M143 425L144 426L143 425M288 425L289 426L288 425M300.667 425.333L301.333 425.667L300.667 425.333M369 425L370 426L369 425M125 426L126 427L125 426M266 426L267 427L266 426M291 426L291 427L298 427L291 426M322 426L323 427L322 426M368 426L369 427L368 426M126 427L127 428L126 427M164 427L165 428L164 427M267 427L268 428L267 427M386 427L387 428L386 427M165 428L166 429L165 428M146 429L147 430L146 429M166 429L167 430L166 429M320 429L321 430L320 429M346 429L347 430L346 429M366 429L367 430L366 429M128 430L129 431L128 430M147 430L148 431L147 430M167 430L168 431L167 430M319 430L320 431L319 430M345 430L346 431L345 430M365 430L366 431L365 430M384 430L385 431L384 430M168 431L169 432L168 431M270 431L271 432L270 431M318 431L319 432L318 431M364 431L365 432L364 431M169 432L170 433L169 432M271 432L272 433L271 432M317 432L318 433L317 432M130 433L131 434L130 433M316 433L317 434L316 433M382 433L383 434L382 433M131 434L132 435L131 434M381 434L382 435L381 434M151 435L152 436L151 435M275 435L276 436L275 435M361 435L362 436L361 435M152 436L153 437L152 436M312 436L313 437L312 436M360 436L361 437L360 436M133 437L134 438L133 437M153 437L154 438L153 437M175 437L176 438L175 437M278 437L279 438L278 437M310 437L311 438L310 437M337 437L338 438L337 437M359 437L360 438L359 437M379 437L380 438L379 437M134 438L135 439L134 438M154 438L155 439L154 438M176 438L177 439L176 438M280 438L281 439L280 438M308 438L309 439L308 438M336 438L337 439L336 438M358 438L359 439L358 438M378 438L379 439L378 438M135 439L136 440L135 439M155 439L156 440L155 439M283 439L284 440L283 439M306 439L307 440L306 439M357 439L358 440L357 439M377 439L378 440L377 439M156 440L157 441L156 440M285.667 440.333L286.333 440.667L285.667 440.333M302.667 440.333L303.333 440.667L302.667 440.333M356 440L357 441L356 440M157 441L158 442L157 441M180 441L181 442L180 441M290 441L290 442L299 442L290 441M332 441L333 442L332 441M355 441L356 442L355 441M158 442L159 443L158 442M181 442L182 443L181 442M331 442L332 443L331 442M354 442L355 443L354 442M138 443L139 444L138 443M159 443L160 444L159 443M353 443L354 444L353 443M374 443L375 444L374 443M139 444L140 445L139 444M160 444L161 445L160 444M184 444L185 445L184 444M328 444L329 445L328 444M352 444L353 445L352 444M373 444L374 445L373 444M140 445L141 446L140 445M161 445L162 446L161 445M351 445L352 446L351 445M372 445L373 446L372 445M141 446L142 447L141 446M187 446L188 447L187 446M325 446L326 447L325 446M142 447L143 448L142 447M371 447L371 451L372 451L371 447M143 448L144 449L143 448M190 448L191 449L190 448M322 448L323 449L322 448M347 448L348 449L347 448M166 449L167 450L166 449M192 449L193 450L192 449M320 449L321 450L320 449M346 449L347 450L346 449M167 450L168 451L167 450M345 450L346 451L345 450M195 451L196 452L195 451M317 451L318 452L317 451M197 452L198 453L197 452M315 452L316 453L315 452M372 452L373 453L372 452M148 453L149 454L148 453M171 453L172 454L171 453M199 453L200 454L199 453M313 453L314 454L313 453M341 453L342 454L341 453M149 454L150 455L149 454M172 454L173 455L172 454M201 454L202 455L201 454M311 454L312 455L311 454M340 454L341 455L340 454M373 454L374 455L373 454M150 455L151 456L150 455M203 455L204 456L203 455M309 455L310 456L309 455M338 455L339 456L338 455M151 456L152 457L151 456M175 456L176 457L175 456M337 456L338 457L337 456M152 457L153 458L152 457M208 457L209 458L208 457M304 457L305 458L304 457M153 458L154 459L153 458M178 458L179 459L178 458M210 458L211 459L210 458M302 458L303 459L302 458M334 458L335 459L334 458M213 459L214 460L213 459M299 459L300 460L299 459M181 460L182 461L181 460M216 460L217 461L216 460M296 460L297 461L296 460M331 460L332 461L331 460M157 461L158 462L157 461M183 461L184 462L183 461M219 461L220 462L219 461M293 461L294 462L293 461M329 461L330 462L329 461M158 462L159 463L158 462M184 462L185 463L184 462M222.667 462.333L223.333 462.667L222.667 462.333M289.667 462.333L290.333 462.667L289.667 462.333M328 462L329 463L328 462M159 463L160 464L159 463M186 463L187 464L186 463M226.667 463.333L227.333 463.667L226.667 463.333M285.667 463.333L286.333 463.667L285.667 463.333M326 463L327 464L326 463M188 464L189 465L188 464M230.667 464.333L231.333 464.667L230.667 464.333M281.667 464.333L282.333 464.667L281.667 464.333M324 464L325 465L324 464M162 465L163 466L162 465M190 465L191 466L190 465M236.667 465.333L237.333 465.667L236.667 465.333M275.667 465.333L276.333 465.667L275.667 465.333M322 465L323 466L322 465M163 466L164 467L163 466M192 466L193 467L192 466M243 466L243 467L247 467L243 466M266 466L266 467L270 467L266 466M320 466L321 467L320 466M194 467L195 468L194 467M318 467L319 468L318 467M166 468L167 469L166 468M196 468L197 469L196 468M316 468L317 469L316 468M198 469L199 470L198 469M314 469L315 470L314 469M169 470L170 471L169 470M200 470L201 471L200 470M312 470L313 471L312 470M170 471L171 472L170 471M202.667 471.333L203.333 471.667L202.667 471.333M309.667 471.333L310.333 471.667L309.667 471.333M342 471L342 472L346 472L342 471M172 472L173 473L172 472M205 472L206 473L205 472M307 472L308 473L307 472M340 472L341 473L340 472M347 472L348 473L347 472M207.667 473.333L208.333 473.667L207.667 473.333M304 473L305 474L304 473M175 474L176 475L175 474M210.667 474.333L211.333 474.667L210.667 474.333M301.667 474.333L302.333 474.667L301.667 474.333M337 474L338 475L337 474M177 475L178 476L177 475M213.667 475.333L214.333 475.667L213.667 475.333M298.667 475.333L299.333 475.667L298.667 475.333M335 475L336 476L335 475M217 476L218 477L217 476M295.667 476.333L296.333 476.667L295.667 476.333M180 477L181 478L180 477M220.667 477.333L221.333 477.667L220.667 477.333M291.667 477.333L292.333 477.667L291.667 477.333M332 477L333 478L332 477M182 478L183 479L182 478M224.667 478.333L225.333 478.667L224.667 478.333M287.667 478.333L288.333 478.667L287.667 478.333M330 478L331 479L330 478M184 479L185 480L184 479M229.667 479.333L230.333 479.667L229.667 479.333M282.667 479.333L283.333 479.667L282.667 479.333M328 479L329 480L328 479M186 480L187 481L186 480M234 480L234 481L238 481L234 480M275 480L275 481L279 481L275 480M326 480L327 481L326 480M188 481L189 482L188 481M242 481L242 482L248 482L242 481M265 481L265 482L271 482L265 481M324 481L325 482L324 481M190 482L191 483L190 482M322 482L323 483L322 482M192 483L193 484L192 483M320 483L321 484L320 483M195 484L196 485L195 484M317 484L318 485L317 484M197 485L198 486L197 485M315 485L316 486L315 485M200 486L201 487L200 486M312.667 486.333L313.333 486.667L312.667 486.333M202 487L203 488L202 487M310 487L311 488L310 487M205 488L206 489L205 488M307 488L308 489L307 488M208 489L209 490L208 489M304 489L305 490L304 489M211 490L212 491L211 490M300.667 490.333L301.333 490.667L300.667 490.333M214.667 491.333L215.333 491.667L214.667 491.333M297.667 491.333L298.333 491.667L297.667 491.333M218.667 492.333L219.333 492.667L218.667 492.333M293.667 492.333L294.333 492.667L293.667 492.333M222.667 493.333L223.333 493.667L222.667 493.333M288 493L288 494L291 494L288 493M227 494L227 495L230 495L227 494M283 494L283 495L286 495L283 494M233 495L233 496L236 496L233 495M276 495L276 496L280 496L276 495M241 496L241 497L247 497L241 496M266 496L266 497L272 497L266 496z"/>
</svg>
