<?xml version="1.0" encoding="UTF-8"?>
<!DOCTYPE svg PUBLIC "-//W3C//DTD SVG 1.1//EN" "http://www.w3.org/Graphics/SVG/1.1/DTD/svg11.dtd">
<svg xmlns="http://www.w3.org/2000/svg" version="1.1" width="512px" height="512px" style="shape-rendering:geometricPrecision; text-rendering:geometricPrecision; image-rendering:optimizeQuality; fill-rule:evenodd; clip-rule:evenodd" xmlns:xlink="http://www.w3.org/1999/xlink">
<g><path style="opacity:0.966" fill="#010101" d="M 229.5,-0.5 C 247.167,-0.5 264.833,-0.5 282.5,-0.5C 290.062,2.56003 295.562,7.89337 299,15.5C 300.418,27.7718 300.918,40.1051 300.5,52.5C 313.881,50.9228 322.048,56.5895 325,69.5C 325.667,82.1667 325.667,94.8333 325,107.5C 322.565,119.759 315.065,125.426 302.5,124.5C 302.167,141.513 302.501,158.513 303.5,175.5C 375.419,199.593 416.585,249.259 427,324.5C 430.591,370.715 418.258,412.049 390,448.5C 386.861,452.483 383.027,455.483 378.5,457.5C 376.805,456.826 375.138,456.159 373.5,455.5C 371.657,452.436 371.157,449.103 372,445.5C 413.303,395.682 422.637,340.349 400,279.5C 378.324,232.499 342.49,201.999 292.5,188C 289.437,185.97 287.771,183.136 287.5,179.5C 287.5,160.833 287.5,142.167 287.5,123.5C 266.5,123.5 245.5,123.5 224.5,123.5C 224.5,142.167 224.5,160.833 224.5,179.5C 223.739,182.854 222.072,185.687 219.5,188C 204.622,192.066 190.622,198.066 177.5,206C 185.466,209.325 193.466,212.658 201.5,216C 203.504,218.841 204.004,222.007 203,225.5C 201.786,227.049 200.286,228.215 198.5,229C 187.833,233 177.167,237 166.5,241C 161.427,251.876 156.927,263.043 153,274.5C 149.154,281.466 144.487,282.133 139,276.5C 136.176,267.519 132.676,258.853 128.5,250.5C 96.5983,297.831 91.0983,348.164 112,401.5C 135.061,450.957 173.227,481.79 226.5,494C 236.737,496.013 247.07,496.847 257.5,496.5C 287.411,495.918 315.078,487.752 340.5,472C 344.421,470.861 347.754,471.695 350.5,474.5C 352.483,479.126 351.483,482.96 347.5,486C 324.904,499.808 300.571,508.308 274.5,511.5C 262.167,511.5 249.833,511.5 237.5,511.5C 172.723,501.886 126.223,467.553 98,408.5C 77.3936,355.771 80.3936,304.437 107,254.5C 110.129,249.074 113.629,243.907 117.5,239C 108.577,235.47 99.5771,232.137 90.5,229C 86.3873,225.491 85.554,221.324 88,216.5C 99.9504,211.112 112.117,206.112 124.5,201.5C 129.545,188.86 134.879,176.36 140.5,164C 144.694,161.842 148.528,162.342 152,165.5C 156,175.5 160,185.5 164,195.5C 177.909,186.796 192.743,180.129 208.5,175.5C 209.499,158.513 209.833,141.513 209.5,124.5C 199.588,125.297 192.422,121.297 188,112.5C 186.401,97.8884 186.068,83.2217 187,68.5C 190.526,56.3073 198.693,50.974 211.5,52.5C 211.061,40.0915 211.561,27.7581 213,15.5C 216.438,7.89337 221.938,2.56003 229.5,-0.5 Z"/></g>
<g><path style="opacity:1" fill="#7b869b" d="M 233.5,14.5 C 249.238,14.0467 264.904,14.5467 280.5,16C 282.617,17.7309 284.117,19.8976 285,22.5C 285.5,32.4944 285.666,42.4944 285.5,52.5C 265.833,52.5 246.167,52.5 226.5,52.5C 226.334,42.4944 226.5,32.4944 227,22.5C 228.277,19.0618 230.443,16.3951 233.5,14.5 Z"/></g>
<g><path style="opacity:0.949" fill="#010000" d="M 89.5,40.5 C 92.9391,40.5887 95.7724,41.9221 98,44.5C 101.402,53.5394 104.902,62.5394 108.5,71.5C 117.451,75.0954 126.451,78.5954 135.5,82C 140.343,86.3796 140.677,91.0462 136.5,96C 127.088,99.4707 117.754,103.137 108.5,107C 105.062,116.643 101.229,126.143 97,135.5C 93,138.167 89,138.167 85,135.5C 81.1622,125.983 77.3288,116.483 73.5,107C 64.2457,103.137 54.9124,99.4707 45.5,96C 41.3233,91.0462 41.6567,86.3796 46.5,82C 55.549,78.5954 64.549,75.0954 73.5,71.5C 77.098,62.5394 80.598,53.5394 84,44.5C 85.4998,42.5313 87.3331,41.198 89.5,40.5 Z"/></g>
<g><path style="opacity:1" fill="#a0b1c9" d="M 204.5,68.5 C 228.833,68.5 253.167,68.5 277.5,68.5C 277.5,81.8333 277.5,95.1667 277.5,108.5C 252.831,108.667 228.164,108.5 203.5,108C 202.345,95.2421 202.178,82.4088 203,69.5C 203.383,68.944 203.883,68.6107 204.5,68.5 Z"/></g>
<g><path style="opacity:1" fill="#8fa1be" d="M 204.5,68.5 C 238.664,67.3358 272.998,67.1691 307.5,68C 308,68.5 308.5,69 309,69.5C 309.667,82.1667 309.667,94.8333 309,107.5C 298.582,108.487 288.082,108.82 277.5,108.5C 277.5,95.1667 277.5,81.8333 277.5,68.5C 253.167,68.5 228.833,68.5 204.5,68.5 Z"/></g>
<g><path style="opacity:1" fill="#f5c453" d="M 90.5,70.5 C 92.7288,74.9929 95.0621,79.4929 97.5,84C 101.419,85.8618 105.419,87.5285 109.5,89C 105.492,90.7289 101.492,92.5623 97.5,94.5C 94.8668,98.5438 92.7001,102.877 91,107.5C 89.2559,103.423 87.4226,99.4232 85.5,95.5C 81.2105,93.2374 76.8771,91.0707 72.5,89C 77.2293,87.218 81.7293,85.0514 86,82.5C 87.6052,78.5151 89.1052,74.5151 90.5,70.5 Z"/></g>
<g><path style="opacity:0.952" fill="#010100" d="M 401.5,71.5 C 405.192,70.9712 408.358,71.9712 411,74.5C 416.314,87.6258 421.481,100.792 426.5,114C 439.657,118.608 452.657,123.608 465.5,129C 469.5,133.333 469.5,137.667 465.5,142C 452.5,147 439.5,152 426.5,157C 421.481,170.208 416.314,183.374 411,196.5C 406.667,200.5 402.333,200.5 398,196.5C 392.722,183.611 387.722,170.611 383,157.5C 369.929,152.142 356.763,146.975 343.5,142C 339.5,137.667 339.5,133.333 343.5,129C 356.626,123.686 369.792,118.519 383,113.5C 387.333,101.833 391.667,90.1667 396,78.5C 396.967,75.3794 398.8,73.046 401.5,71.5 Z"/></g>
<g><path style="opacity:1" fill="#f9c755" d="M 403.5,101.5 C 404.497,101.47 405.164,101.97 405.5,103C 408.195,110.223 411.028,117.389 414,124.5C 421.603,128.646 429.436,132.313 437.5,135.5C 430.734,138.813 423.734,141.647 416.5,144C 415.333,145.167 414.167,146.333 413,147.5C 410.647,154.734 407.813,161.734 404.5,168.5C 401.187,161.734 398.353,154.734 396,147.5C 394.833,146.333 393.667,145.167 392.5,144C 385.266,141.647 378.266,138.813 371.5,135.5C 379.32,131.942 387.154,128.275 395,124.5C 398.41,117.02 401.243,109.353 403.5,101.5 Z"/></g>
<g><path style="opacity:1" fill="#646d7b" d="M 287.5,179.5 C 286.503,161.341 286.17,143.008 286.5,124.5C 275.833,124.5 265.167,124.5 254.5,124.5C 244.833,124.5 235.167,124.5 225.5,124.5C 225.83,143.008 225.497,161.341 224.5,179.5C 224.5,160.833 224.5,142.167 224.5,123.5C 245.5,123.5 266.5,123.5 287.5,123.5C 287.5,142.167 287.5,160.833 287.5,179.5 Z"/></g>
<g><path style="opacity:1" fill="#ccddf6" d="M 254.5,124.5 C 254.333,142.836 254.5,161.17 255,179.5C 256.214,181.049 257.714,182.215 259.5,183C 308.846,197.344 344.346,227.844 366,274.5C 369.005,281.35 371.505,288.35 373.5,295.5C 322.832,295.333 272.166,295.5 221.5,296C 218.211,297.41 216.544,299.91 216.5,303.5C 207.833,303.5 199.167,303.5 190.5,303.5C 190.957,299.58 189.291,297.08 185.5,296C 165.5,295.333 145.5,295.333 125.5,296C 123,297.167 121.167,299 120,301.5C 106.986,355.284 119.486,402.117 157.5,442C 204.078,482.968 256.411,492.135 314.5,469.5C 315.332,470.329 314.999,471.162 313.5,472C 296.725,484.896 278.059,493.063 257.5,496.5C 247.07,496.847 236.737,496.013 226.5,494C 173.227,481.79 135.061,450.957 112,401.5C 91.0983,348.164 96.5983,297.831 128.5,250.5C 132.676,258.853 136.176,267.519 139,276.5C 144.487,282.133 149.154,281.466 153,274.5C 156.927,263.043 161.427,251.876 166.5,241C 177.167,237 187.833,233 198.5,229C 200.286,228.215 201.786,227.049 203,225.5C 204.004,222.007 203.504,218.841 201.5,216C 193.466,212.658 185.466,209.325 177.5,206C 190.622,198.066 204.622,192.066 219.5,188C 222.072,185.687 223.739,182.854 224.5,179.5C 225.497,161.341 225.83,143.008 225.5,124.5C 235.167,124.5 244.833,124.5 254.5,124.5 Z"/></g>
<g><path style="opacity:1" fill="#bdd0ed" d="M 254.5,124.5 C 265.167,124.5 275.833,124.5 286.5,124.5C 286.17,143.008 286.503,161.341 287.5,179.5C 287.771,183.136 289.437,185.97 292.5,188C 342.49,201.999 378.324,232.499 400,279.5C 422.637,340.349 413.303,395.682 372,445.5C 371.157,449.103 371.657,452.436 373.5,455.5C 366.386,462.549 358.719,468.883 350.5,474.5C 347.754,471.695 344.421,470.861 340.5,472C 315.078,487.752 287.411,495.918 257.5,496.5C 278.059,493.063 296.725,484.896 313.5,472C 314.999,471.162 315.332,470.329 314.5,469.5C 374.283,437.624 401.449,387.624 396,319.5C 394.958,312.665 393.291,305.999 391,299.5C 389.786,297.951 388.286,296.785 386.5,296C 382.179,295.501 377.846,295.334 373.5,295.5C 371.505,288.35 369.005,281.35 366,274.5C 344.346,227.844 308.846,197.344 259.5,183C 257.714,182.215 256.214,181.049 255,179.5C 254.5,161.17 254.333,142.836 254.5,124.5 Z"/></g>
<g><path style="opacity:1" fill="#f8c654" d="M 144.5,192.5 C 145.497,192.47 146.164,192.97 146.5,194C 148.719,201.099 151.719,207.765 155.5,214C 161.949,216.48 168.282,219.147 174.5,222C 167.674,224.275 161.007,226.942 154.5,230C 151.21,236.702 148.21,243.535 145.5,250.5C 142.891,243.454 139.891,236.62 136.5,230C 129.833,227.333 123.167,224.667 116.5,222C 121.971,219.285 127.638,216.951 133.5,215C 135.286,214.215 136.786,213.049 138,211.5C 140.474,205.243 142.641,198.91 144.5,192.5 Z"/></g>
<g><path style="opacity:1" fill="#050506" d="M 190.5,303.5 C 190.919,306.325 189.919,308.491 187.5,310C 169.26,310.174 151.093,310.674 133,311.5C 122.838,366.021 139.671,410.188 183.5,444C 225.095,470.644 268.428,473.644 313.5,453C 366.047,422.069 388.214,376.235 380,315.5C 379.727,313.899 379.227,312.399 378.5,311C 325.833,310.667 273.167,310.333 220.5,310C 218.113,308.453 216.78,306.287 216.5,303.5C 216.544,299.91 218.211,297.41 221.5,296C 272.166,295.5 322.832,295.333 373.5,295.5C 377.846,295.334 382.179,295.501 386.5,296C 388.286,296.785 389.786,297.951 391,299.5C 393.291,305.999 394.958,312.665 396,319.5C 401.449,387.624 374.283,437.624 314.5,469.5C 256.411,492.135 204.078,482.968 157.5,442C 119.486,402.117 106.986,355.284 120,301.5C 121.167,299 123,297.167 125.5,296C 145.5,295.333 165.5,295.333 185.5,296C 189.291,297.08 190.957,299.58 190.5,303.5 Z"/></g>
<g><path style="opacity:1" fill="#d35af2" d="M 190.5,303.5 C 199.167,303.5 207.833,303.5 216.5,303.5C 216.78,306.287 218.113,308.453 220.5,310C 273.167,310.333 325.833,310.667 378.5,311C 379.227,312.399 379.727,313.899 380,315.5C 388.214,376.235 366.047,422.069 313.5,453C 268.428,473.644 225.095,470.644 183.5,444C 139.671,410.188 122.838,366.021 133,311.5C 151.093,310.674 169.26,310.174 187.5,310C 189.919,308.491 190.919,306.325 190.5,303.5 Z"/></g>
<g><path style="opacity:1" fill="#040205" d="M 337.5,325.5 C 361.143,325.963 370.309,337.63 365,360.5C 357.574,372.327 347.074,376.161 333.5,372C 319.152,363.451 315.652,351.617 323,336.5C 326.915,331.477 331.749,327.81 337.5,325.5 Z"/></g>
<g><path style="opacity:1" fill="#e6abf7" d="M 340.5,340.5 C 349.006,340.17 352.839,344.17 352,352.5C 349.549,358.089 345.383,359.922 339.5,358C 334.845,355.103 333.345,350.937 335,345.5C 336.73,343.598 338.563,341.931 340.5,340.5 Z"/></g>
<g><path style="opacity:1" fill="#040204" d="M 170.5,348.5 C 184.853,347.253 194.686,353.253 200,366.5C 201.352,388.147 191.185,397.98 169.5,396C 154.356,388.916 149.523,377.416 155,361.5C 158.845,355.479 164.012,351.146 170.5,348.5 Z"/></g>
<g><path style="opacity:1" fill="#e6aaf7" d="M 173.5,363.5 C 182.53,363.358 186.363,367.692 185,376.5C 182.103,381.155 177.937,382.655 172.5,381C 165.631,374.724 165.965,368.891 173.5,363.5 Z"/></g>
<g><path style="opacity:1" fill="#040204" d="M 285.5,374.5 C 306.477,372.007 320.31,380.674 327,400.5C 329.337,418.661 322.17,431.494 305.5,439C 284.366,444.018 269.866,436.518 262,416.5C 258.65,396.197 266.483,382.197 285.5,374.5 Z"/></g>
<g><path style="opacity:1" fill="#e8acfa" d="M 288.5,389.5 C 307,388.826 314.5,397.492 311,415.5C 301.406,428.658 290.739,429.658 279,418.5C 272.475,405.568 275.642,395.902 288.5,389.5 Z"/></g>
</svg>
