<?xml version="1.0" encoding="UTF-8"?>
<!DOCTYPE svg PUBLIC "-//W3C//DTD SVG 1.1//EN" "http://www.w3.org/Graphics/SVG/1.1/DTD/svg11.dtd">
<svg xmlns="http://www.w3.org/2000/svg" version="1.1" width="512px" height="512px" style="shape-rendering:geometricPrecision; text-rendering:geometricPrecision; image-rendering:optimizeQuality; fill-rule:evenodd; clip-rule:evenodd" xmlns:xlink="http://www.w3.org/1999/xlink">
<g><path style="opacity:0.967" fill="#030100" d="M 339.5,-0.5 C 346.167,-0.5 352.833,-0.5 359.5,-0.5C 365.939,9.71916 370.772,20.7192 374,32.5C 380.917,46.9197 387.251,61.5863 393,76.5C 402.091,93.7552 410.425,111.422 418,129.5C 431.495,153.819 444.495,178.486 457,203.5C 472.377,228.921 486.711,254.921 500,281.5C 502.585,293.017 499.419,302.517 490.5,310C 485.354,313.271 479.854,315.771 474,317.5C 465.059,329.655 459.226,343.155 456.5,358C 458.676,358.163 460.509,358.996 462,360.5C 463.635,363.632 465.468,366.632 467.5,369.5C 476.388,373.225 483.221,379.225 488,387.5C 490.586,397.417 488.086,405.917 480.5,413C 475.002,416.748 469.002,419.415 462.5,421C 411.927,434.059 361.594,447.893 311.5,462.5C 312.358,470.01 313.358,477.51 314.5,485C 315.261,495.923 310.595,499.59 300.5,496C 296.555,492.054 293.389,487.554 291,482.5C 286.255,495.077 278.088,504.744 266.5,511.5C 264.167,511.5 261.833,511.5 259.5,511.5C 256.987,509.305 255.654,506.471 255.5,503C 257.585,494.747 259.252,486.413 260.5,478C 260.167,476.833 259.833,475.667 259.5,474.5C 235.792,484.677 211.125,488.843 185.5,487C 172.962,481.73 160.962,475.397 149.5,468C 139.567,457.9 132.4,446.067 128,432.5C 122.869,417.64 118.202,402.64 114,387.5C 110.02,380.992 105.02,375.325 99,370.5C 94.8324,364.83 92.3324,358.497 91.5,351.5C 92.5013,347.183 93.0013,342.85 93,338.5C 78.8223,314.475 68.8223,288.809 63,261.5C 62.2261,259.061 60.7261,257.227 58.5,256C 51.5018,252.503 44.8352,248.503 38.5,244C 36.6227,241.749 35.1227,239.249 34,236.5C 33.0698,226.815 32.0698,217.149 31,207.5C 24.1312,192.549 17.4646,177.549 11,162.5C 9.4401,151.48 9.4401,140.48 11,129.5C 18.4395,88.3942 41.6061,60.2275 80.5,45C 140.847,32.7751 201.181,20.4418 261.5,8C 287.593,4.52892 313.593,1.69558 339.5,-0.5 Z M 188.5,388.5 C 188.5,389.833 187.833,390.5 186.5,390.5C 186.833,389.5 187.5,388.833 188.5,388.5 Z"/></g>
<g><path style="opacity:1" fill="#f7c00a" d="M 363.5,37.5 C 363.567,38.9587 363.234,40.2921 362.5,41.5C 345.678,39.8385 331.178,33.1719 319,21.5C 317.519,18.89 316.352,16.2234 315.5,13.5C 328.582,12.3205 341.582,10.8205 354.5,9C 355.701,9.90252 356.535,11.0692 357,12.5C 359.233,20.8367 361.4,29.17 363.5,37.5 Z"/></g>
<g><path style="opacity:1" fill="#b93737" d="M 443.5,298.5 C 438.089,300.369 432.756,302.535 427.5,305C 421.843,306.635 416.176,306.801 410.5,305.5C 406.818,305.335 403.152,305.501 399.5,306C 391.585,308.029 383.585,309.529 375.5,310.5C 365.167,311.611 354.834,312.778 344.5,314C 326.671,318.042 309.005,322.209 291.5,326.5C 269.556,329.089 247.889,333.256 226.5,339C 224.919,339.707 223.419,340.54 222,341.5C 221.251,342.635 221.417,343.635 222.5,344.5C 225.028,342.126 228.028,341.126 231.5,341.5C 233.527,341.338 235.527,341.505 237.5,342C 229.32,344.505 221.153,347.005 213,349.5C 210.869,348.46 209.036,346.96 207.5,345C 206.207,344.51 204.873,344.343 203.5,344.5C 195.207,329.492 187.374,314.159 180,298.5C 164.399,252.03 149.399,205.363 135,158.5C 122.109,138.055 110.776,116.721 101,94.5C 94.0404,82.7484 87.207,70.9151 80.5,59C 82.5,58 84.5,57 86.5,56C 103.735,53.4415 120.735,49.7748 137.5,45C 160.45,41.0083 183.45,37.3417 206.5,34C 240.806,24.207 275.64,18.0404 311,15.5C 312.183,25.3733 317.349,32.2066 326.5,36C 333.771,40.4686 341.438,44.1353 349.5,47C 355.782,48.0918 362.116,48.7585 368.5,49C 374.646,67.1144 382.146,84.6144 391,101.5C 395.132,113.092 399.799,124.425 405,135.5C 418.098,158.695 430.432,182.361 442,206.5C 450.714,222.097 459.547,237.597 468.5,253C 465.095,258.412 460.928,263.245 456,267.5C 453.369,273.417 450.369,279.084 447,284.5C 445.515,289.105 444.349,293.772 443.5,298.5 Z"/></g>
<g><path style="opacity:1" fill="#aa402d" d="M 363.5,37.5 C 364.124,37.9169 364.457,38.5836 364.5,39.5C 364.253,40.7133 363.586,41.38 362.5,41.5C 363.234,40.2921 363.567,38.9587 363.5,37.5 Z"/></g>
<g><path style="opacity:1" fill="#ae3434" d="M 81.5,73.5 C 81.4827,75.0281 80.816,75.5281 79.5,75C 76.6645,71.3332 73.6645,67.8332 70.5,64.5C 72.6076,62.9409 74.9409,61.6076 77.5,60.5C 78.4373,64.977 79.7706,69.3104 81.5,73.5 Z"/></g>
<g><path style="opacity:1" fill="#090404" d="M 319.5,63.5 C 323.147,63.6216 325.981,65.2882 328,68.5C 330.94,74.0459 333.606,79.7126 336,85.5C 341,92.5 346,99.5 351,106.5C 355.946,119.058 361.946,131.058 369,142.5C 370.004,145.993 369.504,149.159 367.5,152C 360.115,152.199 352.782,152.865 345.5,154C 299.817,166.003 253.483,174.003 206.5,178C 206,177.5 205.5,177 205,176.5C 204.128,171.805 203.128,167.139 202,162.5C 198.221,155.828 195.221,148.828 193,141.5C 191.333,138.833 189.667,136.167 188,133.5C 184.293,121.083 180.293,108.75 176,96.5C 175.503,94.1902 175.337,91.8568 175.5,89.5C 181.376,90.2232 187.376,90.0566 193.5,89C 213.996,84.5025 234.329,79.5025 254.5,74C 271.087,72.2977 287.42,69.2977 303.5,65C 309.016,64.8267 314.349,64.3267 319.5,63.5 Z"/></g>
<g><path style="opacity:1" fill="#801d1d" d="M 70.5,64.5 C 73.6645,67.8332 76.6645,71.3332 79.5,75C 80.816,75.5281 81.4827,75.0281 81.5,73.5C 85.0536,80.2671 88.8869,86.9338 93,93.5C 99.7165,110.015 107.883,125.682 117.5,140.5C 113.751,140.751 110.085,141.417 106.5,142.5C 106.134,141.305 105.301,140.639 104,140.5C 98.2388,142.737 92.4054,144.904 86.5,147C 71.9562,154.002 60.7896,164.502 53,178.5C 48.635,185.897 44.8016,193.563 41.5,201.5C 35.1837,191.861 29.6837,181.861 25,171.5C 22.6703,158.599 22.0036,145.599 23,132.5C 26.663,121.511 30.3297,110.511 34,99.5C 42.4352,83.8972 54.6019,72.2306 70.5,64.5 Z"/></g>
<g><path style="opacity:1" fill="#e8a7a7" d="M 191.5,93.5 C 193.594,95.9938 195.594,95.9938 197.5,93.5C 226.77,88.0106 256.103,82.8439 285.5,78C 296.767,74.4736 308.267,72.307 320,71.5C 320.772,71.6448 321.439,71.9781 322,72.5C 325.333,79.1667 328.667,85.8333 332,92.5C 341.915,104.323 349.248,117.656 354,132.5C 356.994,135.82 359.494,139.487 361.5,143.5C 336.396,148.526 311.396,154.026 286.5,160C 273.051,161.696 259.718,164.029 246.5,167C 234.024,167.37 221.691,168.87 209.5,171.5C 206.858,156.414 201.358,142.414 193,129.5C 189.592,118.185 185.759,107.018 181.5,96C 181.645,95.228 181.978,94.5613 182.5,94C 185.482,93.502 188.482,93.3354 191.5,93.5 Z"/></g>
<g><path style="opacity:1" fill="#100403" d="M 360.5,89.5 C 361.496,89.4142 362.329,89.7476 363,90.5C 366.813,99.2979 371.813,107.298 378,114.5C 378.697,110.465 378.53,106.465 377.5,102.5C 377.824,100.431 378.658,100.098 380,101.5C 383.022,107.016 383.189,112.516 380.5,118C 376.855,118.259 374.022,116.759 372,113.5C 366.81,106.121 362.977,98.1212 360.5,89.5 Z"/></g>
<g><path style="opacity:1" fill="#8b2d2d" d="M 191.5,93.5 C 193.5,93.5 195.5,93.5 197.5,93.5C 195.594,95.9938 193.594,95.9938 191.5,93.5 Z"/></g>
<g><path style="opacity:1" fill="#0c0201" d="M 35.5,134.5 C 36.8221,134.33 37.9887,134.663 39,135.5C 38.6098,144.027 36.9432,152.361 34,160.5C 33.6532,162.18 32.6532,163.18 31,163.5C 29.1387,162.391 28.3053,160.725 28.5,158.5C 30.4326,150.37 32.766,142.37 35.5,134.5 Z"/></g>
<g><path style="opacity:1" fill="#c99608" d="M 117.5,140.5 C 121.772,148.611 126.272,156.611 131,164.5C 132.352,167.72 133.186,171.053 133.5,174.5C 131.796,179.026 128.463,181.026 123.5,180.5C 124.942,179.18 125.608,177.514 125.5,175.5C 119.694,175.268 114.361,176.768 109.5,180C 99.4106,187.418 89.9106,195.585 81,204.5C 72.1389,217.253 66.3056,231.253 63.5,246.5C 57.8806,243.043 52.7139,239.043 48,234.5C 46.964,232.13 46.464,229.63 46.5,227C 47.6306,220.82 47.7972,214.653 47,208.5C 54.3795,192.224 63.8795,177.391 75.5,164C 84.2288,157.968 93.5621,152.968 103.5,149C 105.451,147.266 106.451,145.099 106.5,142.5C 110.085,141.417 113.751,140.751 117.5,140.5 Z"/></g>
<g><path style="opacity:1" fill="#0a0101" d="M 43.5,143.5 C 44.8333,143.5 46.1667,143.5 47.5,143.5C 45.3708,151.383 42.5375,159.05 39,166.5C 37.8904,168.037 36.3904,168.703 34.5,168.5C 34.67,167.178 34.3366,166.011 33.5,165C 36.429,157.642 39.7623,150.476 43.5,143.5 Z"/></g>
<g><path style="opacity:1" fill="#0b0201" d="M 46.5,156.5 C 52.7054,156.219 54.2054,158.886 51,164.5C 49.9848,167.21 48.4848,169.543 46.5,171.5C 45.1195,171 44.4528,170 44.5,168.5C 45.2217,166.056 46.2217,163.722 47.5,161.5C 46.6906,159.929 46.3573,158.262 46.5,156.5 Z"/></g>
<g><path style="opacity:1" fill="#f9c10a" d="M 99.5,169.5 C 101.379,169.393 101.712,169.893 100.5,171C 94.1238,175.864 88.1238,181.197 82.5,187C 81.6683,187.688 81.0016,187.521 80.5,186.5C 85.9599,179.699 92.2932,174.032 99.5,169.5 Z"/></g>
<g><path style="opacity:1" fill="#801d1d" d="M 133.5,174.5 C 142.945,204.597 151.945,234.93 160.5,265.5C 158.801,265.34 157.134,265.506 155.5,266C 151.025,268.65 147.025,271.817 143.5,275.5C 139.396,275.884 135.729,277.384 132.5,280C 125.959,286.872 119.793,294.039 114,301.5C 110.423,309.653 106.59,317.653 102.5,325.5C 93.8251,310.82 85.6585,295.82 78,280.5C 70.5006,257.241 73.5006,235.241 87,214.5C 97.1257,200.871 109.292,189.537 123.5,180.5C 128.463,181.026 131.796,179.026 133.5,174.5 Z"/></g>
<g><path style="opacity:1" fill="#160605" d="M 391.5,166.5 C 396.775,167.247 400.942,169.914 404,174.5C 409.253,181.332 413.753,188.665 417.5,196.5C 416.5,197.833 415.5,197.833 414.5,196.5C 410.332,187.001 404.332,178.834 396.5,172C 395.4,171.568 394.733,172.068 394.5,173.5C 399.668,190.834 406.501,207.501 415,223.5C 418.812,229.309 423.312,234.476 428.5,239C 430.345,240.128 432.345,240.628 434.5,240.5C 434.663,238.143 434.497,235.81 434,233.5C 431.304,225.327 428.637,217.327 426,209.5C 430.388,215.609 433.721,222.276 436,229.5C 441.231,242.646 437.731,246.146 425.5,240C 420.565,235.068 416.399,229.568 413,223.5C 404.38,206.265 396.88,188.598 390.5,170.5C 390.623,169.075 390.957,167.742 391.5,166.5 Z"/></g>
<g><path style="opacity:1" fill="#060100" d="M 90.5,239.5 C 91.4959,239.414 92.3292,239.748 93,240.5C 93.3117,248.636 92.3117,256.636 90,264.5C 89.729,268.13 88.0623,269.13 85,267.5C 84.3333,264.5 84.3333,261.5 85,258.5C 86.6808,252.108 88.5141,245.775 90.5,239.5 Z"/></g>
<g><path style="opacity:1" fill="#090101" d="M 100.5,250.5 C 101.496,250.414 102.329,250.748 103,251.5C 103.667,253.167 103.667,254.833 103,256.5C 100.938,264.264 98.1051,271.597 94.5,278.5C 93.5224,278.023 92.6891,277.357 92,276.5C 91.3333,274.167 91.3333,271.833 92,269.5C 94.8478,263.141 97.6811,256.807 100.5,250.5 Z"/></g>
<g><path style="opacity:1" fill="#ac402e" d="M 472.5,260.5 C 471.5,260.5 470.5,260.5 469.5,260.5C 470.5,257.833 471.5,257.833 472.5,260.5 Z"/></g>
<g><path style="opacity:1" fill="#f9c10a" d="M 469.5,260.5 C 470.5,260.5 471.5,260.5 472.5,260.5C 475.558,266.288 478.392,272.288 481,278.5C 483.305,282.304 485.805,285.97 488.5,289.5C 483.079,299.217 474.746,304.384 463.5,305C 459.23,306.075 454.897,306.575 450.5,306.5C 450.216,300.341 451.049,294.341 453,288.5C 456.233,283.579 458.566,278.246 460,272.5C 463.381,268.625 466.547,264.625 469.5,260.5 Z"/></g>
<g><path style="opacity:1" fill="#c99508" d="M 160.5,265.5 C 163.685,277.572 167.185,289.572 171,301.5C 171.667,303.167 171.667,304.833 171,306.5C 163.119,308.941 156.119,312.941 150,318.5C 144.283,325.216 138.95,332.216 134,339.5C 130.068,347.247 125.568,354.58 120.5,361.5C 117.271,364.925 113.271,366.258 108.5,365.5C 100.42,358.869 99.5867,351.536 106,343.5C 110.142,330.208 115.142,317.208 121,304.5C 128.216,295.376 135.883,286.709 144,278.5C 144.74,277.251 144.573,276.251 143.5,275.5C 147.025,271.817 151.025,268.65 155.5,266C 157.134,265.506 158.801,265.34 160.5,265.5 Z"/></g>
<g><path style="opacity:1" fill="#0f0302" d="M 101.5,270.5 C 104.93,269.755 106.597,271.089 106.5,274.5C 105.923,279.728 104.589,284.728 102.5,289.5C 100.234,287.13 99.2337,284.297 99.5,281C 99.7252,277.376 100.392,273.876 101.5,270.5 Z"/></g>
<g><path style="opacity:1" fill="#801d1d" d="M 443.5,298.5 C 442.979,302.172 442.313,305.838 441.5,309.5C 440.205,310.098 438.872,310.598 437.5,311C 427.062,311.954 416.728,313.621 406.5,316C 374.557,324.206 342.89,333.206 311.5,343C 287.984,345.197 264.984,349.863 242.5,357C 218.985,361.169 197.318,369.836 177.5,383C 162.397,396.211 157.23,412.711 162,432.5C 164.784,447.284 173.618,456.118 188.5,459C 200.49,460.345 212.49,460.178 224.5,458.5C 234.509,456.164 244.509,453.831 254.5,451.5C 258.033,456.935 259.866,462.935 260,469.5C 258.093,468.07 255.926,467.404 253.5,467.5C 241.682,471.049 229.682,473.883 217.5,476C 205.592,478.61 193.926,477.943 182.5,474C 175.062,469.563 167.396,465.563 159.5,462C 154.351,458.018 149.685,453.518 145.5,448.5C 147.501,446.513 148.335,444.18 148,441.5C 140.63,425.727 134.63,409.394 130,392.5C 127.54,387.077 124.707,381.91 121.5,377C 131.351,354.962 144.685,335.295 161.5,318C 165.833,315.167 170.167,312.333 174.5,309.5C 181.18,324.017 188.347,338.35 196,352.5C 198.5,355 201,357.5 203.5,360C 208,360.833 209.833,359 209,354.5C 206.888,351.273 205.055,347.94 203.5,344.5C 204.873,344.343 206.207,344.51 207.5,345C 209.036,346.96 210.869,348.46 213,349.5C 221.153,347.005 229.32,344.505 237.5,342C 235.527,341.505 233.527,341.338 231.5,341.5C 251.49,338.221 271.49,334.388 291.5,330C 293.927,328.446 293.927,327.279 291.5,326.5C 309.005,322.209 326.671,318.042 344.5,314C 354.834,312.778 365.167,311.611 375.5,310.5C 364.654,312.867 353.654,315.033 342.5,317C 338.766,317.846 335.432,319.346 332.5,321.5C 333,321.833 333.5,322.167 334,322.5C 352.785,319.048 371.618,315.881 390.5,313C 397.782,311.745 404.449,309.245 410.5,305.5C 416.176,306.801 421.843,306.635 427.5,305C 432.756,302.535 438.089,300.369 443.5,298.5 Z"/></g>
<g><path style="opacity:1" fill="#0b0201" d="M 410.5,305.5 C 404.449,309.245 397.782,311.745 390.5,313C 371.618,315.881 352.785,319.048 334,322.5C 333.5,322.167 333,321.833 332.5,321.5C 335.432,319.346 338.766,317.846 342.5,317C 353.654,315.033 364.654,312.867 375.5,310.5C 383.585,309.529 391.585,308.029 399.5,306C 403.152,305.501 406.818,305.335 410.5,305.5 Z"/></g>
<g><path style="opacity:0.997" fill="#dfdaa7" d="M 406.5,401.5 C 404.901,401.232 403.568,401.566 402.5,402.5C 383.839,410.996 364.506,417.329 344.5,421.5C 330.171,424.524 316.337,428.857 303,434.5C 299.962,429.757 297.462,424.757 295.5,419.5C 333.087,412.513 370.421,404.346 407.5,395C 413.3,393.254 415.633,389.588 414.5,384C 413.271,383.219 411.938,382.719 410.5,382.5C 394.511,386.664 378.511,390.831 362.5,395C 360.24,395.549 358.574,396.716 357.5,398.5C 354.873,399.092 352.206,399.425 349.5,399.5C 345.477,397.502 341.144,397.002 336.5,398C 332.133,399.207 327.8,400.541 323.5,402C 310.701,404.229 298.034,406.396 285.5,408.5C 283.139,408.674 280.806,409.007 278.5,409.5C 260.083,410.193 242.416,413.86 225.5,420.5C 211.574,422.731 197.907,426.065 184.5,430.5C 185.333,430.833 186.167,431.167 187,431.5C 193.535,430.264 200.035,428.931 206.5,427.5C 208.379,427.393 208.712,427.893 207.5,429C 205.254,430.039 203.087,431.206 201,432.5C 200.085,434.92 200.918,436.253 203.5,436.5C 215.383,433.195 227.383,430.528 239.5,428.5C 242.417,427.709 245.25,427.709 248,428.5C 250.587,433.182 252.087,438.182 252.5,443.5C 244.618,444.404 236.951,446.238 229.5,449C 224.981,449.175 220.647,449.675 216.5,450.5C 204.13,453.146 192.463,451.313 181.5,445C 176.814,441.635 173.647,437.135 172,431.5C 171.333,424.167 171.333,416.833 172,409.5C 174.442,401.255 179.276,394.922 186.5,390.5C 187.833,390.5 188.5,389.833 188.5,388.5C 192.949,383.768 198.282,380.268 204.5,378C 215.612,373.944 226.612,369.61 237.5,365C 253.495,360.084 269.829,356.918 286.5,355.5C 280.617,357.59 273.95,359.424 266.5,361C 264.365,362.556 264.032,364.389 265.5,366.5C 247.349,370.709 229.349,375.875 211.5,382C 208.733,382.669 208.233,383.836 210,385.5C 219.181,381.663 228.681,378.997 238.5,377.5C 239.701,380.66 241.701,383.327 244.5,385.5C 237.461,385.928 230.627,387.261 224,389.5C 223.409,390.483 223.743,391.15 225,391.5C 276.187,381.929 327.354,372.096 378.5,362C 389.276,359.14 399.943,355.973 410.5,352.5C 410.33,353.822 410.663,354.989 411.5,356C 419.865,355.81 425.198,351.643 427.5,343.5C 422.589,344.629 417.922,346.296 413.5,348.5C 413.44,347.957 413.107,347.624 412.5,347.5C 393.483,353.754 374.149,358.754 354.5,362.5C 358.09,360.476 362.09,357.976 366.5,355C 367.38,353.644 367.714,352.144 367.5,350.5C 370.906,348.891 374.573,347.724 378.5,347C 391.574,345.075 404.574,342.909 417.5,340.5C 410.524,339.336 403.524,339.169 396.5,340C 384.804,342.439 373.137,344.939 361.5,347.5C 350.336,348.468 339.336,348.468 328.5,347.5C 357.957,339.974 387.624,333.14 417.5,327C 422.833,326.667 428.167,326.333 433.5,326C 444.165,323.332 454.831,320.998 465.5,319C 451.615,332.6 444.782,349.1 445,368.5C 445.968,375.321 447.468,381.988 449.5,388.5C 435.033,392.696 420.7,397.029 406.5,401.5 Z"/></g>
<g><path style="opacity:1" fill="#0e0302" d="M 291.5,326.5 C 293.927,327.279 293.927,328.446 291.5,330C 271.49,334.388 251.49,338.221 231.5,341.5C 228.028,341.126 225.028,342.126 222.5,344.5C 221.417,343.635 221.251,342.635 222,341.5C 223.419,340.54 224.919,339.707 226.5,339C 247.889,333.256 269.556,329.089 291.5,326.5 Z"/></g>
<g><path style="opacity:1" fill="#151410" d="M 367.5,350.5 C 350.841,354.165 334.174,357.831 317.5,361.5C 317.577,360.25 318.244,359.417 319.5,359C 333.622,355.139 347.622,351.306 361.5,347.5C 373.137,344.939 384.804,342.439 396.5,340C 403.524,339.169 410.524,339.336 417.5,340.5C 404.574,342.909 391.574,345.075 378.5,347C 374.573,347.724 370.906,348.891 367.5,350.5 Z"/></g>
<g><path style="opacity:1" fill="#beb876" d="M 410.5,352.5 C 411.5,351.167 412.5,349.833 413.5,348.5C 417.922,346.296 422.589,344.629 427.5,343.5C 425.198,351.643 419.865,355.81 411.5,356C 410.663,354.989 410.33,353.822 410.5,352.5 Z"/></g>
<g><path style="opacity:1" fill="#bab574" d="M 328.5,347.5 C 339.336,348.468 350.336,348.468 361.5,347.5C 347.622,351.306 333.622,355.139 319.5,359C 318.244,359.417 317.577,360.25 317.5,361.5C 306.714,362.015 296.048,363.348 285.5,365.5C 285.611,364.883 285.944,364.383 286.5,364C 284.833,363.833 283.167,363.667 281.5,363.5C 276.245,364.813 270.911,365.813 265.5,366.5C 264.032,364.389 264.365,362.556 266.5,361C 273.95,359.424 280.617,357.59 286.5,355.5C 300.468,353.28 314.468,350.614 328.5,347.5 Z"/></g>
<g><path style="opacity:1" fill="#11100c" d="M 413.5,348.5 C 412.5,349.833 411.5,351.167 410.5,352.5C 399.943,355.973 389.276,359.14 378.5,362C 327.354,372.096 276.187,381.929 225,391.5C 223.743,391.15 223.409,390.483 224,389.5C 230.627,387.261 237.461,385.928 244.5,385.5C 281.178,377.299 317.844,369.632 354.5,362.5C 374.149,358.754 393.483,353.754 412.5,347.5C 413.107,347.624 413.44,347.957 413.5,348.5 Z"/></g>
<g><path style="opacity:1" fill="#bbb573" d="M 367.5,350.5 C 367.714,352.144 367.38,353.644 366.5,355C 362.09,357.976 358.09,360.476 354.5,362.5C 317.844,369.632 281.178,377.299 244.5,385.5C 241.701,383.327 239.701,380.66 238.5,377.5C 243.64,375.543 248.973,373.876 254.5,372.5C 255.097,373.139 255.93,373.472 257,373.5C 277.404,369.965 297.571,365.965 317.5,361.5C 334.174,357.831 350.841,354.165 367.5,350.5 Z"/></g>
<g><path style="opacity:1" fill="#030000" d="M 142.5,359.5 C 144.948,359.085 146.281,360.085 146.5,362.5C 144.479,368.433 142.646,374.433 141,380.5C 140.121,383.346 138.454,384.013 136,382.5C 135.333,380.5 135.333,378.5 136,376.5C 137.241,370.399 139.408,364.733 142.5,359.5 Z"/></g>
<g><path style="opacity:1" fill="#beb875" d="M 406.5,371.5 C 398.485,373.693 390.318,375.359 382,376.5C 379.98,377.032 379.147,378.365 379.5,380.5C 372.723,382.944 365.723,384.61 358.5,385.5C 360.769,384.024 363.102,382.524 365.5,381C 364.892,380.13 364.059,379.63 363,379.5C 314.053,390.353 264.887,400.186 215.5,409C 213.563,409.122 212.23,409.955 211.5,411.5C 207.785,411.32 204.118,411.654 200.5,412.5C 198.675,411.349 196.675,410.682 194.5,410.5C 201.429,408.132 208.429,405.632 215.5,403C 215.833,402.667 216.167,402.333 216.5,402C 214.866,401.506 213.199,401.34 211.5,401.5C 228.405,398.579 245.405,395.412 262.5,392C 289.333,383.125 316.666,376.125 344.5,371C 352.167,370.333 359.833,370.333 367.5,371C 368.5,371.5 369.5,372 370.5,372.5C 383.095,367.635 395.762,362.968 408.5,358.5C 410.923,358.702 412.589,359.869 413.5,362C 411.735,365.596 409.402,368.763 406.5,371.5 Z"/></g>
<g><path style="opacity:1" fill="#13120e" d="M 285.5,365.5 C 275.066,367.358 264.733,369.692 254.5,372.5C 248.973,373.876 243.64,375.543 238.5,377.5C 228.681,378.997 219.181,381.663 210,385.5C 208.233,383.836 208.733,382.669 211.5,382C 229.349,375.875 247.349,370.709 265.5,366.5C 270.911,365.813 276.245,364.813 281.5,363.5C 283.167,363.667 284.833,363.833 286.5,364C 285.944,364.383 285.611,364.883 285.5,365.5 Z"/></g>
<g><path style="opacity:1" fill="#d6d19d" d="M 317.5,361.5 C 297.571,365.965 277.404,369.965 257,373.5C 255.93,373.472 255.097,373.139 254.5,372.5C 264.733,369.692 275.066,367.358 285.5,365.5C 296.048,363.348 306.714,362.015 317.5,361.5 Z"/></g>
<g><path style="opacity:1" fill="#7c211b" d="M 120.5,361.5 C 119.339,365.156 117.672,368.489 115.5,371.5C 112.536,370.192 110.203,368.192 108.5,365.5C 113.271,366.258 117.271,364.925 120.5,361.5 Z"/></g>
<g><path style="opacity:1" fill="#11100c" d="M 379.5,380.5 C 379.147,378.365 379.98,377.032 382,376.5C 390.318,375.359 398.485,373.693 406.5,371.5C 418.291,368.925 429.958,366.925 441.5,365.5C 441.023,366.478 440.357,367.311 439.5,368C 419.633,372.873 399.633,377.04 379.5,380.5 Z"/></g>
<g><path style="opacity:1" fill="#b33535" d="M 466.5,406.5 C 466.062,406.565 465.728,406.399 465.5,406C 467.037,404.89 467.703,403.39 467.5,401.5C 464.482,401.335 461.482,401.502 458.5,402C 451.157,405.006 443.823,408.006 436.5,411C 418.836,415.6 401.003,419.433 383,422.5C 381.93,422.472 381.097,422.139 380.5,421.5C 407.708,411.708 435.042,402.208 462.5,393C 465.789,389.99 466.289,386.49 464,382.5C 460.159,380.001 457.992,376.501 457.5,372C 457.833,371.5 458.167,371 458.5,370.5C 463.312,374.144 467.979,377.978 472.5,382C 480.849,390.289 480.182,397.955 470.5,405C 469.099,405.41 467.766,405.91 466.5,406.5 Z"/></g>
<g><path style="opacity:1" fill="#060101" d="M 148.5,378.5 C 149.822,378.33 150.989,378.663 152,379.5C 152.732,385.61 152.232,391.61 150.5,397.5C 148.876,397.64 147.71,396.973 147,395.5C 146.333,390.5 146.333,385.5 147,380.5C 147.717,379.956 148.217,379.289 148.5,378.5 Z"/></g>
<g><path style="opacity:1" fill="#15140f" d="M 358.5,385.5 C 326.838,391.599 295.171,397.766 263.5,404C 246.073,406.011 228.74,408.511 211.5,411.5C 212.23,409.955 213.563,409.122 215.5,409C 264.887,400.186 314.053,390.353 363,379.5C 364.059,379.63 364.892,380.13 365.5,381C 363.102,382.524 360.769,384.024 358.5,385.5 Z"/></g>
<g><path style="opacity:1" fill="#b9b372" d="M 295.5,419.5 C 295.196,418.85 294.863,418.183 294.5,417.5C 295.912,416.194 297.579,415.36 299.5,415C 328.039,410.698 356.039,404.198 383.5,395.5C 383.291,394.914 382.957,394.414 382.5,394C 374.011,394.369 365.677,395.869 357.5,398.5C 358.574,396.716 360.24,395.549 362.5,395C 378.511,390.831 394.511,386.664 410.5,382.5C 411.938,382.719 413.271,383.219 414.5,384C 415.633,389.588 413.3,393.254 407.5,395C 370.421,404.346 333.087,412.513 295.5,419.5 Z"/></g>
<g><path style="opacity:1" fill="#b9b473" d="M 349.5,399.5 C 330.718,404.645 311.552,408.645 292,411.5C 290.022,410.094 287.855,409.094 285.5,408.5C 298.034,406.396 310.701,404.229 323.5,402C 327.8,400.541 332.133,399.207 336.5,398C 341.144,397.002 345.477,397.502 349.5,399.5 Z"/></g>
<g><path style="opacity:1" fill="#161510" d="M 211.5,401.5 C 213.199,401.34 214.866,401.506 216.5,402C 216.167,402.333 215.833,402.667 215.5,403C 208.429,405.632 201.429,408.132 194.5,410.5C 190.822,411.586 187.155,411.586 183.5,410.5C 192.969,407.899 202.302,404.899 211.5,401.5 Z"/></g>
<g><path style="opacity:1" fill="#801e1e" d="M 466.5,406.5 C 441.058,415.531 415.058,423.031 388.5,429C 361.894,437.15 335.227,444.984 308.5,452.5C 308.233,450.035 307.566,447.701 306.5,445.5C 313.261,442.955 319.928,440.121 326.5,437C 325.906,436.536 325.239,436.369 324.5,436.5C 343.073,431.522 361.74,426.522 380.5,421.5C 381.097,422.139 381.93,422.472 383,422.5C 401.003,419.433 418.836,415.6 436.5,411C 443.823,408.006 451.157,405.006 458.5,402C 461.482,401.502 464.482,401.335 467.5,401.5C 467.703,403.39 467.037,404.89 465.5,406C 465.728,406.399 466.062,406.565 466.5,406.5 Z"/></g>
<g><path style="opacity:1" fill="#9b6025" d="M 279.5,417.5 C 281.924,417.192 284.257,417.526 286.5,418.5C 292.61,430.051 297.61,442.051 301.5,454.5C 294.367,459.632 295.034,463.298 303.5,465.5C 304.822,471.769 305.822,478.102 306.5,484.5C 306.167,486.167 305.833,487.833 305.5,489.5C 303.517,488.018 301.684,486.351 300,484.5C 296.487,479.463 292.987,474.463 289.5,469.5C 288.914,469.709 288.414,470.043 288,470.5C 288.178,475.925 286.845,480.925 284,485.5C 279.234,491.105 273.734,495.772 267.5,499.5C 267.167,498.667 266.833,497.833 266.5,497C 269.177,488 270.01,478.833 269,469.5C 266.139,457.583 262.472,445.916 258,434.5C 256.7,431.705 255.2,429.039 253.5,426.5C 261.97,422.678 270.636,419.678 279.5,417.5 Z"/></g>
<g><path style="opacity:1" fill="#151511" d="M 225.5,420.5 C 226.978,420.238 228.311,420.571 229.5,421.5C 221.718,423.516 214.051,425.516 206.5,427.5C 200.035,428.931 193.535,430.264 187,431.5C 186.167,431.167 185.333,430.833 184.5,430.5C 197.907,426.065 211.574,422.731 225.5,420.5 Z"/></g>
<g><path style="opacity:1" fill="#b7b172" d="M 278.5,409.5 C 268.774,412.13 259.108,415.297 249.5,419C 246.77,419.728 244.103,419.562 241.5,418.5C 240.614,419.325 240.281,420.325 240.5,421.5C 231.373,422.613 222.707,424.946 214.5,428.5C 215.167,428.833 215.833,429.167 216.5,429.5C 222.684,428.623 228.851,427.623 235,426.5C 237.008,426.307 238.508,426.974 239.5,428.5C 227.383,430.528 215.383,433.195 203.5,436.5C 200.918,436.253 200.085,434.92 201,432.5C 203.087,431.206 205.254,430.039 207.5,429C 208.712,427.893 208.379,427.393 206.5,427.5C 214.051,425.516 221.718,423.516 229.5,421.5C 228.311,420.571 226.978,420.238 225.5,420.5C 242.416,413.86 260.083,410.193 278.5,409.5 Z"/></g>
<g><path style="opacity:1" fill="#151511" d="M 233.5,433.5 C 237.278,434.193 237.278,435.36 233.5,437C 225.508,438.61 217.508,440.11 209.5,441.5C 209.5,440.5 209.5,439.5 209.5,438.5C 217.553,436.482 225.553,434.815 233.5,433.5 Z"/></g>
<g><path style="opacity:0.997" fill="#b33535" d="M 324.5,436.5 C 325.239,436.369 325.906,436.536 326.5,437C 319.928,440.121 313.261,442.955 306.5,445.5C 305.395,443.287 305.395,441.12 306.5,439C 312.638,438.824 318.638,437.991 324.5,436.5 Z"/></g>
</svg>
