<?xml version="1.0" standalone="yes"?>
<svg xmlns="http://www.w3.org/2000/svg" width="512" height="512">
<path style="fill:#faf3ee; stroke:none;" d="M0 0L0 512L260 512L260 511C251.71 502.693 260.912 485.609 261 475C237.54 481.271 211.805 493.397 187 487.497C179.68 485.756 173.318 481.975 167 478.064C161.11 474.418 154.193 471.675 149.17 466.815C128.265 446.588 124.742 416.057 115.301 390C111.109 378.43 99.1453 372.525 94.4537 361C91.197 353 95.3063 346.563 93.348 339C89.7661 325.167 79.3805 311.393 73.8611 298C69.0809 286.4 68.1195 273.551 63.4375 262.04C59.087 251.345 42.3316 250.196 36.3673 239.985C30.3139 229.622 34.4074 216.181 30.6443 205C25.6814 190.254 15.4286 177.12 11.6088 162C6.13032 140.315 14.1465 114.612 23.3233 95C33.9777 72.2301 59.4365 52.8636 83 45.0895C91.0571 42.4313 99.779 42.1786 108 40.1266C138.754 32.45 170.032 28.3466 201 21.7893C246.999 12.0494 292.708 1.39142 340 1L309 0L240 0L0 0z"/>
<path style="fill:#070403; stroke:none;" d="M261 475C260.809 484.258 252.463 500.597 257.457 508.772C260.765 514.187 267.863 511.396 272 508.752C280.893 503.07 289.399 493.678 291 483L292 483C294.377 489.482 308.47 507.17 313.656 492.956C317.053 483.645 312.75 472.498 312 463C344.986 458.554 378.792 443.864 411 435.151C432.054 429.456 457.951 427.134 476.999 416.12C488.434 409.509 493.969 394.216 485.696 383.039C481.262 377.049 474.791 374.625 469.21 370.096C464.436 366.221 463.706 360.06 457 359C461.26 345.534 464.079 329.867 474.518 319.278C484.795 308.853 500.516 310.178 500.985 291C501.202 282.168 496.842 275.843 493.306 268C485.777 251.303 476.078 235.884 467.001 220C440.478 173.591 414.44 125.096 393.427 76C386.497 59.8068 378.437 43.5048 372.436 27C369.69 19.4469 367.168 6.88635 360.61 1.60339C355.495 -2.51642 343.02 0.124573 337 0.84491C318.859 3.01578 300.254 4.44714 282 5.91434C253.358 8.21652 226.035 16.6979 198 22.196C167.602 28.1576 137.084 32.6171 107 40.1266C98.779 42.1786 90.0571 42.4313 82 45.0895C59.7255 52.4384 38.4123 69.0978 26.0656 89C13.8381 108.71 5.82618 140.111 11.6088 163C15.4286 178.12 25.6814 191.254 30.6443 206C34.3873 217.122 30.2386 230.711 36.3673 240.96C42.3142 250.905 58.1675 251.769 63.0301 262.04C68.2658 273.099 68.8943 286.517 73.4498 298C78.9121 311.768 88.7661 325.005 92.9946 339C95.1719 346.206 91.1245 353.245 94.0656 361C98.7684 373.401 111.423 379.534 115.644 392C124.222 417.331 128.501 447.149 148.285 466.815C153.483 471.982 160.858 474.814 167 478.694C175.368 483.982 184.043 487.867 194 488.83C216.022 490.961 240.681 482.576 261 475z"/>
<path style="fill:#faf3ee; stroke:none;" d="M360 0C373.375 25.4204 382.336 52.8692 394.309 79C413.394 120.653 434.491 161.664 456.309 202C468.055 223.716 482.566 244.34 492.424 267C495.66 274.437 501.138 281.702 500.985 290C500.8 300.003 494.635 308.321 486 313.095C482.016 315.297 476.959 315.847 473.761 319.278C463.835 329.926 460.346 345.419 457 359C463.052 360.739 463.979 366.275 468.379 370.096C481.487 381.477 498.759 391.088 483.471 409.96C481.156 412.816 478.221 414.946 475 416.676C455.767 427.007 430.927 429.49 410 435.151C377.444 443.958 344.984 456.174 312 463C312.377 471.773 316.142 481.306 314.176 489.999C311.71 500.905 302.183 498.021 296.924 490.996C295.037 488.475 293.48 485.77 292 483L291 483C288.114 495.146 277.755 505.245 267 511L267 512L512 512L512 0L360 0z"/>
<path style="fill:#85705c; stroke:none;" d="M353 8L354 9L353 8z"/>
<path style="fill:#ab3332; stroke:none;" d="M354 8L357 11L354 8z"/>
<path style="fill:#85705c; stroke:none;" d="M348.667 9.33334L349.333 9.66666L348.667 9.33334z"/>
<path style="fill:#cdab34; stroke:none;" d="M316 14C321.447 32.8655 346.14 38.8234 363 42C364.174 37.3009 362.321 33.582 361.236 29C360.02 23.8623 359.516 13.1602 354.581 10.0424C351.265 7.94769 345.465 10.3437 342 11.1158C333.426 13.026 324.768 14 316 14z"/>
<path style="fill:#85705c; stroke:none;" d="M344 10L345 11L344 10z"/>
<path style="fill:#ab3332; stroke:none;" d="M339 11L340 12L339 11z"/>
<path style="fill:#85705c; stroke:none;" d="M340 11L341 12L340 11M356 11L357 12L356 11M333.667 12.3333L334.333 12.6667L333.667 12.3333z"/>
<path style="fill:#ab3332; stroke:none;" d="M322 13L323 14L322 13z"/>
<path style="fill:#85705c; stroke:none;" d="M323 13L323 14L328 14L323 13z"/>
<path style="fill:#ab3332; stroke:none;" d="M357 13L358 14L357 13z"/>
<path style="fill:#85705c; stroke:none;" d="M357 14L358 15L357 14z"/>
<path style="fill:#ab3332; stroke:none;" d="M81 59C96.1783 94.179 120.605 125.95 135.826 161C142.623 176.65 145.955 194.685 151.025 211C159.355 237.803 168.971 264.318 177.67 291C183.378 308.509 192.696 327.078 202.012 343C203.925 346.271 213.177 357.039 206.876 359.963C203.005 361.759 197.494 353.538 195.61 351C186.461 338.675 183.409 322.761 175 310C156.18 320.488 145.158 337.096 134.189 355C130.328 361.301 123.927 368.457 122.771 376C121.73 382.795 131.078 395.091 133.33 402C137.592 415.071 143.659 427.894 147.54 441C148.705 444.934 145.88 448.321 148.373 452C155.016 461.804 171.298 469.529 182 473.982C197.17 480.295 215.418 477.604 231 473.87C241.173 471.432 250.682 466.239 261 470L256 452C234.313 458.877 203.882 466.52 182 457.121C149.572 443.192 158.334 398.222 182 380.927C218.261 354.429 269.419 351.547 312 343.196C332.082 339.258 351.015 330.555 371 326.21C386.799 322.775 402.087 316.762 418 314.081C424.479 312.99 436.155 314.378 441.397 309.86C444.899 306.842 444.61 294.631 446.04 290C448.218 282.948 452.854 273.832 457.39 268C460.544 263.944 466.152 260.028 467.774 255C470.062 247.909 456.545 231.238 453 225C437.686 198.052 425.268 169.602 409.453 143C398.545 124.653 389.095 101.87 381.428 82C378.167 73.547 375.309 57.0087 369.005 50.6034C366.004 47.5531 358.955 49.1697 355 48.331C345.99 46.4202 337.982 42.0907 330 37.6944C324.527 34.68 318.617 31.3493 315.133 25.9854C313.237 23.0648 312.65 16.2588 308.772 15.4074C303.633 14.279 296.233 17.3603 291 17.9498C273.18 19.9574 255.535 23.0617 238 26.7893C196.793 35.549 154.908 41.5304 114 51.6258C103.018 54.3358 91.6451 55.0322 81 59z"/>
<path style="fill:#85705c; stroke:none;" d="M316 16L317 17L316 16M358 17L359 18L358 17M317 18L318 19L317 18z"/>
<path style="fill:#ab3332; stroke:none;" d="M318 20L319 21L318 20z"/>
<path style="fill:#85705c; stroke:none;" d="M359 20L360 21L359 20z"/>
<path style="fill:#ab3332; stroke:none;" d="M321 24L322 25L321 24M360 24L361 25L360 24z"/>
<path style="fill:#85705c; stroke:none;" d="M360 25L361 26L360 25M325 27L326 28L325 27z"/>
<path style="fill:#ab3332; stroke:none;" d="M328 29L329 30L328 29z"/>
<path style="fill:#85705c; stroke:none;" d="M361.333 29.6667L361.667 30.3333L361.333 29.6667M330 30L331 31L330 30M332 31L333 32L332 31M362 33L363 34L362 33M337 34L338 35L337 34M339 35L340 36L339 35M341 36L342 37L341 36M363 36L364 37L363 36M343 37L344 38L343 37M345 38L346 39L345 38M348.667 39.3333L349.333 39.6667L348.667 39.3333z"/>
<path style="fill:#ab3332; stroke:none;" d="M364 39L366 42L364 39z"/>
<path style="fill:#85705c; stroke:none;" d="M353.667 40.3333L354.333 40.6667L353.667 40.3333z"/>
<path style="fill:#ab3332; stroke:none;" d="M358 41L359 42L358 41z"/>
<path style="fill:#85705c; stroke:none;" d="M359.667 41.3333L360.333 41.6667L359.667 41.3333M363 41L364 42L363 41z"/>
<path style="fill:#ab3332; stroke:none;" d="M43 201C49.6016 178.084 67.7856 155.432 90 146.453C99.1008 142.774 107.595 142.591 117 141L102.32 114L78 61C39.0146 77.7991 16.8081 122.663 24.5401 164C26.6959 175.525 32.5683 194.304 43 201z"/>
<path style="fill:#070403; stroke:none;" d="M321.999 64.7423C309.23 63.2096 296.332 67.7774 284 70.196C259.404 75.0196 235.387 79.9478 211 85.8704C203.276 87.7461 194.972 89.8254 187 90.0509C184.071 90.1338 179.153 88.4687 176.832 90.8734C173.192 94.6436 179.6 106.841 181.004 111C186.932 128.563 194.642 144.747 201.385 162C203.398 167.15 203.218 177.907 210.019 178.837C217.168 179.815 224.896 176.59 232 176.09C265.192 173.75 297.614 165.617 330 158.424C338.558 156.524 347.257 154.016 356 153.17C359.681 152.814 365.482 154.113 368.397 151.258C374.119 145.653 364.967 134.835 362.312 130C358.04 122.221 355.496 113.629 350.985 106C346.283 98.0465 339.694 91.3412 335.64 83C332.825 77.2056 329.503 65.6429 321.999 64.7423z"/>
<path style="fill:#ab3332; stroke:none;" d="M318 72L319 73L318 72z"/>
<path style="fill:#85705c; stroke:none;" d="M319.667 72.3333L320.333 72.6667L319.667 72.3333z"/>
<path style="fill:#cdab34; stroke:none;" d="M211 172L324 151.627L351 145.754L359.252 142.682L351.427 126L322 72L216 91.5756L191 94.7855L182.816 96.3179L190.085 118L211 172z"/>
<path style="fill:#85705c; stroke:none;" d="M307.667 73.3333L308.333 73.6667L307.667 73.3333M322 73L323 74L322 73M302.667 74.3333L303.333 74.6667L302.667 74.3333z"/>
<path style="fill:#ab3332; stroke:none;" d="M298 75L299 76L298 75z"/>
<path style="fill:#85705c; stroke:none;" d="M299 75L300 76L299 75z"/>
<path style="fill:#ab3332; stroke:none;" d="M294 76L295 77L294 76z"/>
<path style="fill:#85705c; stroke:none;" d="M295 76L296 77L295 76M290.667 77.3333L291.333 77.6667L290.667 77.3333M324 77L325 78L324 77M285 78L285 79L288 79L285 78z"/>
<path style="fill:#ab3332; stroke:none;" d="M279 79L280 80L279 79z"/>
<path style="fill:#85705c; stroke:none;" d="M280.667 79.3333L281.333 79.6667L280.667 79.3333M325 79L326 80L325 79z"/>
<path style="fill:#ab3332; stroke:none;" d="M272 80L273 81L272 80z"/>
<path style="fill:#85705c; stroke:none;" d="M273 80L273 81L276 81L273 80M266 81L266 82L269 82L266 81M326 81L327 82L326 81M259 82L259 83L262 83L259 82M254.667 83.3333L255.333 83.6667L254.667 83.3333M327 83L328 84L327 83M249.667 84.3333L250.333 84.6667L249.667 84.3333M244.667 85.3333L245.333 85.6667L244.667 85.3333M328 85L329 86L328 85M239.667 86.3333L240.333 86.6667L239.667 86.3333M234.667 87.3333L235.333 87.6667L234.667 87.3333M329 87L330 88L329 87z"/>
<path style="fill:#ab3332; stroke:none;" d="M229 88L230 89L229 88z"/>
<path style="fill:#85705c; stroke:none;" d="M230.667 88.3333L231.333 88.6667L230.667 88.3333z"/>
<path style="fill:#ab3332; stroke:none;" d="M224 89L225 90L224 89z"/>
<path style="fill:#85705c; stroke:none;" d="M225.667 89.3333L226.333 89.6667L225.667 89.3333M330 89L331 90L330 89z"/>
<path style="fill:#ab3332; stroke:none;" d="M219 90L220 91L219 90z"/>
<path style="fill:#85705c; stroke:none;" d="M220.667 90.3333L221.333 90.6667L220.667 90.3333z"/>
<path style="fill:#070403; stroke:none;" d="M361 90C361.678 96.6276 370.887 120.152 379.852 118.168C386.917 116.605 381.919 103.266 378 101L379 115L363 90L361 90z"/>
<path style="fill:#85705c; stroke:none;" d="M214 91L214 92L217 92L214 91M331 91L332 92L331 91z"/>
<path style="fill:#ab3332; stroke:none;" d="M208 92L209 93L208 92z"/>
<path style="fill:#85705c; stroke:none;" d="M209.667 92.3333L210.333 92.6667L209.667 92.3333M332 92L333 93L332 92z"/>
<path style="fill:#ab3332; stroke:none;" d="M183 93L184 94L183 93z"/>
<path style="fill:#85705c; stroke:none;" d="M203 93L203 94L206 94L203 93M182 94L183 95L182 94M189 94L189 95L192 95L189 94z"/>
<path style="fill:#ab3332; stroke:none;" d="M192 94L192 95L198 95L192 94z"/>
<path style="fill:#85705c; stroke:none;" d="M333 94L334 95L333 94z"/>
<path style="fill:#ab3332; stroke:none;" d="M181 95L182 96L181 95z"/>
<path style="fill:#85705c; stroke:none;" d="M334 95L335 96L334 95M182 98L183 99L182 98M336 98L337 99L336 98M183 100L184 101L183 100M337 100L338 101L337 100z"/>
<path style="fill:#ab3332; stroke:none;" d="M338 101L339 102L338 101z"/>
<path style="fill:#85705c; stroke:none;" d="M184 102L185 103L184 102z"/>
<path style="fill:#ab3332; stroke:none;" d="M184 103L185 104L184 103z"/>
<path style="fill:#85705c; stroke:none;" d="M339 103L340 104L339 103z"/>
<path style="fill:#ab3332; stroke:none;" d="M340 104L341 105L340 104z"/>
<path style="fill:#85705c; stroke:none;" d="M185 105L186 106L185 105M340 105L341 106L340 105z"/>
<path style="fill:#ab3332; stroke:none;" d="M185 106L186 107L185 106z"/>
<path style="fill:#85705c; stroke:none;" d="M341 106L342 107L341 106M342 107L343 108L342 107M186.333 108.667L186.667 109.333L186.333 108.667z"/>
<path style="fill:#ab3332; stroke:none;" d="M343 108L344 109L343 108z"/>
<path style="fill:#85705c; stroke:none;" d="M187 111L188 112L187 111M201 111L202 112L201 111z"/>
<path style="fill:#ab3332; stroke:none;" d="M345 111L346 112L345 111M346 113L347 114L346 113z"/>
<path style="fill:#85705c; stroke:none;" d="M188 114L189 115L188 114z"/>
<path style="fill:#ab3332; stroke:none;" d="M347 115L348 116L347 115z"/>
<path style="fill:#85705c; stroke:none;" d="M189 116L190 117L189 116M190.333 118.667L190.667 119.333L190.333 118.667M348 118L349 119L348 118z"/>
<path style="fill:#ab3332; stroke:none;" d="M349 120L350 121L349 120z"/>
<path style="fill:#85705c; stroke:none;" d="M349 121L350 122L349 121M191 122L192 123L191 122z"/>
<path style="fill:#ab3332; stroke:none;" d="M191 123L192 124L191 123z"/>
<path style="fill:#85705c; stroke:none;" d="M350 123L351 124L350 123M192.333 126.667L192.667 127.333L192.333 126.667M351 126L352 127L351 126z"/>
<path style="fill:#ab3332; stroke:none;" d="M230 128L230 131L231 131L232 128L230 128z"/>
<path style="fill:#85705c; stroke:none;" d="M352 128L353 129L352 128M193 129L194 130L193 129M231 129L232 130L231 129z"/>
<path style="fill:#ab3332; stroke:none;" d="M353 130L354 131L353 130M194 132L195 133L194 132z"/>
<path style="fill:#85705c; stroke:none;" d="M355 134L356 135L355 134z"/>
<path style="fill:#070403; stroke:none;" d="M36 135C32.9154 144.133 27.7042 154.244 30 164L34 163L35 169C43.169 166.582 47.5997 151.799 48 144C41.3375 145.084 38.6952 153.116 37 159C36.4222 152.529 44.303 137.756 36 135z"/>
<path style="fill:#85705c; stroke:none;" d="M196 135L197 136L196 135z"/>
<path style="fill:#ab3332; stroke:none;" d="M356 135L357 136L356 135z"/>
<path style="fill:#85705c; stroke:none;" d="M197 136L198 137L197 136M357 137L358 138L357 137M198 138L199 139L198 138M358 138L359 139L358 138M113.667 141.333L114.333 141.667L113.667 141.333z"/>
<path style="fill:#cdab34; stroke:none;" d="M64 247C67.0577 238.85 67.9271 230.044 71.5147 222C77.5551 208.456 86.98 199.336 98 189.87C101.406 186.944 126.207 167.177 125 181C141.789 179.129 128.339 158.685 123.345 151C121.04 147.453 119.05 141.647 113.985 141.978C107.213 142.421 103.794 149.842 98 152.676C90.6855 156.253 83.3993 159.259 77 164.468C62.6018 176.187 47.8119 200.517 47.9961 219C48.04 223.396 46.7364 228.808 48.5285 232.961C50.9945 238.674 58.8785 243.797 64 247z"/>
<path style="fill:#85705c; stroke:none;" d="M116.667 141.333L117.333 141.667L116.667 141.333M200 141L201 142L200 141z"/>
<path style="fill:#ab3332; stroke:none;" d="M360 141L359 145C361.923 144.361 361.856 143.134 360 141z"/>
<path style="fill:#85705c; stroke:none;" d="M111 142L112 143L111 142M118 142L119 143L118 142M107 143L108 144L107 143M201.333 143.667L201.667 144.333L201.333 143.667M119 144L120 145L119 144M352.667 145.333L353.333 145.667L352.667 145.333z"/>
<path style="fill:#ab3332; stroke:none;" d="M354 145L355 146L354 145z"/>
<path style="fill:#85705c; stroke:none;" d="M106 146L107 147L106 146M120 146L121 147L120 146M202 146L203 147L202 146M346 146L346 147L349 147L346 146M341 147L342 148L341 147z"/>
<path style="fill:#ab3332; stroke:none;" d="M342.667 147.333L343.333 147.667L342.667 147.333z"/>
<path style="fill:#85705c; stroke:none;" d="M121 148L122 149L121 148z"/>
<path style="fill:#ab3332; stroke:none;" d="M334 148L334 149L339 149L334 148M103 149L104 150L103 149M122 149L123 150L122 149z"/>
<path style="fill:#85705c; stroke:none;" d="M203 149L204 150L203 149z"/>
<path style="fill:#ab3332; stroke:none;" d="M332.667 149.333L333.333 149.667L332.667 149.333z"/>
<path style="fill:#85705c; stroke:none;" d="M102 150L103 151L102 150M328.667 150.333L329.333 150.667L328.667 150.333M100 151L101 152L100 151M123 151L124 152L123 151M204 151L205 152L204 151M324.667 151.333L325.333 151.667L324.667 151.333M98 152L99 153L98 152z"/>
<path style="fill:#ab3332; stroke:none;" d="M204 152L205 153L204 152z"/>
<path style="fill:#85705c; stroke:none;" d="M320.667 152.333L321.333 152.667L320.667 152.333z"/>
<path style="fill:#ab3332; stroke:none;" d="M95 153L96 154L95 153z"/>
<path style="fill:#85705c; stroke:none;" d="M96 153L97 154L96 153M316.667 153.333L317.333 153.667L316.667 153.333z"/>
<path style="fill:#ab3332; stroke:none;" d="M93 154L94 155L93 154z"/>
<path style="fill:#85705c; stroke:none;" d="M125 154L126 155L125 154M205 154L206 155L205 154M312.667 154.333L313.333 154.667L312.667 154.333M91 155L92 156L91 155M308.667 155.333L309.333 155.667L308.667 155.333z"/>
<path style="fill:#070403; stroke:none;" d="M46 158C47.1592 163.041 42.9514 169.986 49 172C50.858 167.21 56.551 154.051 46 158z"/>
<path style="fill:#85705c; stroke:none;" d="M89 156L90 157L89 156M206 156L207 157L206 156M304.667 156.333L305.333 156.667L304.667 156.333M87 157L88 158L87 157M127 157L128 158L127 157M299.667 157.333L300.333 157.667L299.667 157.333z"/>
<path style="fill:#ab3332; stroke:none;" d="M301 157L302 158L301 157M128 158L129 159L128 158z"/>
<path style="fill:#85705c; stroke:none;" d="M207 158L208 159L207 158M295.667 158.333L296.333 158.667L295.667 158.333z"/>
<path style="fill:#ab3332; stroke:none;" d="M35.3333 159.667L35.6667 160.333L35.3333 159.667z"/>
<path style="fill:#85705c; stroke:none;" d="M84 159L85 160L84 159M290.667 159.333L291.333 159.667L290.667 159.333M82 160L83 161L82 160M129 160L130 161L129 160M285.667 160.333L286.333 160.667L285.667 160.333z"/>
<path style="fill:#ab3332; stroke:none;" d="M287 160L288 161L287 160M80 161L81 162L80 161z"/>
<path style="fill:#85705c; stroke:none;" d="M208 161L209 162L208 161M279 161L279 162L282 162L279 161z"/>
<path style="fill:#ab3332; stroke:none;" d="M34 162L35 163L34 162z"/>
<path style="fill:#85705c; stroke:none;" d="M79 162L80 163L79 162z"/>
<path style="fill:#ab3332; stroke:none;" d="M130 162L131 163L130 162z"/>
<path style="fill:#85705c; stroke:none;" d="M273 162L273 163L276 163L273 162M78 163L79 164L78 163M130 163L131 164L130 163M267 163L267 164L270 164L267 163z"/>
<path style="fill:#ab3332; stroke:none;" d="M76 164L77 165L76 164z"/>
<path style="fill:#85705c; stroke:none;" d="M209.333 164.667L209.667 165.333L209.333 164.667M261 164L261 165L264 165L261 164M75 165L76 166L75 165M131.333 165.667L131.667 166.333L131.333 165.667M255 165L255 166L258 166L255 165M74 166L75 167L74 166M249 166L249 167L252 167L249 166M73 167L74 168L73 167M241 167L241 168L246 168L241 167z"/>
<path style="fill:#070403; stroke:none;" d="M426 210L435 241C427.448 239.481 422.237 233.008 417.924 227C407.024 211.818 398.775 190.24 395 172L418 198C415.29 188.61 408.756 178.944 401.91 172.044C399.975 170.093 393.738 164.555 391.643 169.322C389.427 174.362 394.895 184.395 396.873 189C403.824 205.187 412.934 234.958 430 242.985C435.666 245.649 439.299 241.802 438.28 236C436.852 227.866 432.301 215.401 426 210z"/>
<path style="fill:#85705c; stroke:none;" d="M72 168L73 169L72 168z"/>
<path style="fill:#ab3332; stroke:none;" d="M132 168L133 169L132 168z"/>
<path style="fill:#85705c; stroke:none;" d="M230 168L230 169L234 169L230 168z"/>
<path style="fill:#ab3332; stroke:none;" d="M234 168L235 169L234 168z"/>
<path style="fill:#85705c; stroke:none;" d="M71 169L72 170L71 169M132 169L133 170L132 169M210 169L210 172L211 172L210 169M224 169L224 170L227 170L224 169M70 170L71 171L70 170M216 170L216 171L220 171L216 170z"/>
<path style="fill:#ab3332; stroke:none;" d="M220 170L221 171L220 170M69 171L70 172L69 171z"/>
<path style="fill:#85705c; stroke:none;" d="M213 171L214 172L213 171z"/>
<path style="fill:#ab3332; stroke:none;" d="M214 171L215 172L214 171z"/>
<path style="fill:#85705c; stroke:none;" d="M133 172L134 173L133 172z"/>
<path style="fill:#ab3332; stroke:none;" d="M211 172L212 173L211 172z"/>
<path style="fill:#85705c; stroke:none;" d="M68 173L69 174L68 173z"/>
<path style="fill:#ab3332; stroke:none;" d="M67 174L68 175L67 174z"/>
<path style="fill:#85705c; stroke:none;" d="M122 175L122 176L125 176L122 175z"/>
<path style="fill:#ab3332; stroke:none;" d="M134 175C130.12 180.207 125.081 180.283 120 183.684C110.785 189.853 101.588 197.517 94.439 206C83.4195 219.077 71.353 242.185 73.1744 260C74.7845 275.749 82.6436 289.479 90.1389 303C94.2869 310.483 97.4233 320.362 104 326C111.754 303.227 124.352 286.621 145 274.613C150.127 271.632 154.09 267.389 160 266L147.424 220L134 175z"/>
<path style="fill:#85705c; stroke:none;" d="M66 176L67 177L66 176M118 176L119 177L118 176z"/>
<path style="fill:#ab3332; stroke:none;" d="M125 176L126 177L125 176M65 177L66 178L65 177z"/>
<path style="fill:#85705c; stroke:none;" d="M115 177L116 178L115 177M113 178L114 179L113 178M64 179L65 180L64 179M111 179L112 180L111 179M125 179L126 180L125 179z"/>
<path style="fill:#ab3332; stroke:none;" d="M63 180L64 181L63 180z"/>
<path style="fill:#85705c; stroke:none;" d="M109 180L110 181L109 180M124 180L125 181L124 180M108 181L109 182L108 181M62 182L63 183L62 182M106 182L107 183L106 182z"/>
<path style="fill:#ab3332; stroke:none;" d="M61 183L62 184L61 183z"/>
<path style="fill:#85705c; stroke:none;" d="M105 183L106 184L105 183z"/>
<path style="fill:#ab3332; stroke:none;" d="M104 184L105 185L104 184z"/>
<path style="fill:#85705c; stroke:none;" d="M60 185L61 186L60 185M101 186L102 187L101 186M59 187L60 188L59 187M100 187L101 188L100 187z"/>
<path style="fill:#ab3332; stroke:none;" d="M58 188L59 189L58 188z"/>
<path style="fill:#85705c; stroke:none;" d="M99 188L100 189L99 188z"/>
<path style="fill:#ab3332; stroke:none;" d="M98 189L99 190L98 189z"/>
<path style="fill:#85705c; stroke:none;" d="M57 190L58 191L57 190M56 192L57 193L56 192M94 192L95 193L94 192M93 193L94 194L93 193M55 194L56 195L55 194M92 194L93 195L92 194z"/>
<path style="fill:#ab3332; stroke:none;" d="M54 195L55 196L54 195M91 195L92 196L91 195z"/>
<path style="fill:#85705c; stroke:none;" d="M53 197L54 198L53 197M88 197L89 198L88 197M87 198L88 199L87 198M52 199L53 200L52 199M86 199L87 200L86 199M85 200L86 201L85 200M51 201L52 202L51 201M84 201L85 202L84 201M83 202L84 203L83 202M50 203L51 204L50 203M82 203L83 204L82 203z"/>
<path style="fill:#ab3332; stroke:none;" d="M49 205L50 206L49 205M81 205L82 206L81 205z"/>
<path style="fill:#85705c; stroke:none;" d="M80 206L81 207L80 206z"/>
<path style="fill:#ab3332; stroke:none;" d="M48 207L49 208L48 207M47 209L48 210L47 209z"/>
<path style="fill:#85705c; stroke:none;" d="M78 209L79 210L78 209z"/>
<path style="fill:#ab3332; stroke:none;" d="M77 211L78 212L77 211z"/>
<path style="fill:#85705c; stroke:none;" d="M47.3333 212.667L47.6667 213.333L47.3333 212.667M76 212L77 213L76 212z"/>
<path style="fill:#ab3332; stroke:none;" d="M47 214L48 215L47 214z"/>
<path style="fill:#85705c; stroke:none;" d="M75 214L76 215L75 214M74 216L75 217L74 216M72 219L73 220L72 219M71 221L72 222L71 221z"/>
<path style="fill:#ab3332; stroke:none;" d="M47 223L48 224L47 223z"/>
<path style="fill:#85705c; stroke:none;" d="M47 224L47 228L48 228L47 224M70 224L71 225L70 224M69 227L70 228L69 227M47 229L47 232L48 232L47 229M68 230L69 231L68 230z"/>
<path style="fill:#ab3332; stroke:none;" d="M47 232L48 233L47 232z"/>
<path style="fill:#85705c; stroke:none;" d="M67 233L68 234L67 233M48 234L49 235L48 234z"/>
<path style="fill:#ab3332; stroke:none;" d="M67 234L68 235L67 234z"/>
<path style="fill:#85705c; stroke:none;" d="M49 235L50 236L49 235z"/>
<path style="fill:#ab3332; stroke:none;" d="M50 236L51 237L50 236z"/>
<path style="fill:#85705c; stroke:none;" d="M52 237L53 238L52 237M66.3333 237.667L66.6667 238.333L66.3333 237.667M53 238L54 239L53 238z"/>
<path style="fill:#ab3332; stroke:none;" d="M54 239L55 240L54 239z"/>
<path style="fill:#85705c; stroke:none;" d="M55 240L56 241L55 240z"/>
<path style="fill:#070403; stroke:none;" d="M91 240C87.1886 248.856 82.4976 260.578 86 270C93.1208 267.206 98.1892 244.063 91 240z"/>
<path style="fill:#85705c; stroke:none;" d="M56 241L57 242L56 241M57 242L58 243L57 242M65 242L65 245L66 245L65 242z"/>
<path style="fill:#ab3332; stroke:none;" d="M58 243L59 244L58 243z"/>
<path style="fill:#85705c; stroke:none;" d="M60 244L61 245L60 244M61 245L62 246L61 245M64 246L65 247L64 246z"/>
<path style="fill:#070403; stroke:none;" d="M100 251C98.6433 258.611 86.1243 273.554 96 279C98.39 272.767 109.358 253.867 100 251z"/>
<path style="fill:#ab3332; stroke:none;" d="M470 261L473 261L472 259L470 261z"/>
<path style="fill:#85705c; stroke:none;" d="M469 261L470 262L469 261z"/>
<path style="fill:#cdab34; stroke:none;" d="M451 307C462.479 306.507 480.772 304.184 486.909 292.999C489.957 287.444 479.463 274.662 477 269C476.02 266.748 474.736 262.349 471.826 261.921C468.019 261.362 463.967 268.366 462.248 271C454.996 282.111 452.623 294.161 451 307z"/>
<path style="fill:#85705c; stroke:none;" d="M473 261L474 262L473 261M474 263L475 264L474 263M467 264L468 265L467 264M475 265L476 266L475 265M156.667 266.333L157.333 266.667L156.667 266.333z"/>
<path style="fill:#cdab34; stroke:none;" d="M144 275C146.41 281.817 132.873 291.076 128.754 296C118.128 308.702 112.484 325.462 107.367 341C104.812 348.755 99.6082 353.96 105.652 361.941C110.683 368.586 117.696 365.265 122.101 359.91C133.415 346.158 139.826 329.614 153.004 317.043C156.699 313.519 169.815 309.858 171.292 305.697C172.435 302.478 169.642 297.078 168.656 294C165.699 284.771 163.921 274.857 160 266L144 275z"/>
<path style="fill:#85705c; stroke:none;" d="M160 266L161 267L160 266M153 268L154 269L153 268M161.333 268.667L161.667 269.333L161.333 268.667M463 269L464 270L463 269z"/>
<path style="fill:#070403; stroke:none;" d="M102 290L104 290C105.254 286.658 110.011 273.263 104.741 271.461C98.0007 269.158 100.905 287.405 102 290z"/>
<path style="fill:#85705c; stroke:none;" d="M150 270L151 271L150 270M462 270L463 271L462 270M477 270L478 271L477 270M149 271L150 272L149 271z"/>
<path style="fill:#ab3332; stroke:none;" d="M162 271L163 272L162 271z"/>
<path style="fill:#85705c; stroke:none;" d="M162 272L163 273L162 272M478 272L479 273L478 272M146 273L147 274L146 273M460 273L461 274L460 273M479 274L480 275L479 274M163.333 275.667L163.667 276.333L163.333 275.667M145 276L145 279L146 279L145 276M459 276L460 277L459 276z"/>
<path style="fill:#ab3332; stroke:none;" d="M480 276L481 277L480 276M458 278L459 279L458 278M481 278L482 279L481 278z"/>
<path style="fill:#85705c; stroke:none;" d="M144 279L145 280L144 279M164.333 279.667L164.667 280.333L164.333 279.667M458 279L459 280L458 279M143 280L144 281L143 280M482 280L483 281L482 280M142 281L143 282L142 281z"/>
<path style="fill:#ab3332; stroke:none;" d="M457 281L458 282L457 281z"/>
<path style="fill:#85705c; stroke:none;" d="M141 282L142 283L141 282z"/>
<path style="fill:#ab3332; stroke:none;" d="M165 282L166 283L165 282z"/>
<path style="fill:#85705c; stroke:none;" d="M483 282L484 283L483 282M140 283L141 284L140 283M165 283L166 284L165 283M456 283L457 284L456 283M139 284L140 285L139 284z"/>
<path style="fill:#ab3332; stroke:none;" d="M138 285L139 286L138 285z"/>
<path style="fill:#85705c; stroke:none;" d="M485 285L486 286L485 285z"/>
<path style="fill:#ab3332; stroke:none;" d="M137 286L138 287L137 286z"/>
<path style="fill:#85705c; stroke:none;" d="M166.333 286.667L166.667 287.333L166.333 286.667z"/>
<path style="fill:#ab3332; stroke:none;" d="M454 286L455 287L454 286M136 287L137 288L136 287M135 288L136 289L135 288z"/>
<path style="fill:#85705c; stroke:none;" d="M134 289L135 290L134 289z"/>
<path style="fill:#ab3332; stroke:none;" d="M167 289L168 290L167 289z"/>
<path style="fill:#85705c; stroke:none;" d="M453 289L454 290L453 289M133 290L134 291L133 290M167 290L168 291L167 290z"/>
<path style="fill:#ab3332; stroke:none;" d="M489 290L490 291L489 290M132 291L133 292L132 291z"/>
<path style="fill:#85705c; stroke:none;" d="M488 291L489 292L488 291z"/>
<path style="fill:#ab3332; stroke:none;" d="M168 292L169 293L168 292z"/>
<path style="fill:#85705c; stroke:none;" d="M452.333 292.667L452.667 293.333L452.333 292.667M487 292L488 293L487 292M168 293L169 294L168 293M486 293L487 294L486 293M129 295L130 296L129 295M128 296L129 297L128 296M169 296L170 297L169 296M127 297L128 298L127 297z"/>
<path style="fill:#ab3332; stroke:none;" d="M483 297L484 298L483 297M126 298L127 299L126 298M482 298L483 299L482 298z"/>
<path style="fill:#85705c; stroke:none;" d="M170.333 299.667L170.667 300.333L170.333 299.667M451 299L451 304L452 304L451 299M479 300L480 301L479 300M124 301L125 302L124 301M477 301L478 302L477 301M123 302L124 303L123 302M171 302L172 303L171 302M474 302L475 303L474 302M471 303L472 304L471 303z"/>
<path style="fill:#ab3332; stroke:none;" d="M172 304L172 307L173 307L172 304z"/>
<path style="fill:#85705c; stroke:none;" d="M467 304L468 305L467 304z"/>
<path style="fill:#ab3332; stroke:none;" d="M121 305L122 306L121 305z"/>
<path style="fill:#85705c; stroke:none;" d="M462 305L463 306L462 305z"/>
<path style="fill:#ab3332; stroke:none;" d="M463 305L464 306L463 305z"/>
<path style="fill:#070403; stroke:none;" d="M332 323C340.405 322.827 348.68 320.403 357 319.282C374.995 316.858 394.689 315.686 411 307C405.054 304.506 397.094 307.183 391 308.4C377.096 311.177 362.792 312.576 349 315.665C343.65 316.863 334.972 318.137 332 323z"/>
<path style="fill:#85705c; stroke:none;" d="M456.667 306.333L457.333 306.667L456.667 306.333z"/>
<path style="fill:#ab3332; stroke:none;" d="M120 307L121 308L120 307M171 307L172 308L171 307z"/>
<path style="fill:#85705c; stroke:none;" d="M451.667 307.333L452.333 307.667L451.667 307.333M167.667 308.333L168.333 308.667L167.667 308.333z"/>
<path style="fill:#ab3332; stroke:none;" d="M119 309L120 310L119 309z"/>
<path style="fill:#85705c; stroke:none;" d="M164.667 309.333L165.333 309.667L164.667 309.333M119 310L120 311L119 310M162 310L163 311L162 310M160 311L161 312L160 311M118 312L119 313L118 312M158 312L159 313L158 312M156 313L157 314L156 313z"/>
<path style="fill:#ab3332; stroke:none;" d="M117 314L118 315L117 314z"/>
<path style="fill:#85705c; stroke:none;" d="M155 314L156 315L155 314M117 315L118 316L117 315M154 315L155 316L154 315z"/>
<path style="fill:#ab3332; stroke:none;" d="M153 316L154 317L153 316z"/>
<path style="fill:#85705c; stroke:none;" d="M116 317L117 318L116 317M115 319L116 320L115 319z"/>
<path style="fill:#ab3332; stroke:none;" d="M150 319L151 320L150 319z"/>
<path style="fill:#85705c; stroke:none;" d="M462 319L462 320L462 323L466 319L462 319z"/>
<path style="fill:#cdab34; stroke:none;" d="M464 319L465 320L464 319z"/>
<path style="fill:#85705c; stroke:none;" d="M149 320L150 321L149 320M458.667 320.333L459.333 320.667L458.667 320.333z"/>
<path style="fill:#cdab34; stroke:none;" d="M460 320L461 321L460 320z"/>
<path style="fill:#faf3ee; stroke:none;" d="M325 349L325 350C338.332 349.991 353.985 350.042 367 347.112C382.381 343.649 403.582 334.494 419 341L368 351C367.329 357.109 360.106 359.863 355 362L355 363L428 344C426.359 349.844 415.807 361.624 411 353C365.622 370.505 315.311 374.578 268 384.79C254.527 387.698 237.524 387.715 225 393L224 389L245 386L245 385L241 378L209 387L208 386L208 384L260.941 368.072L268.147 361.651L288 357L288 356C264.349 357.016 240.768 364.9 219 373.6C206.018 378.789 194.307 383.136 184.001 393.039C163.616 412.626 170.145 447.488 200 451.79C218.106 454.399 235.342 445.405 253 444L248 428C237.777 429.43 228.07 431.109 218 433.627C214.293 434.553 207.977 437.462 204.207 436.227C198.097 434.226 210.377 428.676 212 428L212 427L185 433C187.63 428.184 192.984 427.875 198 426.79C208.374 424.547 218.568 421.889 229 419.905C238.484 418.102 247.43 414.153 257 412.424C287.378 406.936 317.888 404.189 348 397L349 400C365.202 397.607 382.02 390.738 398 386.63C401.658 385.689 412.643 381.013 414.744 386.243C418.514 395.632 394.152 399.098 389 400.21C357.967 406.908 327.134 413.962 296 420L303 434C352.048 420.006 402.67 407.413 450 388C439.321 361.829 448.929 341.652 464 320L325 349z"/>
<path style="fill:#85705c; stroke:none;" d="M114 321L115 322L114 321M148 321L149 322L148 321M454.667 321.333L455.333 321.667L454.667 321.333z"/>
<path style="fill:#cdab34; stroke:none;" d="M456 321L457 322L456 321z"/>
<path style="fill:#85705c; stroke:none;" d="M147 322L148 323L147 322M451 322L452 323L451 322z"/>
<path style="fill:#cdab34; stroke:none;" d="M452 322L453 323L452 322z"/>
<path style="fill:#ab3332; stroke:none;" d="M113 323L114 324L113 323z"/>
<path style="fill:#85705c; stroke:none;" d="M447 323L448 324L447 323z"/>
<path style="fill:#cdab34; stroke:none;" d="M448 323L449 324L448 323M461 323L462 324L461 323z"/>
<path style="fill:#85705c; stroke:none;" d="M113 324L114 325L113 324M443.667 324.333L444.333 324.667L443.667 324.333z"/>
<path style="fill:#cdab34; stroke:none;" d="M445 324L446 325L445 324M460 324L461 325L460 324z"/>
<path style="fill:#85705c; stroke:none;" d="M439.667 325.333L440.333 325.667L439.667 325.333z"/>
<path style="fill:#cdab34; stroke:none;" d="M441 325L442 326L441 325M459 325L460 326L459 325z"/>
<path style="fill:#85705c; stroke:none;" d="M112 326L113 327L112 326z"/>
<path style="fill:#ab3332; stroke:none;" d="M144 326L145 327L144 326z"/>
<path style="fill:#070403; stroke:none;" d="M222 345C244.617 338.549 274.531 340.888 295 329L295 327L294 326C276.086 330.095 257.931 332.144 240 336.627C233.952 338.139 224.135 338.219 222 345z"/>
<path style="fill:#85705c; stroke:none;" d="M433 326L433 327L436 327L433 326z"/>
<path style="fill:#cdab34; stroke:none;" d="M436 326L437 327L436 326M458 326L459 327L458 326z"/>
<path style="fill:#85705c; stroke:none;" d="M143 327L144 328L143 327M419 327L419 328L424 328L419 327z"/>
<path style="fill:#cdab34; stroke:none;" d="M424 327L424 328L428 328L424 327z"/>
<path style="fill:#85705c; stroke:none;" d="M111 328L112 329L111 328M142 328L143 329L142 328M414.667 328.333L415.333 328.667L414.667 328.333z"/>
<path style="fill:#cdab34; stroke:none;" d="M416 328L417 329L416 328z"/>
<path style="fill:#85705c; stroke:none;" d="M457 328L458 329L457 328M409.667 329.333L410.333 329.667L409.667 329.333z"/>
<path style="fill:#cdab34; stroke:none;" d="M411 329L412 330L411 329M456 329L457 330L456 329z"/>
<path style="fill:#85705c; stroke:none;" d="M110 330L111 331L110 330M404.667 330.333L405.333 330.667L404.667 330.333z"/>
<path style="fill:#cdab34; stroke:none;" d="M406 330L407 331L406 330z"/>
<path style="fill:#85705c; stroke:none;" d="M456 330L457 331L456 330M140 331L141 332L140 331M400.667 331.333L401.333 331.667L400.667 331.333z"/>
<path style="fill:#cdab34; stroke:none;" d="M402 331L403 332L402 331M455 331L456 332L455 331z"/>
<path style="fill:#ab3332; stroke:none;" d="M109 332L110 333L109 332z"/>
<path style="fill:#85705c; stroke:none;" d="M139 332L140 333L139 332M397 332L398 333L397 332z"/>
<path style="fill:#cdab34; stroke:none;" d="M398 332L399 333L398 332z"/>
<path style="fill:#85705c; stroke:none;" d="M109 333L110 334L109 333M393 333L394 334L393 333z"/>
<path style="fill:#cdab34; stroke:none;" d="M394 333L395 334L394 333z"/>
<path style="fill:#85705c; stroke:none;" d="M454 333L455 334L454 333M138 334L139 335L138 334M389 334L390 335L389 334z"/>
<path style="fill:#cdab34; stroke:none;" d="M390 334L391 335L390 334M453 334L454 335L453 334z"/>
<path style="fill:#85705c; stroke:none;" d="M108 335L109 336L108 335M137 335L138 336L137 335M383.667 335.333L384.333 335.667L383.667 335.333z"/>
<path style="fill:#cdab34; stroke:none;" d="M385.667 335.333L386.333 335.667L385.667 335.333z"/>
<path style="fill:#85705c; stroke:none;" d="M378.667 336.333L379.333 336.667L378.667 336.333z"/>
<path style="fill:#cdab34; stroke:none;" d="M380 336L381 337L380 336z"/>
<path style="fill:#85705c; stroke:none;" d="M452 336L453 337L452 336z"/>
<path style="fill:#ab3332; stroke:none;" d="M107 337L107 341L108 341L107 337z"/>
<path style="fill:#85705c; stroke:none;" d="M136 337L137 338L136 337M372.667 337.333L373.333 337.667L372.667 337.333z"/>
<path style="fill:#cdab34; stroke:none;" d="M374.667 337.333L375.333 337.667L374.667 337.333z"/>
<path style="fill:#85705c; stroke:none;" d="M135 338L136 339L135 338M367.667 338.333L368.333 338.667L367.667 338.333z"/>
<path style="fill:#cdab34; stroke:none;" d="M369.667 338.333L370.333 338.667L369.667 338.333M451 338L452 339L451 338z"/>
<path style="fill:#85705c; stroke:none;" d="M364 339L365 340L364 339z"/>
<path style="fill:#cdab34; stroke:none;" d="M365 339L366 340L365 339M403.667 339.333L404.333 339.667L403.667 339.333z"/>
<path style="fill:#85705c; stroke:none;" d="M405 339L405 340L413 340L405 339z"/>
<path style="fill:#cdab34; stroke:none;" d="M413 339L413 340L416 340L413 339z"/>
<path style="fill:#ab3332; stroke:none;" d="M134 340L135 341L134 340z"/>
<path style="fill:#85705c; stroke:none;" d="M361 340L362 341L361 340z"/>
<path style="fill:#cdab34; stroke:none;" d="M362 340L363 341L362 340M395.667 340.333L396.333 340.667L395.667 340.333z"/>
<path style="fill:#85705c; stroke:none;" d="M397 340L397 341L400 341L397 340z"/>
<path style="fill:#070403; stroke:none;" d="M318 361L318 362C351.791 359.24 383.546 342.711 418 342L418 340C395.118 340 374.086 345.605 352 351.127C340.934 353.893 328.21 355.875 318 361z"/>
<path style="fill:#85705c; stroke:none;" d="M418.333 340.667L418.667 341.333L418.333 340.667z"/>
<path style="fill:#cdab34; stroke:none;" d="M450 340L451 341L450 340z"/>
<path style="fill:#85705c; stroke:none;" d="M107 341L108 342L107 341M133 341L134 342L133 341z"/>
<path style="fill:#cdab34; stroke:none;" d="M390 341L391 342L390 341z"/>
<path style="fill:#85705c; stroke:none;" d="M391.667 341.333L392.333 341.667L391.667 341.333M450 341L451 342L450 341M354 342L355 343L354 342z"/>
<path style="fill:#cdab34; stroke:none;" d="M355 342L356 343L355 342M385 342L386 343L385 342z"/>
<path style="fill:#85705c; stroke:none;" d="M386.667 342.333L387.333 342.667L386.667 342.333M411 342L411 343L414 343L411 342z"/>
<path style="fill:#cdab34; stroke:none;" d="M414.667 342.333L415.333 342.667L414.667 342.333z"/>
<path style="fill:#ab3332; stroke:none;" d="M106 343L107 344L106 343z"/>
<path style="fill:#85705c; stroke:none;" d="M132 343L133 344L132 343M350 343L351 344L350 343z"/>
<path style="fill:#cdab34; stroke:none;" d="M351 343L352 344L351 343M381 343L382 344L381 343z"/>
<path style="fill:#85705c; stroke:none;" d="M382.667 343.333L383.333 343.667L382.667 343.333M403 343L403 344L407 344L403 343z"/>
<path style="fill:#cdab34; stroke:none;" d="M407 343L408 344L407 343z"/>
<path style="fill:#85705c; stroke:none;" d="M449 343L450 344L449 343M343.667 344.333L344.333 344.667L343.667 344.333z"/>
<path style="fill:#cdab34; stroke:none;" d="M345 344L346 345L345 344M377 344L378 345L377 344z"/>
<path style="fill:#85705c; stroke:none;" d="M378 344L379 345L378 344M395 344L395 345L398 345L395 344z"/>
<path style="fill:#cdab34; stroke:none;" d="M398.667 344.333L399.333 344.667L398.667 344.333M428 344C425.536 344.369 423.297 344.886 420.999 345.901C418.756 346.892 407.849 352.376 412.623 355.971C418.641 360.504 427.263 348.773 428 344z"/>
<path style="fill:#85705c; stroke:none;" d="M105 345L106 346L105 345z"/>
<path style="fill:#ab3332; stroke:none;" d="M131 345L132 346L131 345z"/>
<path style="fill:#85705c; stroke:none;" d="M337.667 345.333L338.333 345.667L337.667 345.333z"/>
<path style="fill:#cdab34; stroke:none;" d="M339.667 345.333L340.333 345.667L339.667 345.333M373 345L374 346L373 345z"/>
<path style="fill:#85705c; stroke:none;" d="M374 345L375 346L374 345M389.667 345.333L390.333 345.667L389.667 345.333z"/>
<path style="fill:#cdab34; stroke:none;" d="M391 345L392 346L391 345M448 345L449 346L448 345z"/>
<path style="fill:#85705c; stroke:none;" d="M130 346L131 347L130 346M333.667 346.333L334.333 346.667L333.667 346.333z"/>
<path style="fill:#cdab34; stroke:none;" d="M335 346L336 347L335 346M369 346L370 347L369 346z"/>
<path style="fill:#85705c; stroke:none;" d="M370 346L371 347L370 346M384.667 346.333L385.333 346.667L384.667 346.333z"/>
<path style="fill:#cdab34; stroke:none;" d="M386 346L387 347L386 346z"/>
<path style="fill:#85705c; stroke:none;" d="M448 346L449 347L448 346M330 347L331 348L330 347z"/>
<path style="fill:#cdab34; stroke:none;" d="M331 347L332 348L331 347M365 347L366 348L365 347z"/>
<path style="fill:#85705c; stroke:none;" d="M366 347L367 348L366 347M379.667 347.333L380.333 347.667L379.667 347.333z"/>
<path style="fill:#cdab34; stroke:none;" d="M381 347L382 348L381 347z"/>
<path style="fill:#85705c; stroke:none;" d="M103 348L104 349L103 348M129 348L130 349L129 348M326.667 348.333L327.333 348.667L326.667 348.333z"/>
<path style="fill:#cdab34; stroke:none;" d="M328 348L329 349L328 348M263 367L263 368L313 363L313 364C295.806 365.359 275.001 375.318 258 372L241 377C241.47 391.453 261.185 382.088 270 380.211C294.929 374.902 320.013 370.43 345 365.4C353.895 363.609 366.899 360.078 369 350C354.042 354.752 333.665 362.138 318 362L318 360L362 349C355.794 346.396 346.697 348.924 340 349.004C321.65 349.222 301.762 352.6 284 357.311C275.042 359.687 268.965 359.832 263 367z"/>
<path style="fill:#85705c; stroke:none;" d="M362 348L363 349L362 348M375.667 348.333L376.333 348.667L375.667 348.333z"/>
<path style="fill:#cdab34; stroke:none;" d="M377 348L378 349L377 348M411 348L412 349L411 348z"/>
<path style="fill:#85705c; stroke:none;" d="M412.667 348.333L413.333 348.667L412.667 348.333z"/>
<path style="fill:#cdab34; stroke:none;" d="M447 348L448 349L447 348z"/>
<path style="fill:#85705c; stroke:none;" d="M323 349L324 350L323 349M357.667 349.333L358.333 349.667L357.667 349.333M371 349L372 350L371 349z"/>
<path style="fill:#cdab34; stroke:none;" d="M372.667 349.333L373.333 349.667L372.667 349.333M409 349L410 350L409 349z"/>
<path style="fill:#85705c; stroke:none;" d="M410 349L411 350L410 349z"/>
<path style="fill:#070403; stroke:none;" d="M224 391C239.31 393.464 258.958 386.117 274 383.003C305.885 376.401 338.37 372.141 370 364.374C383.075 361.163 404.803 359.727 414 349L369 360.349L280 378.4L243 386.385L224 391z"/>
<path style="fill:#85705c; stroke:none;" d="M447.333 349.667L447.667 350.333L447.333 349.667M102 350L103 351L102 350M128 350L129 351L128 350M319.667 350.333L320.333 350.667L319.667 350.333M353.667 350.333L354.333 350.667L353.667 350.333M367 350L368 351L367 350z"/>
<path style="fill:#cdab34; stroke:none;" d="M405 350L406 351L405 350z"/>
<path style="fill:#85705c; stroke:none;" d="M406.667 350.333L407.333 350.667L406.667 350.333M413 350L414 351L413 350M314 351L314 352L317 352L314 351M349.667 351.333L350.333 351.667L349.667 351.333M362 351L362 352L365 352L362 351z"/>
<path style="fill:#cdab34; stroke:none;" d="M401 351L402 352L401 351z"/>
<path style="fill:#85705c; stroke:none;" d="M402.667 351.333L403.333 351.667L402.667 351.333M412 351L413 352L412 351M308 352L308 353L311 353L308 352M345.667 352.333L346.333 352.667L345.667 352.333M358.667 352.333L359.333 352.667L358.667 352.333z"/>
<path style="fill:#cdab34; stroke:none;" d="M398 352L399 353L398 352z"/>
<path style="fill:#85705c; stroke:none;" d="M399 352L400 353L399 352M410 352L411 353L410 352z"/>
<path style="fill:#cdab34; stroke:none;" d="M446 352L447 353L446 352z"/>
<path style="fill:#85705c; stroke:none;" d="M126 353L127 354L126 353M301 353L301 354L304 354L301 353M341.667 353.333L342.333 353.667L341.667 353.333M354.667 353.333L355.333 353.667L354.667 353.333z"/>
<path style="fill:#cdab34; stroke:none;" d="M395 353L396 354L395 353z"/>
<path style="fill:#85705c; stroke:none;" d="M396 353L397 354L396 353M408 353L409 354L408 353z"/>
<path style="fill:#cdab34; stroke:none;" d="M409 353L410 354L409 353z"/>
<path style="fill:#85705c; stroke:none;" d="M446.333 353.667L446.667 354.333L446.333 353.667M102.333 354.667L102.667 355.333L102.333 354.667M294 354L294 355L297 355L294 354M338 354L339 355L338 354M350.667 354.333L351.333 354.667L350.667 354.333z"/>
<path style="fill:#cdab34; stroke:none;" d="M391 354L392 355L391 354z"/>
<path style="fill:#85705c; stroke:none;" d="M392.667 354.333L393.333 354.667L392.667 354.333M406 354L407 355L406 354z"/>
<path style="fill:#cdab34; stroke:none;" d="M407 354L408 355L407 354z"/>
<path style="fill:#ab3332; stroke:none;" d="M125 355L126 356L125 355z"/>
<path style="fill:#85705c; stroke:none;" d="M286 355L286 356L289 356L286 355z"/>
<path style="fill:#faf3ee; stroke:none;" d="M291.667 355.333L292.333 355.667L291.667 355.333z"/>
<path style="fill:#85705c; stroke:none;" d="M334.667 355.333L335.333 355.667L334.667 355.333M346.667 355.333L347.333 355.667L346.667 355.333z"/>
<path style="fill:#cdab34; stroke:none;" d="M387 355L388 356L387 355z"/>
<path style="fill:#85705c; stroke:none;" d="M388.667 355.333L389.333 355.667L388.667 355.333M403 355L404 356L403 355z"/>
<path style="fill:#cdab34; stroke:none;" d="M404 355L405 356L404 355z"/>
<path style="fill:#85705c; stroke:none;" d="M124 356L125 357L124 356M277 356L277 357L281 357L277 356z"/>
<path style="fill:#cdab34; stroke:none;" d="M281.667 356.333L282.333 356.667L281.667 356.333z"/>
<path style="fill:#85705c; stroke:none;" d="M330.667 356.333L331.333 356.667L330.667 356.333M342 356L343 357L342 356z"/>
<path style="fill:#cdab34; stroke:none;" d="M383 356L384 357L383 356z"/>
<path style="fill:#85705c; stroke:none;" d="M384.667 356.333L385.333 356.667L384.667 356.333M400 356L401 357L400 356z"/>
<path style="fill:#cdab34; stroke:none;" d="M401 356L402 357L401 356M445.333 356.667L445.667 357.333L445.333 356.667z"/>
<path style="fill:#85705c; stroke:none;" d="M270 357L270 358L273 358L270 357z"/>
<path style="fill:#cdab34; stroke:none;" d="M273.667 357.333L274.333 357.667L273.667 357.333z"/>
<path style="fill:#85705c; stroke:none;" d="M327.667 357.333L328.333 357.667L327.667 357.333M338.667 357.333L339.333 357.667L338.667 357.333z"/>
<path style="fill:#cdab34; stroke:none;" d="M379 357L380 358L379 357z"/>
<path style="fill:#85705c; stroke:none;" d="M380.667 357.333L381.333 357.667L380.667 357.333M397 357L398 358L397 357z"/>
<path style="fill:#cdab34; stroke:none;" d="M398 357L399 358L398 357z"/>
<path style="fill:#85705c; stroke:none;" d="M103 358L104 359L103 358M266.667 358.333L267.333 358.667L266.667 358.333z"/>
<path style="fill:#cdab34; stroke:none;" d="M268 358L269 359L268 358z"/>
<path style="fill:#85705c; stroke:none;" d="M323.667 358.333L324.333 358.667L323.667 358.333M334.667 358.333L335.333 358.667L334.667 358.333z"/>
<path style="fill:#cdab34; stroke:none;" d="M375 358L376 359L375 358z"/>
<path style="fill:#85705c; stroke:none;" d="M376 358L377 359L376 358M393.667 358.333L394.333 358.667L393.667 358.333z"/>
<path style="fill:#cdab34; stroke:none;" d="M395 358L396 359L395 358z"/>
<path style="fill:#85705c; stroke:none;" d="M445 358L445 361L446 361L445 358M122 359L123 360L122 359M262.667 359.333L263.333 359.667L262.667 359.333z"/>
<path style="fill:#cdab34; stroke:none;" d="M264 359L265 360L264 359z"/>
<path style="fill:#85705c; stroke:none;" d="M320 359L321 360L320 359M330.667 359.333L331.333 359.667L330.667 359.333z"/>
<path style="fill:#cdab34; stroke:none;" d="M370.667 359.333L371.333 359.667L370.667 359.333z"/>
<path style="fill:#85705c; stroke:none;" d="M372 359L373 360L372 359M390 359L391 360L390 359z"/>
<path style="fill:#cdab34; stroke:none;" d="M391 359L392 360L391 359M212 401L212 402L217 402C211.797 407.033 202.93 408.57 196 410L196 411C205.833 416.115 220.684 408.317 231 406.586C261.799 401.42 293.899 390.692 325 389L330 388C330 385.146 331.686 386.33 334 387C334 383.915 336.558 385.55 339 386L339 385L337 385L337 384L366 380C362.843 385.563 355.948 386.527 350 387L350 388L380 382L379 378C387.477 375.618 399.609 376.325 406.996 371.411C409.576 369.695 414.805 365.043 412.863 361.434C410.775 357.553 404.922 360.098 402 361.193C392.676 364.686 380.953 371.471 371 372.043C351.557 373.161 334.432 372.641 315 377.475C281.62 385.78 246.843 400.904 212 401z"/>
<path style="fill:#85705c; stroke:none;" d="M104 360L105 361L104 360M121 360L122 361L121 360z"/>
<path style="fill:#070403; stroke:none;" d="M140 385C141.532 382.093 142.665 379.167 143.573 376L145.424 369C146.075 366.597 147.164 356.931 141.799 361.623C136.882 365.922 132.725 382.136 140 385z"/>
<path style="fill:#85705c; stroke:none;" d="M258.667 360.333L259.333 360.667L258.667 360.333z"/>
<path style="fill:#cdab34; stroke:none;" d="M260 360L261 361L260 360z"/>
<path style="fill:#85705c; stroke:none;" d="M318 360L319 361L318 360M326.667 360.333L327.333 360.667L326.667 360.333z"/>
<path style="fill:#cdab34; stroke:none;" d="M366 360L367 361L366 360z"/>
<path style="fill:#85705c; stroke:none;" d="M367.667 360.333L368.333 360.667L367.667 360.333M386.667 360.333L387.333 360.667L386.667 360.333M253.667 361.333L254.333 361.667L253.667 361.333z"/>
<path style="fill:#cdab34; stroke:none;" d="M255.667 361.333L256.333 361.667L255.667 361.333z"/>
<path style="fill:#85705c; stroke:none;" d="M322.667 361.333L323.333 361.667L322.667 361.333z"/>
<path style="fill:#cdab34; stroke:none;" d="M361.667 361.333L362.333 361.667L361.667 361.333z"/>
<path style="fill:#85705c; stroke:none;" d="M363 361L364 362L363 361M382.667 361.333L383.333 361.667L382.667 361.333z"/>
<path style="fill:#cdab34; stroke:none;" d="M384 361L385 362L384 361z"/>
<path style="fill:#ab3332; stroke:none;" d="M105 362L106 363L105 362M120 362L121 363L120 362z"/>
<path style="fill:#85705c; stroke:none;" d="M249 362L250 363L249 362z"/>
<path style="fill:#cdab34; stroke:none;" d="M250 362L251 363L250 362z"/>
<path style="fill:#faf3ee; stroke:none;" d="M313 362L313 363L318 363L313 362z"/>
<path style="fill:#85705c; stroke:none;" d="M319.667 362.333L320.333 362.667L319.667 362.333z"/>
<path style="fill:#cdab34; stroke:none;" d="M357 362L358 363L357 362z"/>
<path style="fill:#85705c; stroke:none;" d="M358.667 362.333L359.333 362.667L358.667 362.333M378 362L379 363L378 362z"/>
<path style="fill:#cdab34; stroke:none;" d="M379 362L380 363L379 362z"/>
<path style="fill:#85705c; stroke:none;" d="M106 363L107 364L106 363M118 363L117 365L118 363z"/>
<path style="fill:#ab3332; stroke:none;" d="M119 363L109 366L109 367L117 372L119 363z"/>
<path style="fill:#85705c; stroke:none;" d="M246.667 363.333L247.333 363.667L246.667 363.333M282 363L283 364L282 363z"/>
<path style="fill:#faf3ee; stroke:none;" d="M259 372L259 373L313 364C298.377 357.878 273.978 370.066 259 372z"/>
<path style="fill:#85705c; stroke:none;" d="M353.667 363.333L354.333 363.667L353.667 363.333M373.667 363.333L374.333 363.667L373.667 363.333z"/>
<path style="fill:#cdab34; stroke:none;" d="M375 363L376 364L375 363z"/>
<path style="fill:#85705c; stroke:none;" d="M107 364L108 365L107 364M242.667 364.333L243.333 364.667L242.667 364.333z"/>
<path style="fill:#cdab34; stroke:none;" d="M244 364L245 365L244 364z"/>
<path style="fill:#85705c; stroke:none;" d="M277.667 364.333L278.333 364.667L277.667 364.333z"/>
<path style="fill:#070403; stroke:none;" d="M209 386C234.171 382.23 262.622 372.725 287 365C281.339 362.63 274.703 365.557 269 366.79C254.554 369.913 240.212 373.814 226 377.86C220.381 379.459 212.182 380.742 209 386z"/>
<path style="fill:#85705c; stroke:none;" d="M349.667 364.333L350.333 364.667L349.667 364.333M369.667 364.333L370.333 364.667L369.667 364.333z"/>
<path style="fill:#cdab34; stroke:none;" d="M371 364L372 365L371 364z"/>
<path style="fill:#85705c; stroke:none;" d="M108 365L109 366L108 365M238.667 365.333L239.333 365.667L238.667 365.333z"/>
<path style="fill:#cdab34; stroke:none;" d="M240 365L241 366L240 365z"/>
<path style="fill:#85705c; stroke:none;" d="M273.667 365.333L274.333 365.667L273.667 365.333M286 365L287 366L286 365M344.667 365.333L345.333 365.667L344.667 365.333M365 365L366 366L365 365z"/>
<path style="fill:#cdab34; stroke:none;" d="M366 365L367 366L366 365M439 365L440 366L439 365z"/>
<path style="fill:#85705c; stroke:none;" d="M440 365L441 366L440 365z"/>
<path style="fill:#070403; stroke:none;" d="M441 365C427.444 370.722 409.534 372.14 395 374.999C390.59 375.867 380.9 375.34 381 381C396.162 377.265 411.79 375.361 427 371.626C430.879 370.673 441.129 370.153 441 365z"/>
<path style="fill:#85705c; stroke:none;" d="M442.333 365.667L442.667 366.333L442.333 365.667M113 366L114 367L113 366M236 366L237 367L236 366M269.667 366.333L270.333 366.667L269.667 366.333M280.667 366.333L281.333 366.667L280.667 366.333z"/>
<path style="fill:#cdab34; stroke:none;" d="M282.667 366.333L283.333 366.667L282.667 366.333z"/>
<path style="fill:#85705c; stroke:none;" d="M339.667 366.333L340.333 366.667L339.667 366.333M360.667 366.333L361.333 366.667L360.667 366.333z"/>
<path style="fill:#cdab34; stroke:none;" d="M362 366L363 367L362 366M434.667 366.333L435.333 366.667L434.667 366.333z"/>
<path style="fill:#85705c; stroke:none;" d="M436.667 366.333L437.333 366.667L436.667 366.333M233 367L234 368L233 367z"/>
<path style="fill:#cdab34; stroke:none;" d="M234 367L235 368L234 367z"/>
<path style="fill:#85705c; stroke:none;" d="M265 367L266 368L265 367M277 367L278 368L277 367z"/>
<path style="fill:#cdab34; stroke:none;" d="M278 367L279 368L278 367z"/>
<path style="fill:#85705c; stroke:none;" d="M334.667 367.333L335.333 367.667L334.667 367.333M355.667 367.333L356.333 367.667L355.667 367.333z"/>
<path style="fill:#cdab34; stroke:none;" d="M357 367L358 368L357 367M427 367L428 368L427 367z"/>
<path style="fill:#85705c; stroke:none;" d="M428 367L428 368L431 368L428 367M441 367L442 368L441 367M230 368L231 369L230 368z"/>
<path style="fill:#cdab34; stroke:none;" d="M231 368L232 369L231 368M259 368L260 369L259 368z"/>
<path style="fill:#85705c; stroke:none;" d="M260.667 368.333L261.333 368.667L260.667 368.333M273 368L274 369L273 368z"/>
<path style="fill:#cdab34; stroke:none;" d="M274 368L275 369L274 368z"/>
<path style="fill:#85705c; stroke:none;" d="M329.667 368.333L330.333 368.667L329.667 368.333M350.667 368.333L351.333 368.667L350.667 368.333z"/>
<path style="fill:#cdab34; stroke:none;" d="M352 368L353 369L352 368M422.667 368.333L423.333 368.667L422.667 368.333z"/>
<path style="fill:#85705c; stroke:none;" d="M424 368L425 369L424 368M439 368L440 369L439 368z"/>
<path style="fill:#cdab34; stroke:none;" d="M440 368L441 369L440 368z"/>
<path style="fill:#85705c; stroke:none;" d="M445 368L445 371L446 371L445 368M228 369L229 370L228 369z"/>
<path style="fill:#cdab34; stroke:none;" d="M229 369L230 370L229 369M255 369L256 370L255 369z"/>
<path style="fill:#85705c; stroke:none;" d="M256.667 369.333L257.333 369.667L256.667 369.333M269.667 369.333L270.333 369.667L269.667 369.333z"/>
<path style="fill:#cdab34; stroke:none;" d="M271 369L272 370L271 369z"/>
<path style="fill:#85705c; stroke:none;" d="M324.667 369.333L325.333 369.667L324.667 369.333M345.667 369.333L346.333 369.667L345.667 369.333z"/>
<path style="fill:#cdab34; stroke:none;" d="M347 369L348 370L347 369M418 369L419 370L418 369z"/>
<path style="fill:#85705c; stroke:none;" d="M419.667 369.333L420.333 369.667L419.667 369.333M436 369L437 370L436 369z"/>
<path style="fill:#cdab34; stroke:none;" d="M437 369L438 370L437 369z"/>
<path style="fill:#85705c; stroke:none;" d="M225 370L226 371L225 370z"/>
<path style="fill:#cdab34; stroke:none;" d="M226 370L227 371L226 370M251 370L252 371L251 370z"/>
<path style="fill:#85705c; stroke:none;" d="M252.667 370.333L253.333 370.667L252.667 370.333M265.667 370.333L266.333 370.667L265.667 370.333z"/>
<path style="fill:#cdab34; stroke:none;" d="M267 370L268 371L267 370z"/>
<path style="fill:#85705c; stroke:none;" d="M319.667 370.333L320.333 370.667L319.667 370.333M340.667 370.333L341.333 370.667L340.667 370.333z"/>
<path style="fill:#cdab34; stroke:none;" d="M342 370L343 371L342 370M414 370L415 371L414 370z"/>
<path style="fill:#85705c; stroke:none;" d="M415.667 370.333L416.333 370.667L415.667 370.333M431.667 370.333L432.333 370.667L431.667 370.333z"/>
<path style="fill:#cdab34; stroke:none;" d="M433 370L434 371L433 370z"/>
<path style="fill:#85705c; stroke:none;" d="M223 371L224 372L223 371z"/>
<path style="fill:#cdab34; stroke:none;" d="M224 371L225 372L224 371M248 371L249 372L248 371z"/>
<path style="fill:#85705c; stroke:none;" d="M249 371L250 372L249 371M261 371L262 372L261 371z"/>
<path style="fill:#cdab34; stroke:none;" d="M262 371L263 372L262 371z"/>
<path style="fill:#85705c; stroke:none;" d="M313 371L313 372L316 372L313 371M334.667 371.333L335.333 371.667L334.667 371.333z"/>
<path style="fill:#cdab34; stroke:none;" d="M336.667 371.333L337.333 371.667L336.667 371.333M409 371L410 372L409 371z"/>
<path style="fill:#85705c; stroke:none;" d="M410.667 371.333L411.333 371.667L410.667 371.333M427.667 371.333L428.333 371.667L427.667 371.333z"/>
<path style="fill:#cdab34; stroke:none;" d="M429 371L430 372L429 371M445 371L446 372L445 371z"/>
<path style="fill:#ab3332; stroke:none;" d="M458 371C459.15 376.499 466.808 384.767 464.647 389.945C461.496 397.492 443.121 400.812 436 403.025C407.596 411.854 380.064 423.773 351 430.35C339.976 432.844 329.069 436.069 318 438.334C315.139 438.92 308.944 437.979 307.068 440.603C304.943 443.576 308.269 449.841 309 453C335.676 446.829 361.538 436.874 388 429.884C414.474 422.891 444.391 418.738 468.999 406.291C488.407 396.474 472.339 375.875 458 371z"/>
<path style="fill:#85705c; stroke:none;" d="M220 372L221 373L220 372z"/>
<path style="fill:#cdab34; stroke:none;" d="M221 372L222 373L221 372M244 372L245 373L244 372z"/>
<path style="fill:#85705c; stroke:none;" d="M245 372L246 373L245 372M257 372L258 373L257 372M308 372L308 373L311 373L308 372M329.667 372.333L330.333 372.667L329.667 372.333z"/>
<path style="fill:#cdab34; stroke:none;" d="M331 372L332 373L331 372z"/>
<path style="fill:#85705c; stroke:none;" d="M406.667 372.333L407.333 372.667L406.667 372.333M423 372L424 373L423 372z"/>
<path style="fill:#cdab34; stroke:none;" d="M424 372L425 373L424 372z"/>
<path style="fill:#85705c; stroke:none;" d="M218 373L219 374L218 373z"/>
<path style="fill:#cdab34; stroke:none;" d="M219 373L220 374L219 373M240 373L241 374L240 373z"/>
<path style="fill:#85705c; stroke:none;" d="M241.667 373.333L242.333 373.667L241.667 373.333M253.667 373.333L254.333 373.667L253.667 373.333z"/>
<path style="fill:#faf3ee; stroke:none;" d="M256 373L256 374L259 374L256 373z"/>
<path style="fill:#85705c; stroke:none;" d="M303.667 373.333L304.333 373.667L303.667 373.333M324.667 373.333L325.333 373.667L324.667 373.333z"/>
<path style="fill:#cdab34; stroke:none;" d="M326 373L327 374L326 373z"/>
<path style="fill:#85705c; stroke:none;" d="M401.667 373.333L402.333 373.667L401.667 373.333M418.667 373.333L419.333 373.667L418.667 373.333z"/>
<path style="fill:#cdab34; stroke:none;" d="M420 373L421 374L420 373z"/>
<path style="fill:#85705c; stroke:none;" d="M215 374L216 375L215 374z"/>
<path style="fill:#cdab34; stroke:none;" d="M216 374L217 375L216 374M236 374L237 375L236 374z"/>
<path style="fill:#85705c; stroke:none;" d="M237.667 374.333L238.333 374.667L237.667 374.333M250 374L251 375L250 374M297 374L297 375L300 375L297 374M318.667 374.333L319.333 374.667L318.667 374.333z"/>
<path style="fill:#cdab34; stroke:none;" d="M320.667 374.333L321.333 374.667L320.667 374.333z"/>
<path style="fill:#85705c; stroke:none;" d="M396.667 374.333L397.333 374.667L396.667 374.333M414.667 374.333L415.333 374.667L414.667 374.333z"/>
<path style="fill:#cdab34; stroke:none;" d="M416 374L417 375L416 374z"/>
<path style="fill:#85705c; stroke:none;" d="M213 375L214 376L213 375z"/>
<path style="fill:#cdab34; stroke:none;" d="M214 375L215 376L214 375z"/>
<path style="fill:#85705c; stroke:none;" d="M233.667 375.333L234.333 375.667L233.667 375.333M246.667 375.333L247.333 375.667L246.667 375.333M292 375L292 376L295 376L292 375M313.667 375.333L314.333 375.667L313.667 375.333z"/>
<path style="fill:#cdab34; stroke:none;" d="M315 375L316 376L315 375z"/>
<path style="fill:#85705c; stroke:none;" d="M390 375L390 376L393 376L390 375M409.667 375.333L410.333 375.667L409.667 375.333z"/>
<path style="fill:#cdab34; stroke:none;" d="M411 375L412 376L411 375z"/>
<path style="fill:#85705c; stroke:none;" d="M446 375L446 378L447 378L446 375M210 376L211 377L210 376z"/>
<path style="fill:#cdab34; stroke:none;" d="M211 376L212 377L211 376M229 376L230 377L229 376z"/>
<path style="fill:#85705c; stroke:none;" d="M230 376L231 377L230 376M243.667 376.333L244.333 376.667L243.667 376.333M287 376L287 377L290 377L287 376M307 376L307 377L310 377L307 376z"/>
<path style="fill:#cdab34; stroke:none;" d="M310 376L311 377L310 376z"/>
<path style="fill:#85705c; stroke:none;" d="M384 376L384 377L387 377L384 376M405.667 376.333L406.333 376.667L405.667 376.333z"/>
<path style="fill:#cdab34; stroke:none;" d="M407 376L408 377L407 376z"/>
<path style="fill:#85705c; stroke:none;" d="M208 377L209 378L208 377z"/>
<path style="fill:#cdab34; stroke:none;" d="M225 377L226 378L225 377z"/>
<path style="fill:#85705c; stroke:none;" d="M226.667 377.333L227.333 377.667L226.667 377.333M239.667 377.333L240.333 377.667L239.667 377.333M283.667 377.333L284.333 377.667L283.667 377.333M302.667 377.333L303.333 377.667L302.667 377.333z"/>
<path style="fill:#cdab34; stroke:none;" d="M304 377L305 378L304 377z"/>
<path style="fill:#85705c; stroke:none;" d="M380 377L381 378L380 377M400.667 377.333L401.333 377.667L400.667 377.333z"/>
<path style="fill:#cdab34; stroke:none;" d="M402 377L403 378L402 377z"/>
<path style="fill:#85705c; stroke:none;" d="M205 378L206 379L205 378z"/>
<path style="fill:#cdab34; stroke:none;" d="M206 378L207 379L206 378M222 378L223 379L222 378z"/>
<path style="fill:#85705c; stroke:none;" d="M223 378L224 379L223 378M235.667 378.333L236.333 378.667L235.667 378.333z"/>
<path style="fill:#cdab34; stroke:none;" d="M237 378L238 379L237 378z"/>
<path style="fill:#85705c; stroke:none;" d="M278.667 378.333L279.333 378.667L278.667 378.333M297.667 378.333L298.333 378.667L297.667 378.333z"/>
<path style="fill:#cdab34; stroke:none;" d="M299 378L300 379L299 378z"/>
<path style="fill:#85705c; stroke:none;" d="M379.333 378.667L379.667 379.333L379.333 378.667M394 378L394 379L397 379L394 378z"/>
<path style="fill:#cdab34; stroke:none;" d="M397 378L398 379L397 378M446 378L447 379L446 378z"/>
<path style="fill:#070403; stroke:none;" d="M148 379C146.839 385.254 145.086 394.188 150 399L153 379L148 379z"/>
<path style="fill:#85705c; stroke:none;" d="M203 379L204 380L203 379M219.667 379.333L220.333 379.667L219.667 379.333M231 379L232 380L231 379z"/>
<path style="fill:#cdab34; stroke:none;" d="M232 379L233 380L232 379z"/>
<path style="fill:#85705c; stroke:none;" d="M273.667 379.333L274.333 379.667L273.667 379.333M291 379L291 380L294 380L291 379z"/>
<path style="fill:#cdab34; stroke:none;" d="M294 379L295 380L294 379z"/>
<path style="fill:#85705c; stroke:none;" d="M388 379L388 380L391 380L388 379z"/>
<path style="fill:#cdab34; stroke:none;" d="M391 379L392 380L391 379z"/>
<path style="fill:#85705c; stroke:none;" d="M201 380L202 381L201 380z"/>
<path style="fill:#cdab34; stroke:none;" d="M216 380L217 381L216 380z"/>
<path style="fill:#85705c; stroke:none;" d="M217 380L218 381L217 380M227 380L228 381L227 380z"/>
<path style="fill:#cdab34; stroke:none;" d="M228 380L229 381L228 380z"/>
<path style="fill:#85705c; stroke:none;" d="M268.667 380.333L269.333 380.667L268.667 380.333M286.667 380.333L287.333 380.667L286.667 380.333z"/>
<path style="fill:#cdab34; stroke:none;" d="M288.667 380.333L289.333 380.667L288.667 380.333z"/>
<path style="fill:#85705c; stroke:none;" d="M362.667 380.333L363.333 380.667L362.667 380.333z"/>
<path style="fill:#070403; stroke:none;" d="M214 410L214 411C251.32 408.051 288.468 400.107 325 392.21C336.603 389.702 357.42 389.597 366 381C351.653 379.719 334.102 387.121 320 389.996C284.902 397.152 249.501 405.219 214 410z"/>
<path style="fill:#85705c; stroke:none;" d="M365 380L366 381L365 380M380 380L381 381L380 380M382.667 380.333L383.333 380.667L382.667 380.333z"/>
<path style="fill:#cdab34; stroke:none;" d="M384.667 380.333L385.333 380.667L384.667 380.333z"/>
<path style="fill:#85705c; stroke:none;" d="M447.333 380.667L447.667 381.333L447.333 380.667z"/>
<path style="fill:#cdab34; stroke:none;" d="M199 381L200 382L199 381z"/>
<path style="fill:#85705c; stroke:none;" d="M214 381L215 382L214 381M223.667 381.333L224.333 381.667L223.667 381.333z"/>
<path style="fill:#cdab34; stroke:none;" d="M225 381L226 382L225 381z"/>
<path style="fill:#85705c; stroke:none;" d="M264.667 381.333L265.333 381.667L264.667 381.333M281.667 381.333L282.333 381.667L281.667 381.333z"/>
<path style="fill:#cdab34; stroke:none;" d="M283 381L284 382L283 381z"/>
<path style="fill:#85705c; stroke:none;" d="M358.667 381.333L359.333 381.667L358.667 381.333M197 382L198 383L197 382z"/>
<path style="fill:#cdab34; stroke:none;" d="M211 382L212 383L211 382z"/>
<path style="fill:#85705c; stroke:none;" d="M212 382L213 383L212 382M220 382L221 383L220 382z"/>
<path style="fill:#cdab34; stroke:none;" d="M221 382L222 383L221 382z"/>
<path style="fill:#85705c; stroke:none;" d="M260.667 382.333L261.333 382.667L260.667 382.333M276.667 382.333L277.333 382.667L276.667 382.333z"/>
<path style="fill:#cdab34; stroke:none;" d="M278 382L279 383L278 382z"/>
<path style="fill:#faf3ee; stroke:none;" d="M337 384L337 385L348 384L348 382L337 384z"/>
<path style="fill:#85705c; stroke:none;" d="M353.667 382.333L354.333 382.667L353.667 382.333M365 382L366 383L365 382z"/>
<path style="fill:#cdab34; stroke:none;" d="M447 382L448 383L447 382z"/>
<path style="fill:#85705c; stroke:none;" d="M195 383L196 384L195 383z"/>
<path style="fill:#cdab34; stroke:none;" d="M209 383L210 384L209 383z"/>
<path style="fill:#85705c; stroke:none;" d="M217 383L218 384L217 383z"/>
<path style="fill:#cdab34; stroke:none;" d="M218 383L219 384L218 383z"/>
<path style="fill:#85705c; stroke:none;" d="M255 383L255 384L258 384L255 383M271.667 383.333L272.333 383.667L271.667 383.333z"/>
<path style="fill:#cdab34; stroke:none;" d="M273 383L274 384L273 383z"/>
<path style="fill:#85705c; stroke:none;" d="M348.667 383.333L349.333 383.667L348.667 383.333M363 383L364 384L363 383z"/>
<path style="fill:#cdab34; stroke:none;" d="M355 398L355 399L384 394C380.399 400.595 367.853 401.66 361 403.373C339.161 408.835 317.111 412.834 295 417C299.231 423.339 316.581 415.247 323 414.299C344.886 411.067 366.403 405.537 388 400.65C395.81 398.883 408.012 398.287 413.566 391.786C416.832 387.963 415.354 383.218 409.995 383.573C400.512 384.2 390.228 388.331 381 390.627C372.255 392.802 363.752 395.975 355 398M194 384L195 385L194 384z"/>
<path style="fill:#85705c; stroke:none;" d="M208 384L209 385L208 384M215 384L216 385L215 384M251.667 384.333L252.333 384.667L251.667 384.333M267 384L268 385L267 384z"/>
<path style="fill:#cdab34; stroke:none;" d="M268.667 384.333L269.333 384.667L268.667 384.333M343 384L344 385L343 384z"/>
<path style="fill:#85705c; stroke:none;" d="M344.667 384.333L345.333 384.667L344.667 384.333M361 384L362 385L361 384M448 384L449 385L448 384z"/>
<path style="fill:#cdab34; stroke:none;" d="M208 385L209 386L208 385z"/>
<path style="fill:#85705c; stroke:none;" d="M212 385L213 386L212 385z"/>
<path style="fill:#cdab34; stroke:none;" d="M213 385L214 386L213 385z"/>
<path style="fill:#85705c; stroke:none;" d="M246.667 385.333L247.333 385.667L246.667 385.333M262.667 385.333L263.333 385.667L262.667 385.333z"/>
<path style="fill:#cdab34; stroke:none;" d="M264 385L265 386L264 385z"/>
<path style="fill:#faf3ee; stroke:none;" d="M333 385L333 386L337 386L333 385z"/>
<path style="fill:#85705c; stroke:none;" d="M339.667 385.333L340.333 385.667L339.667 385.333M358.667 385.333L359.333 385.667L358.667 385.333z"/>
<path style="fill:#cdab34; stroke:none;" d="M209.667 386.333L210.333 386.667L209.667 386.333M237.667 386.333L238.333 386.667L237.667 386.333z"/>
<path style="fill:#85705c; stroke:none;" d="M239 386L239 387L243 387L239 386M258 386L259 387L258 386z"/>
<path style="fill:#cdab34; stroke:none;" d="M259.667 386.333L260.333 386.667L259.667 386.333z"/>
<path style="fill:#faf3ee; stroke:none;" d="M329 386L329 387L333 387L329 386z"/>
<path style="fill:#85705c; stroke:none;" d="M334.667 386.333L335.333 386.667L334.667 386.333M353.667 386.333L354.333 386.667L353.667 386.333M449 386L450 387L449 386z"/>
<path style="fill:#cdab34; stroke:none;" d="M231 387L232 388L231 387z"/>
<path style="fill:#85705c; stroke:none;" d="M232.667 387.333L233.333 387.667L232.667 387.333M253.667 387.333L254.333 387.667L253.667 387.333z"/>
<path style="fill:#cdab34; stroke:none;" d="M255 387L256 388L255 387z"/>
<path style="fill:#faf3ee; stroke:none;" d="M325 387L325 388L328 388L325 387z"/>
<path style="fill:#85705c; stroke:none;" d="M330 387L331 388L330 387M347 387L347 388L350 388L347 387z"/>
<path style="fill:#cdab34; stroke:none;" d="M227 388L228 389L227 388z"/>
<path style="fill:#85705c; stroke:none;" d="M228 388L229 389L228 388M247 388L247 389L250 389L247 388z"/>
<path style="fill:#cdab34; stroke:none;" d="M250 388L251 389L250 388z"/>
<path style="fill:#faf3ee; stroke:none;" d="M322.667 388.333L323.333 388.667L322.667 388.333z"/>
<path style="fill:#85705c; stroke:none;" d="M325.667 388.333L326.333 388.667L325.667 388.333M342.667 388.333L343.333 388.667L342.667 388.333z"/>
<path style="fill:#cdab34; stroke:none;" d="M344.667 388.333L345.333 388.667L344.667 388.333M448 388L449 389L448 388z"/>
<path style="fill:#85705c; stroke:none;" d="M449 388L450 389L449 388z"/>
<path style="fill:#cdab34; stroke:none;" d="M224 389L225 390L224 389z"/>
<path style="fill:#85705c; stroke:none;" d="M225 389L226 390L225 389M241 389L241 390L244 390L241 389z"/>
<path style="fill:#cdab34; stroke:none;" d="M244 389L245 390L244 389z"/>
<path style="fill:#faf3ee; stroke:none;" d="M318.667 389.333L319.333 389.667L318.667 389.333z"/>
<path style="fill:#85705c; stroke:none;" d="M321.667 389.333L322.333 389.667L321.667 389.333M337.667 389.333L338.333 389.667L337.667 389.333z"/>
<path style="fill:#cdab34; stroke:none;" d="M339 389L340 390L339 389M446 389L447 390L446 389z"/>
<path style="fill:#85705c; stroke:none;" d="M447 389L448 390L447 389M231 390L231 391L235 391L231 390z"/>
<path style="fill:#cdab34; stroke:none;" d="M235 390L235 391L238 391L235 390z"/>
<path style="fill:#85705c; stroke:none;" d="M316.667 390.333L317.333 390.667L316.667 390.333M332.667 390.333L333.333 390.667L332.667 390.333z"/>
<path style="fill:#cdab34; stroke:none;" d="M334 390L335 391L334 390z"/>
<path style="fill:#85705c; stroke:none;" d="M444 390L445 391L444 390M224 391L225 392L224 391M227 391L228 392L227 391z"/>
<path style="fill:#cdab34; stroke:none;" d="M228 391L229 392L228 391z"/>
<path style="fill:#85705c; stroke:none;" d="M310.667 391.333L311.333 391.667L310.667 391.333M328 391L329 392L328 391z"/>
<path style="fill:#cdab34; stroke:none;" d="M329 391L330 392L329 391z"/>
<path style="fill:#85705c; stroke:none;" d="M441.667 391.333L442.333 391.667L441.667 391.333z"/>
<path style="fill:#cdab34; stroke:none;" d="M184 392L185 393L184 392M225 392L226 393L225 392z"/>
<path style="fill:#85705c; stroke:none;" d="M304 392L304 393L307 393L304 392M323.667 392.333L324.333 392.667L323.667 392.333z"/>
<path style="fill:#cdab34; stroke:none;" d="M325 392L326 393L325 392M437 392L438 393L437 392z"/>
<path style="fill:#85705c; stroke:none;" d="M438 392L439 393L438 392z"/>
<path style="fill:#cdab34; stroke:none;" d="M183 393L184 394L183 393z"/>
<path style="fill:#85705c; stroke:none;" d="M299 393L299 394L302 394L299 393M319.667 393.333L320.333 393.667L319.667 393.333z"/>
<path style="fill:#cdab34; stroke:none;" d="M321 393L322 394L321 393M434 393L435 394L434 393z"/>
<path style="fill:#85705c; stroke:none;" d="M435 393L436 394L435 393z"/>
<path style="fill:#cdab34; stroke:none;" d="M182 394L183 395L182 394z"/>
<path style="fill:#85705c; stroke:none;" d="M294 394L294 395L297 395L294 394M315.667 394.333L316.333 394.667L315.667 394.333z"/>
<path style="fill:#cdab34; stroke:none;" d="M317 394L318 395L317 394z"/>
<path style="fill:#85705c; stroke:none;" d="M375.667 394.333L376.333 394.667L375.667 394.333M383 394L384 395L383 394M431.667 394.333L432.333 394.667L431.667 394.333z"/>
<path style="fill:#cdab34; stroke:none;" d="M181 395L182 396L181 395z"/>
<path style="fill:#85705c; stroke:none;" d="M288 395L288 396L291 396L288 395M310.667 395.333L311.333 395.667L310.667 395.333z"/>
<path style="fill:#cdab34; stroke:none;" d="M312 395L313 396L312 395z"/>
<path style="fill:#85705c; stroke:none;" d="M370.667 395.333L371.333 395.667L370.667 395.333z"/>
<path style="fill:#cdab34; stroke:none;" d="M427 395L428 396L427 395z"/>
<path style="fill:#85705c; stroke:none;" d="M428 395L429 396L428 395z"/>
<path style="fill:#cdab34; stroke:none;" d="M180 396L181 397L180 396z"/>
<path style="fill:#85705c; stroke:none;" d="M283 396L283 397L286 397L283 396M305.667 396.333L306.333 396.667L305.667 396.333z"/>
<path style="fill:#cdab34; stroke:none;" d="M307 396L308 397L307 396z"/>
<path style="fill:#85705c; stroke:none;" d="M366.667 396.333L367.333 396.667L366.667 396.333M383 396L384 397L383 396z"/>
<path style="fill:#cdab34; stroke:none;" d="M424 396L425 397L424 396M179 397L180 398L179 397z"/>
<path style="fill:#85705c; stroke:none;" d="M279.667 397.333L280.333 397.667L279.667 397.333M299.667 397.333L300.333 397.667L299.667 397.333z"/>
<path style="fill:#cdab34; stroke:none;" d="M301.667 397.333L302.333 397.667L301.667 397.333M287 408L287 409C304.383 416.349 330.969 403.329 349 401L348 397L287 408z"/>
<path style="fill:#85705c; stroke:none;" d="M362.667 397.333L363.333 397.667L362.667 397.333M381.667 397.333L382.333 397.667L381.667 397.333M421 397L422 398L421 397M178 398L179 399L178 398M275.667 398.333L276.333 398.667L275.667 398.333M293.667 398.333L294.333 398.667L293.667 398.333z"/>
<path style="fill:#cdab34; stroke:none;" d="M295.667 398.333L296.333 398.667L295.667 398.333z"/>
<path style="fill:#85705c; stroke:none;" d="M358.667 398.333L359.333 398.667L358.667 398.333M378 398L379 399L378 398M177 399L178 400L177 399M272 399L273 400L272 399M288.667 399.333L289.333 399.667L288.667 399.333z"/>
<path style="fill:#cdab34; stroke:none;" d="M290 399L291 400L290 399M352 399L353 400L352 399z"/>
<path style="fill:#85705c; stroke:none;" d="M353.667 399.333L354.333 399.667L353.667 399.333M374.667 399.333L375.333 399.667L374.667 399.333z"/>
<path style="fill:#cdab34; stroke:none;" d="M414 399L415 400L414 399z"/>
<path style="fill:#85705c; stroke:none;" d="M267.667 400.333L268.333 400.667L267.667 400.333M282.667 400.333L283.333 400.667L282.667 400.333z"/>
<path style="fill:#cdab34; stroke:none;" d="M284.667 400.333L285.333 400.667L284.667 400.333z"/>
<path style="fill:#85705c; stroke:none;" d="M349.667 400.333L350.333 400.667L349.667 400.333M370.667 400.333L371.333 400.667L370.667 400.333z"/>
<path style="fill:#cdab34; stroke:none;" d="M176 401L177 402L176 401z"/>
<path style="fill:#85705c; stroke:none;" d="M261 401L261 402L264 402L261 401M278.667 401.333L279.333 401.667L278.667 401.333z"/>
<path style="fill:#cdab34; stroke:none;" d="M280 401L281 402L280 401z"/>
<path style="fill:#85705c; stroke:none;" d="M345.667 401.333L346.333 401.667L345.667 401.333M367.667 401.333L368.333 401.667L367.667 401.333M175 402L176 403L175 402z"/>
<path style="fill:#cdab34; stroke:none;" d="M209 402L210 403L209 402z"/>
<path style="fill:#85705c; stroke:none;" d="M210 402L211 403L210 402z"/>
<path style="fill:#070403; stroke:none;" d="M185 411L185 412C195.626 411.911 207.43 407.476 217 403C208.695 399.614 193.389 408.619 185 411z"/>
<path style="fill:#85705c; stroke:none;" d="M255 402L255 403L258 403L255 402M274.667 402.333L275.333 402.667L274.667 402.333z"/>
<path style="fill:#cdab34; stroke:none;" d="M276 402L277 403L276 402z"/>
<path style="fill:#85705c; stroke:none;" d="M340.667 402.333L341.333 402.667L340.667 402.333M363.667 402.333L364.333 402.667L363.667 402.333z"/>
<path style="fill:#cdab34; stroke:none;" d="M175 403L176 404L175 403M206 403L207 404L206 403z"/>
<path style="fill:#85705c; stroke:none;" d="M207 403L208 404L207 403M216 403L217 404L216 403M249 403L249 404L252 404L249 403M269.667 403.333L270.333 403.667L269.667 403.333z"/>
<path style="fill:#cdab34; stroke:none;" d="M271.667 403.333L272.333 403.667L271.667 403.333z"/>
<path style="fill:#85705c; stroke:none;" d="M336.667 403.333L337.333 403.667L336.667 403.333M359.667 403.333L360.333 403.667L359.667 403.333M174 404L175 405L174 404z"/>
<path style="fill:#cdab34; stroke:none;" d="M203 404L204 405L203 404z"/>
<path style="fill:#85705c; stroke:none;" d="M204 404L205 405L204 404M213.667 404.333L214.333 404.667L213.667 404.333M243.667 404.333L244.333 404.667L243.667 404.333M264.667 404.333L265.333 404.667L264.667 404.333z"/>
<path style="fill:#cdab34; stroke:none;" d="M266 404L267 405L266 404z"/>
<path style="fill:#85705c; stroke:none;" d="M331.667 404.333L332.333 404.667L331.667 404.333M355.667 404.333L356.333 404.667L355.667 404.333z"/>
<path style="fill:#cdab34; stroke:none;" d="M174 405L175 406L174 405M200 405L201 406L200 405z"/>
<path style="fill:#85705c; stroke:none;" d="M201.667 405.333L202.333 405.667L201.667 405.333M211 405L212 406L211 405M237.667 405.333L238.333 405.667L237.667 405.333M257 405L257 406L260 406L257 405z"/>
<path style="fill:#cdab34; stroke:none;" d="M260.667 405.333L261.333 405.667L260.667 405.333z"/>
<path style="fill:#85705c; stroke:none;" d="M327.667 405.333L328.333 405.667L327.667 405.333M351.667 405.333L352.333 405.667L351.667 405.333z"/>
<path style="fill:#cdab34; stroke:none;" d="M398 405L399 406L398 405z"/>
<path style="fill:#85705c; stroke:none;" d="M399 405L400 406L399 405z"/>
<path style="fill:#cdab34; stroke:none;" d="M198 406L199 407L198 406z"/>
<path style="fill:#85705c; stroke:none;" d="M199 406L200 407L199 406M208 406L209 407L208 406M231.667 406.333L232.333 406.667L231.667 406.333M249 406L249 407L253 407L249 406z"/>
<path style="fill:#cdab34; stroke:none;" d="M253 406L254 407L253 406z"/>
<path style="fill:#85705c; stroke:none;" d="M322.667 406.333L323.333 406.667L322.667 406.333M347.667 406.333L348.333 406.667L347.667 406.333z"/>
<path style="fill:#cdab34; stroke:none;" d="M395 406L396 407L395 406z"/>
<path style="fill:#85705c; stroke:none;" d="M396 406L397 407L396 406M173 407L174 408L173 407z"/>
<path style="fill:#cdab34; stroke:none;" d="M195 407L196 408L195 407z"/>
<path style="fill:#85705c; stroke:none;" d="M196 407L197 408L196 407M205.667 407.333L206.333 407.667L205.667 407.333M225 407L225 408L228 408L225 407M241 407L241 408L244 408L241 407z"/>
<path style="fill:#cdab34; stroke:none;" d="M244.667 407.333L245.333 407.667L244.667 407.333z"/>
<path style="fill:#85705c; stroke:none;" d="M317.667 407.333L318.333 407.667L317.667 407.333M343.667 407.333L344.333 407.667L343.667 407.333M393.667 407.333L394.333 407.667L393.667 407.333z"/>
<path style="fill:#cdab34; stroke:none;" d="M173 408L174 409L173 408M192 408L193 409L192 408z"/>
<path style="fill:#85705c; stroke:none;" d="M193 408L194 409L193 408M201.667 408.333L202.333 408.667L201.667 408.333M220.667 408.333L221.333 408.667L220.667 408.333M233 408L233 409L236 409L233 408z"/>
<path style="fill:#cdab34; stroke:none;" d="M236.667 408.333L237.333 408.667L236.667 408.333z"/>
<path style="fill:#85705c; stroke:none;" d="M311 408L311 409L314 409L311 408M338.667 408.333L339.333 408.667L338.667 408.333z"/>
<path style="fill:#cdab34; stroke:none;" d="M390 408L391 409L390 408z"/>
<path style="fill:#85705c; stroke:none;" d="M391 408L392 409L391 408z"/>
<path style="fill:#cdab34; stroke:none;" d="M189 409L190 410L189 409z"/>
<path style="fill:#85705c; stroke:none;" d="M190 409L191 410L190 409M198 409L199 410L198 409M216.667 409.333L217.333 409.667L216.667 409.333M224 409L224 410L228 410L224 409z"/>
<path style="fill:#cdab34; stroke:none;" d="M228.667 409.333L229.333 409.667L228.667 409.333M280.667 409.333L281.333 409.667L280.667 409.333z"/>
<path style="fill:#85705c; stroke:none;" d="M282.667 409.333L283.333 409.667L282.667 409.333M288 409L289 410L288 409M305 409L305 410L308 410L305 409M333.667 409.333L334.333 409.667L333.667 409.333z"/>
<path style="fill:#cdab34; stroke:none;" d="M387 409L388 410L387 409z"/>
<path style="fill:#85705c; stroke:none;" d="M388 409L389 410L388 409z"/>
<path style="fill:#cdab34; stroke:none;" d="M183.333 410.667L183.667 411.333L183.333 410.667z"/>
<path style="fill:#85705c; stroke:none;" d="M184 412L187 411L184 412M195 410L196 411L195 410M212 410L212 412L214 412L214 410L212 410M218.667 410.333L219.333 410.667L218.667 410.333z"/>
<path style="fill:#cdab34; stroke:none;" d="M220.667 410.333L221.333 410.667L220.667 410.333M229 420L228 423L228 424L279 411C265.708 405.424 241.835 415.824 229 420z"/>
<path style="fill:#85705c; stroke:none;" d="M279 410L280 411L279 410M290 410L291 411L290 410M299 410L299 411L302 411L299 410M328.667 410.333L329.333 410.667L328.667 410.333z"/>
<path style="fill:#cdab34; stroke:none;" d="M384 410L385 411L384 410z"/>
<path style="fill:#85705c; stroke:none;" d="M385 410L386 411L385 410M172 411L172 417L173 417L172 411M192 411L193 412L192 411z"/>
<path style="fill:#cdab34; stroke:none;" d="M193 411L194 412L193 411M214 411L215 412L214 411z"/>
<path style="fill:#85705c; stroke:none;" d="M275.667 411.333L276.333 411.667L275.667 411.333M291 411L292 412L291 411M293 411L293 412L296 412L293 411M323.667 411.333L324.333 411.667L323.667 411.333M382 411L383 412L382 411M270.667 412.333L271.333 412.667L270.667 412.333M318.667 412.333L319.333 412.667L318.667 412.333z"/>
<path style="fill:#cdab34; stroke:none;" d="M379 412L380 413L379 412z"/>
<path style="fill:#85705c; stroke:none;" d="M380 412L381 413L380 412M267 413L268 414L267 413M312 413L312 414L315 414L312 413z"/>
<path style="fill:#cdab34; stroke:none;" d="M376 413L377 414L376 413z"/>
<path style="fill:#85705c; stroke:none;" d="M377 413L378 414L377 413M263.667 414.333L264.333 414.667L263.667 414.333M307.667 414.333L308.333 414.667L307.667 414.333z"/>
<path style="fill:#cdab34; stroke:none;" d="M372 414L373 415L372 414z"/>
<path style="fill:#85705c; stroke:none;" d="M373.667 414.333L374.333 414.667L373.667 414.333M261 415L262 416L261 415M301 415L301 416L304 416L301 415z"/>
<path style="fill:#cdab34; stroke:none;" d="M369 415L370 416L369 415z"/>
<path style="fill:#85705c; stroke:none;" d="M370 415L371 416L370 415M258.667 416.333L259.333 416.667L258.667 416.333M295 416L295 417L298 417L295 416M366.667 416.333L367.333 416.667L366.667 416.333z"/>
<path style="fill:#cdab34; stroke:none;" d="M172 417L172 428L173 428L172 417z"/>
<path style="fill:#85705c; stroke:none;" d="M256 417L257 418L256 417z"/>
<path style="fill:#cdab34; stroke:none;" d="M362 417L363 418L362 417z"/>
<path style="fill:#85705c; stroke:none;" d="M363 417L364 418L363 417M253.667 418.333L254.333 418.667L253.667 418.333z"/>
<path style="fill:#ab3332; stroke:none;" d="M282 418L282 419L285 419L282 418z"/>
<path style="fill:#85705c; stroke:none;" d="M255 426C257.322 439.026 265.567 450.967 268.486 464C271.223 476.218 269.343 487.92 267 500C280.925 493.376 285.623 484.022 289 470L306 489L307 488L303.853 469.129L298.34 461.946L300.312 451L286 418L255 426z"/>
<path style="fill:#ab3332; stroke:none;" d="M286 418L287 419L286 418z"/>
<path style="fill:#85705c; stroke:none;" d="M359 418L360 419L359 418M243 419L244 420L243 419M248.667 419.333L249.333 419.667L248.667 419.333z"/>
<path style="fill:#ab3332; stroke:none;" d="M276 419L277 420L276 419z"/>
<path style="fill:#85705c; stroke:none;" d="M295 419L296 420L295 419z"/>
<path style="fill:#cdab34; stroke:none;" d="M355 419L356 420L355 419M225 420L225 421L228 421L225 420z"/>
<path style="fill:#85705c; stroke:none;" d="M228 420L229 421L228 420z"/>
<path style="fill:#ab3332; stroke:none;" d="M272 420L273 421L272 420M287 420L288 421L287 420z"/>
<path style="fill:#cdab34; stroke:none;" d="M219 421L220 422L219 421z"/>
<path style="fill:#85705c; stroke:none;" d="M220 421L220 422L223 422L220 421z"/>
<path style="fill:#070403; stroke:none;" d="M185 431L185 432L230 423L230 421C216.049 421.116 197.814 425.487 185 431z"/>
<path style="fill:#85705c; stroke:none;" d="M238.667 421.333L239.333 421.667L238.667 421.333z"/>
<path style="fill:#ab3332; stroke:none;" d="M268 421L269 422L268 421z"/>
<path style="fill:#85705c; stroke:none;" d="M296 421L297 422L296 421z"/>
<path style="fill:#cdab34; stroke:none;" d="M215 422L216 423L215 422z"/>
<path style="fill:#85705c; stroke:none;" d="M216.667 422.333L217.333 422.667L216.667 422.333M234.667 422.333L235.333 422.667L234.667 422.333z"/>
<path style="fill:#ab3332; stroke:none;" d="M265 422L266 423L265 422z"/>
<path style="fill:#cdab34; stroke:none;" d="M211 423L212 424L211 423z"/>
<path style="fill:#85705c; stroke:none;" d="M212.667 423.333L213.333 423.667L212.667 423.333M226 423L226 425L228 423L226 423M230.667 423.333L231.333 423.667L230.667 423.333z"/>
<path style="fill:#ab3332; stroke:none;" d="M288 423L289 424L288 423z"/>
<path style="fill:#cdab34; stroke:none;" d="M297 423L298 424L297 423z"/>
<path style="fill:#85705c; stroke:none;" d="M339 423L340 424L339 423z"/>
<path style="fill:#cdab34; stroke:none;" d="M207 424L208 425L207 424z"/>
<path style="fill:#85705c; stroke:none;" d="M208.667 424.333L209.333 424.667L208.667 424.333M221 424L221 425L224 426L221 424z"/>
<path style="fill:#cdab34; stroke:none;" d="M224.667 424.333L225.333 424.667L224.667 424.333z"/>
<path style="fill:#ab3332; stroke:none;" d="M260 424L261 425L260 424z"/>
<path style="fill:#cdab34; stroke:none;" d="M334 424L335 425L334 424z"/>
<path style="fill:#85705c; stroke:none;" d="M335 424L336 425L335 424z"/>
<path style="fill:#cdab34; stroke:none;" d="M203 425L204 426L203 425z"/>
<path style="fill:#85705c; stroke:none;" d="M204.667 425.333L205.333 425.667L204.667 425.333M216 425L216 426L219 426L216 425z"/>
<path style="fill:#cdab34; stroke:none;" d="M240 429L240 428L215 430L223 426C217.517 424.034 210.81 427.609 206.019 430.262C204.426 431.145 199.964 433.765 202.662 435.973C205.143 438.004 210.337 435.791 213 435.127C221.824 432.924 230.921 429.742 240 429z"/>
<path style="fill:#ab3332; stroke:none;" d="M257 425L258 426L257 425M289 425L290 426L289 425z"/>
<path style="fill:#cdab34; stroke:none;" d="M298 425L299 426L298 425M199 426L200 427L199 426z"/>
<path style="fill:#85705c; stroke:none;" d="M200 426L201 427L200 426M212.667 426.333L213.333 426.667L212.667 426.333M220 426L221 427L220 426z"/>
<path style="fill:#cdab34; stroke:none;" d="M254.333 426.667L254.667 427.333L254.333 426.667M326 426L327 427L326 426z"/>
<path style="fill:#85705c; stroke:none;" d="M327 426L328 427L327 426z"/>
<path style="fill:#cdab34; stroke:none;" d="M194.667 427.333L195.333 427.667L194.667 427.333z"/>
<path style="fill:#85705c; stroke:none;" d="M196 427L197 428L196 427M207.667 427.333L208.333 427.667L207.667 427.333z"/>
<path style="fill:#cdab34; stroke:none;" d="M209 427L210 428L209 427z"/>
<path style="fill:#85705c; stroke:none;" d="M216.667 427.333L217.333 427.667L216.667 427.333M233 427L233 428L236 428L233 427M246.667 427.333L247.333 427.667L246.667 427.333z"/>
<path style="fill:#ab3332; stroke:none;" d="M290 427L291 428L290 427z"/>
<path style="fill:#cdab34; stroke:none;" d="M299 427L300 428L299 427M321.667 427.333L322.333 427.667L321.667 427.333z"/>
<path style="fill:#85705c; stroke:none;" d="M323 427L324 428L323 427M172 428L172 431L173 431L172 428z"/>
<path style="fill:#cdab34; stroke:none;" d="M190.667 428.333L191.333 428.667L190.667 428.333z"/>
<path style="fill:#85705c; stroke:none;" d="M192 428L193 429L192 428M203 428L204 429L203 428z"/>
<path style="fill:#cdab34; stroke:none;" d="M204.667 428.333L205.333 428.667L204.667 428.333z"/>
<path style="fill:#85705c; stroke:none;" d="M228.667 428.333L229.333 428.667L228.667 428.333M243 428L244 429L243 428z"/>
<path style="fill:#cdab34; stroke:none;" d="M244 428L245 429L244 428M318 428L319 429L318 428z"/>
<path style="fill:#85705c; stroke:none;" d="M319 428L320 429L319 428z"/>
<path style="fill:#cdab34; stroke:none;" d="M186 429L187 430L186 429z"/>
<path style="fill:#85705c; stroke:none;" d="M187.667 429.333L188.333 429.667L187.667 429.333M199 429L200 430L199 429z"/>
<path style="fill:#cdab34; stroke:none;" d="M200 429L201 430L200 429z"/>
<path style="fill:#85705c; stroke:none;" d="M220 429L220 430L225 430L220 429z"/>
<path style="fill:#cdab34; stroke:none;" d="M241 429L242 430L241 429M248 429L249 430L248 429z"/>
<path style="fill:#ab3332; stroke:none;" d="M255 429L256 430L255 429M291 429L292 430L291 429z"/>
<path style="fill:#cdab34; stroke:none;" d="M300 429L301 430L300 429M316 429L317 430L316 429z"/>
<path style="fill:#85705c; stroke:none;" d="M185 430L186 431L185 430M194.667 430.333L195.333 430.667L194.667 430.333z"/>
<path style="fill:#cdab34; stroke:none;" d="M196 430L197 431L196 430M313.667 430.333L314.333 430.667L313.667 430.333z"/>
<path style="fill:#85705c; stroke:none;" d="M315 430L316 431L315 430M190.667 431.333L191.333 431.667L190.667 431.333z"/>
<path style="fill:#cdab34; stroke:none;" d="M192 431L193 432L192 431z"/>
<path style="fill:#85705c; stroke:none;" d="M249 431L250 432L249 431z"/>
<path style="fill:#ab3332; stroke:none;" d="M292 431L293 432L292 431z"/>
<path style="fill:#cdab34; stroke:none;" d="M301 431L302 432L301 431M309 431L310 432L309 431z"/>
<path style="fill:#85705c; stroke:none;" d="M310 431L311 432L310 431M185 432L185 433L188 433L185 432z"/>
<path style="fill:#cdab34; stroke:none;" d="M188 432L189 433L188 432M249 432L250 433L249 432z"/>
<path style="fill:#85705c; stroke:none;" d="M307 432L308 433L307 432M173.333 433.667L173.667 434.333L173.333 433.667M250 433L251 434L250 433z"/>
<path style="fill:#ab3332; stroke:none;" d="M293 433L294 434L293 433z"/>
<path style="fill:#cdab34; stroke:none;" d="M302 433L303 434L302 433M305 433L306 434L305 433M233 434L234 435L233 434z"/>
<path style="fill:#85705c; stroke:none;" d="M234 434L235 435L234 434z"/>
<path style="fill:#070403; stroke:none;" d="M210 439L210 442C216.976 441.681 232.975 440.068 237 434L210 439z"/>
<path style="fill:#cdab34; stroke:none;" d="M250 434L251 435L250 434M303 434L304 435L303 434M224 435L225 436L224 435z"/>
<path style="fill:#85705c; stroke:none;" d="M225 435L225 436L231 436L225 435z"/>
<path style="fill:#ab3332; stroke:none;" d="M258 435L259 436L258 435M294 435L295 436L294 435z"/>
<path style="fill:#cdab34; stroke:none;" d="M174 436L175 437L174 436M220 436L221 437L220 436z"/>
<path style="fill:#85705c; stroke:none;" d="M221.667 436.333L222.333 436.667L221.667 436.333M235 436L236 437L235 436M251.333 436.667L251.667 437.333L251.333 436.667z"/>
<path style="fill:#cdab34; stroke:none;" d="M216 437L217 438L216 437z"/>
<path style="fill:#85705c; stroke:none;" d="M217 437L218 438L217 437M233 437L234 438L233 437z"/>
<path style="fill:#cdab34; stroke:none;" d="M234 437L235 438L234 437z"/>
<path style="fill:#ab3332; stroke:none;" d="M295 437L296 438L295 437z"/>
<path style="fill:#85705c; stroke:none;" d="M175 438L176 439L175 438z"/>
<path style="fill:#cdab34; stroke:none;" d="M211.667 438.333L212.333 438.667L211.667 438.333z"/>
<path style="fill:#85705c; stroke:none;" d="M213 438L214 439L213 438M228.667 438.333L229.333 438.667L228.667 438.333z"/>
<path style="fill:#cdab34; stroke:none;" d="M230.667 438.333L231.333 438.667L230.667 438.333M209 439L210 440L209 439z"/>
<path style="fill:#85705c; stroke:none;" d="M223.667 439.333L224.333 439.667L223.667 439.333z"/>
<path style="fill:#cdab34; stroke:none;" d="M225 439L226 440L225 439z"/>
<path style="fill:#85705c; stroke:none;" d="M176 440L177 441L176 440M209.333 440.667L209.667 441.333L209.333 440.667M218.667 440.333L219.333 440.667L218.667 440.333z"/>
<path style="fill:#cdab34; stroke:none;" d="M220 440L221 441L220 440z"/>
<path style="fill:#85705c; stroke:none;" d="M252 440L253 441L252 440z"/>
<path style="fill:#ab3332; stroke:none;" d="M296 440L297 441L296 440z"/>
<path style="fill:#85705c; stroke:none;" d="M177 441L178 442L177 441M215 441L216 442L215 441z"/>
<path style="fill:#cdab34; stroke:none;" d="M216 441L217 442L216 441M252 441L253 442L252 441M178 442L179 443L178 442z"/>
<path style="fill:#85705c; stroke:none;" d="M210 442L210 443L213 443L210 442z"/>
<path style="fill:#cdab34; stroke:none;" d="M213 442L214 443L213 442z"/>
<path style="fill:#85705c; stroke:none;" d="M179 443L180 444L179 443M253 443L254 444L253 443z"/>
<path style="fill:#ab3332; stroke:none;" d="M261 443L262 444L261 443z"/>
<path style="fill:#85705c; stroke:none;" d="M180 444L181 445L180 444z"/>
<path style="fill:#cdab34; stroke:none;" d="M248 444L249 445L248 444z"/>
<path style="fill:#85705c; stroke:none;" d="M249 444L249 445L252 445L249 444M182 445L183 446L182 445z"/>
<path style="fill:#cdab34; stroke:none;" d="M243 445L244 446L243 445z"/>
<path style="fill:#85705c; stroke:none;" d="M244.667 445.333L245.333 445.667L244.667 445.333M184 446L185 447L184 446z"/>
<path style="fill:#cdab34; stroke:none;" d="M239 446L240 447L239 446z"/>
<path style="fill:#85705c; stroke:none;" d="M240 446L241 447L240 446z"/>
<path style="fill:#ab3332; stroke:none;" d="M262 446L263 447L262 446z"/>
<path style="fill:#85705c; stroke:none;" d="M186 447L187 448L186 447z"/>
<path style="fill:#cdab34; stroke:none;" d="M187 447L188 448L187 447M235 447L236 448L235 447z"/>
<path style="fill:#85705c; stroke:none;" d="M236.667 447.333L237.333 447.667L236.667 447.333z"/>
<path style="fill:#ab3332; stroke:none;" d="M299 447L300 448L299 447z"/>
<path style="fill:#85705c; stroke:none;" d="M189 448L190 449L189 448z"/>
<path style="fill:#cdab34; stroke:none;" d="M190 448L191 449L190 448M231 448L232 449L231 448z"/>
<path style="fill:#85705c; stroke:none;" d="M232.667 448.333L233.333 448.667L232.667 448.333M192 449L193 450L192 449M228.667 449.333L229.333 449.667L228.667 449.333z"/>
<path style="fill:#ab3332; stroke:none;" d="M263 449L264 450L263 449z"/>
<path style="fill:#85705c; stroke:none;" d="M194 450L195 451L194 450z"/>
<path style="fill:#cdab34; stroke:none;" d="M195 450L196 451L195 450z"/>
<path style="fill:#ab3332; stroke:none;" d="M300.333 450.667L300.667 451.333L300.333 450.667z"/>
<path style="fill:#85705c; stroke:none;" d="M197 451L198 452L197 451z"/>
<path style="fill:#cdab34; stroke:none;" d="M210 451L210 452L214 452L210 451z"/>
<path style="fill:#85705c; stroke:none;" d="M214 451L215 452L214 451M199.667 452.333L200.333 452.667L199.667 452.333z"/>
<path style="fill:#ab3332; stroke:none;" d="M265 454L266 455L265 454M301 455L302 456L301 455M300 456L301 457L300 456M266 457L267 458L266 457M297 459L298 460L297 459M267 460L268 461L267 460M297 462L298 463L297 462M268.333 463.667L268.667 464.333L268.333 463.667M300 465L301 466L300 465M303 466L304 467L303 466M269.333 470.667L269.667 471.333L269.333 470.667M304 471L305 472L304 471M292 472L293 473L292 472M294 475L295 476L294 475M305 476L306 477L305 476M287 478L288 479L287 478M298 481L299 482L298 481M269 482L269 486L270 486L269 482M306 482L306 486L307 486L306 482M300 484L301 485L300 484M284 485L285 486L284 485M301 485L302 486L301 485M306 488L305 490L307 490L306 488M268 492L269 493L268 492M276 493L277 494L276 493M275 494L276 495L275 494z"/>
<path style="fill:#85705c; stroke:none;" d="M301 496L302 497L301 496z"/>
<path style="fill:#ab3332; stroke:none;" d="M302 496L303 497L302 496M267 497L268 498L267 497M271 497L272 498L271 497M268 499L269 500L268 499z"/>
</svg>
