<?xml version="1.0" encoding="UTF-8"?>
<!DOCTYPE svg PUBLIC "-//W3C//DTD SVG 1.1//EN" "http://www.w3.org/Graphics/SVG/1.1/DTD/svg11.dtd">
<svg xmlns="http://www.w3.org/2000/svg" version="1.1" width="512px" height="512px" style="shape-rendering:geometricPrecision; text-rendering:geometricPrecision; image-rendering:optimizeQuality; fill-rule:evenodd; clip-rule:evenodd" xmlns:xlink="http://www.w3.org/1999/xlink">
<g><path style="opacity:0.981" fill="#020202" d="M 229.5,-0.5 C 242.5,-0.5 255.5,-0.5 268.5,-0.5C 279.258,1.02087 289.925,3.52087 300.5,7C 308.38,9.81921 313.88,14.9859 317,22.5C 317.167,40.1761 317.667,57.8428 318.5,75.5C 335.037,81.886 348.87,91.886 360,105.5C 370.858,122.278 371.191,139.278 361,156.5C 357.619,160.375 354.453,164.375 351.5,168.5C 350.448,168.351 349.448,168.517 348.5,169C 341.476,175.514 333.476,180.514 324.5,184C 317.847,184.344 315.013,181.177 316,174.5C 316.785,172.714 317.951,171.214 319.5,170C 332.775,164.724 342.941,155.891 350,143.5C 354.936,130.647 352.602,119.314 343,109.5C 336.013,102.344 327.846,97.0106 318.5,93.5C 318.44,92.9569 318.107,92.6236 317.5,92.5C 316.167,99.8333 316.167,107.167 317.5,114.5C 318.107,114.376 318.44,114.043 318.5,113.5C 324.962,108.559 330.129,109.559 334,116.5C 334.635,118.635 334.301,120.635 333,122.5C 315.142,132.426 295.975,138.259 275.5,140C 252.418,142.36 229.418,141.86 206.5,138.5C 193.167,135.332 180.167,130.832 167.5,125C 161.536,118.65 162.536,113.817 170.5,110.5C 173.592,111.308 176.592,112.308 179.5,113.5C 179.56,114.043 179.893,114.376 180.5,114.5C 181.819,107.01 181.819,99.6769 180.5,92.5C 170.453,96.7142 161.619,102.714 154,110.5C 143.864,122.731 142.864,135.731 151,149.5C 162.223,162.36 176.056,171.027 192.5,175.5C 214.419,183.178 237.085,186.011 260.5,184C 270.585,183.38 280.585,182.213 290.5,180.5C 298.767,180.68 301.267,184.68 298,192.5C 296.581,193.46 295.081,194.293 293.5,195C 261.029,201.381 228.696,200.881 196.5,193.5C 188.746,190.97 181.08,188.137 173.5,185C 164.111,179.98 155.111,174.48 146.5,168.5C 122.733,141.816 124.066,116.316 150.5,92C 159.548,85.474 169.215,79.974 179.5,75.5C 180.333,57.5092 180.833,39.5092 181,21.5C 183.474,15.0257 187.974,10.5257 194.5,8C 205.978,3.81007 217.644,0.976742 229.5,-0.5 Z"/></g>
<g><path style="opacity:1" fill="#d78431" d="M 235.5,14.5 C 253.031,13.6949 270.365,15.1949 287.5,19C 292.337,20.3238 296.671,22.4905 300.5,25.5C 298.543,27.4848 296.21,28.9848 293.5,30C 264.592,38.1922 235.592,38.5256 206.5,31C 202.717,29.9425 199.383,28.1092 196.5,25.5C 200.776,22.5293 205.442,20.3627 210.5,19C 218.898,17.0827 227.231,15.5827 235.5,14.5 Z"/></g>
<g><path style="opacity:0.915" fill="#000000" d="M 438.5,27.5 C 442.178,27.777 445.012,29.4437 447,32.5C 447.667,41.5 447.667,50.5 447,59.5C 442.048,66.1482 437.048,66.1482 432,59.5C 431.333,50.8333 431.333,42.1667 432,33.5C 433.436,30.5581 435.603,28.5581 438.5,27.5 Z"/></g>
<g><path style="opacity:1" fill="#dc8732" d="M 220.5,49.5 C 220.5,74.1667 220.5,98.8333 220.5,123.5C 212.142,123.38 204.476,121.047 197.5,116.5C 196.167,92.1667 196.167,67.8333 197.5,43.5C 204.916,46.4583 212.583,48.4583 220.5,49.5 Z"/></g>
<g><path style="opacity:1" fill="#f7d165" d="M 300.5,43.5 C 301.498,67.3275 301.831,91.3275 301.5,115.5C 292.908,120.491 283.575,123.658 273.5,125C 256.114,127.144 238.781,126.978 221.5,124.5C 221.5,99.8333 221.5,75.1667 221.5,50.5C 222.833,50.5 224.167,50.5 225.5,50.5C 251.054,53.3631 276.054,51.0298 300.5,43.5 Z"/></g>
<g><path style="opacity:1" fill="#2d2612" d="M 300.5,43.5 C 300.56,42.9569 300.893,42.6236 301.5,42.5C 302.829,66.9967 302.829,91.33 301.5,115.5C 301.831,91.3275 301.498,67.3275 300.5,43.5 Z"/></g>
<g><path style="opacity:1" fill="#e5a94a" d="M 220.5,49.5 C 222.415,49.2155 224.081,49.5489 225.5,50.5C 224.167,50.5 222.833,50.5 221.5,50.5C 221.5,75.1667 221.5,99.8333 221.5,124.5C 220.833,124.5 220.5,124.167 220.5,123.5C 220.5,98.8333 220.5,74.1667 220.5,49.5 Z"/></g>
<g><path style="opacity:1" fill="#0d0b05" d="M 279.5,53.5 C 290.132,53.5933 292.799,58.0933 287.5,67C 278.895,69.7337 275.062,66.5671 276,57.5C 277.376,56.2949 278.542,54.9616 279.5,53.5 Z"/></g>
<g><path style="opacity:1" fill="#0c0904" d="M 245.5,58.5 C 256.132,58.5933 258.799,63.0933 253.5,72C 244.895,74.7337 241.062,71.5671 242,62.5C 243.376,61.2949 244.542,59.9616 245.5,58.5 Z"/></g>
<g><path style="opacity:0.913" fill="#000000" d="M 398.5,65.5 C 407.839,65.3335 417.173,65.5002 426.5,66C 430.212,68.6019 431.378,72.1019 430,76.5C 428.891,78.8147 427.057,80.3147 424.5,81C 415.424,81.9133 406.424,81.58 397.5,80C 393.268,74.8087 393.601,69.9754 398.5,65.5 Z"/></g>
<g><path style="opacity:0.915" fill="#000000" d="M 452.5,65.5 C 461.839,65.3335 471.173,65.5002 480.5,66C 484.277,68.9109 485.444,72.7442 484,77.5C 482.681,79.4875 480.848,80.6541 478.5,81C 470.5,81.6667 462.5,81.6667 454.5,81C 447.406,76.693 446.74,71.5264 452.5,65.5 Z"/></g>
<g><path style="opacity:1" fill="#0b0904" d="M 267.5,78.5 C 276.017,78.5446 278.851,82.5446 276,90.5C 271.291,94.7695 266.958,94.4361 263,89.5C 261.776,84.626 263.276,80.9593 267.5,78.5 Z"/></g>
<g><path style="opacity:0.911" fill="#000000" d="M 435.5,82.5 C 440.223,81.5531 444.056,82.8864 447,86.5C 447.667,95.5 447.667,104.5 447,113.5C 443.987,118.535 439.82,119.702 434.5,117C 433.299,116.097 432.465,114.931 432,113.5C 431.333,104.833 431.333,96.1667 432,87.5C 432.997,85.6769 434.164,84.0103 435.5,82.5 Z"/></g>
<g><path style="opacity:1" fill="#33574a" d="M 180.5,92.5 C 181.819,99.6769 181.819,107.01 180.5,114.5C 179.893,114.376 179.56,114.043 179.5,113.5C 180.491,106.687 180.825,99.6866 180.5,92.5 Z"/></g>
<g><path style="opacity:1" fill="#6e8c82" d="M 318.5,93.5 C 317.167,100.167 317.167,106.833 318.5,113.5C 318.44,114.043 318.107,114.376 317.5,114.5C 316.167,107.167 316.167,99.8333 317.5,92.5C 318.107,92.6236 318.44,92.9569 318.5,93.5 Z"/></g>
<g><path style="opacity:1" fill="#7fd8b8" d="M 180.5,92.5 C 180.825,99.6866 180.491,106.687 179.5,113.5C 176.592,112.308 173.592,111.308 170.5,110.5C 162.536,113.817 161.536,118.65 167.5,125C 180.167,130.832 193.167,135.332 206.5,138.5C 192.612,147.286 187.945,159.619 192.5,175.5C 176.056,171.027 162.223,162.36 151,149.5C 142.864,135.731 143.864,122.731 154,110.5C 161.619,102.714 170.453,96.7142 180.5,92.5 Z"/></g>
<g><path style="opacity:0.999" fill="#bbefdd" d="M 318.5,93.5 C 327.846,97.0106 336.013,102.344 343,109.5C 352.602,119.314 354.936,130.647 350,143.5C 342.941,155.891 332.775,164.724 319.5,170C 317.951,171.214 316.785,172.714 316,174.5C 315.013,181.177 317.847,184.344 324.5,184C 333.476,180.514 341.476,175.514 348.5,169C 349.448,168.517 350.448,168.351 351.5,168.5C 353.5,170.167 355.5,171.833 357.5,173.5C 356.624,176.799 356.457,180.132 357,183.5C 364.615,191.237 372.115,199.071 379.5,207C 382.681,207.597 385.681,207.097 388.5,205.5C 389.124,207.754 390.457,209.421 392.5,210.5C 389.483,221.406 386.65,232.406 384,243.5C 382.4,247.577 380.234,251.244 377.5,254.5C 375.097,254.552 372.764,254.219 370.5,253.5C 371.057,249.112 369.39,245.945 365.5,244C 303.337,230.671 240.67,227.837 177.5,235.5C 183.285,221.262 189.618,207.262 196.5,193.5C 228.696,200.881 261.029,201.381 293.5,195C 295.081,194.293 296.581,193.46 298,192.5C 301.267,184.68 298.767,180.68 290.5,180.5C 280.585,182.213 270.585,183.38 260.5,184C 237.085,186.011 214.419,183.178 192.5,175.5C 187.945,159.619 192.612,147.286 206.5,138.5C 229.418,141.86 252.418,142.36 275.5,140C 295.975,138.259 315.142,132.426 333,122.5C 334.301,120.635 334.635,118.635 334,116.5C 330.129,109.559 324.962,108.559 318.5,113.5C 317.167,106.833 317.167,100.167 318.5,93.5 Z"/></g>
<g><path style="opacity:0.911" fill="#000000" d="M 60.5,128.5 C 65.7419,127.271 69.5752,128.937 72,133.5C 72.6667,142.167 72.6667,150.833 72,159.5C 68.9867,164.535 64.8201,165.702 59.5,163C 58.2986,162.097 57.4652,160.931 57,159.5C 56.3333,150.5 56.3333,141.5 57,132.5C 58.3756,131.295 59.5423,129.962 60.5,128.5 Z"/></g>
<g><path style="opacity:0.909" fill="#000000" d="M 23.5,165.5 C 32.5062,165.334 41.5062,165.5 50.5,166C 54.8608,168.226 56.3608,171.726 55,176.5C 54.1667,178.667 52.6667,180.167 50.5,181C 41.5,181.667 32.5,181.667 23.5,181C 18.208,175.835 18.208,170.668 23.5,165.5 Z"/></g>
<g><path style="opacity:0.913" fill="#000000" d="M 78.5,165.5 C 87.1731,165.334 95.8397,165.5 104.5,166C 109.224,168.435 110.724,172.269 109,177.5C 107.786,179.049 106.286,180.215 104.5,181C 95.8333,181.667 87.1667,181.667 78.5,181C 73.4648,177.987 72.2981,173.82 75,168.5C 76.1451,167.364 77.3117,166.364 78.5,165.5 Z"/></g>
<g><path style="opacity:1" fill="#80d9b9" d="M 146.5,168.5 C 155.111,174.48 164.111,179.98 173.5,185C 181.08,188.137 188.746,190.97 196.5,193.5C 189.618,207.262 183.285,221.262 177.5,235.5C 172.639,239.544 172.305,244.044 176.5,249C 188.186,248.999 199.852,248.332 211.5,247C 262.409,244.046 312.742,247.879 362.5,258.5C 366.193,258.328 368.859,256.661 370.5,253.5C 372.764,254.219 375.097,254.552 377.5,254.5C 373.499,260.33 368.166,264.496 361.5,267C 350.119,269.875 338.786,272.875 327.5,276C 318.373,284.944 318.373,293.944 327.5,303C 338.024,306.172 348.691,308.839 359.5,311C 371.834,316.164 380.167,324.997 384.5,337.5C 383.713,339.104 382.38,339.771 380.5,339.5C 378.98,336.498 376.48,334.831 373,334.5C 365.364,336.237 357.864,338.403 350.5,341C 348.253,342.995 347.253,345.495 347.5,348.5C 343.865,349.114 340.198,349.448 336.5,349.5C 335.651,344.772 334.485,340.105 333,335.5C 328.745,328.46 322.578,325.96 314.5,328C 311.734,329.467 309.234,331.3 307,333.5C 304.684,340.94 302.184,348.273 299.5,355.5C 293.185,356.11 286.851,356.443 280.5,356.5C 280.256,353.737 278.923,351.571 276.5,350C 229.258,352.245 182.592,348.245 136.5,338C 117.995,333.742 100.661,326.742 84.5,317C 66.6008,304.93 66.2675,292.596 83.5,280C 104.455,267.197 127.121,258.864 151.5,255C 156.689,252.087 157.856,247.92 155,242.5C 153.261,241.106 151.261,240.439 149,240.5C 126.634,244.011 105.467,251.011 85.5,261.5C 97.796,233.286 115.296,208.286 138,186.5C 139.974,182.732 139.807,179.066 137.5,175.5C 140.319,172.925 143.319,170.592 146.5,168.5 Z"/></g>
<g><path style="opacity:0.944" fill="#020202" d="M 388.5,205.5 C 385.681,207.097 382.681,207.597 379.5,207C 372.115,199.071 364.615,191.237 357,183.5C 356.457,180.132 356.624,176.799 357.5,173.5C 359.484,172.844 361.484,172.178 363.5,171.5C 365.61,172.054 367.61,172.888 369.5,174C 377.072,180.901 383.905,188.401 390,196.5C 390.793,199.741 390.293,202.741 388.5,205.5 Z"/></g>
<g><path style="opacity:0.98" fill="#020302" d="M 137.5,175.5 C 139.807,179.066 139.974,182.732 138,186.5C 115.296,208.286 97.796,233.286 85.5,261.5C 105.467,251.011 126.634,244.011 149,240.5C 151.261,240.439 153.261,241.106 155,242.5C 157.856,247.92 156.689,252.087 151.5,255C 127.121,258.864 104.455,267.197 83.5,280C 66.2675,292.596 66.6008,304.93 84.5,317C 100.661,326.742 117.995,333.742 136.5,338C 182.592,348.245 229.258,352.245 276.5,350C 278.923,351.571 280.256,353.737 280.5,356.5C 280.678,360.828 278.678,363.662 274.5,365C 228.708,366.785 183.375,363.119 138.5,354C 116.43,349.534 95.763,341.534 76.5,330C 72.6858,327.02 69.0191,323.854 65.5,320.5C 57.2499,352.64 60.7499,383.64 76,413.5C 77.0536,417.655 76.2202,421.322 73.5,424.5C 68.9354,426.353 65.102,425.353 62,421.5C 45.6899,388.05 41.3566,353.05 49,316.5C 61.2824,261.418 87.4491,214.251 127.5,175C 130.822,173.406 134.156,173.573 137.5,175.5 Z"/></g>
<g><path style="opacity:0.911" fill="#000000" d="M 61.5,182.5 C 66.2797,181.641 69.7797,183.308 72,187.5C 72.6667,196.167 72.6667,204.833 72,213.5C 69.5647,218.224 65.7314,219.724 60.5,218C 59.3333,216.833 58.1667,215.667 57,214.5C 56.3333,205.5 56.3333,196.5 57,187.5C 58.025,185.313 59.525,183.646 61.5,182.5 Z"/></g>
<g><path style="opacity:0.982" fill="#030301" d="M 441.5,317.5 C 434.953,322.887 430.12,329.554 427,337.5C 424.92,347.236 422.586,356.903 420,366.5C 415.464,373.844 408.964,376.344 400.5,374C 395.269,371.768 391.769,367.935 390,362.5C 388.837,353.886 387.003,345.553 384.5,337.5C 380.167,324.997 371.834,316.164 359.5,311C 348.691,308.839 338.024,306.172 327.5,303C 318.373,293.944 318.373,284.944 327.5,276C 338.786,272.875 350.119,269.875 361.5,267C 368.166,264.496 373.499,260.33 377.5,254.5C 380.234,251.244 382.4,247.577 384,243.5C 386.65,232.406 389.483,221.406 392.5,210.5C 399.471,202.943 407.471,201.776 416.5,207C 418.956,209.408 420.789,212.241 422,215.5C 423.872,224.529 425.872,233.529 428,242.5C 433.846,256.348 444.012,265.181 458.5,269C 467.794,270.324 476.794,272.657 485.5,276C 493.5,285 493.5,294 485.5,303C 476.794,306.343 467.794,308.676 458.5,310C 452.479,311.835 446.812,314.335 441.5,317.5 Z"/></g>
<g><path style="opacity:1" fill="#f5d064" d="M 404.5,219.5 C 405.5,219.5 406.5,219.5 407.5,219.5C 408.956,232.283 412.123,244.617 417,256.5C 424.32,267.814 434.153,276.314 446.5,282C 456.322,284.194 465.988,286.694 475.5,289.5C 465.947,292.208 456.28,294.708 446.5,297C 430.244,303.589 419.077,315.089 413,331.5C 410.588,340.724 408.755,350.058 407.5,359.5C 406.5,359.5 405.5,359.5 404.5,359.5C 403.955,340.946 397.789,324.613 386,310.5C 379.727,304.612 372.56,300.112 364.5,297C 354.72,294.708 345.053,292.208 335.5,289.5C 346.861,286.657 358.194,283.49 369.5,280C 382.735,273.395 392.235,263.229 398,249.5C 401.126,239.703 403.293,229.703 404.5,219.5 Z"/></g>
<g><path style="opacity:1" fill="#030404" d="M 370.5,253.5 C 368.859,256.661 366.193,258.328 362.5,258.5C 312.742,247.879 262.409,244.046 211.5,247C 199.852,248.332 188.186,248.999 176.5,249C 172.305,244.044 172.639,239.544 177.5,235.5C 240.67,227.837 303.337,230.671 365.5,244C 369.39,245.945 371.057,249.112 370.5,253.5 Z"/></g>
<g><path style="opacity:1" fill="#55aa8e" d="M 441.5,317.5 C 441.95,322.202 442.617,326.868 443.5,331.5C 440.947,332.539 438.78,334.206 437,336.5C 439.763,402.359 411.263,448.859 351.5,476C 288.552,500.862 224.885,502.862 160.5,482C 134.084,472.473 111.417,457.473 92.5,437C 88.5562,433.97 84.5562,433.803 80.5,436.5C 77.662,432.828 75.3287,428.828 73.5,424.5C 76.2202,421.322 77.0536,417.655 76,413.5C 60.7499,383.64 57.2499,352.64 65.5,320.5C 69.0191,323.854 72.6858,327.02 76.5,330C 95.763,341.534 116.43,349.534 138.5,354C 183.375,363.119 228.708,366.785 274.5,365C 278.678,363.662 280.678,360.828 280.5,356.5C 286.851,356.443 293.185,356.11 299.5,355.5C 297.046,359.789 293.712,363.289 289.5,366C 281.974,369.04 274.308,371.707 266.5,374C 258.5,382.333 258.5,390.667 266.5,399C 272.746,401.193 279.079,403.193 285.5,405C 297.973,412.079 304.806,422.913 306,437.5C 310.032,445.037 316.198,447.537 324.5,445C 327.562,443.939 330.062,442.106 332,439.5C 333.917,433.921 335.584,428.254 337,422.5C 340.5,413.667 346.667,407.5 355.5,404C 361.314,402.797 366.981,401.13 372.5,399C 380.432,390.635 380.432,382.302 372.5,374C 366.976,371.869 361.309,370.202 355.5,369C 346.279,365.28 339.946,358.78 336.5,349.5C 340.198,349.448 343.865,349.114 347.5,348.5C 348.65,352.146 351.15,354.146 355,354.5C 363.264,352.936 371.264,350.602 379,347.5C 380.252,344.986 380.752,342.32 380.5,339.5C 382.38,339.771 383.713,339.104 384.5,337.5C 387.003,345.553 388.837,353.886 390,362.5C 391.769,367.935 395.269,371.768 400.5,374C 408.964,376.344 415.464,373.844 420,366.5C 422.586,356.903 424.92,347.236 427,337.5C 430.12,329.554 434.953,322.887 441.5,317.5 Z"/></g>
<g><path style="opacity:1" fill="#030402" d="M 336.5,349.5 C 339.946,358.78 346.279,365.28 355.5,369C 361.309,370.202 366.976,371.869 372.5,374C 380.432,382.302 380.432,390.635 372.5,399C 366.981,401.13 361.314,402.797 355.5,404C 346.667,407.5 340.5,413.667 337,422.5C 335.584,428.254 333.917,433.921 332,439.5C 330.062,442.106 327.562,443.939 324.5,445C 316.198,447.537 310.032,445.037 306,437.5C 304.806,422.913 297.973,412.079 285.5,405C 279.079,403.193 272.746,401.193 266.5,399C 258.5,390.667 258.5,382.333 266.5,374C 274.308,371.707 281.974,369.04 289.5,366C 293.712,363.289 297.046,359.789 299.5,355.5C 302.184,348.273 304.684,340.94 307,333.5C 309.234,331.3 311.734,329.467 314.5,328C 322.578,325.96 328.745,328.46 333,335.5C 334.485,340.105 335.651,344.772 336.5,349.5 Z"/></g>
<g><path style="opacity:0.96" fill="#000101" d="M 443.5,331.5 C 450.35,332.532 453.183,336.532 452,343.5C 453.825,404.363 428.658,450.197 376.5,481C 343.894,498.595 309.227,508.762 272.5,511.5C 256.5,511.5 240.5,511.5 224.5,511.5C 178.955,508.264 137.621,493.43 100.5,467C 93.364,460.865 86.5307,454.365 80,447.5C 77.8664,443.647 78.033,439.98 80.5,436.5C 84.5562,433.803 88.5562,433.97 92.5,437C 111.417,457.473 134.084,472.473 160.5,482C 224.885,502.862 288.552,500.862 351.5,476C 411.263,448.859 439.763,402.359 437,336.5C 438.78,334.206 440.947,332.539 443.5,331.5 Z"/></g>
<g><path style="opacity:1" fill="#040706" d="M 380.5,339.5 C 380.752,342.32 380.252,344.986 379,347.5C 371.264,350.602 363.264,352.936 355,354.5C 351.15,354.146 348.65,352.146 347.5,348.5C 347.253,345.495 348.253,342.995 350.5,341C 357.864,338.403 365.364,336.237 373,334.5C 376.48,334.831 378.98,336.498 380.5,339.5 Z"/></g>
<g><path style="opacity:1" fill="#f4cf64" d="M 318.5,343.5 C 323.719,366.223 337.719,380.723 360.5,387C 338.403,391.93 324.736,405.43 319.5,427.5C 313.913,404.077 299.246,390.577 275.5,387C 293.537,384.233 306.703,374.733 315,358.5C 316.958,353.671 318.124,348.671 318.5,343.5 Z"/></g>
</svg>
