<?xml version="1.0" standalone="yes"?>
<svg xmlns="http://www.w3.org/2000/svg" width="512" height="512">
<path style="fill:#dff7ee; stroke:none;" d="M0 0L0 512L225 512L225 511C185.643 510.996 142.018 495.849 110 473.41C99.9514 466.368 88.6997 458.029 81.4336 448C78.1729 443.499 80.9737 440.672 80.1528 436C79.4952 432.258 75.9305 428.258 74 425C62.6941 426.826 59.469 415.699 56 407C48.1626 387.347 44.6419 365.139 46.0895 344C49.2917 297.239 68.0718 251.933 95.1412 214C104.221 201.276 114.522 186.924 126.996 177.307C131.599 173.758 134.157 176.584 139.004 175.799C142.387 175.252 145.276 171.894 148 170C143.096 162.955 136.854 157.07 133.465 149C124.439 127.515 135.022 106.387 152 92.4645C157.747 87.7521 164.294 83.6866 171 80.4861C174.012 79.0486 178.85 77.8969 180.397 74.6096C182.221 70.7323 181 64.2038 181 60C181 41.3389 175.511 17.8334 196 8.51776C200.703 6.37921 205.979 4.84198 211 3.65433C217.223 2.18219 223.6 1.05298 230 1L209 0L162 0L0 0z"/>
<path style="fill:#030403; stroke:none;" d="M182 93L182 115C176.434 112.717 157.453 110.535 165.862 122.787C171.956 131.667 191.235 134.529 201 136.87C233.062 144.553 269.054 144.111 301 136.127C309.795 133.928 326.358 131.098 332.258 123.61C341.65 111.69 323.127 112.487 317 115L317 93C337.579 101.568 363.47 122.804 348.532 147C341.111 159.019 328.983 162.595 319.394 171.634C316.068 174.769 315.482 180.02 319.394 182.987C325.8 187.845 335.787 179.456 341 175.996C358.075 164.663 371.836 147.766 368.41 126C365.669 108.586 353.562 95.3685 339 86.2292C333.574 82.8235 322.508 80.066 319.028 74.6096C316.714 70.9818 318 64.1303 318 60C318 48.0985 321.71 28.5575 315.467 18.0394C309.729 8.37286 296.123 5.418 286 3.1196C263.425 -2.00598 237.687 -1.66754 215 2.61111C205.487 4.40518 194.594 7.0683 187.094 13.5178C176.067 23.0005 181 47.7903 181 61C181 64.9025 182.164 71.1739 179.972 74.6096C176.437 80.1516 164.551 83.1223 159 86.6983C141.608 97.9019 129.072 114.691 130.039 136C130.84 153.632 143.345 166.281 157 175.653C184.142 194.28 218.713 200 251 200C262.723 200 274.472 199.01 286 196.803C290.256 195.989 296.142 195.922 298.681 191.775C304.374 182.479 292.189 180.531 286 181.615C247.365 188.379 203.05 186.663 169 164.946C159.757 159.051 150.051 150.924 146.785 140C140.508 118.999 163.619 98.3055 182 93z"/>
<path style="fill:#dff7ee; stroke:none;" d="M269 0L269 1C284.773 1.13055 315.372 6.63977 317.815 26C319.245 37.3384 318 49.5725 318 61C318 64.943 316.661 71.9733 319.028 75.3627C322.722 80.6539 333.576 83.3504 339 86.865C353.8 96.455 366.009 110.107 368.572 128C371.479 148.303 356.341 165.183 341 175.964C336.457 179.157 328.029 186.265 322.005 184.353C316.092 182.477 314.835 175.76 319.228 171.761C328.467 163.353 340.265 160.099 347.452 149C362.461 125.823 340.922 100.603 318 94L318 114C321.111 113.113 324.69 110.949 327.996 111.539C335.16 112.816 335.798 120.432 330.941 124.61C322.292 132.048 307.84 134.864 297 137.349C275.624 142.249 253.802 142.915 232 141.961C224.3 141.623 215.632 138.247 208 139.267C198.95 140.476 192.51 151.811 191.301 160C188.898 176.273 199.369 178.861 213 181.25C232.184 184.613 251.617 186.152 271 183.576C277.842 182.666 291.067 177.725 296.89 182.438C310.258 193.255 283.245 197.876 277 198.718C249.86 202.374 223.683 199.505 197 194C189.908 206.151 180.473 222.086 178 236C227.439 226.789 280.527 230.237 330 237.13C340.64 238.613 355.359 239.417 364.995 244.314C369.254 246.478 370.926 255.563 375.979 254.863C380.857 254.188 383.14 246.908 384.564 243C389.253 230.138 389.867 195.575 412.999 205.97C428.954 213.139 424.556 241.062 434.529 254C447.961 271.426 466.097 266.107 482.996 275.417C489.85 279.194 493.712 287.407 491.146 295C486.323 309.269 467.743 307.527 456 311.358C451.74 312.748 443.437 314.989 442.407 320.104C440.347 330.339 449.534 331.281 451.697 339.005C455.528 352.687 452.581 371.368 449.576 385C432.518 462.362 349.016 510.95 273 511L273 512L512 512L512 0L269 0z"/>
<path style="fill:#8d672e; stroke:none;" d="M237 15L237 16L262 16L237 15M227 16L227 17L233 17L227 16z"/>
<path style="fill:#f2c25b; stroke:none;" d="M198 27C226.652 38.7517 271.917 42.9661 300 27L300 25C278.306 13.4492 247.712 13.9932 224 17.4283C215.436 18.6688 203.889 20.1482 198 27z"/>
<path style="fill:#8d672e; stroke:none;" d="M266 16L266 17L272 17L266 16M220 17L220 18L224 18L220 17M274 17L274 18L279 18L274 17M215 18L215 19L218 19L215 18M280 18L280 19L283 19L280 18M211 19L211 20L214 20L211 19M285 19L285 20L288 20L285 19M208.667 20.3333L209.333 20.6667L208.667 20.3333M288 20L288 21L291 21L288 20M205.667 21.3333L206.333 21.6667L205.667 21.3333M292.667 21.3333L293.333 21.6667L292.667 21.3333M203 22L204 23L203 22M294.667 22.3333L295.333 22.6667L294.667 22.3333M201 23L202 24L201 23M297 23L298 24L297 23M199 24L200 25L199 24M299 24L300 25L299 24M197 25L197 27L199 25L197 25M300 25L300 27L302 27L300 25M199 27L200 28L199 27M299 27L300 28L299 27M200.667 28.3333L201.333 28.6667L200.667 28.3333M297.667 28.3333L298.333 28.6667L297.667 28.3333z"/>
<path style="fill:#030403; stroke:none;" d="M439.003 28.7577C427.944 30.5645 427.776 66.251 440.997 64.5008C452.267 63.0088 452.111 26.6161 439.003 28.7577z"/>
<path style="fill:#8d672e; stroke:none;" d="M202.667 29.3333L203.333 29.6667L202.667 29.3333M295.667 29.3333L296.333 29.6667L295.667 29.3333M205.667 30.3333L206.333 30.6667L205.667 30.3333M292.667 30.3333L293.333 30.6667L292.667 30.3333M207 31L207 32L210 32L207 31M289.667 31.3333L290.333 31.6667L289.667 31.3333M211.667 32.3333L212.333 32.6667L211.667 32.3333M286.667 32.3333L287.333 32.6667L286.667 32.3333M215 33L215 34L218 34L215 33M281 33L281 34L284 34L281 33M219 34L219 35L223 35L219 34M275 34L275 35L280 35L275 34M226 35L226 36L231 36L226 35M268 35L268 36L273 36L268 35M235 36L235 37L264 37L235 36M196 44L196 115L197 115L197 66L196 44z"/>
<path style="fill:#f2c25b; stroke:none;" d="M197 44L197 95C197 100.46 195.009 110.878 198.028 115.61C201.45 120.974 212.27 122.569 218 123.789C237.838 128.014 259.062 128.005 279 124.386C285.122 123.275 297.501 121.645 300.972 115.786C303.933 110.789 302 100.664 302 95L302 44C268.204 53.2212 230.547 56.941 197 44z"/>
<path style="fill:#8d672e; stroke:none;" d="M198.667 44.3333L199.333 44.6667L198.667 44.3333M299 44L300 45L299 44M200.667 45.3333L201.333 45.6667L200.667 45.3333M296.667 45.3333L297.333 45.6667L296.667 45.3333M203 46L203 47L206 47L203 46M293.667 46.3333L294.333 46.6667L293.667 46.3333M206 47L206 48L209 48L206 47M289.667 47.3333L290.333 47.6667L289.667 47.3333M211 48L211 49L214 49L211 48M284 48L284 49L287 49L284 48M216 49L216 50L219 50L216 49M279.667 49.3333L280.333 49.6667L279.667 49.3333M223 50L223 51L227 51L223 50M272 50L272 51L276 51L272 50M232 51L232 52L237 52L232 51M262 51L262 52L267 52L262 51M280 54L281 55L280 54z"/>
<path style="fill:#030403; stroke:none;" d="M281.044 54.7577C272.441 57.9773 277.514 71.2324 285.956 67.5887C294.154 64.0504 289.351 51.649 281.044 54.7577z"/>
<path style="fill:#8d672e; stroke:none;" d="M286 54L287 55L286 54M278 55L279 56L278 55M288 55L289 56L288 55M277 56L278 57L277 56M289 56L290 57L289 56M276 58L277 59L276 58M290.333 58.6667L290.667 59.3333L290.333 58.6667M246 59L247 60L246 59z"/>
<path style="fill:#030403; stroke:none;" d="M247.044 59.7577C238.367 63.0048 243.369 76.237 251.895 72.9475C260.266 69.7183 255.541 56.5779 247.044 59.7577z"/>
<path style="fill:#8d672e; stroke:none;" d="M252 59L253 60L252 59M244 60L245 61L244 60M243 61L244 62L243 61M242 63L243 64L242 63M256.333 63.6667L256.667 64.3333L256.333 63.6667M276.333 63.6667L276.667 64.3333L276.333 63.6667M290 63L291 64L290 63M289 65L290 66L289 65M288 66L289 67L288 66z"/>
<path style="fill:#030403; stroke:none;" d="M399.059 67.0278C393.837 69.8873 393.936 77.8476 399.109 80.6821C404.622 83.7029 421.426 83.6194 426.891 80.5432C432 77.6673 432.208 69.9125 426.941 67.0278C421.998 64.3202 404.002 64.3202 399.059 67.0278M453.109 67.0278C447.499 70.1859 448.525 78.4814 454.105 80.9908C459.767 83.5374 476.682 83.7859 481.852 80.142C486.282 77.0197 485.961 69.1685 480.891 66.858C475.67 64.4782 458.135 64.198 453.109 67.0278z"/>
<path style="fill:#8d672e; stroke:none;" d="M279 67L280 68L279 67M287 67L288 68L287 67M256 68L257 69L256 68M281.667 68.3333L282.333 68.6667L281.667 68.3333M284.667 68.3333L285.333 68.6667L284.667 68.3333M242 69L243 70L242 69M255 70L256 71L255 70M245 72L246 73L245 72M253 72L254 73L253 72M246.667 73.3333L247.333 73.6667L246.667 73.3333M251 73L252 74L251 73M268 79L269 80L268 79z"/>
<path style="fill:#030403; stroke:none;" d="M269.015 79.838C259.849 81.617 263.11 95.4722 271.981 93.5224C280.754 91.5943 277.793 78.1342 269.015 79.838z"/>
<path style="fill:#8d672e; stroke:none;" d="M271.667 79.3333L272.333 79.6667L271.667 79.3333M266 80L267 81L266 80M274 80L275 81L274 80M276 82L277 83L276 82M263 83L264 84L263 83z"/>
<path style="fill:#030403; stroke:none;" d="M436.109 84.0278C427.759 88.7088 429.156 126.027 443.891 117.82C452.246 113.167 450.871 75.7519 436.109 84.0278z"/>
<path style="fill:#8d672e; stroke:none;" d="M277 84L278 85L277 84M277.333 88.6667L277.667 89.3333L277.333 88.6667M263 89L264 90L263 89M264 91L265 92L264 91M265 92L266 93L265 92M179 93L180 94L179 93z"/>
<path style="fill:#57ab8f; stroke:none;" d="M180 93C167.798 100.129 155.049 106.611 148.634 120C135.354 147.72 170.009 170.552 193 176C189.826 160.613 192.592 146.676 208 139L208 138C196.057 137.025 178.763 132.612 169.044 125.351C164.1 121.657 162.722 114.011 170.015 111.846C173.464 110.823 177.656 113.208 181 114L180 93z"/>
<path style="fill:#8d672e; stroke:none;" d="M181 93L180 115C183.902 111.59 182.925 97.5869 181 93M267 93L268 94L267 93M273 93L274 94L273 93z"/>
<path style="fill:#57ab8f; stroke:none;" d="M317 93L317 114L318 114L319 93L317 93z"/>
<path style="fill:#8d672e; stroke:none;" d="M177 94L178 95L177 94z"/>
<path style="fill:#57ab8f; stroke:none;" d="M320 94L321 95L320 94z"/>
<path style="fill:#8d672e; stroke:none;" d="M175 95L176 96L175 95z"/>
<path style="fill:#57ab8f; stroke:none;" d="M322 95L323 96L322 95z"/>
<path style="fill:#8d672e; stroke:none;" d="M173 96L174 97L173 96z"/>
<path style="fill:#57ab8f; stroke:none;" d="M324 96L325 97L324 96M326 97L327 98L326 97z"/>
<path style="fill:#8d672e; stroke:none;" d="M170 98L171 99L170 98M328 98L329 99L328 98z"/>
<path style="fill:#57ab8f; stroke:none;" d="M329 99L330 100L329 99M331 100L332 101L331 100z"/>
<path style="fill:#8d672e; stroke:none;" d="M164 102L165 103L164 102M334 102L335 103L334 102z"/>
<path style="fill:#57ab8f; stroke:none;" d="M335 103L336 104L335 103M336 104L337 105L336 104z"/>
<path style="fill:#8d672e; stroke:none;" d="M160 105L161 106L160 105M338 105L339 106L338 105M339 106L340 107L339 106M340 107L341 108L340 107M341 108L342 109L341 108M342 109L343 110L342 109z"/>
<path style="fill:#57ab8f; stroke:none;" d="M343 110L344 111L343 110z"/>
<path style="fill:#8d672e; stroke:none;" d="M169.667 111.333L170.333 111.667L169.667 111.333M173 111L174 112L173 111z"/>
<path style="fill:#57ab8f; stroke:none;" d="M324 111L325 112L324 111z"/>
<path style="fill:#8d672e; stroke:none;" d="M325 111L326 112L325 111M328.667 111.333L329.333 111.667L328.667 111.333M344 111L345 112L344 111M153 112L154 113L153 112M167 112L168 113L167 112M322 112L323 113L322 112z"/>
<path style="fill:#57ab8f; stroke:none;" d="M331 112L332 113L331 112z"/>
<path style="fill:#8d672e; stroke:none;" d="M178 113L179 114L178 113M320 113L321 114L320 113M332 113L333 114L332 113M165 114L166 115L165 114M317.667 114.333L318.333 114.667L317.667 114.333z"/>
<path style="fill:#57ab8f; stroke:none;" d="M333 114L334 115L333 114M346 114L347 115L346 114M347 115L348 116L347 115z"/>
<path style="fill:#8d672e; stroke:none;" d="M150 116L151 117L150 116M164 116L165 117L164 116M197 116L198 117L197 116M301 116L302 117L301 116z"/>
<path style="fill:#57ab8f; stroke:none;" d="M334 116L335 117L334 116z"/>
<path style="fill:#8d672e; stroke:none;" d="M198.667 117.333L199.333 117.667L198.667 117.333M300 117L301 118L300 117M334 117L334 121L335 121L334 117z"/>
<path style="fill:#57ab8f; stroke:none;" d="M348 117L349 118L348 117z"/>
<path style="fill:#8d672e; stroke:none;" d="M149 118L150 119L149 118M200.667 118.333L201.333 118.667L200.667 118.333M298 118L299 119L298 118M349 118L350 119L349 118M202.667 119.333L203.333 119.667L202.667 119.333M296 119L297 120L296 119M164 120L165 121L164 120M204.667 120.333L205.333 120.667L204.667 120.333M293.667 120.333L294.333 120.667L293.667 120.333M350 120L351 121L350 120M207 121L207 122L210 122L207 121M290.667 121.333L291.333 121.667L290.667 121.333z"/>
<path style="fill:#57ab8f; stroke:none;" d="M334 121L335 122L334 121z"/>
<path style="fill:#8d672e; stroke:none;" d="M147 122L148 123L147 122M210 122L210 123L213 123L210 122M287.667 122.333L288.333 122.667L287.667 122.333M333 122L334 123L333 122M351 122L352 123L351 122M214 123L214 124L217 124L214 123M283.667 123.333L284.333 123.667L283.667 123.333z"/>
<path style="fill:#57ab8f; stroke:none;" d="M351 123L352 124L351 123z"/>
<path style="fill:#8d672e; stroke:none;" d="M219 124L219 125L222 125L219 124M278.667 124.333L279.333 124.667L278.667 124.333M146 125L147 126L146 125M168 125L169 126L168 125M224 125L224 126L228 126L224 125M271 125L271 126L275 126L271 125M330 125L331 126L330 125M352 125L353 126L352 125M170 126L171 127L170 126M233 126L233 127L240 127L233 126M259 126L259 127L266 127L259 126M328 126L329 127L328 126z"/>
<path style="fill:#57ab8f; stroke:none;" d="M352.333 126.667L352.667 127.333L352.333 126.667z"/>
<path style="fill:#8d672e; stroke:none;" d="M172 127L173 128L172 127z"/>
<path style="fill:#57ab8f; stroke:none;" d="M326 127L327 128L326 127M324 128L325 129L324 128z"/>
<path style="fill:#030403; stroke:none;" d="M61.0586 130.028C52.7332 134.569 54.1499 172.031 68.8912 163.82C77.257 159.161 75.8852 121.941 61.0586 130.028z"/>
<path style="fill:#8d672e; stroke:none;" d="M321 129L322 130L321 129z"/>
<path style="fill:#57ab8f; stroke:none;" d="M322 129L323 130L322 129z"/>
<path style="fill:#8d672e; stroke:none;" d="M145 130L145 134L146 134L145 130M179 130L180 131L179 130z"/>
<path style="fill:#57ab8f; stroke:none;" d="M319 130L320 131L319 130z"/>
<path style="fill:#8d672e; stroke:none;" d="M182 131L183 132L182 131M316 131L317 132L316 131z"/>
<path style="fill:#57ab8f; stroke:none;" d="M317 131L318 132L317 131z"/>
<path style="fill:#8d672e; stroke:none;" d="M313 132L314 133L313 132z"/>
<path style="fill:#57ab8f; stroke:none;" d="M314 132L315 133L314 132z"/>
<path style="fill:#8d672e; stroke:none;" d="M353 132L354 133L353 132M188 133L189 134L188 133M310 133L311 134L310 133z"/>
<path style="fill:#57ab8f; stroke:none;" d="M311 133L312 134L311 133z"/>
<path style="fill:#8d672e; stroke:none;" d="M191 134L192 135L191 134z"/>
<path style="fill:#57ab8f; stroke:none;" d="M307 134L308 135L307 134z"/>
<path style="fill:#8d672e; stroke:none;" d="M195 135L196 136L195 135M303 135L304 136L303 135z"/>
<path style="fill:#57ab8f; stroke:none;" d="M304 135L305 136L304 135z"/>
<path style="fill:#8d672e; stroke:none;" d="M199 136L200 137L199 136M299 136L300 137L299 136z"/>
<path style="fill:#57ab8f; stroke:none;" d="M300 136L301 137L300 136z"/>
<path style="fill:#8d672e; stroke:none;" d="M203 137L204 138L203 137M295 137L296 138L295 137z"/>
<path style="fill:#57ab8f; stroke:none;" d="M296 137L297 138L296 137M352 137L353 138L352 137z"/>
<path style="fill:#8d672e; stroke:none;" d="M208.667 138.333L209.333 138.667L208.667 138.333M289.667 138.333L290.333 138.667L289.667 138.333z"/>
<path style="fill:#57ab8f; stroke:none;" d="M291 138L292 139L291 138z"/>
<path style="fill:#8d672e; stroke:none;" d="M352 138L353 139L352 138M146 139L147 140L146 139z"/>
<path style="fill:#57ab8f; stroke:none;" d="M212.667 139.333L213.333 139.667L212.667 139.333z"/>
<path style="fill:#8d672e; stroke:none;" d="M214.667 139.333L215.333 139.667L214.667 139.333M283.667 139.333L284.333 139.667L283.667 139.333z"/>
<path style="fill:#57ab8f; stroke:none;" d="M285.667 139.333L286.333 139.667L285.667 139.333M219.667 140.333L220.333 140.667L219.667 140.333z"/>
<path style="fill:#8d672e; stroke:none;" d="M221 140L221 141L224 141L221 140M275.667 140.333L276.333 140.667L275.667 140.333z"/>
<path style="fill:#57ab8f; stroke:none;" d="M277 140L277 141L280 141L277 140M227 141L227 142L231 142L227 141z"/>
<path style="fill:#8d672e; stroke:none;" d="M231 141L231 142L235 142L231 141M264 141L264 142L267 142L264 141z"/>
<path style="fill:#57ab8f; stroke:none;" d="M267 141L267 142L272 142L267 141M351 141L352 142L351 141z"/>
<path style="fill:#8d672e; stroke:none;" d="M147 142L148 143L147 142z"/>
<path style="fill:#57ab8f; stroke:none;" d="M247 142L247 143L252 143L247 142M350 143L351 144L350 143z"/>
<path style="fill:#8d672e; stroke:none;" d="M148 144L149 145L148 144z"/>
<path style="fill:#57ab8f; stroke:none;" d="M349 145L350 146L349 145z"/>
<path style="fill:#8d672e; stroke:none;" d="M149 146L150 147L149 146z"/>
<path style="fill:#57ab8f; stroke:none;" d="M348 147L349 148L348 147z"/>
<path style="fill:#8d672e; stroke:none;" d="M151 149L152 150L151 149M346 150L347 151L346 150z"/>
<path style="fill:#57ab8f; stroke:none;" d="M345 151L346 152L345 151z"/>
<path style="fill:#8d672e; stroke:none;" d="M154 153L155 154L154 153M155 154L156 155L155 154M156 155L157 156L156 155M157 156L158 157L157 156M158 157L159 158L158 157z"/>
<path style="fill:#57ab8f; stroke:none;" d="M338 158L339 159L338 158M337 159L338 160L337 159z"/>
<path style="fill:#8d672e; stroke:none;" d="M336 160L337 161L336 160M163 161L164 162L163 161M335 161L336 162L335 161z"/>
<path style="fill:#57ab8f; stroke:none;" d="M333 162L334 163L333 162z"/>
<path style="fill:#8d672e; stroke:none;" d="M332 163L333 164L332 163z"/>
<path style="fill:#57ab8f; stroke:none;" d="M330 164L331 165L330 164z"/>
<path style="fill:#8d672e; stroke:none;" d="M329 165L330 166L329 165z"/>
<path style="fill:#030403; stroke:none;" d="M24.0586 167.028C18.8132 169.901 18.8132 178.099 24.0586 180.972C29.0843 183.725 46.9014 183.63 51.8912 180.821C57.0314 177.928 57.0314 170.072 51.8912 167.179C46.9014 164.37 29.0844 164.275 24.0586 167.028M79.044 166.742C73.1743 169.134 72.5298 177.681 78.1088 180.821C83.2366 183.707 100.79 183.642 105.941 180.821C111.18 177.952 111.18 170.048 105.941 167.179C100.728 164.324 84.5222 164.51 79.044 166.742z"/>
<path style="fill:#57ab8f; stroke:none;" d="M327 166L328 167L327 166M325 167L326 168L325 167z"/>
<path style="fill:#8d672e; stroke:none;" d="M174 168L175 169L174 168z"/>
<path style="fill:#57ab8f; stroke:none;" d="M323 168L324 169L323 168z"/>
<path style="fill:#8d672e; stroke:none;" d="M324 168L325 169L324 168z"/>
<path style="fill:#57ab8f; stroke:none;" d="M138 177C141.807 187.712 129.665 195.565 123.156 203C108.063 220.239 93.8375 240.773 85 262C102.185 254.845 118.703 247.639 137 243.576C142.707 242.308 152.082 238.216 155.816 245.109C161.447 255.5 141.906 257.837 136 259.235C117.51 263.611 96.9552 269.969 82.0008 282.096C73.1755 289.252 67.6549 298.734 75.5332 308.996C84.727 320.971 102.146 327.378 116 332C149.998 343.343 188.125 349.942 224 350L267 350C272.18 350.009 279.303 350.381 280.777 356.718C282.323 363.365 273.577 365.15 269 365.714C254.77 367.468 240.197 365.173 226 365.004C169.03 364.326 112.3 353.337 65 321C62.2383 342.739 60.5352 363.341 65.5 385C67.9251 395.579 73.1301 404.749 76.4421 414.91C77.837 419.19 74.6085 421.919 74.9367 426C75.2623 430.048 78.8773 433.747 81 437C92.0113 433.018 97.4798 443.275 105 449.95C119.544 462.858 136.88 472.932 155 479.939C207.82 500.365 268.602 501.742 323 486.848C363.551 475.745 405.793 450.519 423.972 411C432.057 393.425 436.906 374.43 436.999 355C437.038 346.887 434.623 336.267 444 333L442 319C419.894 329.338 433.03 368.548 410.039 374.656C402.058 376.777 394.291 371.214 391.283 364C384.892 348.672 387.253 332.438 373.985 320.104C361.817 308.791 346.187 311.082 332 304.891C325.288 301.962 319.936 294.529 321.724 287C324.437 275.573 336.219 273.569 346 271.6C359.054 268.973 370.925 265.456 379 254L370 254C362.232 263.8 341.74 254.37 331 252.87C295.214 247.869 256.146 243.021 220 247.285C209.45 248.53 198.616 249.317 188 250.025C183.776 250.306 179.621 251.363 176.434 247.771C171.842 242.595 177.171 236.992 179.305 231.985C184.785 219.127 193.143 206.387 197 193C185.187 191.255 173.092 185.375 163 179.189C159.113 176.806 152.728 169.87 148 170.256C144.356 170.554 140.783 174.888 138 177z"/>
<path style="fill:#8d672e; stroke:none;" d="M176 169L177 170L176 169M322 169L323 170L322 169z"/>
<path style="fill:#57ab8f; stroke:none;" d="M349 169L350 170L349 169z"/>
<path style="fill:#8d672e; stroke:none;" d="M150 170L151 171L150 170M178 170L179 171L178 170M320 170L321 171L320 170z"/>
<path style="fill:#57ab8f; stroke:none;" d="M348 170L349 171L348 170z"/>
<path style="fill:#8d672e; stroke:none;" d="M180 171L181 172L180 171z"/>
<path style="fill:#57ab8f; stroke:none;" d="M317 172L318 173L317 172z"/>
<path style="fill:#030403; stroke:none;" d="M362.094 172.785C357.602 174.382 356.213 180.014 358.18 184C361.8 191.335 377.51 210.271 386.891 206.258C391.46 204.303 391.528 198.75 389.262 195C385.383 188.583 370.926 169.648 362.094 172.785z"/>
<path style="fill:#8d672e; stroke:none;" d="M185 173L186 174L185 173M317 173L318 174L317 173M344 173L345 174L344 173z"/>
<path style="fill:#030403; stroke:none;" d="M65 320C78.787 333.749 95.7488 341.255 114 347.333C148.399 358.789 187.764 364.998 224 365L268 365C273.795 364.988 282.587 364.393 280.667 356.018C279.337 350.217 272.809 350.002 268 350.002L224 350C188.504 349.998 150.652 343.649 117 332.333C102.218 327.361 85.262 320.712 75.3935 308C67.5768 297.931 74.1495 288.377 83 281.76C98.7602 269.977 118.947 263.048 138 258.793C144.359 257.373 162.414 255.057 155.821 244.228C152.11 238.133 142.245 242.411 137 243.576C118.604 247.661 102.262 254.813 85 262C95.1739 240.209 109.116 220.208 124.729 202C129.63 196.285 142.316 187.801 138.837 179.058C136.834 174.022 131.043 173.887 127 176.568C119.43 181.588 113.194 190.08 107.435 197C84.2322 224.88 65.6312 258.105 55.4244 293C45.8564 325.711 41.9845 360.748 51.294 394C53.7729 402.854 56.6654 413.326 61.966 420.956C64.8309 425.08 70.4172 427.708 74.5664 423.566C81.1651 416.979 70.8612 403.022 68.7207 396C60.8246 370.098 61.6446 346.527 65 320z"/>
<path style="fill:#8d672e; stroke:none;" d="M155 174L156 175L155 174z"/>
<path style="fill:#57ab8f; stroke:none;" d="M316 174L317 175L316 174M343 174L344 175L343 174z"/>
<path style="fill:#8d672e; stroke:none;" d="M358.333 174.667L358.667 175.333L358.333 174.667M190 175L191 176L190 175M316 175L317 176L316 175M341 175L342 176L341 175M158 176L159 177L158 176M193 176L194 177L193 176z"/>
<path style="fill:#57ab8f; stroke:none;" d="M194 176L195 177L194 176M340 176L341 177L340 176M357 176L358 177L357 176z"/>
<path style="fill:#8d672e; stroke:none;" d="M196 177L197 178L196 177z"/>
<path style="fill:#57ab8f; stroke:none;" d="M197 177L198 178L197 177z"/>
<path style="fill:#8d672e; stroke:none;" d="M338 177L339 178L338 177M161 178L162 179L161 178M199 178L200 179L199 178z"/>
<path style="fill:#57ab8f; stroke:none;" d="M200 178L201 179L200 178M337 178L338 179L337 178z"/>
<path style="fill:#8d672e; stroke:none;" d="M203 179L204 180L203 179z"/>
<path style="fill:#57ab8f; stroke:none;" d="M204 179L205 180L204 179z"/>
<path style="fill:#8d672e; stroke:none;" d="M316 179L317 180L316 179M335 179L336 180L335 179z"/>
<path style="fill:#57ab8f; stroke:none;" d="M356 179L356 182L357 182L356 179z"/>
<path style="fill:#8d672e; stroke:none;" d="M139 180L140 181L139 180M207 180L208 181L207 180z"/>
<path style="fill:#57ab8f; stroke:none;" d="M208 180L209 181L208 180M290 180L291 181L290 180z"/>
<path style="fill:#8d672e; stroke:none;" d="M291 180L291 181L294 181L291 180z"/>
<path style="fill:#57ab8f; stroke:none;" d="M294 180L295 181L294 180M316 180L317 181L316 180z"/>
<path style="fill:#8d672e; stroke:none;" d="M333 180L334 181L333 180z"/>
<path style="fill:#57ab8f; stroke:none;" d="M334 180L335 181L334 180z"/>
<path style="fill:#8d672e; stroke:none;" d="M166 181L167 182L166 181M212 181L213 182L212 181z"/>
<path style="fill:#57ab8f; stroke:none;" d="M213.667 181.333L214.333 181.667L213.667 181.333M284.667 181.333L285.333 181.667L284.667 181.333z"/>
<path style="fill:#8d672e; stroke:none;" d="M286 181L287 182L286 181M296 181L297 182L296 181M317 181L318 182L317 181z"/>
<path style="fill:#57ab8f; stroke:none;" d="M332 181L333 182L332 181z"/>
<path style="fill:#8d672e; stroke:none;" d="M168 182L169 183L168 182M217 182L218 183L217 182z"/>
<path style="fill:#57ab8f; stroke:none;" d="M218.667 182.333L219.333 182.667L218.667 182.333M279.667 182.333L280.333 182.667L279.667 182.333z"/>
<path style="fill:#8d672e; stroke:none;" d="M281 182L282 183L281 182z"/>
<path style="fill:#57ab8f; stroke:none;" d="M330 182L331 183L330 182z"/>
<path style="fill:#030403; stroke:none;" d="M62.044 183.746C52.8795 187.345 53.2176 224.084 67.956 218.396C77.1377 214.852 76.6864 177.997 62.044 183.746z"/>
<path style="fill:#8d672e; stroke:none;" d="M170 183L171 184L170 183M223.667 183.333L224.333 183.667L223.667 183.333z"/>
<path style="fill:#57ab8f; stroke:none;" d="M225 183L225 184L228 184L225 183M271 183L271 184L274 184L271 183z"/>
<path style="fill:#8d672e; stroke:none;" d="M274.667 183.333L275.333 183.667L274.667 183.333M319 183L320 184L319 183z"/>
<path style="fill:#57ab8f; stroke:none;" d="M328 183L329 184L328 183z"/>
<path style="fill:#8d672e; stroke:none;" d="M357 183L358 184L357 183M139 184L140 185L139 184M172 184L173 185L172 184M232 184L232 185L236 185L232 184z"/>
<path style="fill:#57ab8f; stroke:none;" d="M236 184L236 185L240 185L236 184M258 184L258 185L263 185L258 184z"/>
<path style="fill:#8d672e; stroke:none;" d="M263 184L263 185L267 185L263 184z"/>
<path style="fill:#57ab8f; stroke:none;" d="M299 184L300 185L299 184M320 184L321 185L320 184z"/>
<path style="fill:#8d672e; stroke:none;" d="M321 184L322 185L321 184M325 184L326 185L325 184z"/>
<path style="fill:#57ab8f; stroke:none;" d="M326 184L327 185L326 184z"/>
<path style="fill:#8d672e; stroke:none;" d="M174 185L175 186L174 185z"/>
<path style="fill:#57ab8f; stroke:none;" d="M358 185L359 186L358 185M300 186L300 190L301 190L300 186M359 186L360 187L359 186z"/>
<path style="fill:#8d672e; stroke:none;" d="M179 187L180 188L179 187z"/>
<path style="fill:#57ab8f; stroke:none;" d="M360 187L361 188L360 187z"/>
<path style="fill:#8d672e; stroke:none;" d="M181 188L182 189L181 188z"/>
<path style="fill:#57ab8f; stroke:none;" d="M361 188L362 189L361 188z"/>
<path style="fill:#8d672e; stroke:none;" d="M184 189L185 190L184 189z"/>
<path style="fill:#57ab8f; stroke:none;" d="M362 189L363 190L362 189z"/>
<path style="fill:#8d672e; stroke:none;" d="M187 190L188 191L187 190z"/>
<path style="fill:#57ab8f; stroke:none;" d="M363 190L364 191L363 190z"/>
<path style="fill:#8d672e; stroke:none;" d="M190 191L191 192L190 191z"/>
<path style="fill:#57ab8f; stroke:none;" d="M299 191L300 192L299 191M364 191L365 192L364 191z"/>
<path style="fill:#8d672e; stroke:none;" d="M193 192L194 193L193 192M298 192L299 193L298 192z"/>
<path style="fill:#57ab8f; stroke:none;" d="M365 192L366 193L365 192z"/>
<path style="fill:#8d672e; stroke:none;" d="M197 193L198 194L197 193z"/>
<path style="fill:#57ab8f; stroke:none;" d="M366 193L367 194L366 193M199.667 194.333L200.333 194.667L199.667 194.333z"/>
<path style="fill:#8d672e; stroke:none;" d="M201 194L202 195L201 194z"/>
<path style="fill:#57ab8f; stroke:none;" d="M296 194L297 195L296 194M367 194L368 195L367 194M203.667 195.333L204.333 195.667L203.667 195.333z"/>
<path style="fill:#8d672e; stroke:none;" d="M205 195L206 196L205 195M293 195L294 196L293 195z"/>
<path style="fill:#57ab8f; stroke:none;" d="M294 195L295 196L294 195z"/>
<path style="fill:#8d672e; stroke:none;" d="M368 195L369 196L368 195z"/>
<path style="fill:#57ab8f; stroke:none;" d="M208.667 196.333L209.333 196.667L208.667 196.333z"/>
<path style="fill:#8d672e; stroke:none;" d="M210 196L211 197L210 196M287.667 196.333L288.333 196.667L287.667 196.333z"/>
<path style="fill:#57ab8f; stroke:none;" d="M289 196L290 197L289 196z"/>
<path style="fill:#8d672e; stroke:none;" d="M369 196L370 197L369 196z"/>
<path style="fill:#57ab8f; stroke:none;" d="M213.667 197.333L214.333 197.667L213.667 197.333z"/>
<path style="fill:#8d672e; stroke:none;" d="M215.667 197.333L216.333 197.667L215.667 197.333M282.667 197.333L283.333 197.667L282.667 197.333z"/>
<path style="fill:#57ab8f; stroke:none;" d="M284 197L285 198L284 197z"/>
<path style="fill:#8d672e; stroke:none;" d="M370 197L371 198L370 197M127 198L128 199L127 198z"/>
<path style="fill:#57ab8f; stroke:none;" d="M220.667 198.333L221.333 198.667L220.667 198.333z"/>
<path style="fill:#8d672e; stroke:none;" d="M222.667 198.333L223.333 198.667L222.667 198.333M275.667 198.333L276.333 198.667L275.667 198.333z"/>
<path style="fill:#57ab8f; stroke:none;" d="M277.667 198.333L278.333 198.667L277.667 198.333z"/>
<path style="fill:#8d672e; stroke:none;" d="M126 199L127 200L126 199z"/>
<path style="fill:#57ab8f; stroke:none;" d="M228 199L228 200L231 200L228 199z"/>
<path style="fill:#8d672e; stroke:none;" d="M231 199L231 200L235 200L231 199M264 199L264 200L267 200L264 199z"/>
<path style="fill:#57ab8f; stroke:none;" d="M267 199L267 200L271 200L267 199M245 200L245 201L254 201L245 200M374 202L375 203L374 202M375 203L376 204L375 203M376 204L377 205L376 204z"/>
<path style="fill:#030403; stroke:none;" d="M404 204.482C384.581 207.67 389.403 240.991 378.671 254C364.25 271.482 346.257 266.236 329.015 276.367C322.279 280.325 320.068 288.813 322.614 295.999C325.928 305.352 336.58 306.515 345 308.2C357.073 310.615 367.198 313.839 375.957 323.004C388.515 336.144 385.14 379.422 410 374.66C428.342 371.146 424.305 338.577 434.379 326C441.191 317.496 451.489 312.34 462 310.014C469.565 308.339 479.556 308.201 485.906 303.351C494.902 296.48 493.843 280.928 483.985 275.417C468.512 266.768 451.643 271.107 438.04 256.996C426.126 244.637 428.054 229.745 422.069 215C419.117 207.725 411.949 203.177 404 204.482z"/>
<path style="fill:#57ab8f; stroke:none;" d="M377 205L378 206L377 205z"/>
<path style="fill:#8d672e; stroke:none;" d="M120 206L121 207L120 206z"/>
<path style="fill:#57ab8f; stroke:none;" d="M378 206L379 207L378 206M387 206L388 207L387 206M380 207L381 208L380 207z"/>
<path style="fill:#8d672e; stroke:none;" d="M381 207L381 208L385 208L381 207z"/>
<path style="fill:#57ab8f; stroke:none;" d="M385 207L386 208L385 207z"/>
<path style="fill:#8d672e; stroke:none;" d="M116 211L117 212L116 211M115 212L116 213L115 212M392 212L393 213L392 212z"/>
<path style="fill:#57ab8f; stroke:none;" d="M391 214L392 215L391 214z"/>
<path style="fill:#8d672e; stroke:none;" d="M391 215L392 216L391 215M112 216L113 217L112 216z"/>
<path style="fill:#57ab8f; stroke:none;" d="M390 217L391 218L390 217z"/>
<path style="fill:#8d672e; stroke:none;" d="M390 218L391 219L390 218M109 220L110 221L109 220M405 220L406 221L405 220z"/>
<path style="fill:#f2c25b; stroke:none;" d="M406 220C397.936 243.813 397.278 265.942 372 279.37C361.167 285.124 347.119 283.899 337 290C346.803 295.91 360.463 294.842 371 300.259C397.029 313.642 397.749 335.636 406 360C410.229 354.064 410.143 344.974 411.895 338C414.666 326.968 420.535 316.824 429.004 309.174C437.08 301.878 446.486 297.38 457 294.884C462.552 293.567 472.4 293.734 476 289C450.942 285.626 426.488 276.615 415.312 252C410.885 242.248 412.005 228.642 406 220z"/>
<path style="fill:#8d672e; stroke:none;" d="M407.333 220.667L407.667 221.333L407.333 220.667z"/>
<path style="fill:#57ab8f; stroke:none;" d="M389 221L390 222L389 221z"/>
<path style="fill:#8d672e; stroke:none;" d="M389.333 222.667L389.667 223.333L389.333 222.667M107 223L108 224L107 223M404.333 224.667L404.667 225.333L404.333 224.667M408 224L408 227L409 227L408 224M105 226L106 227L105 226z"/>
<path style="fill:#57ab8f; stroke:none;" d="M388 226L389 227L388 226z"/>
<path style="fill:#8d672e; stroke:none;" d="M388.333 227.667L388.667 228.333L388.333 227.667M103 229L104 230L103 229M403.333 229.667L403.667 230.333L403.333 229.667M409.333 229.667L409.667 230.333L409.333 229.667z"/>
<path style="fill:#57ab8f; stroke:none;" d="M228 231L228 232L242 232L228 231z"/>
<path style="fill:#8d672e; stroke:none;" d="M242 231L242 232L254 232L242 231z"/>
<path style="fill:#57ab8f; stroke:none;" d="M254 231L254 232L266 232L254 231M387 231L388 232L387 231z"/>
<path style="fill:#8d672e; stroke:none;" d="M101 232L102 233L101 232z"/>
<path style="fill:#57ab8f; stroke:none;" d="M209 232L209 233L213 233L209 232z"/>
<path style="fill:#8d672e; stroke:none;" d="M213 232L213 233L219 233L213 232z"/>
<path style="fill:#030403; stroke:none;" d="M219 232.424C206.653 234.046 193.08 232.536 181.001 235.863C176.077 237.219 171.672 242.765 175.742 247.566C178.169 250.429 182.621 250.062 186 249.985C195.872 249.76 206.195 248.442 216 247.285C249.587 243.323 285.58 247.296 319 251.05C330.468 252.338 341.711 254.666 353 257.003C357.25 257.883 362.736 260.175 366.867 257.82C371.716 255.055 371.393 248.101 366.786 245.303C358.956 240.548 344.986 239.818 336 238.424C298.705 232.64 256.686 227.476 219 232.424z"/>
<path style="fill:#8d672e; stroke:none;" d="M281 232L281 233L284 233L281 232z"/>
<path style="fill:#57ab8f; stroke:none;" d="M284 232L284 233L288 233L284 232z"/>
<path style="fill:#8d672e; stroke:none;" d="M387 232L388 233L387 232z"/>
<path style="fill:#57ab8f; stroke:none;" d="M197 233L197 234L200 234L197 233z"/>
<path style="fill:#8d672e; stroke:none;" d="M200 233L200 234L204 234L200 233M293 233L293 234L297 234L293 233z"/>
<path style="fill:#57ab8f; stroke:none;" d="M297 233L297 234L301 234L297 233M187 234L187 235L190 235L187 234z"/>
<path style="fill:#8d672e; stroke:none;" d="M190 234L190 235L193 235L190 234M306 234L306 235L309 235L306 234z"/>
<path style="fill:#57ab8f; stroke:none;" d="M309 234L309 235L312 235L309 234z"/>
<path style="fill:#8d672e; stroke:none;" d="M402.333 234.667L402.667 235.333L402.333 234.667M410.333 234.667L410.667 235.333L410.333 234.667z"/>
<path style="fill:#57ab8f; stroke:none;" d="M180 235L181 236L180 235z"/>
<path style="fill:#8d672e; stroke:none;" d="M181.667 235.333L182.333 235.667L181.667 235.333M315.667 235.333L316.333 235.667L315.667 235.333z"/>
<path style="fill:#57ab8f; stroke:none;" d="M317.667 235.333L318.333 235.667L317.667 235.333z"/>
<path style="fill:#8d672e; stroke:none;" d="M322.667 236.333L323.333 236.667L322.667 236.333z"/>
<path style="fill:#57ab8f; stroke:none;" d="M324.667 236.333L325.333 236.667L324.667 236.333M386 236L387 237L386 236z"/>
<path style="fill:#8d672e; stroke:none;" d="M176 237L177 238L176 237M329.667 237.333L330.333 237.667L329.667 237.333z"/>
<path style="fill:#57ab8f; stroke:none;" d="M331.667 237.333L332.333 237.667L331.667 237.333z"/>
<path style="fill:#8d672e; stroke:none;" d="M386 237L387 238L386 237M175 238L176 239L175 238M336.667 238.333L337.333 238.667L336.667 238.333z"/>
<path style="fill:#57ab8f; stroke:none;" d="M338.667 238.333L339.333 238.667L338.667 238.333z"/>
<path style="fill:#8d672e; stroke:none;" d="M342 239L343 240L342 239z"/>
<path style="fill:#57ab8f; stroke:none;" d="M343.667 239.333L344.333 239.667L343.667 239.333z"/>
<path style="fill:#8d672e; stroke:none;" d="M401.333 239.667L401.667 240.333L401.333 239.667M411.333 239.667L411.667 240.333L411.333 239.667M347 240L348 241L347 240z"/>
<path style="fill:#57ab8f; stroke:none;" d="M348 240L349 241L348 240M385 240L386 241L385 240z"/>
<path style="fill:#8d672e; stroke:none;" d="M145 241L146 242L145 241M351.667 241.333L352.333 241.667L351.667 241.333z"/>
<path style="fill:#57ab8f; stroke:none;" d="M353 241L354 242L353 241z"/>
<path style="fill:#8d672e; stroke:none;" d="M385 241L386 242L385 241M141 242L142 243L141 242M356 242L357 243L356 242z"/>
<path style="fill:#57ab8f; stroke:none;" d="M357.667 242.333L358.333 242.667L357.667 242.333z"/>
<path style="fill:#8d672e; stroke:none;" d="M94 243L95 244L94 243M137 243L138 244L137 243M361 243L362 244L361 243z"/>
<path style="fill:#57ab8f; stroke:none;" d="M362.667 243.333L363.333 243.667L362.667 243.333M384 243L385 244L384 243z"/>
<path style="fill:#8d672e; stroke:none;" d="M400 243L401 244L400 243M412.333 243.667L412.667 244.333L412.333 243.667M132 244L133 245L132 244M365 244L366 245L365 244z"/>
<path style="fill:#57ab8f; stroke:none;" d="M366 244L367 245L366 244z"/>
<path style="fill:#8d672e; stroke:none;" d="M384 244L385 245L384 244M93 245L94 246L93 245M128 245L129 246L128 245z"/>
<path style="fill:#57ab8f; stroke:none;" d="M383 245L384 246L383 245z"/>
<path style="fill:#8d672e; stroke:none;" d="M125 246L126 247L125 246M246 246L246 247L252 247L246 246M383 246L384 247L383 246M399.333 246.667L399.667 247.333L399.333 246.667M92 247L93 248L92 247M214 247L214 248L219 248L214 247M280 247L280 248L283 248L280 247M369 247L370 248L369 247M413 247L414 248L413 247M118 248L119 249L118 248M201 248L201 249L204 249L201 248M293 248L293 249L296 249L293 248z"/>
<path style="fill:#57ab8f; stroke:none;" d="M370 248L371 249L370 248z"/>
<path style="fill:#8d672e; stroke:none;" d="M382 248L383 249L382 248M91 249L92 250L91 249M115 249L116 250L115 249M177 249L178 250L177 249M191 249L191 250L194 250L191 249M305 249L305 250L308 250L305 249M370 249L371 250L370 249M398 249L399 250L398 249M179 250L179 251L184 251L179 250M314 250L315 251L314 250M381 250L382 251L381 250M414 250L415 251L414 250M109 251L110 252L109 251M321.667 251.333L322.333 251.667L321.667 251.333z"/>
<path style="fill:#57ab8f; stroke:none;" d="M380 251L381 252L380 251z"/>
<path style="fill:#8d672e; stroke:none;" d="M328.667 252.333L329.333 252.667L328.667 252.333M397 252L398 253L397 252M415 252L416 253L415 252M104 253L105 254L104 253M335.667 253.333L336.333 253.667L335.667 253.333M370 253L371 254L370 253M379 253L380 254L379 253M101 254L102 255L101 254M340 254L341 255L340 254M396 254L397 255L396 254M416 254L417 255L416 254M345 255L346 256L345 255M96 256L97 257L96 256M147 256L148 257L147 256M350 256L351 257L350 256M395 256L396 257L395 256M417 256L418 257L417 256M94 257L95 258L94 257M143 257L144 258L143 257M355 257L356 258L355 257M86 258L87 259L86 258M92 258L93 259L92 258M139 258L140 259L139 258M359 258L360 259L359 258M418 258L419 259L418 258M90 259L91 260L90 259M134 259L135 260L134 259M393 259L394 260L393 259M419 259L420 260L419 259M85 260L86 261L85 260M88 260L89 261L88 260M131 260L132 261L131 260M86 261L87 262L86 261M127 261L128 262L127 261M392 261L393 262L392 261M420 261L421 262L420 261M124 262L125 263L124 262M391 262L392 263L391 262M117 264L118 265L117 264M367 264L368 265L367 264M423 265L424 266L423 265M112 266L113 267L112 266M388 266L389 267L388 266M424 266L425 267L424 266M109 267L110 268L109 267M387 267L388 268L387 267M425 267L426 268L425 267M359 268L360 269L359 268M386 268L387 269L386 268M426 268L427 269L426 268M104 269L105 270L104 269M385 269L386 270L385 269M351 270L352 271L351 270M384 270L385 271L384 270M428 270L429 271L428 270M346 271L347 272L346 271M383 271L384 272L383 271M429 271L430 272L429 271M341.667 272.333L342.333 272.667L341.667 272.333M382 272L383 273L382 272M430 272L431 273L430 272M337 273L338 274L337 273M330 275L331 276L330 275M378 275L379 276L378 275M434 275L435 276L434 275M90 276L91 277L90 276M328 276L329 277L328 276M375 277L376 278L375 277M437 277L438 278L437 277M373 278L374 279L373 278M372 279L373 280L372 279M440 279L441 280L440 279M369 280L370 281L369 280M443 280L444 281L443 280M367 281L368 282L367 281M445 281L446 282L445 281M81 282L82 283L81 282M365 282L366 283L365 282M447 282L448 283L447 282M80 283L81 284L80 283M322 283L323 284L322 283M361.667 283.333L362.333 283.667L361.667 283.333M450.667 283.333L451.333 283.667L450.667 283.333M79 284L80 285L79 284M358 284L359 285L358 284M454 284L455 285L454 284M353.667 285.333L354.333 285.667L353.667 285.333M458.667 285.333L459.333 285.667L458.667 285.333M348.667 286.333L349.333 286.667L348.667 286.333M463.667 286.333L464.333 286.667L463.667 286.333M321.333 287.667L321.667 288.333L321.333 287.667M343.667 287.333L344.333 287.667L343.667 287.333M468.667 287.333L469.333 287.667L468.667 287.333M338.667 288.333L339.333 288.667L338.667 288.333M472 288L472 289L475 289L472 288M74 289L75 290L74 289M336.333 289.667L336.667 290.333L336.333 289.667M476.333 289.667L476.667 290.333L476.333 289.667M321.333 291.667L321.667 292.333L321.333 291.667M338.667 291.333L339.333 291.667L338.667 291.333M473.667 291.333L474.333 291.667L473.667 291.333M343.667 292.333L344.333 292.667L343.667 292.333M468.667 292.333L469.333 292.667L468.667 292.333M348.667 293.333L349.333 293.667L348.667 293.333M463.667 293.333L464.333 293.667L463.667 293.333M353.667 294.333L354.333 294.667L353.667 294.333M458.667 294.333L459.333 294.667L458.667 294.333M357.667 295.333L358.333 295.667L357.667 295.333M454 295L455 296L454 295M71 296L72 297L71 296M322 296L323 297L322 296M361.667 296.333L362.333 296.667L361.667 296.333M450.667 296.333L451.333 296.667L450.667 296.333M365 297L366 298L365 297M447 297L448 298L447 297M367 298L368 299L367 298M445 298L446 299L445 298M369 299L370 300L369 299M443 299L444 300L443 299M71 300L72 301L71 300M371 300L372 301L371 300M440 300L441 301L440 300M373 301L374 302L373 301M439 301L440 302L439 301M375 302L376 303L375 302M437 302L438 303L437 302M328 303L329 304L328 303M330 304L331 305L330 304M378 304L379 305L378 304M434 304L435 305L434 304M336 306L337 307L336 306M74 307L75 308L74 307M341 307L342 308L341 307M382 307L383 308L382 307M430 307L431 308L430 307M346 308L347 309L346 308M383 308L384 309L383 308M429 308L430 309L429 308M351 309L352 310L351 309M384 309L385 310L384 309M428 309L429 310L428 309M355 310L356 311L355 310M385 310L386 311L385 310M427 310L428 311L427 310M359 311L360 312L359 311M386 311L387 312L386 311M426 311L427 312L426 311M387 312L388 313L387 312M425 312L426 313L425 312M388 313L389 314L388 313M424 313L425 314L424 313M423 314L424 315L423 314M82 315L83 316L82 315M367 315L368 316L367 315M391 317L392 318L391 317M421 317L422 318L421 317M392 318L393 319L392 318M420 318L421 319L420 318M441 318L442 319L441 318M88 319L89 320L88 319M65 320L66 321L65 320M393 320L394 321L393 320M419 320L420 321L419 320M66 321L67 322L66 321M91 321L92 322L91 321M418 321L419 322L418 321M67 322L68 323L67 322M93 322L94 323L93 322M64.3333 323.667L64.6667 324.333L64.3333 323.667M68 323L69 324L68 323M95 323L96 324L95 323M395 323L396 324L395 323M417 323L418 324L417 323M69 324L70 325L69 324M97 324L98 325L97 324M70 325L71 326L70 325M99 325L100 326L99 325M396 325L397 326L396 325M416 325L417 326L416 325M101 326L102 327L101 326M379 326L380 327L379 326M433 326L434 327L433 326M397 327L398 328L397 327M415 327L416 328L415 327M74 328L75 329L74 328M106 328L107 329L106 328M315.667 328.333L316.333 328.667L315.667 328.333z"/>
<path style="fill:#030403; stroke:none;" d="M317 328.533C302.962 331.607 304.975 349.375 297.471 358.996C288.666 370.284 274.542 367.597 265.329 376.39C258.47 382.938 259.935 395.081 268.015 399.914C276.99 405.283 286.813 404.16 294.826 412.174C305.241 422.589 303.315 450.352 324 445.606C337.099 442.6 335.555 424.033 342.681 415.015C351.506 403.844 365.73 406.7 374.786 397.775C381.458 391.201 380.155 378.917 371.985 374.228C362.959 369.049 353.069 369.882 345.093 361.907C335.346 352.16 336.252 324.318 317 328.533z"/>
<path style="fill:#8d672e; stroke:none;" d="M323.667 328.333L324.333 328.667L323.667 328.333M313 329L314 330L313 329M326 329L327 330L326 329M414 329L415 330L414 329M63 330L64 331L63 330M111 330L112 331L111 330M311 330L312 331L311 330M328 330L329 331L328 330M398 330L399 331L398 330M114 331L115 332L114 331M382 331L383 332L382 331M430 331L431 332L430 331M80 332L81 333L80 332M117 332L118 333L117 332M399.333 332.667L399.667 333.333L399.333 332.667M413 332L414 333L413 332z"/>
<path style="fill:#030403; stroke:none;" d="M444.001 332.762C437.628 333.716 437.011 339.825 437 345C436.969 360.012 436.263 374.456 432.14 389C421.274 427.338 392.094 456.329 357 473.752C300.446 501.83 227.504 504.319 168 484.485C144.816 476.756 123.59 465.347 105 449.421C99.7841 444.952 91.0854 431.931 83.0586 436.322C72.9391 441.857 84.4091 452.458 89 456.996C104.198 472.019 122.644 482.97 142 491.694C197.406 516.668 267.876 519.159 326 502.573C375.474 488.454 420.318 459.336 441.691 411C449.783 392.702 453 371.88 453 352C453 345.952 453.592 331.325 444.001 332.762z"/>
<path style="fill:#8d672e; stroke:none;" d="M120 333L121 334L120 333M383 333L384 334L383 333M429 333L430 334L429 333M123 334L124 335L123 334M307 334L308 335L307 334M332 334L333 335L332 334M439 334L440 335L439 334M85 335L86 336L85 335M372.667 335.333L373.333 335.667L372.667 335.333z"/>
<path style="fill:#030403; stroke:none;" d="M373.996 335.783C368.47 335.509 355.629 338.015 351.434 341.728C346.895 345.744 348.952 353.888 355.005 354.732C360.555 355.506 374.402 352.102 378.566 348.297C383.258 344.01 380.16 336.089 373.996 335.783z"/>
<path style="fill:#8d672e; stroke:none;" d="M375 335L376 336L375 335M412.333 335.667L412.667 336.333L412.333 335.667M438 335L439 336L438 335M87 336L88 337L87 336M130 336L131 337L130 336M306 336L307 337L306 336M333 336L334 337L333 336M368 336L369 337L368 336M400 336L401 337L400 336M62 337L62 340L63 340L62 337M89 337L90 338L89 337M364 337L365 338L364 337M91 338L92 339L91 338M138 338L139 339L138 338M360 338L361 339L360 338M93 339L94 340L93 339M142 339L143 340L142 339M356 339L357 340L356 339M380 339L381 340L380 339M385 339L386 340L385 339M401.333 339.667L401.667 340.333L401.333 339.667M411.333 339.667L411.667 340.333L411.333 339.667M95 340L96 341L95 340M146 340L147 341L146 340M151 341L152 342L151 341M100 342L101 343L100 342M156 342L157 343L156 342M335.333 342.667L335.667 343.333L335.333 342.667M426 342L427 343L426 342M161.667 343.333L162.333 343.667L161.667 343.333M304 343L305 344L304 343M349 343L350 344L349 343M381 343L382 344L381 343M386 343L387 344L386 343M105 344L106 345L105 344M167.667 344.333L168.333 344.667L167.667 344.333M319 344L319 347L321 344L319 344M402.333 344.667L402.667 345.333L402.333 344.667M410.333 344.667L410.667 345.333L410.333 344.667M108 345L109 346L108 345M174 345L175 346L174 345M348 345L348 350L349 350L348 345M111 346L112 347L111 346M181.667 346.333L182.333 346.667L181.667 346.333z"/>
<path style="fill:#f2c25b; stroke:none;" d="M320 346C311.324 368.66 301.726 378.424 279 387L279 388C298.598 390.641 317.235 407.784 319 428L321 428C323.731 407.734 340.734 390.731 361 388L361 387C346.552 381.548 334.22 376.271 326.174 362C323.311 356.92 322.489 351.138 320 346z"/>
<path style="fill:#8d672e; stroke:none;" d="M380 346L381 347L380 346M114 347L115 348L114 347M190.667 347.333L191.333 347.667L190.667 347.333M303 347L304 348L303 347M336 347L337 348L336 347M387.333 347.667L387.667 348.333L387.333 347.667M425 347L426 348L425 347M117 348L118 349L117 348M199 348L199 349L202 349L199 348M120 349L121 350L120 349M212 349L212 350L216 350L212 349M318.333 349.667L318.667 350.333L318.333 349.667M321.333 349.667L321.667 350.333L321.333 349.667M377 349L378 350L377 349M403.333 349.667L403.667 350.333L403.333 349.667M409.333 349.667L409.667 350.333L409.333 349.667M124 350L125 351L124 350M234 350L234 351L248 351L234 350M250 350L250 351L261 351L250 350M275 350L276 351L275 350M374 350L375 351L374 350M127 351L128 352L127 351M370 351L371 352L370 351M131 352L132 353L131 352M366 352L367 353L366 352M388.333 352.667L388.667 353.333L388.333 352.667M424 352L425 353L424 352M135 353L136 354L135 353M317 353L318 354L317 353M322 353L323 354L322 353M363 353L364 354L363 353M139.667 354.333L140.333 354.667L139.667 354.333M359 354L360 355L359 354M404.333 354.667L404.667 355.333L404.333 354.667M408.333 354.667L408.667 355.333L408.333 354.667M144.667 355.333L145.333 355.667L144.667 355.333M150 356L151 357L150 356M299 356L300 357L299 356M316 356L317 357L316 356M323 356L324 357L323 356M340 356L341 357L340 356M155 357L156 358L155 357M281 357L282 358L281 357M389 357L390 358L389 357M423 357L424 358L423 357M160 358L161 359L160 358M315 358L316 359L315 358M324 358L325 359L324 358M407.333 358.667L407.667 359.333L407.333 358.667M165.667 359.333L166.333 359.667L165.667 359.333M297 359L298 360L297 359M342 359L343 360L342 359M405 359L406 360L405 359M173.667 360.333L174.333 360.667L173.667 360.333M343 360L344 361L343 360M180.667 361.333L181.333 361.667L180.667 361.333M314 361L315 362L314 361M325 361L326 362L325 361M188.667 362.333L189.333 362.667L188.667 362.333M390 362L391 363L390 362M422 362L423 363L422 362M436 362L436 366L437 366L436 362M198 363L198 364L201 364L198 363M278 363L279 364L278 363M346 363L347 364L346 363M211 364L211 365L214 365L211 364M292 364L293 365L292 364M312 364L313 365L312 364M327 364L328 365L327 364M347 364L348 365L347 364M62 365L62 370L63 370L62 365M232 365L232 366L241 366L232 365M259 365L259 366L271 366L259 365M311 366L312 367L311 366M350 366L351 367L350 366M310 367L311 368L310 367M329 367L330 368L329 367M392 367L393 368L392 367M420 367L421 368L420 367M283 369L284 370L283 369M356 369L357 370L356 369M280 370L281 371L280 370M359 370L360 371L359 370M275.667 371.333L276.333 371.667L275.667 371.333M307 371L308 372L307 371M363.667 371.333L364.333 371.667L363.667 371.333M306 372L307 373L306 372M333 372L334 373L333 372M397 372L398 373L397 372M415 372L416 373L415 372M269 373L270 374L269 373M305 373L306 374L305 373M334 373L335 374L334 373M370 373L371 374L370 373M435 373L436 374L435 373M63 374L64 375L63 374M267 374L268 375L267 374M304 374L305 375L304 374M401 374L402 375L401 374M411 374L412 375L411 374M406 375L407 376L406 375M300 377L301 378L300 377M339 377L340 378L339 377M263 378L264 379L263 378M299 378L300 379L299 378M434.333 378.667L434.667 379.333L434.333 378.667M64.3333 379.667L64.6667 380.333L64.3333 379.667M297 379L298 380L297 379M342 379L343 380L342 379M294 381L295 382L294 381M345 381L346 382L345 381M291 382L292 383L291 382M348 382L349 383L348 382M289 383L290 384L289 383M350 383L351 384L350 383M286.667 384.333L287.333 384.667L286.667 384.333M352.667 384.333L353.333 384.667L352.667 384.333M433 384L434 385L433 384M65 385L66 386L65 385M282.667 385.333L283.333 385.667L282.667 385.333M356.667 385.333L357.333 385.667L356.667 385.333M277 388L280 386L277 388M360 386L363 388L360 386M379 387L380 388L379 387M66 388L67 389L66 388M281.667 388.333L282.333 388.667L281.667 388.333M357.667 388.333L358.333 388.667L357.667 388.333M285.667 389.333L286.333 389.667L285.667 389.333M353.667 389.333L354.333 389.667L353.667 389.333M289 390L290 391L289 390M350 390L351 391L350 390M291 391L292 392L291 391M348 391L349 392L348 391M431 391L432 392L431 391M261 392L262 393L261 392M293 392L294 393L293 392M346 392L347 393L346 392M378 392L379 393L378 392M295 393L296 394L295 393M344 393L345 394L344 393M297 394L298 395L297 394M342 394L343 395L342 394M430 394L431 395L430 394M68 395L69 396L68 395M298 395L299 396L298 395M341 395L342 396L341 395M300 396L301 397L300 396M339 396L340 397L339 396M301 397L302 398L301 397M338 397L339 398L338 397M69 398L70 399L69 398M337 398L338 399L337 398M268 400L269 401L268 400M371 400L372 401L371 400M428 400L429 401L428 400M70 401L71 402L70 401M271 401L272 402L271 401M368 401L369 402L368 401M274 402L275 403L274 402M365 402L366 403L365 402M71 403L72 404L71 403M279 403L280 404L279 403M360 403L361 404L360 403M283 404L284 405L283 404M331 404L332 405L331 404M285 405L286 406L285 405M309 405L310 406L309 405M330 405L331 406L330 405M354 405L355 406L354 405M287 406L288 407L287 406M310 406L311 407L310 406M329 406L330 407L329 406M352 406L353 407L352 406M289 407L290 408L289 407M350 407L351 408L350 407M425 407L426 408L425 407M73 408L74 409L73 408M328 408L329 409L328 408M312 409L313 410L312 409M327 409L328 410L327 409M424 409L425 410L424 409M74 410L75 411L74 410M293 410L294 411L293 410M346 410L347 411L346 410M294 411L295 412L294 411M313 411L314 412L313 411M326 411L327 412L326 411M345 411L346 412L345 411M75 412L76 413L75 412M295 412L296 413L295 412M344 412L345 413L344 412M296 413L297 414L296 413M314 413L315 414L314 413M325 413L326 414L325 413M343 413L344 414L343 413M76 414L77 415L76 414M315 415L316 416L315 415M324 415L325 416L324 415M421 415L422 416L421 415M77 417L78 418L77 417M299 417L300 418L299 417M316 417L317 418L316 417M323 417L324 418L323 417M340 417L341 418L340 417M317 420L318 421L317 420M322.333 420.667L322.667 421.333L322.333 420.667M418 420L419 421L418 420M76 421L77 422L76 421M301 421L302 422L301 421M338 421L339 422L338 421M302 423L303 424L302 423M318.333 423.667L318.667 424.333L318.333 423.667M337 423L338 424L337 423M321 424L322 425L321 424M415 425L416 426L415 425M336 427L337 428L336 427M319 428L319 430L321 430L321 428L319 428M411 430L412 431L411 430M304 431L305 432L304 431M335 431L336 432L335 431M408 434L409 435L408 434M89 435L90 436L89 435M305 435L306 436L305 435M334 435L335 436L334 435M82 436L83 437L82 436M91 436L92 437L91 436M92 437L93 438L92 437M93 438L94 439L93 438M333 438L334 439L333 438M94 439L95 440L94 439M95 440L96 441L95 440M96 441L97 442L96 441M327 444L328 445L327 444M314 445L315 446L314 445M325 445L326 446L325 445M101 446L102 447L101 446M319.667 446.333L320.333 446.667L319.667 446.333M102 447L103 448L102 447M103 448L104 449L103 448M391 451L392 452L391 451M390 452L391 453L390 452M109 453L110 454L109 453M110 454L111 455L110 454M385 456L386 457L385 456M114 457L115 458L114 457M381 459L382 460L381 459M378 461L379 462L378 461M121 462L122 463L121 462M375 463L376 464L375 463M126 465L127 466L126 465M372 465L373 466L372 465M129 467L130 468L129 467M131 468L132 469L131 468M367 468L368 469L367 468M365 469L366 470L365 469M363 470L364 471L363 470M361 471L362 472L361 471M138 472L139 473L138 472M140 473L141 474L140 473M351 476L352 477L351 476M149 477L150 478L149 477M151 478L152 479L151 478M346 478L347 479L346 478M344 479L345 480L344 479M156 480L157 481L156 480M159 481L160 482L159 481M339 481L340 482L339 481M336 482L337 483L336 482M333 483L334 484L333 483M167 484L168 485L167 484M330 484L331 485L330 484M327 485L328 486L327 485M174 486L175 487L174 486M324 486L325 487L324 486M177 487L178 488L177 487M320 487L321 488L320 487M181 488L182 489L181 488M316 488L317 489L316 488M185 489L186 490L185 489M312 489L313 490L312 489M189 490L190 491L189 490M308 490L309 491L308 490M194.667 491.333L195.333 491.667L194.667 491.333M303 491L304 492L303 491M199.667 492.333L200.333 492.667L199.667 492.333M297.667 492.333L298.333 492.667L297.667 492.333M206 493L207 494L206 493M291.667 493.333L292.333 493.667L291.667 493.333M212.667 494.333L213.333 494.667L212.667 494.333M284.667 494.333L285.333 494.667L284.667 494.333M221 495L221 496L224 496L221 495M274.667 495.333L275.333 495.667L274.667 495.333M235 496L235 497L244 497L235 496M253 496L253 497L260 497L253 496z"/>
</svg>
