<?xml version="1.0" standalone="yes"?>
<svg xmlns="http://www.w3.org/2000/svg" width="512" height="512">
<path style="fill:#010101; stroke:none;" d="M0 0L0 67L1 67C3.6137 34.9999 34.9999 3.61368 67 1L46 0L0 0z"/>
<path style="fill:#d20135; stroke:none;" d="M67 0.439056C33.0031 5.74875 6.57559 32.2665 0.614969 66C-1.31342 76.9135 0 88.9368 0 100L0 164L0 363C0 399.98 -8.40107 447.022 14.0424 479C40.9435 517.329 84.9193 512 126 512L341 512L410 512C422.032 512 435.155 513.462 447 511.195C480.301 504.823 506.3 478.686 511.561 445C516.478 413.515 512 377.89 512 346L512 147C512 109.851 520.508 62.5038 496.497 31C468.101 -6.25696 423.456 0 382 0L171 0L103 0C91.2831 0 78.5866 -1.37054 67 0.439056z"/>
<path style="fill:#010101; stroke:none;" d="M445 0L445 1C477 3.61368 508.386 34.9999 511 67L512 67L512 0L445 0z"/>
<path style="fill:#de456a; stroke:none;" d="M103.667 64.3333L104.333 64.6667L103.667 64.3333z"/>
<path style="fill:#e093a3; stroke:none;" d="M105 64L105 65L108 65L105 64z"/>
<path style="fill:#f2ece6; stroke:none;" d="M108 64.4252C91.4746 66.6491 76.1411 75.2854 68.9012 91C54.4858 122.289 78.2616 163.93 115 159.714C131.95 157.768 147.694 149.073 155.099 133C169.742 101.216 145.074 59.4359 108 64.4252z"/>
<path style="fill:#e093a3; stroke:none;" d="M116 64L116 65L119 65L116 64z"/>
<path style="fill:#de456a; stroke:none;" d="M119.667 64.3333L120.333 64.6667L119.667 64.3333M99 65L100 66L99 65z"/>
<path style="fill:#e093a3; stroke:none;" d="M100 65L101 66L100 65M123 65L124 66L123 65z"/>
<path style="fill:#de456a; stroke:none;" d="M124 65L125 66L124 65M96 66L97 67L96 66z"/>
<path style="fill:#e093a3; stroke:none;" d="M97 66L98 67L97 66M126 66L127 67L126 66z"/>
<path style="fill:#de456a; stroke:none;" d="M127 66L128 67L127 66M93 67L94 68L93 67z"/>
<path style="fill:#e093a3; stroke:none;" d="M94 67L95 68L94 67M129 67L130 68L129 67z"/>
<path style="fill:#de456a; stroke:none;" d="M130 67L131 68L130 67M91 68L92 69L91 68M132 68L133 69L132 68M89 69L90 70L89 69M134 69L135 70L134 69M87 70L88 71L87 70z"/>
<path style="fill:#e093a3; stroke:none;" d="M88 70L89 71L88 70z"/>
<path style="fill:#de456a; stroke:none;" d="M136 70L137 71L136 70z"/>
<path style="fill:#e093a3; stroke:none;" d="M86 71L87 72L86 71M137 71L138 72L137 71z"/>
<path style="fill:#de456a; stroke:none;" d="M84 72L85 73L84 72M139 72L140 73L139 72z"/>
<path style="fill:#e093a3; stroke:none;" d="M83 73L84 74L83 73M140 73L141 74L140 73M82 74L83 75L82 74M141 74L142 75L141 74z"/>
<path style="fill:#de456a; stroke:none;" d="M80 75L81 76L80 75M143 75L144 76L143 75M79 76L80 77L79 76M144 76L145 77L144 76M78 77L79 78L78 77M145 77L146 78L145 77M77 78L78 79L77 78M146 78L147 79L146 78M76 79L77 80L76 79M147 79L148 80L147 79M75 80L76 81L75 80M148 80L149 81L148 80z"/>
<path style="fill:#e093a3; stroke:none;" d="M74 82L75 83L74 82M149 82L150 83L149 82M73 83L74 84L73 83M150 83L151 84L150 83z"/>
<path style="fill:#de456a; stroke:none;" d="M72 84L73 85L72 84M151 84L152 85L151 84z"/>
<path style="fill:#e093a3; stroke:none;" d="M71 86L72 87L71 86M152 86L153 87L152 86z"/>
<path style="fill:#de456a; stroke:none;" d="M70 87L71 88L70 87M153 87L154 88L153 87M69 89L70 90L69 89M154 89L155 90L154 89M68 91L69 92L68 91M155 91L156 92L155 91M67 93L68 94L67 93M156 93L157 94L156 93z"/>
<path style="fill:#e093a3; stroke:none;" d="M67 94L68 95L67 94M156 94L157 95L156 94z"/>
<path style="fill:#de456a; stroke:none;" d="M66 96L67 97L66 96M157 96L158 97L157 96z"/>
<path style="fill:#e093a3; stroke:none;" d="M66 97L67 98L66 97M157 97L158 98L157 97z"/>
<path style="fill:#de456a; stroke:none;" d="M65 99L66 100L65 99M158 99L159 100L158 99z"/>
<path style="fill:#e093a3; stroke:none;" d="M65 100L66 101L65 100M158 100L159 101L158 100z"/>
<path style="fill:#de456a; stroke:none;" d="M64.3333 103.667L64.6667 104.333L64.3333 103.667M159.333 103.667L159.667 104.333L159.333 103.667z"/>
<path style="fill:#e093a3; stroke:none;" d="M64 105L64 108L65 108L64 105M159 105L159 108L160 108L159 105M64 116L64 119L65 119L64 116M159 116L159 119L160 119L159 116z"/>
<path style="fill:#de456a; stroke:none;" d="M64.3333 119.667L64.6667 120.333L64.3333 119.667M159.333 119.667L159.667 120.333L159.333 119.667z"/>
<path style="fill:#e093a3; stroke:none;" d="M65 123L66 124L65 123M158 123L159 124L158 123z"/>
<path style="fill:#de456a; stroke:none;" d="M65 124L66 125L65 124M158 124L159 125L158 124z"/>
<path style="fill:#e093a3; stroke:none;" d="M66 126L67 127L66 126M157 126L158 127L157 126z"/>
<path style="fill:#de456a; stroke:none;" d="M66 127L67 128L66 127M157 127L158 128L157 127z"/>
<path style="fill:#e093a3; stroke:none;" d="M67 129L68 130L67 129M156 129L157 130L156 129z"/>
<path style="fill:#de456a; stroke:none;" d="M67 130L68 131L67 130M156 130L157 131L156 130M68 132L69 133L68 132M155 132L156 133L155 132M69 134L70 135L69 134M154 134L155 135L154 134M70 136L71 137L70 136M153 136L154 137L153 136z"/>
<path style="fill:#e093a3; stroke:none;" d="M71 137L72 138L71 137M152 137L153 138L152 137z"/>
<path style="fill:#de456a; stroke:none;" d="M72 139L73 140L72 139M151 139L152 140L151 139z"/>
<path style="fill:#e093a3; stroke:none;" d="M73 140L74 141L73 140M150 140L151 141L150 140M74 141L75 142L74 141M149 141L150 142L149 141z"/>
<path style="fill:#de456a; stroke:none;" d="M75 143L76 144L75 143M148 143L149 144L148 143M76 144L77 145L76 144M147 144L148 145L147 144M77 145L78 146L77 145M146 145L147 146L146 145M78 146L79 147L78 146M145 146L146 147L145 146M79 147L80 148L79 147M144 147L145 148L144 147M80 148L81 149L80 148M143 148L144 149L143 148z"/>
<path style="fill:#e093a3; stroke:none;" d="M82 149L83 150L82 149M141 149L142 150L141 149M83 150L84 151L83 150M140 150L141 151L140 150z"/>
<path style="fill:#de456a; stroke:none;" d="M84 151L85 152L84 151M139 151L140 152L139 151z"/>
<path style="fill:#e093a3; stroke:none;" d="M86 152L87 153L86 152M137 152L138 153L137 152z"/>
<path style="fill:#de456a; stroke:none;" d="M87 153L88 154L87 153z"/>
<path style="fill:#e093a3; stroke:none;" d="M88 153L89 154L88 153z"/>
<path style="fill:#de456a; stroke:none;" d="M136 153L137 154L136 153M89 154L90 155L89 154M134 154L135 155L134 154M91 155L92 156L91 155M132 155L133 156L132 155M93 156L94 157L93 156z"/>
<path style="fill:#e093a3; stroke:none;" d="M94 156L95 157L94 156M129 156L130 157L129 156z"/>
<path style="fill:#de456a; stroke:none;" d="M130 156L131 157L130 156M96 157L97 158L96 157z"/>
<path style="fill:#e093a3; stroke:none;" d="M97 157L98 158L97 157M126 157L127 158L126 157z"/>
<path style="fill:#de456a; stroke:none;" d="M127 157L128 158L127 157M99 158L100 159L99 158z"/>
<path style="fill:#e093a3; stroke:none;" d="M100 158L101 159L100 158M123 158L124 159L123 158z"/>
<path style="fill:#de456a; stroke:none;" d="M124 158L125 159L124 158M103.667 159.333L104.333 159.667L103.667 159.333z"/>
<path style="fill:#e093a3; stroke:none;" d="M105 159L105 160L108 160L105 159M116 159L116 160L119 160L116 159z"/>
<path style="fill:#de456a; stroke:none;" d="M119.667 159.333L120.333 159.667L119.667 159.333M247.667 208.333L248.333 208.667L247.667 208.333z"/>
<path style="fill:#e093a3; stroke:none;" d="M249 208L249 209L252 209L249 208z"/>
<path style="fill:#f2ece6; stroke:none;" d="M252 208.425C235.475 210.649 220.141 219.285 212.901 235C198.486 266.289 222.262 307.93 259 303.714C275.95 301.768 291.694 293.073 299.099 277C313.742 245.216 289.074 203.436 252 208.425z"/>
<path style="fill:#e093a3; stroke:none;" d="M260 208L260 209L263 209L260 208z"/>
<path style="fill:#de456a; stroke:none;" d="M263.667 208.333L264.333 208.667L263.667 208.333M243 209L244 210L243 209z"/>
<path style="fill:#e093a3; stroke:none;" d="M244 209L245 210L244 209M267 209L268 210L267 209z"/>
<path style="fill:#de456a; stroke:none;" d="M268 209L269 210L268 209M240 210L241 211L240 210z"/>
<path style="fill:#e093a3; stroke:none;" d="M241 210L242 211L241 210M270 210L271 211L270 210z"/>
<path style="fill:#de456a; stroke:none;" d="M271 210L272 211L271 210M237 211L238 212L237 211z"/>
<path style="fill:#e093a3; stroke:none;" d="M238 211L239 212L238 211M273 211L274 212L273 211z"/>
<path style="fill:#de456a; stroke:none;" d="M274 211L275 212L274 211M235 212L236 213L235 212M276 212L277 213L276 212M233 213L234 214L233 213M278 213L279 214L278 213M231 214L232 215L231 214z"/>
<path style="fill:#e093a3; stroke:none;" d="M232 214L233 215L232 214z"/>
<path style="fill:#de456a; stroke:none;" d="M280 214L281 215L280 214z"/>
<path style="fill:#e093a3; stroke:none;" d="M230 215L231 216L230 215M281 215L282 216L281 215z"/>
<path style="fill:#de456a; stroke:none;" d="M228 216L229 217L228 216M283 216L284 217L283 216z"/>
<path style="fill:#e093a3; stroke:none;" d="M227 217L228 218L227 217M284 217L285 218L284 217M226 218L227 219L226 218M285 218L286 219L285 218z"/>
<path style="fill:#de456a; stroke:none;" d="M224 219L225 220L224 219M287 219L288 220L287 219M223 220L224 221L223 220M288 220L289 221L288 220M222 221L223 222L222 221M289 221L290 222L289 221M221 222L222 223L221 222M290 222L291 223L290 222M220 223L221 224L220 223M291 223L292 224L291 223M219 224L220 225L219 224M292 224L293 225L292 224z"/>
<path style="fill:#e093a3; stroke:none;" d="M218 226L219 227L218 226M293 226L294 227L293 226M217 227L218 228L217 227M294 227L295 228L294 227z"/>
<path style="fill:#de456a; stroke:none;" d="M216 228L217 229L216 228M295 228L296 229L295 228z"/>
<path style="fill:#e093a3; stroke:none;" d="M215 230L216 231L215 230M296 230L297 231L296 230z"/>
<path style="fill:#de456a; stroke:none;" d="M214 231L215 232L214 231M297 231L298 232L297 231M213 233L214 234L213 233M298 233L299 234L298 233M212 235L213 236L212 235M299 235L300 236L299 235M211 237L212 238L211 237M300 237L301 238L300 237z"/>
<path style="fill:#e093a3; stroke:none;" d="M211 238L212 239L211 238M300 238L301 239L300 238z"/>
<path style="fill:#de456a; stroke:none;" d="M210 240L211 241L210 240M301 240L302 241L301 240z"/>
<path style="fill:#e093a3; stroke:none;" d="M210 241L211 242L210 241M301 241L302 242L301 241z"/>
<path style="fill:#de456a; stroke:none;" d="M209 243L210 244L209 243M302 243L303 244L302 243z"/>
<path style="fill:#e093a3; stroke:none;" d="M209 244L210 245L209 244M302 244L303 245L302 244z"/>
<path style="fill:#de456a; stroke:none;" d="M208.333 247.667L208.667 248.333L208.333 247.667M303.333 247.667L303.667 248.333L303.333 247.667z"/>
<path style="fill:#e093a3; stroke:none;" d="M208 249L208 252L209 252L208 249M303 249L303 252L304 252L303 249M208 260L208 263L209 263L208 260M303 260L303 263L304 263L303 260z"/>
<path style="fill:#de456a; stroke:none;" d="M208.333 263.667L208.667 264.333L208.333 263.667M303.333 263.667L303.667 264.333L303.333 263.667z"/>
<path style="fill:#e093a3; stroke:none;" d="M209 267L210 268L209 267M302 267L303 268L302 267z"/>
<path style="fill:#de456a; stroke:none;" d="M209 268L210 269L209 268M302 268L303 269L302 268z"/>
<path style="fill:#e093a3; stroke:none;" d="M210 270L211 271L210 270M301 270L302 271L301 270z"/>
<path style="fill:#de456a; stroke:none;" d="M210 271L211 272L210 271M301 271L302 272L301 271z"/>
<path style="fill:#e093a3; stroke:none;" d="M211 273L212 274L211 273M300 273L301 274L300 273z"/>
<path style="fill:#de456a; stroke:none;" d="M211 274L212 275L211 274M300 274L301 275L300 274M212 276L213 277L212 276M299 276L300 277L299 276M213 278L214 279L213 278M298 278L299 279L298 278M214 280L215 281L214 280M297 280L298 281L297 280z"/>
<path style="fill:#e093a3; stroke:none;" d="M215 281L216 282L215 281M296 281L297 282L296 281z"/>
<path style="fill:#de456a; stroke:none;" d="M216 283L217 284L216 283M295 283L296 284L295 283z"/>
<path style="fill:#e093a3; stroke:none;" d="M217 284L218 285L217 284M294 284L295 285L294 284M218 285L219 286L218 285M293 285L294 286L293 285z"/>
<path style="fill:#de456a; stroke:none;" d="M219 287L220 288L219 287M292 287L293 288L292 287M220 288L221 289L220 288M291 288L292 289L291 288M221 289L222 290L221 289M290 289L291 290L290 289M222 290L223 291L222 290M289 290L290 291L289 290M223 291L224 292L223 291M288 291L289 292L288 291M224 292L225 293L224 292M287 292L288 293L287 292z"/>
<path style="fill:#e093a3; stroke:none;" d="M226 293L227 294L226 293M285 293L286 294L285 293M227 294L228 295L227 294M284 294L285 295L284 294z"/>
<path style="fill:#de456a; stroke:none;" d="M228 295L229 296L228 295M283 295L284 296L283 295z"/>
<path style="fill:#e093a3; stroke:none;" d="M230 296L231 297L230 296M281 296L282 297L281 296z"/>
<path style="fill:#de456a; stroke:none;" d="M231 297L232 298L231 297z"/>
<path style="fill:#e093a3; stroke:none;" d="M232 297L233 298L232 297z"/>
<path style="fill:#de456a; stroke:none;" d="M280 297L281 298L280 297M233 298L234 299L233 298M278 298L279 299L278 298M235 299L236 300L235 299M276 299L277 300L276 299M237 300L238 301L237 300z"/>
<path style="fill:#e093a3; stroke:none;" d="M238 300L239 301L238 300M273 300L274 301L273 300z"/>
<path style="fill:#de456a; stroke:none;" d="M274 300L275 301L274 300M240 301L241 302L240 301z"/>
<path style="fill:#e093a3; stroke:none;" d="M241 301L242 302L241 301M270 301L271 302L270 301z"/>
<path style="fill:#de456a; stroke:none;" d="M271 301L272 302L271 301M243 302L244 303L243 302z"/>
<path style="fill:#e093a3; stroke:none;" d="M244 302L245 303L244 302M267 302L268 303L267 302z"/>
<path style="fill:#de456a; stroke:none;" d="M268 302L269 303L268 302M247.667 303.333L248.333 303.667L247.667 303.333z"/>
<path style="fill:#e093a3; stroke:none;" d="M249 303L249 304L252 304L249 303M260 303L260 304L263 304L260 303z"/>
<path style="fill:#de456a; stroke:none;" d="M263.667 303.333L264.333 303.667L263.667 303.333M391.667 352.333L392.333 352.667L391.667 352.333z"/>
<path style="fill:#e093a3; stroke:none;" d="M393 352L393 353L396 353L393 352z"/>
<path style="fill:#f2ece6; stroke:none;" d="M396 352.425C370.348 355.877 348.682 377.783 352.579 405C354.617 419.232 368.232 448.094 387 444.972C392.75 444.016 398.636 437.93 403 434.389C414.888 424.743 425.606 413.931 435.196 402C438.51 397.877 444.072 392.409 444.972 387C445.891 381.479 441.209 375.099 438.1 371C428.66 358.551 411.819 350.296 396 352.425z"/>
<path style="fill:#e093a3; stroke:none;" d="M404 352L404 353L407 353L404 352z"/>
<path style="fill:#de456a; stroke:none;" d="M407.667 352.333L408.333 352.667L407.667 352.333M387 353L388 354L387 353z"/>
<path style="fill:#e093a3; stroke:none;" d="M388 353L389 354L388 353M411 353L412 354L411 353z"/>
<path style="fill:#de456a; stroke:none;" d="M412 353L413 354L412 353M384 354L385 355L384 354z"/>
<path style="fill:#e093a3; stroke:none;" d="M385 354L386 355L385 354M414 354L415 355L414 354z"/>
<path style="fill:#de456a; stroke:none;" d="M415 354L416 355L415 354M381 355L382 356L381 355z"/>
<path style="fill:#e093a3; stroke:none;" d="M382 355L383 356L382 355M417 355L418 356L417 355z"/>
<path style="fill:#de456a; stroke:none;" d="M418 355L419 356L418 355M379 356L380 357L379 356M420 356L421 357L420 356M377 357L378 358L377 357M422 357L423 358L422 357M375 358L376 359L375 358z"/>
<path style="fill:#e093a3; stroke:none;" d="M376 358L377 359L376 358z"/>
<path style="fill:#de456a; stroke:none;" d="M424 358L425 359L424 358z"/>
<path style="fill:#e093a3; stroke:none;" d="M374 359L375 360L374 359M425 359L426 360L425 359z"/>
<path style="fill:#de456a; stroke:none;" d="M372 360L373 361L372 360M427 360L428 361L427 360z"/>
<path style="fill:#e093a3; stroke:none;" d="M371 361L372 362L371 361M428 361L429 362L428 361M370 362L371 363L370 362M429 362L430 363L429 362z"/>
<path style="fill:#de456a; stroke:none;" d="M368 363L369 364L368 363M431 363L432 364L431 363M367 364L368 365L367 364M432 364L433 365L432 364M366 365L367 366L366 365M433 365L434 366L433 365M365 366L366 367L365 366M434 366L435 367L434 366M364 367L365 368L364 367M435 367L436 368L435 367M363 368L364 369L363 368M436 368L437 369L436 368z"/>
<path style="fill:#e093a3; stroke:none;" d="M362 370L363 371L362 370M437 370L438 371L437 370M361 371L362 372L361 371M438 371L439 372L438 371z"/>
<path style="fill:#de456a; stroke:none;" d="M360 372L361 373L360 372M439 372L440 373L439 372z"/>
<path style="fill:#e093a3; stroke:none;" d="M359 374L360 375L359 374M440 374L441 375L440 374z"/>
<path style="fill:#de456a; stroke:none;" d="M358 375L359 376L358 375M441 375L442 376L441 375M357 377L358 378L357 377M442 377L443 378L442 377M356 379L357 380L356 379M443 379L444 380L443 379M355 381L356 382L355 381M444 381L445 382L444 381z"/>
<path style="fill:#e093a3; stroke:none;" d="M355 382L356 383L355 382M444 382L445 383L444 382z"/>
<path style="fill:#de456a; stroke:none;" d="M354 384L355 385L354 384M445 384L446 385L445 384z"/>
<path style="fill:#e093a3; stroke:none;" d="M354 385L355 386L354 385M445 385L446 386L445 385z"/>
<path style="fill:#de456a; stroke:none;" d="M353 387L354 388L353 387z"/>
<path style="fill:#e093a3; stroke:none;" d="M445 387C432.5 409.429 409.429 432.5 387 445L387 446C413.036 452.736 440.517 438.032 446.575 411C448.241 403.567 449.598 393.617 445 387z"/>
<path style="fill:#de456a; stroke:none;" d="M446.333 387.667L446.667 388.333L446.333 387.667z"/>
<path style="fill:#e093a3; stroke:none;" d="M353 388L354 389L353 388z"/>
<path style="fill:#de456a; stroke:none;" d="M352.333 391.667L352.667 392.333L352.333 391.667M447 391L447 394L448 394L447 391z"/>
<path style="fill:#e093a3; stroke:none;" d="M352 393L352 396L353 396L352 393M352 404L352 407L353 407L352 404z"/>
<path style="fill:#de456a; stroke:none;" d="M447 406L447 409L448 409L447 406M352.333 407.667L352.667 408.333L352.333 407.667z"/>
<path style="fill:#e093a3; stroke:none;" d="M353 411L354 412L353 411z"/>
<path style="fill:#de456a; stroke:none;" d="M446.333 411.667L446.667 412.333L446.333 411.667M353 412L354 413L353 412z"/>
<path style="fill:#e093a3; stroke:none;" d="M354 414L355 415L354 414z"/>
<path style="fill:#de456a; stroke:none;" d="M354 415L355 416L354 415M445 415L446 416L445 415z"/>
<path style="fill:#e093a3; stroke:none;" d="M355 417L356 418L355 417z"/>
<path style="fill:#de456a; stroke:none;" d="M355 418L356 419L355 418M444 418L445 419L444 418M356 420L357 421L356 420M443 420L444 421L443 420M357 422L358 423L357 422M442 422L443 423L442 422M358 424L359 425L358 424M441 424L442 425L441 424z"/>
<path style="fill:#e093a3; stroke:none;" d="M359 425L360 426L359 425z"/>
<path style="fill:#de456a; stroke:none;" d="M360 427L361 428L360 427M439 427L440 428L439 427z"/>
<path style="fill:#e093a3; stroke:none;" d="M361 428L362 429L361 428z"/>
<path style="fill:#de456a; stroke:none;" d="M438 428L439 429L438 428z"/>
<path style="fill:#e093a3; stroke:none;" d="M362 429L363 430L362 429z"/>
<path style="fill:#de456a; stroke:none;" d="M363 431L364 432L363 431M436 431L437 432L436 431M364 432L365 433L364 432M435 432L436 433L435 432M365 433L366 434L365 433M434 433L435 434L434 433M366 434L367 435L366 434M433 434L434 435L433 434M367 435L368 436L367 435M432 435L433 436L432 435M368 436L369 437L368 436M431 436L432 437L431 436z"/>
<path style="fill:#e093a3; stroke:none;" d="M370 437L371 438L370 437M371 438L372 439L371 438z"/>
<path style="fill:#de456a; stroke:none;" d="M428 438L429 439L428 438M372 439L373 440L372 439M427 439L428 440L427 439z"/>
<path style="fill:#e093a3; stroke:none;" d="M374 440L375 441L374 440z"/>
<path style="fill:#de456a; stroke:none;" d="M375 441L376 442L375 441z"/>
<path style="fill:#e093a3; stroke:none;" d="M376 441L377 442L376 441z"/>
<path style="fill:#de456a; stroke:none;" d="M424 441L425 442L424 441M377 442L378 443L377 442M422 442L423 443L422 442M379 443L380 444L379 443M420 443L421 444L420 443M381 444L382 445L381 444z"/>
<path style="fill:#e093a3; stroke:none;" d="M382 444L383 445L382 444z"/>
<path style="fill:#de456a; stroke:none;" d="M418 444L419 445L418 444z"/>
<path style="fill:#010101; stroke:none;" d="M0 445L0 512L67 512L67 511C43.9111 509.114 21.2196 491.848 10.3117 472C5.54495 463.326 4.17092 453.662 0 445z"/>
<path style="fill:#de456a; stroke:none;" d="M384 445L385 446L384 445z"/>
<path style="fill:#e093a3; stroke:none;" d="M385 445L386 446L385 445z"/>
<path style="fill:#de456a; stroke:none;" d="M415 445L416 446L415 445z"/>
<path style="fill:#010101; stroke:none;" d="M511 445C508.386 477 477 508.386 445 511L445 512L512 512L512 466L511 445z"/>
<path style="fill:#de456a; stroke:none;" d="M387.667 446.333L388.333 446.667L387.667 446.333M412 446L413 447L412 446M391 447L391 448L394 448L391 447M406 447L406 448L409 448L406 447z"/>
</svg>
