<?xml version="1.0" standalone="yes"?>
<svg xmlns="http://www.w3.org/2000/svg" width="512" height="512">
<path style="fill:#010101; stroke:none;" d="M0 0L0 67L1 67C3.6137 34.9999 34.9999 3.61368 67 1L46 0L0 0z"/>
<path style="fill:#d20135; stroke:none;" d="M67 0.439056C33.0031 5.74875 6.57559 32.2665 0.614969 66C-1.31342 76.9135 0 88.9368 0 100L0 164L0 363C0 399.98 -8.40107 447.022 14.0424 479C40.9435 517.329 84.9193 512 126 512L341 512L410 512C422.032 512 435.155 513.462 447 511.195C480.301 504.823 506.3 478.686 511.561 445C516.478 413.515 512 377.89 512 346L512 147C512 109.851 520.508 62.5038 496.497 31C468.101 -6.25696 423.456 0 382 0L171 0L103 0C91.2831 0 78.5866 -1.37054 67 0.439056z"/>
<path style="fill:#010101; stroke:none;" d="M445 0L445 1C477 3.61368 508.386 34.9999 511 67L512 67L512 0L445 0z"/>
<path style="fill:#e3436a; stroke:none;" d="M247.667 208.333L248.333 208.667L247.667 208.333z"/>
<path style="fill:#ea91a4; stroke:none;" d="M249 208L249 209L252 209L249 208z"/>
<path style="fill:#f5eee9; stroke:none;" d="M252 208.428C235.499 210.766 220.136 219.296 212.901 235C198.29 266.714 222.931 308.563 260 303.575C280.438 300.824 297.811 287.876 302.486 267C309.199 237.028 284.358 203.845 252 208.428z"/>
<path style="fill:#ea91a4; stroke:none;" d="M260 208L260 209L263 209L260 208z"/>
<path style="fill:#e3436a; stroke:none;" d="M263.667 208.333L264.333 208.667L263.667 208.333M243 209L244 210L243 209z"/>
<path style="fill:#ea91a4; stroke:none;" d="M244.667 209.333L245.333 209.667L244.667 209.333M267 209L268 210L267 209z"/>
<path style="fill:#e3436a; stroke:none;" d="M268 209L269 210L268 209M240 210L241 211L240 210z"/>
<path style="fill:#ea91a4; stroke:none;" d="M241 210L242 211L241 210M270 210L271 211L270 210z"/>
<path style="fill:#e3436a; stroke:none;" d="M271 210L272 211L271 210M237 211L238 212L237 211z"/>
<path style="fill:#ea91a4; stroke:none;" d="M238 211L239 212L238 211M273 211L274 212L273 211z"/>
<path style="fill:#e3436a; stroke:none;" d="M274 211L275 212L274 211M235 212L236 213L235 212z"/>
<path style="fill:#ea91a4; stroke:none;" d="M236 212L237 213L236 212z"/>
<path style="fill:#e3436a; stroke:none;" d="M276 212L277 213L276 212M233 213L234 214L233 213M278 213L279 214L278 213M231 214L232 215L231 214z"/>
<path style="fill:#ea91a4; stroke:none;" d="M232 214L233 215L232 214z"/>
<path style="fill:#e3436a; stroke:none;" d="M280 214L281 215L280 214z"/>
<path style="fill:#ea91a4; stroke:none;" d="M230 215L231 216L230 215M281 215L282 216L281 215z"/>
<path style="fill:#e3436a; stroke:none;" d="M228 216L229 217L228 216M283 216L284 217L283 216z"/>
<path style="fill:#ea91a4; stroke:none;" d="M227 217L228 218L227 217M284 217L285 218L284 217M226 218L227 219L226 218M285 218L286 219L285 218z"/>
<path style="fill:#e3436a; stroke:none;" d="M224 219L225 220L224 219M287 219L288 220L287 219M223 220L224 221L223 220M288 220L289 221L288 220M222 221L223 222L222 221M289 221L290 222L289 221M221 222L222 223L221 222M290 222L291 223L290 222M220 223L221 224L220 223M291 223L292 224L291 223M219 224L220 225L219 224M292 224L293 225L292 224z"/>
<path style="fill:#ea91a4; stroke:none;" d="M218 226L219 227L218 226M293 226L294 227L293 226M217 227L218 228L217 227M294 227L295 228L294 227z"/>
<path style="fill:#e3436a; stroke:none;" d="M216 228L217 229L216 228M295 228L296 229L295 228z"/>
<path style="fill:#ea91a4; stroke:none;" d="M215 230L216 231L215 230M296 230L297 231L296 230z"/>
<path style="fill:#e3436a; stroke:none;" d="M214 231L215 232L214 231M297 231L298 232L297 231M213 233L214 234L213 233M298 233L299 234L298 233M212 235L213 236L212 235M299 235L300 236L299 235M211 237L212 238L211 237M300 237L301 238L300 237z"/>
<path style="fill:#ea91a4; stroke:none;" d="M211 238L212 239L211 238M300 238L301 239L300 238z"/>
<path style="fill:#e3436a; stroke:none;" d="M210 240L211 241L210 240M301 240L302 241L301 240z"/>
<path style="fill:#ea91a4; stroke:none;" d="M210 241L211 242L210 241M301 241L302 242L301 241z"/>
<path style="fill:#e3436a; stroke:none;" d="M209 243L210 244L209 243M302 243L303 244L302 243z"/>
<path style="fill:#ea91a4; stroke:none;" d="M209 244L210 245L209 244M302 244L303 245L302 244z"/>
<path style="fill:#e3436a; stroke:none;" d="M208.333 247.667L208.667 248.333L208.333 247.667M303.333 247.667L303.667 248.333L303.333 247.667z"/>
<path style="fill:#ea91a4; stroke:none;" d="M208 249L208 252L209 252L208 249M303 249L303 252L304 252L303 249M208 260L208 263L209 263L208 260M303 260L303 263L304 263L303 260z"/>
<path style="fill:#e3436a; stroke:none;" d="M208.333 263.667L208.667 264.333L208.333 263.667M303.333 263.667L303.667 264.333L303.333 263.667z"/>
<path style="fill:#ea91a4; stroke:none;" d="M209 267L210 268L209 267M302 267L303 268L302 267z"/>
<path style="fill:#e3436a; stroke:none;" d="M209 268L210 269L209 268M302 268L303 269L302 268z"/>
<path style="fill:#ea91a4; stroke:none;" d="M210 270L211 271L210 270M301 270L302 271L301 270z"/>
<path style="fill:#e3436a; stroke:none;" d="M210 271L211 272L210 271M301 271L302 272L301 271z"/>
<path style="fill:#ea91a4; stroke:none;" d="M211 273L212 274L211 273M300 273L301 274L300 273z"/>
<path style="fill:#e3436a; stroke:none;" d="M211 274L212 275L211 274M300 274L301 275L300 274M212 276L213 277L212 276M299 276L300 277L299 276M213 278L214 279L213 278M298 278L299 279L298 278z"/>
<path style="fill:#ea91a4; stroke:none;" d="M297 279L298 280L297 279z"/>
<path style="fill:#e3436a; stroke:none;" d="M214 280L215 281L214 280M297 280L298 281L297 280z"/>
<path style="fill:#ea91a4; stroke:none;" d="M215 281L216 282L215 281M296 281L297 282L296 281z"/>
<path style="fill:#e3436a; stroke:none;" d="M216 283L217 284L216 283M295 283L296 284L295 283z"/>
<path style="fill:#ea91a4; stroke:none;" d="M217 284L218 285L217 284M294 284L295 285L294 284M218 285L219 286L218 285M293 285L294 286L293 285z"/>
<path style="fill:#e3436a; stroke:none;" d="M219 287L220 288L219 287M292 287L293 288L292 287M220 288L221 289L220 288M291 288L292 289L291 288M221 289L222 290L221 289M290 289L291 290L290 289M222 290L223 291L222 290M289 290L290 291L289 290M223 291L224 292L223 291M288 291L289 292L288 291M224 292L225 293L224 292M287 292L288 293L287 292z"/>
<path style="fill:#ea91a4; stroke:none;" d="M226 293L227 294L226 293M285 293L286 294L285 293M227 294L228 295L227 294M284 294L285 295L284 294z"/>
<path style="fill:#e3436a; stroke:none;" d="M228 295L229 296L228 295M283 295L284 296L283 295z"/>
<path style="fill:#ea91a4; stroke:none;" d="M230 296L231 297L230 296M281 296L282 297L281 296z"/>
<path style="fill:#e3436a; stroke:none;" d="M231 297L232 298L231 297z"/>
<path style="fill:#ea91a4; stroke:none;" d="M232 297L233 298L232 297z"/>
<path style="fill:#e3436a; stroke:none;" d="M280 297L281 298L280 297M233 298L234 299L233 298M278 298L279 299L278 298M235 299L236 300L235 299z"/>
<path style="fill:#ea91a4; stroke:none;" d="M236 299L237 300L236 299z"/>
<path style="fill:#e3436a; stroke:none;" d="M276 299L277 300L276 299M237 300L238 301L237 300z"/>
<path style="fill:#ea91a4; stroke:none;" d="M238 300L239 301L238 300M273 300L274 301L273 300z"/>
<path style="fill:#e3436a; stroke:none;" d="M274 300L275 301L274 300M240 301L241 302L240 301z"/>
<path style="fill:#ea91a4; stroke:none;" d="M241 301L242 302L241 301M270 301L271 302L270 301z"/>
<path style="fill:#e3436a; stroke:none;" d="M271 301L272 302L271 301M243 302L244 303L243 302z"/>
<path style="fill:#ea91a4; stroke:none;" d="M244.667 302.333L245.333 302.667L244.667 302.333M267 302L268 303L267 302z"/>
<path style="fill:#e3436a; stroke:none;" d="M268 302L269 303L268 302M247.667 303.333L248.333 303.667L247.667 303.333z"/>
<path style="fill:#ea91a4; stroke:none;" d="M249 303L249 304L252 304L249 303M260 303L260 304L263 304L260 303z"/>
<path style="fill:#e3436a; stroke:none;" d="M263.667 303.333L264.333 303.667L263.667 303.333z"/>
<path style="fill:#010101; stroke:none;" d="M0 445L0 512L67 512L67 511C43.9111 509.114 21.2196 491.848 10.3117 472C5.54495 463.326 4.17092 453.662 0 445M511 445C508.386 477 477 508.386 445 511L445 512L512 512L512 466L511 445z"/>
</svg>
