<?xml version="1.0" standalone="yes"?>
<svg xmlns="http://www.w3.org/2000/svg" width="512" height="512">
<path style="fill:#010101; stroke:none;" d="M0 0L0 67L1 67C3.6137 34.9999 34.9999 3.61368 67 1L46 0L0 0z"/>
<path style="fill:#d20135; stroke:none;" d="M67 0.439056C33.0031 5.74875 6.57559 32.2665 0.614969 66C-1.31342 76.9135 0 88.9368 0 100L0 164L0 363C0 399.98 -8.40107 447.022 14.0424 479C40.9435 517.329 84.9193 512 126 512L341 512L410 512C422.032 512 435.155 513.462 447 511.195C480.301 504.823 506.3 478.686 511.561 445C516.478 413.515 512 377.89 512 346L512 147C512 109.851 520.508 62.5038 496.497 31C468.101 -6.25696 423.456 0 382 0L171 0L103 0C91.2831 0 78.5866 -1.37054 67 0.439056z"/>
<path style="fill:#010101; stroke:none;" d="M445 0L445 1C477 3.61368 508.386 34.9999 511 67L512 67L512 0L445 0z"/>
<path style="fill:#df456a; stroke:none;" d="M103.667 64.3333L104.333 64.6667L103.667 64.3333z"/>
<path style="fill:#e392a3; stroke:none;" d="M105 64L105 65L108 65L105 64z"/>
<path style="fill:#f3ece7; stroke:none;" d="M108 64.4252C91.4746 66.6491 76.1411 75.2854 68.9012 91C54.4858 122.289 78.2616 163.93 115 159.714C131.95 157.768 147.694 149.073 155.099 133C169.742 101.216 145.074 59.4359 108 64.4252z"/>
<path style="fill:#e392a3; stroke:none;" d="M116 64L116 65L119 65L116 64z"/>
<path style="fill:#df456a; stroke:none;" d="M119.667 64.3333L120.333 64.6667L119.667 64.3333M391.667 64.3333L392.333 64.6667L391.667 64.3333z"/>
<path style="fill:#e392a3; stroke:none;" d="M393 64L393 65L396 65L393 64z"/>
<path style="fill:#f3ece7; stroke:none;" d="M396 64.4252C379.475 66.6491 364.141 75.2854 356.901 91C342.486 122.289 366.262 163.93 403 159.714C419.95 157.768 435.694 149.073 443.099 133C457.742 101.216 433.074 59.4359 396 64.4252z"/>
<path style="fill:#e392a3; stroke:none;" d="M404 64L404 65L407 65L404 64z"/>
<path style="fill:#df456a; stroke:none;" d="M407.667 64.3333L408.333 64.6667L407.667 64.3333M99 65L100 66L99 65z"/>
<path style="fill:#e392a3; stroke:none;" d="M100 65L101 66L100 65M123 65L124 66L123 65z"/>
<path style="fill:#df456a; stroke:none;" d="M124 65L125 66L124 65M387 65L388 66L387 65z"/>
<path style="fill:#e392a3; stroke:none;" d="M388 65L389 66L388 65M411 65L412 66L411 65z"/>
<path style="fill:#df456a; stroke:none;" d="M412 65L413 66L412 65M96 66L97 67L96 66z"/>
<path style="fill:#e392a3; stroke:none;" d="M97 66L98 67L97 66M126 66L127 67L126 66z"/>
<path style="fill:#df456a; stroke:none;" d="M127 66L128 67L127 66M384 66L385 67L384 66z"/>
<path style="fill:#e392a3; stroke:none;" d="M385 66L386 67L385 66M414 66L415 67L414 66z"/>
<path style="fill:#df456a; stroke:none;" d="M415 66L416 67L415 66M93 67L94 68L93 67z"/>
<path style="fill:#e392a3; stroke:none;" d="M94 67L95 68L94 67M129 67L130 68L129 67z"/>
<path style="fill:#df456a; stroke:none;" d="M130 67L131 68L130 67M381 67L382 68L381 67z"/>
<path style="fill:#e392a3; stroke:none;" d="M382 67L383 68L382 67M417 67L418 68L417 67z"/>
<path style="fill:#df456a; stroke:none;" d="M418 67L419 68L418 67M91 68L92 69L91 68M132 68L133 69L132 68M379 68L380 69L379 68M420 68L421 69L420 68M89 69L90 70L89 69M134 69L135 70L134 69M377 69L378 70L377 69M422 69L423 70L422 69M87 70L88 71L87 70z"/>
<path style="fill:#e392a3; stroke:none;" d="M88 70L89 71L88 70z"/>
<path style="fill:#df456a; stroke:none;" d="M136 70L137 71L136 70M375 70L376 71L375 70z"/>
<path style="fill:#e392a3; stroke:none;" d="M376 70L377 71L376 70z"/>
<path style="fill:#df456a; stroke:none;" d="M424 70L425 71L424 70z"/>
<path style="fill:#e392a3; stroke:none;" d="M86 71L87 72L86 71M137 71L138 72L137 71M374 71L375 72L374 71M425 71L426 72L425 71z"/>
<path style="fill:#df456a; stroke:none;" d="M84 72L85 73L84 72M139 72L140 73L139 72M372 72L373 73L372 72M427 72L428 73L427 72z"/>
<path style="fill:#e392a3; stroke:none;" d="M83 73L84 74L83 73M140 73L141 74L140 73M371 73L372 74L371 73M428 73L429 74L428 73M82 74L83 75L82 74M141 74L142 75L141 74M370 74L371 75L370 74M429 74L430 75L429 74z"/>
<path style="fill:#df456a; stroke:none;" d="M80 75L81 76L80 75M143 75L144 76L143 75M368 75L369 76L368 75M431 75L432 76L431 75M79 76L80 77L79 76M144 76L145 77L144 76M367 76L368 77L367 76M432 76L433 77L432 76M78 77L79 78L78 77M145 77L146 78L145 77M366 77L367 78L366 77M433 77L434 78L433 77M77 78L78 79L77 78M146 78L147 79L146 78M365 78L366 79L365 78M434 78L435 79L434 78M76 79L77 80L76 79M147 79L148 80L147 79M364 79L365 80L364 79M435 79L436 80L435 79M75 80L76 81L75 80M148 80L149 81L148 80M363 80L364 81L363 80M436 80L437 81L436 80z"/>
<path style="fill:#e392a3; stroke:none;" d="M74 82L75 83L74 82M149 82L150 83L149 82M362 82L363 83L362 82M437 82L438 83L437 82M73 83L74 84L73 83M150 83L151 84L150 83M361 83L362 84L361 83M438 83L439 84L438 83z"/>
<path style="fill:#df456a; stroke:none;" d="M72 84L73 85L72 84M151 84L152 85L151 84M360 84L361 85L360 84M439 84L440 85L439 84z"/>
<path style="fill:#e392a3; stroke:none;" d="M71 86L72 87L71 86M152 86L153 87L152 86M359 86L360 87L359 86M440 86L441 87L440 86z"/>
<path style="fill:#df456a; stroke:none;" d="M70 87L71 88L70 87M153 87L154 88L153 87M358 87L359 88L358 87M441 87L442 88L441 87M69 89L70 90L69 89M154 89L155 90L154 89M357 89L358 90L357 89M442 89L443 90L442 89M68 91L69 92L68 91M155 91L156 92L155 91M356 91L357 92L356 91M443 91L444 92L443 91M67 93L68 94L67 93M156 93L157 94L156 93M355 93L356 94L355 93M444 93L445 94L444 93z"/>
<path style="fill:#e392a3; stroke:none;" d="M67 94L68 95L67 94M156 94L157 95L156 94M355 94L356 95L355 94M444 94L445 95L444 94z"/>
<path style="fill:#df456a; stroke:none;" d="M66 96L67 97L66 96M157 96L158 97L157 96M354 96L355 97L354 96M445 96L446 97L445 96z"/>
<path style="fill:#e392a3; stroke:none;" d="M66 97L67 98L66 97M157 97L158 98L157 97M354 97L355 98L354 97M445 97L446 98L445 97z"/>
<path style="fill:#df456a; stroke:none;" d="M65 99L66 100L65 99M158 99L159 100L158 99M353 99L354 100L353 99M446 99L447 100L446 99z"/>
<path style="fill:#e392a3; stroke:none;" d="M65 100L66 101L65 100M158 100L159 101L158 100M353 100L354 101L353 100M446 100L447 101L446 100z"/>
<path style="fill:#df456a; stroke:none;" d="M64.3333 103.667L64.6667 104.333L64.3333 103.667M159.333 103.667L159.667 104.333L159.333 103.667M352.333 103.667L352.667 104.333L352.333 103.667M447.333 103.667L447.667 104.333L447.333 103.667z"/>
<path style="fill:#e392a3; stroke:none;" d="M64 105L64 108L65 108L64 105M159 105L159 108L160 108L159 105M352 105L352 108L353 108L352 105M447 105L447 108L448 108L447 105M64 116L64 119L65 119L64 116M159 116L159 119L160 119L159 116M352 116L352 119L353 119L352 116M447 116L447 119L448 119L447 116z"/>
<path style="fill:#df456a; stroke:none;" d="M64.3333 119.667L64.6667 120.333L64.3333 119.667M159.333 119.667L159.667 120.333L159.333 119.667M352.333 119.667L352.667 120.333L352.333 119.667M447.333 119.667L447.667 120.333L447.333 119.667z"/>
<path style="fill:#e392a3; stroke:none;" d="M65 123L66 124L65 123M158 123L159 124L158 123M353 123L354 124L353 123M446 123L447 124L446 123z"/>
<path style="fill:#df456a; stroke:none;" d="M65 124L66 125L65 124M158 124L159 125L158 124M353 124L354 125L353 124M446 124L447 125L446 124z"/>
<path style="fill:#e392a3; stroke:none;" d="M66 126L67 127L66 126M157 126L158 127L157 126M354 126L355 127L354 126M445 126L446 127L445 126z"/>
<path style="fill:#df456a; stroke:none;" d="M66 127L67 128L66 127M157 127L158 128L157 127M354 127L355 128L354 127M445 127L446 128L445 127z"/>
<path style="fill:#e392a3; stroke:none;" d="M67 129L68 130L67 129M156 129L157 130L156 129M355 129L356 130L355 129M444 129L445 130L444 129z"/>
<path style="fill:#df456a; stroke:none;" d="M67 130L68 131L67 130M156 130L157 131L156 130M355 130L356 131L355 130M444 130L445 131L444 130M68 132L69 133L68 132M155 132L156 133L155 132M356 132L357 133L356 132M443 132L444 133L443 132M69 134L70 135L69 134M154 134L155 135L154 134M357 134L358 135L357 134M442 134L443 135L442 134M70 136L71 137L70 136M153 136L154 137L153 136M358 136L359 137L358 136M441 136L442 137L441 136z"/>
<path style="fill:#e392a3; stroke:none;" d="M71 137L72 138L71 137M152 137L153 138L152 137M359 137L360 138L359 137M440 137L441 138L440 137z"/>
<path style="fill:#df456a; stroke:none;" d="M72 139L73 140L72 139M151 139L152 140L151 139M360 139L361 140L360 139M439 139L440 140L439 139z"/>
<path style="fill:#e392a3; stroke:none;" d="M73 140L74 141L73 140M150 140L151 141L150 140M361 140L362 141L361 140M438 140L439 141L438 140M74 141L75 142L74 141M149 141L150 142L149 141M362 141L363 142L362 141M437 141L438 142L437 141z"/>
<path style="fill:#df456a; stroke:none;" d="M75 143L76 144L75 143M148 143L149 144L148 143M363 143L364 144L363 143M436 143L437 144L436 143M76 144L77 145L76 144M147 144L148 145L147 144M364 144L365 145L364 144M435 144L436 145L435 144M77 145L78 146L77 145M146 145L147 146L146 145M365 145L366 146L365 145M434 145L435 146L434 145M78 146L79 147L78 146M145 146L146 147L145 146M366 146L367 147L366 146M433 146L434 147L433 146M79 147L80 148L79 147M144 147L145 148L144 147M367 147L368 148L367 147M432 147L433 148L432 147M80 148L81 149L80 148M143 148L144 149L143 148M368 148L369 149L368 148M431 148L432 149L431 148z"/>
<path style="fill:#e392a3; stroke:none;" d="M82 149L83 150L82 149M141 149L142 150L141 149M370 149L371 150L370 149M429 149L430 150L429 149M83 150L84 151L83 150M140 150L141 151L140 150M371 150L372 151L371 150M428 150L429 151L428 150z"/>
<path style="fill:#df456a; stroke:none;" d="M84 151L85 152L84 151M139 151L140 152L139 151M372 151L373 152L372 151M427 151L428 152L427 151z"/>
<path style="fill:#e392a3; stroke:none;" d="M86 152L87 153L86 152M137 152L138 153L137 152M374 152L375 153L374 152M425 152L426 153L425 152z"/>
<path style="fill:#df456a; stroke:none;" d="M87 153L88 154L87 153z"/>
<path style="fill:#e392a3; stroke:none;" d="M88 153L89 154L88 153z"/>
<path style="fill:#df456a; stroke:none;" d="M136 153L137 154L136 153M375 153L376 154L375 153z"/>
<path style="fill:#e392a3; stroke:none;" d="M376 153L377 154L376 153z"/>
<path style="fill:#df456a; stroke:none;" d="M424 153L425 154L424 153M89 154L90 155L89 154M134 154L135 155L134 154M377 154L378 155L377 154M422 154L423 155L422 154M91 155L92 156L91 155M132 155L133 156L132 155M379 155L380 156L379 155M420 155L421 156L420 155M93 156L94 157L93 156z"/>
<path style="fill:#e392a3; stroke:none;" d="M94 156L95 157L94 156M129 156L130 157L129 156z"/>
<path style="fill:#df456a; stroke:none;" d="M130 156L131 157L130 156M381 156L382 157L381 156z"/>
<path style="fill:#e392a3; stroke:none;" d="M382 156L383 157L382 156M417 156L418 157L417 156z"/>
<path style="fill:#df456a; stroke:none;" d="M418 156L419 157L418 156M96 157L97 158L96 157z"/>
<path style="fill:#e392a3; stroke:none;" d="M97 157L98 158L97 157M126 157L127 158L126 157z"/>
<path style="fill:#df456a; stroke:none;" d="M127 157L128 158L127 157M384 157L385 158L384 157z"/>
<path style="fill:#e392a3; stroke:none;" d="M385 157L386 158L385 157M414 157L415 158L414 157z"/>
<path style="fill:#df456a; stroke:none;" d="M415 157L416 158L415 157M99 158L100 159L99 158z"/>
<path style="fill:#e392a3; stroke:none;" d="M100 158L101 159L100 158M123 158L124 159L123 158z"/>
<path style="fill:#df456a; stroke:none;" d="M124 158L125 159L124 158M387 158L388 159L387 158z"/>
<path style="fill:#e392a3; stroke:none;" d="M388 158L389 159L388 158M411 158L412 159L411 158z"/>
<path style="fill:#df456a; stroke:none;" d="M412 158L413 159L412 158M103.667 159.333L104.333 159.667L103.667 159.333z"/>
<path style="fill:#e392a3; stroke:none;" d="M105 159L105 160L108 160L105 159M116 159L116 160L119 160L116 159z"/>
<path style="fill:#df456a; stroke:none;" d="M119.667 159.333L120.333 159.667L119.667 159.333M391.667 159.333L392.333 159.667L391.667 159.333z"/>
<path style="fill:#e392a3; stroke:none;" d="M393 159L393 160L396 160L393 159M404 159L404 160L407 160L404 159z"/>
<path style="fill:#df456a; stroke:none;" d="M407.667 159.333L408.333 159.667L407.667 159.333M103.667 352.333L104.333 352.667L103.667 352.333z"/>
<path style="fill:#e392a3; stroke:none;" d="M105 352L105 353L108 353L105 352z"/>
<path style="fill:#f3ece7; stroke:none;" d="M108 352.425C91.4746 354.649 76.1411 363.285 68.9012 379C54.4858 410.289 78.2616 451.93 115 447.714C131.95 445.768 147.694 437.073 155.099 421C169.742 389.216 145.074 347.436 108 352.425z"/>
<path style="fill:#e392a3; stroke:none;" d="M116 352L116 353L119 353L116 352z"/>
<path style="fill:#df456a; stroke:none;" d="M119.667 352.333L120.333 352.667L119.667 352.333M391.667 352.333L392.333 352.667L391.667 352.333z"/>
<path style="fill:#e392a3; stroke:none;" d="M393 352L393 353L396 353L393 352z"/>
<path style="fill:#f3ece7; stroke:none;" d="M396 352.425C370.348 355.877 348.682 377.783 352.579 405C354.625 419.286 368.221 447.985 387 445.111C392.64 444.248 398.724 437.859 403 434.389C414.888 424.743 425.606 413.931 435.196 402C438.446 397.957 444.298 392.311 445.111 387C445.889 381.916 441.646 375.846 438.841 372C429.363 359.007 412.345 350.226 396 352.425z"/>
<path style="fill:#e392a3; stroke:none;" d="M404 352L404 353L407 353L404 352z"/>
<path style="fill:#df456a; stroke:none;" d="M407.667 352.333L408.333 352.667L407.667 352.333M99 353L100 354L99 353z"/>
<path style="fill:#e392a3; stroke:none;" d="M100 353L101 354L100 353M123 353L124 354L123 353z"/>
<path style="fill:#df456a; stroke:none;" d="M124 353L125 354L124 353M387 353L388 354L387 353z"/>
<path style="fill:#e392a3; stroke:none;" d="M388 353L389 354L388 353M411 353L412 354L411 353z"/>
<path style="fill:#df456a; stroke:none;" d="M412 353L413 354L412 353M96 354L97 355L96 354z"/>
<path style="fill:#e392a3; stroke:none;" d="M97 354L98 355L97 354M126 354L127 355L126 354z"/>
<path style="fill:#df456a; stroke:none;" d="M127 354L128 355L127 354M384 354L385 355L384 354z"/>
<path style="fill:#e392a3; stroke:none;" d="M385 354L386 355L385 354M414 354L415 355L414 354z"/>
<path style="fill:#df456a; stroke:none;" d="M415 354L416 355L415 354M93 355L94 356L93 355z"/>
<path style="fill:#e392a3; stroke:none;" d="M94 355L95 356L94 355M129 355L130 356L129 355z"/>
<path style="fill:#df456a; stroke:none;" d="M130 355L131 356L130 355M381 355L382 356L381 355z"/>
<path style="fill:#e392a3; stroke:none;" d="M382 355L383 356L382 355M417 355L418 356L417 355z"/>
<path style="fill:#df456a; stroke:none;" d="M418 355L419 356L418 355M91 356L92 357L91 356M132 356L133 357L132 356M379 356L380 357L379 356M420 356L421 357L420 356M89 357L90 358L89 357M134 357L135 358L134 357M377 357L378 358L377 357M422 357L423 358L422 357M87 358L88 359L87 358z"/>
<path style="fill:#e392a3; stroke:none;" d="M88 358L89 359L88 358z"/>
<path style="fill:#df456a; stroke:none;" d="M136 358L137 359L136 358M375 358L376 359L375 358z"/>
<path style="fill:#e392a3; stroke:none;" d="M376 358L377 359L376 358z"/>
<path style="fill:#df456a; stroke:none;" d="M424 358L425 359L424 358z"/>
<path style="fill:#e392a3; stroke:none;" d="M86 359L87 360L86 359M137 359L138 360L137 359M374 359L375 360L374 359M425 359L426 360L425 359z"/>
<path style="fill:#df456a; stroke:none;" d="M84 360L85 361L84 360M139 360L140 361L139 360M372 360L373 361L372 360M427 360L428 361L427 360z"/>
<path style="fill:#e392a3; stroke:none;" d="M83 361L84 362L83 361M140 361L141 362L140 361M371 361L372 362L371 361M428 361L429 362L428 361M82 362L83 363L82 362M141 362L142 363L141 362M370 362L371 363L370 362M429 362L430 363L429 362z"/>
<path style="fill:#df456a; stroke:none;" d="M80 363L81 364L80 363M143 363L144 364L143 363M368 363L369 364L368 363M431 363L432 364L431 363M79 364L80 365L79 364M144 364L145 365L144 364M367 364L368 365L367 364M432 364L433 365L432 364M78 365L79 366L78 365M145 365L146 366L145 365M366 365L367 366L366 365M433 365L434 366L433 365M77 366L78 367L77 366M146 366L147 367L146 366M365 366L366 367L365 366M434 366L435 367L434 366M76 367L77 368L76 367M147 367L148 368L147 367M364 367L365 368L364 367M435 367L436 368L435 367M75 368L76 369L75 368M148 368L149 369L148 368M363 368L364 369L363 368M436 368L437 369L436 368z"/>
<path style="fill:#e392a3; stroke:none;" d="M74 370L75 371L74 370M149 370L150 371L149 370M362 370L363 371L362 370M437 370L438 371L437 370M73 371L74 372L73 371M150 371L151 372L150 371M361 371L362 372L361 371M438 371L439 372L438 371z"/>
<path style="fill:#df456a; stroke:none;" d="M72 372L73 373L72 372M151 372L152 373L151 372M360 372L361 373L360 372M439 372L440 373L439 372z"/>
<path style="fill:#e392a3; stroke:none;" d="M71 374L72 375L71 374M152 374L153 375L152 374M359 374L360 375L359 374M440 374L441 375L440 374z"/>
<path style="fill:#df456a; stroke:none;" d="M70 375L71 376L70 375M153 375L154 376L153 375M358 375L359 376L358 375M441 375L442 376L441 375M69 377L70 378L69 377M154 377L155 378L154 377M357 377L358 378L357 377M442 377L443 378L442 377M68 379L69 380L68 379M155 379L156 380L155 379M356 379L357 380L356 379M443 379L444 380L443 379M67 381L68 382L67 381M156 381L157 382L156 381M355 381L356 382L355 381M444 381L445 382L444 381z"/>
<path style="fill:#e392a3; stroke:none;" d="M67 382L68 383L67 382M156 382L157 383L156 382M355 382L356 383L355 382M444 382L445 383L444 382z"/>
<path style="fill:#df456a; stroke:none;" d="M66 384L67 385L66 384M157 384L158 385L157 384M354 384L355 385L354 384M445 384L446 385L445 384z"/>
<path style="fill:#e392a3; stroke:none;" d="M66 385L67 386L66 385M157 385L158 386L157 385M354 385L355 386L354 385M445 385L446 386L445 385z"/>
<path style="fill:#df456a; stroke:none;" d="M65 387L66 388L65 387M158 387L159 388L158 387M353 387L354 388L353 387M446.333 387.667L446.667 388.333L446.333 387.667z"/>
<path style="fill:#e392a3; stroke:none;" d="M65 388L66 389L65 388M158 388L159 389L158 388M353 388L354 389L353 388M445 388L412 425.91L388 446C412.19 454.189 439.943 437.183 446.104 413C448.013 405.507 450.16 394.558 445 388z"/>
<path style="fill:#df456a; stroke:none;" d="M64.3333 391.667L64.6667 392.333L64.3333 391.667M159.333 391.667L159.667 392.333L159.333 391.667M352.333 391.667L352.667 392.333L352.333 391.667M447 391L447 394L448 394L447 391z"/>
<path style="fill:#e392a3; stroke:none;" d="M64 393L64 396L65 396L64 393M159 393L159 396L160 396L159 393M352 393L352 396L353 396L352 393M64 404L64 407L65 407L64 404M159 404L159 407L160 407L159 404M352 404L352 407L353 407L352 404z"/>
<path style="fill:#df456a; stroke:none;" d="M447 406L447 409L448 409L447 406M64.3333 407.667L64.6667 408.333L64.3333 407.667M159.333 407.667L159.667 408.333L159.333 407.667M352.333 407.667L352.667 408.333L352.333 407.667z"/>
<path style="fill:#e392a3; stroke:none;" d="M65 411L66 412L65 411M158 411L159 412L158 411M353 411L354 412L353 411z"/>
<path style="fill:#df456a; stroke:none;" d="M446.333 411.667L446.667 412.333L446.333 411.667M65 412L66 413L65 412M158 412L159 413L158 412M353 412L354 413L353 412z"/>
<path style="fill:#e392a3; stroke:none;" d="M66 414L67 415L66 414M157 414L158 415L157 414M354 414L355 415L354 414z"/>
<path style="fill:#df456a; stroke:none;" d="M66 415L67 416L66 415M157 415L158 416L157 415M354 415L355 416L354 415M445 415L446 416L445 415z"/>
<path style="fill:#e392a3; stroke:none;" d="M67 417L68 418L67 417M156 417L157 418L156 417M355 417L356 418L355 417z"/>
<path style="fill:#df456a; stroke:none;" d="M67 418L68 419L67 418M156 418L157 419L156 418M355 418L356 419L355 418M444 418L445 419L444 418M68 420L69 421L68 420M155 420L156 421L155 420M356 420L357 421L356 420M443 420L444 421L443 420M69 422L70 423L69 422M154 422L155 423L154 422M357 422L358 423L357 422M442 422L443 423L442 422M70 424L71 425L70 424M153 424L154 425L153 424M358 424L359 425L358 424M441 424L442 425L441 424z"/>
<path style="fill:#e392a3; stroke:none;" d="M71 425L72 426L71 425M152 425L153 426L152 425M359 425L360 426L359 425z"/>
<path style="fill:#df456a; stroke:none;" d="M72 427L73 428L72 427M151 427L152 428L151 427M360 427L361 428L360 427M439 427L440 428L439 427z"/>
<path style="fill:#e392a3; stroke:none;" d="M73 428L74 429L73 428M150 428L151 429L150 428M361 428L362 429L361 428z"/>
<path style="fill:#df456a; stroke:none;" d="M438 428L439 429L438 428z"/>
<path style="fill:#e392a3; stroke:none;" d="M74 429L75 430L74 429M149 429L150 430L149 429M362 429L363 430L362 429z"/>
<path style="fill:#df456a; stroke:none;" d="M75 431L76 432L75 431M148 431L149 432L148 431M363 431L364 432L363 431M436 431L437 432L436 431M76 432L77 433L76 432M147 432L148 433L147 432M364 432L365 433L364 432M435 432L436 433L435 432M77 433L78 434L77 433M146 433L147 434L146 433M365 433L366 434L365 433M434 433L435 434L434 433M78 434L79 435L78 434M145 434L146 435L145 434M366 434L367 435L366 434M433 434L434 435L433 434M79 435L80 436L79 435M144 435L145 436L144 435M367 435L368 436L367 435M432 435L433 436L432 435M80 436L81 437L80 436M143 436L144 437L143 436M368 436L369 437L368 436M431 436L432 437L431 436z"/>
<path style="fill:#e392a3; stroke:none;" d="M82 437L83 438L82 437M141 437L142 438L141 437M370 437L371 438L370 437M83 438L84 439L83 438M140 438L141 439L140 438M371 438L372 439L371 438z"/>
<path style="fill:#df456a; stroke:none;" d="M428 438L429 439L428 438M84 439L85 440L84 439M139 439L140 440L139 439M372 439L373 440L372 439M427 439L428 440L427 439z"/>
<path style="fill:#e392a3; stroke:none;" d="M86 440L87 441L86 440M137 440L138 441L137 440M374 440L375 441L374 440z"/>
<path style="fill:#df456a; stroke:none;" d="M87 441L88 442L87 441z"/>
<path style="fill:#e392a3; stroke:none;" d="M88 441L89 442L88 441z"/>
<path style="fill:#df456a; stroke:none;" d="M136 441L137 442L136 441M375 441L376 442L375 441z"/>
<path style="fill:#e392a3; stroke:none;" d="M376 441L377 442L376 441z"/>
<path style="fill:#df456a; stroke:none;" d="M424 441L425 442L424 441M89 442L90 443L89 442M134 442L135 443L134 442M377 442L378 443L377 442M422 442L423 443L422 442M91 443L92 444L91 443M132 443L133 444L132 443M379 443L380 444L379 443M420 443L421 444L420 443M93 444L94 445L93 444z"/>
<path style="fill:#e392a3; stroke:none;" d="M94 444L95 445L94 444M129 444L130 445L129 444z"/>
<path style="fill:#df456a; stroke:none;" d="M130 444L131 445L130 444M381 444L382 445L381 444z"/>
<path style="fill:#e392a3; stroke:none;" d="M382 444L383 445L382 444z"/>
<path style="fill:#df456a; stroke:none;" d="M418 444L419 445L418 444z"/>
<path style="fill:#010101; stroke:none;" d="M0 445L0 512L67 512L67 511C43.9111 509.114 21.2196 491.848 10.3117 472C5.54495 463.326 4.17092 453.662 0 445z"/>
<path style="fill:#df456a; stroke:none;" d="M96 445L97 446L96 445z"/>
<path style="fill:#e392a3; stroke:none;" d="M97 445L98 446L97 445M126 445L127 446L126 445z"/>
<path style="fill:#df456a; stroke:none;" d="M127 445L128 446L127 445M384 445L385 446L384 445z"/>
<path style="fill:#e392a3; stroke:none;" d="M385 445L386 446L385 445z"/>
<path style="fill:#df456a; stroke:none;" d="M415 445L416 446L415 445z"/>
<path style="fill:#010101; stroke:none;" d="M511 445C508.386 477 477 508.386 445 511L445 512L512 512L512 466L511 445z"/>
<path style="fill:#df456a; stroke:none;" d="M99 446L100 447L99 446z"/>
<path style="fill:#e392a3; stroke:none;" d="M100 446L101 447L100 446M123 446L124 447L123 446z"/>
<path style="fill:#df456a; stroke:none;" d="M124 446L125 447L124 446M387.667 446.333L388.333 446.667L387.667 446.333M412 446L413 447L412 446M103.667 447.333L104.333 447.667L103.667 447.333z"/>
<path style="fill:#e392a3; stroke:none;" d="M105 447L105 448L108 448L105 447M116 447L116 448L119 448L116 447z"/>
<path style="fill:#df456a; stroke:none;" d="M119.667 447.333L120.333 447.667L119.667 447.333M391 447L391 448L394 448L391 447M406 447L406 448L409 448L406 447z"/>
</svg>
