<?xml version="1.0" standalone="no"?>
<!DOCTYPE svg PUBLIC "-//W3C//DTD SVG 20010904//EN"
 "http://www.w3.org/TR/2001/REC-SVG-20010904/DTD/svg10.dtd">
<svg version="1.0" xmlns="http://www.w3.org/2000/svg"
 width="512.000000pt" height="512.000000pt" viewBox="0 0 512.000000 512.000000"
 preserveAspectRatio="xMidYMid meet">

<g transform="translate(0.000000,512.000000) scale(0.100000,-0.100000)"
fill="#000000" stroke="none">
<path d="M655 5105 c-331 -61 -593 -330 -644 -662 -8 -51 -11 -605 -11 -1892
0 -1952 -2 -1879 49 -2025 95 -270 344 -472 636 -516 48 -7 661 -10 1920 -8
1695 3 1855 5 1905 20 109 33 170 60 243 108 172 112 279 260 345 480 15 50
17 210 20 1905 2 1259 -1 1872 -8 1920 -52 345 -302 603 -648 671 -104 20
-3698 19 -3807 -1z m2020 -2080 c172 -45 305 -179 350 -352 65 -249 -94 -511
-350 -578 -251 -65 -513 94 -580 350 -89 343 237 669 580 580z"/>
</g>
</svg>
