<?xml version="1.0" standalone="no"?>
<!DOCTYPE svg PUBLIC "-//W3C//DTD SVG 20010904//EN"
 "http://www.w3.org/TR/2001/REC-SVG-20010904/DTD/svg10.dtd">
<svg version="1.0" xmlns="http://www.w3.org/2000/svg"
 width="512.000000pt" height="512.000000pt" viewBox="0 0 512.000000 512.000000"
 preserveAspectRatio="xMidYMid meet">

<g transform="translate(0.000000,512.000000) scale(0.100000,-0.100000)"
fill="#000000" stroke="none">
<path d="M0 2560 l0 -2560 2560 0 2560 0 0 2560 0 2560 -2560 0 -2560 0 0
-2560z m3051 1258 c41 -23 79 -84 79 -128 0 -39 -39 -108 -74 -130 -32 -19
-49 -20 -342 -20 -291 0 -311 1 -342 20 -45 28 -72 76 -72 130 0 54 27 102 72
130 31 19 51 20 337 20 293 0 305 -1 342 -22z m-1011 -163 c0 -83 62 -210 133
-272 l35 -30 -15 -54 c-17 -65 -12 -194 11 -257 l16 -43 -66 -61 c-36 -34 -83
-91 -104 -127 l-40 -66 -77 75 c-198 191 -408 305 -645 351 -195 38 -281 22
-281 -51 0 -56 33 -76 144 -83 52 -4 130 -16 174 -27 97 -25 278 -113 360
-174 66 -51 189 -169 242 -232 l34 -42 -57 -218 c-64 -248 -66 -285 -18 -356
16 -25 27 -54 25 -68 -1 -15 7 -38 20 -53 28 -37 83 -35 110 3 10 14 59 187
110 385 50 198 102 380 114 405 28 56 102 125 160 151 24 10 69 22 102 25 48
5 65 2 103 -18 60 -31 87 -74 95 -151 4 -34 5 -303 3 -597 -3 -594 -1 -576
-71 -637 -53 -47 -119 -57 -312 -49 -311 13 -516 80 -735 242 -86 63 -144 123
-273 282 -132 162 -240 257 -364 319 -75 37 -104 46 -162 51 l-71 5 0 703 0
704 650 0 650 0 0 -35z m1320 -289 c75 -40 110 -96 110 -175 0 -87 -37 -146
-115 -182 -35 -16 -68 -19 -276 -19 l-235 0 -40 29 c-74 55 -139 75 -246 75
l-98 1 -10 29 c-25 72 0 158 64 213 20 18 49 35 64 39 15 3 32 7 37 9 6 2 168
3 360 2 321 -2 353 -4 385 -21z m253 -537 c170 -47 193 -311 35 -388 -42 -20
-58 -21 -350 -21 l-305 0 -6 163 c-3 103 -10 179 -20 210 l-15 47 311 0 c189
0 327 -4 350 -11z m1202 -582 c95 -43 149 -126 150 -232 0 -82 -20 -130 -77
-186 -72 -70 -64 -69 -705 -69 l-574 0 -24 -25 c-14 -13 -25 -31 -25 -40 0
-12 -16 -15 -91 -15 l-90 0 -10 29 c-16 44 -44 51 -219 51 l-160 0 0 255 0
256 893 -3 c834 -3 895 -4 932 -21z"/>
</g>
</svg>
