<?xml version="1.0" encoding="UTF-8"?>
<!DOCTYPE svg PUBLIC "-//W3C//DTD SVG 1.1//EN" "http://www.w3.org/Graphics/SVG/1.1/DTD/svg11.dtd">
<svg xmlns="http://www.w3.org/2000/svg" version="1.1" width="512px" height="512px" style="shape-rendering:geometricPrecision; text-rendering:geometricPrecision; image-rendering:optimizeQuality; fill-rule:evenodd; clip-rule:evenodd" xmlns:xlink="http://www.w3.org/1999/xlink">
<g><path style="opacity:0.975" fill="#000000" d="M 288.5,-0.5 C 294.167,-0.5 299.833,-0.5 305.5,-0.5C 323.044,5.0569 333.044,17.0569 335.5,35.5C 357.121,24.1458 375.288,28.1458 390,47.5C 391.927,50.9481 393.261,54.6148 394,58.5C 394.167,75.8429 394.667,93.1763 395.5,110.5C 404.727,104.88 414.727,103.046 425.5,105C 440.333,109.167 449.833,118.667 454,133.5C 454.667,212.833 454.667,292.167 454,371.5C 445.605,430.824 414.438,473.324 360.5,499C 345.545,505.069 330.212,509.236 314.5,511.5C 302.833,511.5 291.167,511.5 279.5,511.5C 242.32,506.66 210.487,490.993 184,464.5C 182.088,461.067 182.255,457.733 184.5,454.5C 188.066,452.193 191.732,452.026 195.5,454C 230.162,488.054 271.495,501.554 319.5,494.5C 335.152,492.283 349.818,487.283 363.5,479.5C 405.571,456.548 430.405,421.215 438,373.5C 439.634,294.518 439.967,215.518 439,136.5C 433.292,122.005 423.126,117.005 408.5,121.5C 401.757,124.413 397.257,129.413 395,136.5C 394.5,173.832 394.333,211.165 394.5,248.5C 401.833,248.5 409.167,248.5 416.5,248.5C 424.202,249.554 426.202,253.554 422.5,260.5C 421.15,261.95 419.484,262.617 417.5,262.5C 406.5,262.5 395.5,262.5 384.5,262.5C 381.623,261.096 379.956,258.763 379.5,255.5C 379.667,190.832 379.5,126.166 379,61.5C 373.292,47.0048 363.126,42.0048 348.5,46.5C 341.757,49.4134 337.257,54.4134 335,61.5C 334.5,123.832 334.333,186.166 334.5,248.5C 341.833,248.5 349.167,248.5 356.5,248.5C 361.36,248.361 364.026,250.694 364.5,255.5C 364.067,258.195 362.734,260.362 360.5,262C 348.167,262.667 335.833,262.667 323.5,262C 321.281,260.399 319.948,258.233 319.5,255.5C 319.667,180.833 319.5,106.166 319,31.5C 313.292,17.0048 303.126,12.0048 288.5,16.5C 281.757,19.4134 277.257,24.4134 275,31.5C 274.5,103.833 274.333,176.166 274.5,248.5C 281.833,248.5 289.167,248.5 296.5,248.5C 301.36,248.361 304.026,250.694 304.5,255.5C 304.067,258.195 302.734,260.362 300.5,262C 288.167,262.667 275.833,262.667 263.5,262C 261.281,260.399 259.948,258.233 259.5,255.5C 259.667,190.832 259.5,126.166 259,61.5C 253.292,47.0048 243.126,42.0048 228.5,46.5C 221.757,49.4134 217.257,54.4134 215,61.5C 214.667,149.5 214.333,237.5 214,325.5C 212.701,330.905 210.534,335.905 207.5,340.5C 219.82,341.333 232.153,341.833 244.5,342C 292.412,348.578 321.912,375.411 333,422.5C 333.667,429.167 333.667,435.833 333,442.5C 331.399,444.719 329.233,446.052 326.5,446.5C 323.737,446.256 321.571,444.923 320,442.5C 318.78,403.686 300.446,376.686 265,361.5C 259.266,359.588 253.433,358.088 247.5,357C 221.5,356.667 195.5,356.333 169.5,356C 163.748,354.289 158.414,351.789 153.5,348.5C 139.035,333.535 124.369,318.701 109.5,304C 96.6214,295.45 85.1214,296.95 75,308.5C 74.2086,309.745 73.7086,311.078 73.5,312.5C 70.336,320.174 71.1694,327.507 76,334.5C 109.333,367.833 142.667,401.167 176,434.5C 178.158,438.539 177.658,442.206 174.5,445.5C 171.592,446.569 168.592,446.736 165.5,446C 131.667,412.167 97.8333,378.333 64,344.5C 56.483,333.488 54.483,321.488 58,308.5C 67.7844,286.86 84.2844,279.027 107.5,285C 111.828,286.829 115.828,289.162 119.5,292C 134.5,307 149.5,322 164.5,337C 179.452,344.127 190.618,340.294 198,325.5C 198.333,239.167 198.667,152.833 199,66.5C 199.793,49.0652 208.293,37.2319 224.5,31C 231.433,29.4942 238.433,29.1609 245.5,30C 250.305,30.7669 254.639,32.6002 258.5,35.5C 260.988,17.0293 270.988,5.02935 288.5,-0.5 Z"/></g>
<g><path style="opacity:1" fill="#3e4880" d="M 319.5,255.5 C 314.5,255.5 309.5,255.5 304.5,255.5C 304.026,250.694 301.36,248.361 296.5,248.5C 297.663,176.57 297.83,104.57 297,32.5C 295.968,26.0981 293.135,20.7648 288.5,16.5C 303.126,12.0048 313.292,17.0048 319,31.5C 319.5,106.166 319.667,180.833 319.5,255.5 Z"/></g>
<g><path style="opacity:1" fill="#b5faf8" d="M 288.5,16.5 C 293.135,20.7648 295.968,26.0981 297,32.5C 297.83,104.57 297.663,176.57 296.5,248.5C 289.167,248.5 281.833,248.5 274.5,248.5C 274.333,176.166 274.5,103.833 275,31.5C 277.257,24.4134 281.757,19.4134 288.5,16.5 Z"/></g>
<g><path style="opacity:1" fill="#3e4880" d="M 259.5,255.5 C 252.167,255.5 244.833,255.5 237.5,255.5C 237.667,191.166 237.5,126.832 237,62.5C 235.968,56.0981 233.135,50.7648 228.5,46.5C 243.126,42.0048 253.292,47.0048 259,61.5C 259.5,126.166 259.667,190.832 259.5,255.5 Z"/></g>
<g><path style="opacity:1" fill="#3e4880" d="M 379.5,255.5 C 374.5,255.5 369.5,255.5 364.5,255.5C 364.026,250.694 361.36,248.361 356.5,248.5C 357.662,186.57 357.829,124.57 357,62.5C 355.968,56.0981 353.135,50.7648 348.5,46.5C 363.126,42.0048 373.292,47.0048 379,61.5C 379.5,126.166 379.667,190.832 379.5,255.5 Z"/></g>
<g><path style="opacity:1" fill="#b8fdfa" d="M 228.5,46.5 C 233.135,50.7648 235.968,56.0981 237,62.5C 237.5,126.832 237.667,191.166 237.5,255.5C 244.833,255.5 252.167,255.5 259.5,255.5C 259.948,258.233 261.281,260.399 263.5,262C 275.833,262.667 288.167,262.667 300.5,262C 302.734,260.362 304.067,258.195 304.5,255.5C 309.5,255.5 314.5,255.5 319.5,255.5C 319.948,258.233 321.281,260.399 323.5,262C 335.833,262.667 348.167,262.667 360.5,262C 362.734,260.362 364.067,258.195 364.5,255.5C 369.5,255.5 374.5,255.5 379.5,255.5C 379.956,258.763 381.623,261.096 384.5,262.5C 394.987,263.494 405.654,263.828 416.5,263.5C 416.5,296.5 416.5,329.5 416.5,362.5C 414.768,408.947 397.102,447.947 363.5,479.5C 349.818,487.283 335.152,492.283 319.5,494.5C 322.442,490.277 324.609,485.61 326,480.5C 326.5,469.172 326.667,457.838 326.5,446.5C 329.233,446.052 331.399,444.719 333,442.5C 333.667,435.833 333.667,429.167 333,422.5C 321.912,375.411 292.412,348.578 244.5,342C 232.153,341.833 219.82,341.333 207.5,340.5C 210.534,335.905 212.701,330.905 214,325.5C 214.333,237.5 214.667,149.5 215,61.5C 217.257,54.4134 221.757,49.4134 228.5,46.5 Z"/></g>
<g><path style="opacity:1" fill="#b5faf8" d="M 348.5,46.5 C 353.135,50.7648 355.968,56.0981 357,62.5C 357.829,124.57 357.662,186.57 356.5,248.5C 349.167,248.5 341.833,248.5 334.5,248.5C 334.333,186.166 334.5,123.832 335,61.5C 337.257,54.4134 341.757,49.4134 348.5,46.5 Z"/></g>
<g><path style="opacity:1" fill="#3e4980" d="M 363.5,479.5 C 397.102,447.947 414.768,408.947 416.5,362.5C 417.498,329.338 417.832,296.004 417.5,262.5C 419.484,262.617 421.15,261.95 422.5,260.5C 426.202,253.554 424.202,249.554 416.5,248.5C 417.66,211.571 417.826,174.571 417,137.5C 415.968,131.098 413.135,125.765 408.5,121.5C 423.126,117.005 433.292,122.005 439,136.5C 439.967,215.518 439.634,294.518 438,373.5C 430.405,421.215 405.571,456.548 363.5,479.5 Z"/></g>
<g><path style="opacity:1" fill="#b5f9f8" d="M 408.5,121.5 C 413.135,125.765 415.968,131.098 417,137.5C 417.826,174.571 417.66,211.571 416.5,248.5C 409.167,248.5 401.833,248.5 394.5,248.5C 394.333,211.165 394.5,173.832 395,136.5C 397.257,129.413 401.757,124.413 408.5,121.5 Z"/></g>
<g><path style="opacity:1" fill="#7096ac" d="M 384.5,262.5 C 395.5,262.5 406.5,262.5 417.5,262.5C 417.832,296.004 417.498,329.338 416.5,362.5C 416.5,329.5 416.5,296.5 416.5,263.5C 405.654,263.828 394.987,263.494 384.5,262.5 Z"/></g>
<g><path style="opacity:1" fill="#081963" d="M 153.5,348.5 C 143.42,348.923 133.42,348.423 123.5,347C 121.004,345.92 118.67,344.586 116.5,343C 108.5,335 100.5,327 92.5,319C 86.9473,314.557 80.614,312.391 73.5,312.5C 73.7086,311.078 74.2086,309.745 75,308.5C 85.1214,296.95 96.6214,295.45 109.5,304C 124.369,318.701 139.035,333.535 153.5,348.5 Z"/></g>
<g><path style="opacity:1" fill="#3e4880" d="M 73.5,312.5 C 80.614,312.391 86.9473,314.557 92.5,319C 100.5,327 108.5,335 116.5,343C 118.67,344.586 121.004,345.92 123.5,347C 133.42,348.423 143.42,348.923 153.5,348.5C 158.414,351.789 163.748,354.289 169.5,356C 195.5,356.333 221.5,356.667 247.5,357C 253.433,358.088 259.266,359.588 265,361.5C 300.446,376.686 318.78,403.686 320,442.5C 321.571,444.923 323.737,446.256 326.5,446.5C 326.667,457.838 326.5,469.172 326,480.5C 324.609,485.61 322.442,490.277 319.5,494.5C 271.495,501.554 230.162,488.054 195.5,454C 191.732,452.026 188.066,452.193 184.5,454.5C 181.167,451.5 177.833,448.5 174.5,445.5C 177.658,442.206 178.158,438.539 176,434.5C 142.667,401.167 109.333,367.833 76,334.5C 71.1694,327.507 70.336,320.174 73.5,312.5 Z"/></g>
</svg>
