<?xml version="1.0" encoding="UTF-8"?>
<!DOCTYPE svg PUBLIC "-//W3C//DTD SVG 1.1//EN" "http://www.w3.org/Graphics/SVG/1.1/DTD/svg11.dtd">
<svg xmlns="http://www.w3.org/2000/svg" version="1.1" width="512px" height="512px" style="shape-rendering:geometricPrecision; text-rendering:geometricPrecision; image-rendering:optimizeQuality; fill-rule:evenodd; clip-rule:evenodd" xmlns:xlink="http://www.w3.org/1999/xlink">
<g><path style="opacity:0.979" fill="#000100" d="M 174.5,-0.5 C 184.833,-0.5 195.167,-0.5 205.5,-0.5C 236.688,4.49011 262.855,18.8234 284,42.5C 284.923,44.0344 285.423,45.701 285.5,47.5C 284.825,50.1778 284.158,52.8445 283.5,55.5C 280.602,55.0905 277.602,54.9238 274.5,55C 254.57,31.5343 229.237,18.3676 198.5,15.5C 153.325,13.5016 119.159,31.8349 96,70.5C 78.8748,105.832 79.5415,140.832 98,175.5C 101.378,180.422 104.878,185.255 108.5,190C 122.829,190.5 137.163,190.667 151.5,190.5C 191.501,190.667 231.501,190.5 271.5,190C 299.526,153.575 304.192,114.242 285.5,72C 285.944,68.9407 287.277,66.4407 289.5,64.5C 293.48,63.3731 296.98,64.3731 300,67.5C 319.445,111.877 315.612,154.044 288.5,194C 309.974,209.736 314.141,229.236 301,252.5C 294.728,260.051 286.895,265.218 277.5,268C 278.467,295.368 285.301,321.201 298,345.5C 301,349.833 304,354.167 307,358.5C 314.514,366.551 322.514,373.885 331,380.5C 331.5,395.163 331.667,409.83 331.5,424.5C 361.226,424.727 379.059,439.394 385,468.5C 385.667,481.167 385.667,493.833 385,506.5C 384.003,508.323 382.836,509.99 381.5,511.5C 255.5,511.5 129.5,511.5 3.5,511.5C 2.87833,510.373 2.04499,509.373 1,508.5C 0.333333,493.833 0.333333,479.167 1,464.5C 6.27915,442.887 19.7792,429.721 41.5,425C 45.4862,424.501 49.4862,424.334 53.5,424.5C 53.0489,409.428 53.5489,394.428 55,379.5C 81.0483,360.784 97.0483,335.451 103,303.5C 105.483,291.618 106.983,279.618 107.5,267.5C 81.6114,263.102 69.778,247.769 72,221.5C 74.6477,209.531 81.1477,200.365 91.5,194C 65.2781,155.669 60.7781,114.836 78,71.5C 98.0167,31.0883 130.183,7.08829 174.5,-0.5 Z"/></g>
<g><path style="opacity:1" fill="#0d4c0e" d="M 198.5,15.5 C 150.731,39.1663 127.564,77.833 129,131.5C 131.697,153.103 139.197,172.77 151.5,190.5C 137.163,190.667 122.829,190.5 108.5,190C 104.878,185.255 101.378,180.422 98,175.5C 79.5415,140.832 78.8748,105.832 96,70.5C 119.159,31.8349 153.325,13.5016 198.5,15.5 Z"/></g>
<g><path style="opacity:1" fill="#40fe00" d="M 198.5,15.5 C 229.237,18.3676 254.57,31.5343 274.5,55C 277.602,54.9238 280.602,55.0905 283.5,55.5C 284.906,55.9731 285.573,56.9731 285.5,58.5C 285.427,60.0269 286.094,61.0269 287.5,61.5C 288.401,62.2905 289.068,63.2905 289.5,64.5C 287.277,66.4407 285.944,68.9407 285.5,72C 304.192,114.242 299.526,153.575 271.5,190C 231.501,190.5 191.501,190.667 151.5,190.5C 139.197,172.77 131.697,153.103 129,131.5C 127.564,77.833 150.731,39.1663 198.5,15.5 Z"/></g>
<g><path style="opacity:0.965" fill="#968758" d="M 285.5,58.5 C 286.906,58.9731 287.573,59.9731 287.5,61.5C 286.094,61.0269 285.427,60.0269 285.5,58.5 Z"/></g>
<g><path style="opacity:1" fill="#0c4c0e" d="M 139.5,205.5 C 125.868,221.569 126.202,237.235 140.5,252.5C 127.772,252.92 115.106,252.42 102.5,251C 87.2681,242.969 83.4348,231.136 91,215.5C 94.7892,210.692 99.6225,207.525 105.5,206C 116.828,205.5 128.162,205.333 139.5,205.5 Z"/></g>
<g><path style="opacity:1" fill="#40fc00" d="M 139.5,205.5 C 184.835,205.333 230.168,205.5 275.5,206C 293.225,213.955 297.392,226.455 288,243.5C 284.395,247.721 279.895,250.554 274.5,252C 229.835,252.5 185.168,252.667 140.5,252.5C 126.202,237.235 125.868,221.569 139.5,205.5 Z"/></g>
<g><path style="opacity:1" fill="#0d4d0e" d="M 262.5,273.5 C 226.5,273.5 190.5,273.5 154.5,273.5C 154.5,276.167 154.5,278.833 154.5,281.5C 153.833,310.675 148.666,339.008 139,366.5C 136.507,372.157 133.507,377.49 130,382.5C 129.5,396.496 129.333,410.496 129.5,424.5C 109.5,424.5 89.5,424.5 69.5,424.5C 69.5,413.5 69.5,402.5 69.5,391.5C 85.8367,391.667 102.17,391.5 118.5,391C 124.45,388.523 125.95,384.357 123,378.5C 121.581,377.54 120.081,376.707 118.5,376C 107.167,375.667 95.8333,375.333 84.5,375C 104.413,352.639 116.246,326.472 120,296.5C 121.741,286.908 122.574,277.241 122.5,267.5C 169.167,267.5 215.833,267.5 262.5,267.5C 262.5,269.5 262.5,271.5 262.5,273.5 Z"/></g>
<g><path style="opacity:1" fill="#29ac06" d="M 262.5,273.5 C 262.5,273.833 262.5,274.167 262.5,274.5C 226.833,274.5 191.167,274.5 155.5,274.5C 155.802,277.059 155.468,279.393 154.5,281.5C 154.5,278.833 154.5,276.167 154.5,273.5C 190.5,273.5 226.5,273.5 262.5,273.5 Z"/></g>
<g><path style="opacity:1" fill="#40fe00" d="M 262.5,274.5 C 264.367,302.622 271.867,329.288 285,354.5C 289.617,361.614 294.784,368.281 300.5,374.5C 248.833,375.167 197.167,375.833 145.5,376.5C 137.519,381.153 137.519,385.986 145.5,391C 202.166,391.5 258.832,391.667 315.5,391.5C 315.5,402.5 315.5,413.5 315.5,424.5C 253.5,424.5 191.5,424.5 129.5,424.5C 129.333,410.496 129.5,396.496 130,382.5C 133.507,377.49 136.507,372.157 139,366.5C 148.666,339.008 153.833,310.675 154.5,281.5C 155.468,279.393 155.802,277.059 155.5,274.5C 191.167,274.5 226.833,274.5 262.5,274.5 Z"/></g>
<g><path style="opacity:1" fill="#1a6600" d="M 300.5,374.5 C 301.043,374.56 301.376,374.893 301.5,375.5C 249.504,376.5 197.504,376.833 145.5,376.5C 197.167,375.833 248.833,375.167 300.5,374.5 Z"/></g>
<g><path style="opacity:1" fill="#0e4f0e" d="M 339.5,440.5 C 264.166,440.333 188.833,440.5 113.5,441C 107.057,446.727 102.224,453.56 99,461.5C 97.5878,473.104 97.0878,484.771 97.5,496.5C 70.1667,496.5 42.8333,496.5 15.5,496.5C 15.3335,487.161 15.5002,477.827 16,468.5C 19.9103,452.924 29.7436,443.424 45.5,440C 143.668,439.168 241.668,439.334 339.5,440.5 Z"/></g>
<g><path style="opacity:1" fill="#40fd00" d="M 339.5,440.5 C 354.779,442.944 364.613,451.611 369,466.5C 369.5,476.494 369.666,486.494 369.5,496.5C 278.833,496.5 188.167,496.5 97.5,496.5C 97.0878,484.771 97.5878,473.104 99,461.5C 102.224,453.56 107.057,446.727 113.5,441C 188.833,440.5 264.166,440.333 339.5,440.5 Z"/></g>
</svg>
