<?xml version="1.0" encoding="UTF-8"?>
<!DOCTYPE svg PUBLIC "-//W3C//DTD SVG 1.1//EN" "http://www.w3.org/Graphics/SVG/1.1/DTD/svg11.dtd">
<svg xmlns="http://www.w3.org/2000/svg" version="1.1" width="512px" height="512px" style="shape-rendering:geometricPrecision; text-rendering:geometricPrecision; image-rendering:optimizeQuality; fill-rule:evenodd; clip-rule:evenodd" xmlns:xlink="http://www.w3.org/1999/xlink">
<g><path style="opacity:0.979" fill="#020200" d="M 174.5,-0.5 C 184.833,-0.5 195.167,-0.5 205.5,-0.5C 236.688,4.49011 262.855,18.8234 284,42.5C 284.923,44.0344 285.423,45.701 285.5,47.5C 284.825,50.1778 284.158,52.8445 283.5,55.5C 280.602,55.0905 277.602,54.9238 274.5,55C 254.534,31.517 229.201,18.3504 198.5,15.5C 150.331,13.4968 115.165,33.8301 93,76.5C 76.5069,117.397 81.6736,155.231 108.5,190C 122.829,190.5 137.163,190.667 151.5,190.5C 191.501,190.667 231.501,190.5 271.5,190C 299.526,153.575 304.192,114.242 285.5,72C 286.393,69.064 287.393,66.2307 288.5,63.5C 291.51,63.1367 294.51,63.6367 297.5,65C 302.467,72.1068 305.967,79.9402 308,88.5C 317.599,126.752 311.099,161.919 288.5,194C 309.974,209.736 314.141,229.236 301,252.5C 294.728,260.051 286.895,265.218 277.5,268C 278.467,295.368 285.301,321.201 298,345.5C 301,349.833 304,354.167 307,358.5C 314.514,366.551 322.514,373.885 331,380.5C 331.5,395.163 331.667,409.83 331.5,424.5C 361.226,424.727 379.059,439.394 385,468.5C 385.667,481.167 385.667,493.833 385,506.5C 384.003,508.323 382.836,509.99 381.5,511.5C 255.5,511.5 129.5,511.5 3.5,511.5C 2.87833,510.373 2.04499,509.373 1,508.5C 0.333333,493.833 0.333333,479.167 1,464.5C 6.27915,442.887 19.7792,429.721 41.5,425C 45.4862,424.501 49.4862,424.334 53.5,424.5C 53.0489,409.428 53.5489,394.428 55,379.5C 81.0483,360.784 97.0483,335.451 103,303.5C 105.483,291.618 106.983,279.618 107.5,267.5C 81.6114,263.102 69.778,247.769 72,221.5C 74.6477,209.531 81.1477,200.365 91.5,194C 65.2781,155.669 60.7781,114.836 78,71.5C 98.0167,31.0883 130.183,7.08829 174.5,-0.5 Z"/></g>
<g><path style="opacity:1" fill="#a0a67c" d="M 198.5,15.5 C 145.924,41.9996 123.424,84.6662 131,143.5C 134.597,160.684 141.431,176.35 151.5,190.5C 137.163,190.667 122.829,190.5 108.5,190C 81.6736,155.231 76.5069,117.397 93,76.5C 115.165,33.8301 150.331,13.4968 198.5,15.5 Z"/></g>
<g><path style="opacity:1" fill="#f3fe00" d="M 198.5,15.5 C 229.201,18.3504 254.534,31.517 274.5,55C 277.602,54.9238 280.602,55.0905 283.5,55.5C 284.906,55.9731 285.573,56.9731 285.5,58.5C 285.427,60.0269 286.094,61.0269 287.5,61.5C 288.338,61.8417 288.672,62.5084 288.5,63.5C 287.393,66.2307 286.393,69.064 285.5,72C 304.192,114.242 299.526,153.575 271.5,190C 231.501,190.5 191.501,190.667 151.5,190.5C 141.431,176.35 134.597,160.684 131,143.5C 123.424,84.6662 145.924,41.9996 198.5,15.5 Z"/></g>
<g><path style="opacity:0.714" fill="#9d8393" d="M 285.5,58.5 C 286.906,58.9731 287.573,59.9731 287.5,61.5C 286.094,61.0269 285.427,60.0269 285.5,58.5 Z"/></g>
<g><path style="opacity:1" fill="#9ea47b" d="M 139.5,205.5 C 126.167,221.167 126.167,236.833 139.5,252.5C 127.091,252.939 114.758,252.439 102.5,251C 86.9542,243.07 83.1209,231.237 91,215.5C 94.5709,210.969 99.0709,207.802 104.5,206C 116.162,205.5 127.829,205.333 139.5,205.5 Z"/></g>
<g><path style="opacity:1" fill="#f1fc00" d="M 139.5,205.5 C 184.835,205.333 230.168,205.5 275.5,206C 293.225,213.955 297.392,226.455 288,243.5C 284.395,247.721 279.895,250.554 274.5,252C 229.501,252.5 184.501,252.667 139.5,252.5C 126.167,236.833 126.167,221.167 139.5,205.5 Z"/></g>
<g><path style="opacity:1" fill="#a0a67c" d="M 262.5,273.5 C 226.5,273.5 190.5,273.5 154.5,273.5C 154.5,274.833 154.5,276.167 154.5,277.5C 154.334,308.842 148.834,339.175 138,368.5C 135.839,373.492 133.172,378.159 130,382.5C 129.5,396.496 129.333,410.496 129.5,424.5C 109.5,424.5 89.5,424.5 69.5,424.5C 69.5,413.5 69.5,402.5 69.5,391.5C 85.8367,391.667 102.17,391.5 118.5,391C 124.45,388.523 125.95,384.357 123,378.5C 121.581,377.54 120.081,376.707 118.5,376C 107.167,375.667 95.8333,375.333 84.5,375C 103.072,354.35 114.572,330.183 119,302.5C 121.238,290.934 122.404,279.268 122.5,267.5C 169.167,267.5 215.833,267.5 262.5,267.5C 262.5,269.5 262.5,271.5 262.5,273.5 Z"/></g>
<g><path style="opacity:1" fill="#ccd53a" d="M 262.5,273.5 C 262.5,273.833 262.5,274.167 262.5,274.5C 226.833,274.5 191.167,274.5 155.5,274.5C 155.737,275.791 155.404,276.791 154.5,277.5C 154.5,276.167 154.5,274.833 154.5,273.5C 190.5,273.5 226.5,273.5 262.5,273.5 Z"/></g>
<g><path style="opacity:1" fill="#f3fe00" d="M 262.5,274.5 C 264.369,302.631 271.869,329.297 285,354.5C 289.617,361.614 294.784,368.281 300.5,374.5C 248.833,375.167 197.167,375.833 145.5,376.5C 137.519,381.153 137.519,385.986 145.5,391C 202.166,391.5 258.832,391.667 315.5,391.5C 315.5,402.5 315.5,413.5 315.5,424.5C 253.5,424.5 191.5,424.5 129.5,424.5C 129.333,410.496 129.5,396.496 130,382.5C 133.172,378.159 135.839,373.492 138,368.5C 148.834,339.175 154.334,308.842 154.5,277.5C 155.404,276.791 155.737,275.791 155.5,274.5C 191.167,274.5 226.833,274.5 262.5,274.5 Z"/></g>
<g><path style="opacity:1" fill="#626600" d="M 300.5,374.5 C 301.043,374.56 301.376,374.893 301.5,375.5C 249.504,376.5 197.504,376.833 145.5,376.5C 197.167,375.833 248.833,375.167 300.5,374.5 Z"/></g>
<g><path style="opacity:1" fill="#9ea477" d="M 339.5,440.5 C 264.166,440.333 188.833,440.5 113.5,441C 104.032,448.624 98.6982,458.458 97.5,470.5C 96.507,478.984 96.1736,487.651 96.5,496.5C 69.5,496.5 42.5,496.5 15.5,496.5C 15.3335,487.161 15.5002,477.827 16,468.5C 19.9103,452.924 29.7436,443.424 45.5,440C 143.668,439.168 241.668,439.334 339.5,440.5 Z"/></g>
<g><path style="opacity:1" fill="#f3fe00" d="M 339.5,440.5 C 354.779,442.944 364.613,451.611 369,466.5C 369.5,476.161 369.666,485.828 369.5,495.5C 278.833,495.5 188.167,495.5 97.5,495.5C 97.5,487.167 97.5,478.833 97.5,470.5C 98.6982,458.458 104.032,448.624 113.5,441C 188.833,440.5 264.166,440.333 339.5,440.5 Z"/></g>
<g><path style="opacity:1" fill="#c2cb11" d="M 97.5,470.5 C 97.5,478.833 97.5,487.167 97.5,495.5C 188.167,495.5 278.833,495.5 369.5,495.5C 278.668,496.499 187.668,496.833 96.5,496.5C 96.1736,487.651 96.507,478.984 97.5,470.5 Z"/></g>
</svg>
