<?xml version="1.0" encoding="UTF-8"?>
<!DOCTYPE svg PUBLIC "-//W3C//DTD SVG 1.1//EN" "http://www.w3.org/Graphics/SVG/1.1/DTD/svg11.dtd">
<svg xmlns="http://www.w3.org/2000/svg" version="1.1" width="512px" height="512px" style="shape-rendering:geometricPrecision; text-rendering:geometricPrecision; image-rendering:optimizeQuality; fill-rule:evenodd; clip-rule:evenodd" xmlns:xlink="http://www.w3.org/1999/xlink">
<g><path style="opacity:0.979" fill="#020100" d="M 174.5,-0.5 C 184.833,-0.5 195.167,-0.5 205.5,-0.5C 236.688,4.49011 262.855,18.8234 284,42.5C 286.035,46.2814 285.868,49.9481 283.5,53.5C 280.686,55.096 277.686,55.596 274.5,55C 254.57,31.5343 229.237,18.3676 198.5,15.5C 153.33,13.4993 119.164,31.8326 96,70.5C 78.8746,105.828 79.5412,140.828 98,175.5C 101.378,180.422 104.878,185.255 108.5,190C 122.829,190.5 137.163,190.667 151.5,190.5C 191.501,190.667 231.501,190.5 271.5,190C 299.526,153.575 304.192,114.242 285.5,72C 285.831,68.5199 287.498,66.0199 290.5,64.5C 296.316,63.089 300.15,65.4224 302,71.5C 319.151,114.829 314.651,155.663 288.5,194C 309.974,209.736 314.141,229.236 301,252.5C 294.728,260.051 286.895,265.218 277.5,268C 278.467,295.368 285.301,321.201 298,345.5C 301,349.833 304,354.167 307,358.5C 314.514,366.551 322.514,373.885 331,380.5C 331.5,395.163 331.667,409.83 331.5,424.5C 361.226,424.727 379.059,439.394 385,468.5C 385.667,481.167 385.667,493.833 385,506.5C 384.003,508.323 382.836,509.99 381.5,511.5C 255.5,511.5 129.5,511.5 3.5,511.5C 2.87833,510.373 2.04499,509.373 1,508.5C 0.333333,493.833 0.333333,479.167 1,464.5C 6.27915,442.887 19.7792,429.721 41.5,425C 45.4862,424.501 49.4862,424.334 53.5,424.5C 53.0489,409.428 53.5489,394.428 55,379.5C 81.0483,360.784 97.0483,335.451 103,303.5C 105.483,291.618 106.983,279.618 107.5,267.5C 81.6114,263.102 69.778,247.769 72,221.5C 74.6477,209.531 81.1477,200.365 91.5,194C 65.2781,155.669 60.7781,114.836 78,71.5C 98.0167,31.0883 130.183,7.08829 174.5,-0.5 Z"/></g>
<g><path style="opacity:1" fill="#6e4713" d="M 198.5,15.5 C 143.925,43.3346 121.758,87.6679 132,148.5C 136.111,163.716 142.611,177.716 151.5,190.5C 137.163,190.667 122.829,190.5 108.5,190C 104.878,185.255 101.378,180.422 98,175.5C 79.5412,140.828 78.8746,105.828 96,70.5C 119.164,31.8326 153.33,13.4993 198.5,15.5 Z"/></g>
<g><path style="opacity:1" fill="#fe9d00" d="M 198.5,15.5 C 229.237,18.3676 254.57,31.5343 274.5,55C 277.686,55.596 280.686,55.096 283.5,53.5C 285.446,57.4394 287.779,61.106 290.5,64.5C 287.498,66.0199 285.831,68.5199 285.5,72C 304.192,114.242 299.526,153.575 271.5,190C 231.501,190.5 191.501,190.667 151.5,190.5C 142.611,177.716 136.111,163.716 132,148.5C 121.758,87.6679 143.925,43.3346 198.5,15.5 Z"/></g>
<g><path style="opacity:1" fill="#714913" d="M 139.5,205.5 C 126.507,220.307 126.173,235.473 138.5,251C 183.499,251.5 228.499,251.667 273.5,251.5C 245.669,252.167 217.669,252.5 189.5,252.5C 160.44,252.655 131.44,252.155 102.5,251C 87.2681,242.969 83.4348,231.136 91,215.5C 94.7892,210.692 99.6225,207.525 105.5,206C 116.828,205.5 128.162,205.333 139.5,205.5 Z"/></g>
<g><path style="opacity:1" fill="#fd9d00" d="M 139.5,205.5 C 184.501,205.333 229.501,205.5 274.5,206C 289.227,210.944 295.06,221.11 292,236.5C 288.64,245.032 282.474,250.032 273.5,251.5C 228.499,251.667 183.499,251.5 138.5,251C 126.173,235.473 126.507,220.307 139.5,205.5 Z"/></g>
<g><path style="opacity:1" fill="#6e4713" d="M 262.5,273.5 C 226.5,273.5 190.5,273.5 154.5,273.5C 154.5,276.167 154.5,278.833 154.5,281.5C 153.833,310.675 148.666,339.008 139,366.5C 136.507,372.157 133.507,377.49 130,382.5C 129.5,396.496 129.333,410.496 129.5,424.5C 109.5,424.5 89.5,424.5 69.5,424.5C 69.5,413.5 69.5,402.5 69.5,391.5C 85.8367,391.667 102.17,391.5 118.5,391C 124.45,388.523 125.95,384.357 123,378.5C 121.581,377.54 120.081,376.707 118.5,376C 107.167,375.667 95.8333,375.333 84.5,375C 97.6962,361.123 107.196,344.956 113,326.5C 118.983,307.27 122.15,287.603 122.5,267.5C 169.167,267.5 215.833,267.5 262.5,267.5C 262.5,269.5 262.5,271.5 262.5,273.5 Z"/></g>
<g><path style="opacity:1" fill="#bc7608" d="M 262.5,273.5 C 262.5,273.833 262.5,274.167 262.5,274.5C 226.833,274.5 191.167,274.5 155.5,274.5C 155.802,277.059 155.468,279.393 154.5,281.5C 154.5,278.833 154.5,276.167 154.5,273.5C 190.5,273.5 226.5,273.5 262.5,273.5 Z"/></g>
<g><path style="opacity:1" fill="#fe9d00" d="M 262.5,274.5 C 264.368,302.624 271.868,329.291 285,354.5C 289.617,361.614 294.784,368.281 300.5,374.5C 248.833,375.167 197.167,375.833 145.5,376.5C 137.519,381.153 137.519,385.986 145.5,391C 202.166,391.5 258.832,391.667 315.5,391.5C 315.5,402.5 315.5,413.5 315.5,424.5C 253.5,424.5 191.5,424.5 129.5,424.5C 129.333,410.496 129.5,396.496 130,382.5C 133.507,377.49 136.507,372.157 139,366.5C 148.666,339.008 153.833,310.675 154.5,281.5C 155.468,279.393 155.802,277.059 155.5,274.5C 191.167,274.5 226.833,274.5 262.5,274.5 Z"/></g>
<g><path style="opacity:1" fill="#663f00" d="M 300.5,374.5 C 301.043,374.56 301.376,374.893 301.5,375.5C 249.504,376.5 197.504,376.833 145.5,376.5C 197.167,375.833 248.833,375.167 300.5,374.5 Z"/></g>
<g><path style="opacity:1" fill="#6f4813" d="M 339.5,440.5 C 264.166,440.333 188.833,440.5 113.5,441C 104.032,448.624 98.6982,458.458 97.5,470.5C 96.507,478.984 96.1736,487.651 96.5,496.5C 69.5,496.5 42.5,496.5 15.5,496.5C 15.3335,487.161 15.5002,477.827 16,468.5C 20.2412,453.26 30.0745,443.76 45.5,440C 143.668,439.168 241.668,439.334 339.5,440.5 Z"/></g>
<g><path style="opacity:1" fill="#fe9d00" d="M 339.5,440.5 C 354.779,442.944 364.613,451.611 369,466.5C 369.5,476.161 369.666,485.828 369.5,495.5C 278.833,495.5 188.167,495.5 97.5,495.5C 97.5,487.167 97.5,478.833 97.5,470.5C 98.6982,458.458 104.032,448.624 113.5,441C 188.833,440.5 264.166,440.333 339.5,440.5 Z"/></g>
<g><path style="opacity:1" fill="#c87b01" d="M 97.5,470.5 C 97.5,478.833 97.5,487.167 97.5,495.5C 188.167,495.5 278.833,495.5 369.5,495.5C 278.668,496.499 187.668,496.833 96.5,496.5C 96.1736,487.651 96.507,478.984 97.5,470.5 Z"/></g>
</svg>
