<?xml version="1.0" encoding="UTF-8"?>
<!DOCTYPE svg PUBLIC "-//W3C//DTD SVG 1.1//EN" "http://www.w3.org/Graphics/SVG/1.1/DTD/svg11.dtd">
<svg xmlns="http://www.w3.org/2000/svg" version="1.1" width="512px" height="512px" style="shape-rendering:geometricPrecision; text-rendering:geometricPrecision; image-rendering:optimizeQuality; fill-rule:evenodd; clip-rule:evenodd" xmlns:xlink="http://www.w3.org/1999/xlink">
<g><path style="opacity:0.979" fill="#000000" d="M 174.5,-0.5 C 184.833,-0.5 195.167,-0.5 205.5,-0.5C 236.688,4.49011 262.855,18.8234 284,42.5C 286.035,46.2814 285.868,49.9481 283.5,53.5C 279.98,55.8598 276.313,56.0265 272.5,54C 247.594,25.3778 216.261,12.5444 178.5,15.5C 125.81,24.3562 94.31,55.0229 84,107.5C 81.0965,138.405 89.2632,165.905 108.5,190C 122.829,190.5 137.163,190.667 151.5,190.5C 191.501,190.667 231.501,190.5 271.5,190C 299.134,153.504 303.8,114.171 285.5,72C 285.782,68.5559 287.448,66.0559 290.5,64.5C 296.316,63.089 300.15,65.4224 302,71.5C 319.151,114.829 314.651,155.663 288.5,194C 309.974,209.736 314.141,229.236 301,252.5C 294.728,260.051 286.895,265.218 277.5,268C 278.467,295.368 285.301,321.201 298,345.5C 301,349.833 304,354.167 307,358.5C 314.514,366.551 322.514,373.885 331,380.5C 331.5,395.163 331.667,409.83 331.5,424.5C 361.226,424.727 379.059,439.394 385,468.5C 385.667,481.167 385.667,493.833 385,506.5C 384.003,508.323 382.836,509.99 381.5,511.5C 255.5,511.5 129.5,511.5 3.5,511.5C 2.87833,510.373 2.04499,509.373 1,508.5C 0.333333,493.833 0.333333,479.167 1,464.5C 6.27915,442.887 19.7792,429.721 41.5,425C 45.4862,424.501 49.4862,424.334 53.5,424.5C 53.0489,409.428 53.5489,394.428 55,379.5C 81.0483,360.784 97.0483,335.451 103,303.5C 105.483,291.618 106.983,279.618 107.5,267.5C 81.6114,263.102 69.778,247.769 72,221.5C 74.6477,209.531 81.1477,200.365 91.5,194C 65.2781,155.669 60.7781,114.836 78,71.5C 98.0167,31.0883 130.183,7.08829 174.5,-0.5 Z"/></g>
<g><path style="opacity:1" fill="#3f3f4b" d="M 178.5,15.5 C 185.175,15.3337 191.842,15.5004 198.5,16C 148.921,40.3078 126.087,80.1412 130,135.5C 132.766,155.677 139.933,174.01 151.5,190.5C 137.163,190.667 122.829,190.5 108.5,190C 89.2632,165.905 81.0965,138.405 84,107.5C 94.31,55.0229 125.81,24.3562 178.5,15.5 Z"/></g>
<g><path style="opacity:1" fill="#1d1d21" d="M 178.5,15.5 C 216.261,12.5444 247.594,25.3778 272.5,54C 276.313,56.0265 279.98,55.8598 283.5,53.5C 285.446,57.4394 287.779,61.106 290.5,64.5C 287.448,66.0559 285.782,68.5559 285.5,72C 303.8,114.171 299.134,153.504 271.5,190C 231.501,190.5 191.501,190.667 151.5,190.5C 139.933,174.01 132.766,155.677 130,135.5C 126.087,80.1412 148.921,40.3078 198.5,16C 191.842,15.5004 185.175,15.3337 178.5,15.5 Z"/></g>
<g><path style="opacity:1" fill="#3f3f4b" d="M 139.5,205.5 C 126.528,220.163 126.194,235.163 138.5,250.5C 127.52,251.499 116.52,251.832 105.5,251.5C 90.7878,246.905 84.9544,236.905 88,221.5C 91.3262,213.507 97.1595,208.341 105.5,206C 116.828,205.5 128.162,205.333 139.5,205.5 Z"/></g>
<g><path style="opacity:1" fill="#1c1c20" d="M 139.5,205.5 C 185.214,205.02 230.88,205.52 276.5,207C 289.253,211.78 294.42,220.947 292,234.5C 289.306,244.525 282.806,250.359 272.5,252C 216.665,252.832 160.998,252.665 105.5,251.5C 116.52,251.832 127.52,251.499 138.5,250.5C 126.194,235.163 126.528,220.163 139.5,205.5 Z"/></g>
<g><path style="opacity:1" fill="#3f3f4b" d="M 262.5,273.5 C 226.594,273.17 190.76,273.504 155,274.5C 154.982,305.387 149.982,335.387 140,364.5C 137.174,370.822 133.841,376.822 130,382.5C 129.5,396.496 129.333,410.496 129.5,424.5C 109.5,424.5 89.5,424.5 69.5,424.5C 69.5,413.5 69.5,402.5 69.5,391.5C 85.8367,391.667 102.17,391.5 118.5,391C 124.45,388.523 125.95,384.357 123,378.5C 121.581,377.54 120.081,376.707 118.5,376C 107.167,375.667 95.8333,375.333 84.5,375C 103.078,354.339 114.578,330.173 119,302.5C 121.238,290.934 122.404,279.268 122.5,267.5C 169.167,267.5 215.833,267.5 262.5,267.5C 262.5,269.5 262.5,271.5 262.5,273.5 Z"/></g>
<g><path style="opacity:1" fill="#1d1d21" d="M 262.5,273.5 C 263.961,303.016 271.794,330.682 286,356.5C 290.23,363.12 295.063,369.287 300.5,375C 248.833,375.333 197.167,375.667 145.5,376C 137.592,380.858 137.592,385.858 145.5,391C 202.166,391.5 258.832,391.667 315.5,391.5C 315.5,402.5 315.5,413.5 315.5,424.5C 253.5,424.5 191.5,424.5 129.5,424.5C 129.333,410.496 129.5,396.496 130,382.5C 133.841,376.822 137.174,370.822 140,364.5C 149.982,335.387 154.982,305.387 155,274.5C 190.76,273.504 226.594,273.17 262.5,273.5 Z"/></g>
<g><path style="opacity:1" fill="#3f3f4b" d="M 45.5,440.5 C 68.1691,440.333 90.8358,440.5 113.5,441C 107.057,446.727 102.224,453.56 99,461.5C 97.5878,473.104 97.0878,484.771 97.5,496.5C 70.1667,496.5 42.8333,496.5 15.5,496.5C 15.3335,487.161 15.5002,477.827 16,468.5C 20.1732,453.159 30.0065,443.826 45.5,440.5 Z"/></g>
<g><path style="opacity:1" fill="#1c1c20" d="M 45.5,440.5 C 56.9952,439.833 68.6618,439.5 80.5,439.5C 167.832,440.231 255.165,440.731 342.5,441C 355.059,443.892 363.559,451.392 368,463.5C 369.379,474.445 369.879,485.445 369.5,496.5C 278.833,496.5 188.167,496.5 97.5,496.5C 97.0878,484.771 97.5878,473.104 99,461.5C 102.224,453.56 107.057,446.727 113.5,441C 90.8358,440.5 68.1691,440.333 45.5,440.5 Z"/></g>
</svg>
