<?xml version="1.0" encoding="UTF-8"?>
<!DOCTYPE svg PUBLIC "-//W3C//DTD SVG 1.1//EN" "http://www.w3.org/Graphics/SVG/1.1/DTD/svg11.dtd">
<svg xmlns="http://www.w3.org/2000/svg" version="1.1" width="512px" height="512px" style="shape-rendering:geometricPrecision; text-rendering:geometricPrecision; image-rendering:optimizeQuality; fill-rule:evenodd; clip-rule:evenodd" xmlns:xlink="http://www.w3.org/1999/xlink">
<g><path style="opacity:0.986" fill="#252525" d="M 210.5,-0.5 C 240.167,-0.5 269.833,-0.5 299.5,-0.5C 301.144,0.316435 302.31,1.64977 303,3.5C 303.5,15.4954 303.667,27.4954 303.5,39.5C 312.25,39.0901 320.916,39.5901 329.5,41C 342.499,48.3173 346.665,59.1506 342,73.5C 335.375,85.5542 325.208,90.2208 311.5,87.5C 311.333,108.836 311.5,130.169 312,151.5C 380.001,176.167 421.668,223.833 437,294.5C 447.466,368.81 423.633,429.31 365.5,476C 338.193,495.656 307.86,507.489 274.5,511.5C 261.833,511.5 249.167,511.5 236.5,511.5C 169.472,502.077 120.305,467.41 89,407.5C 59.2956,338.149 66.629,273.149 111,212.5C 134.604,183.895 163.937,163.562 199,151.5C 199.5,130.169 199.667,108.836 199.5,87.5C 185.792,90.2208 175.625,85.5542 169,73.5C 164.335,59.1506 168.501,48.3173 181.5,41C 189.749,39.5943 198.083,39.0943 206.5,39.5C 206.333,28.1618 206.5,16.8284 207,5.5C 207.564,3.11327 208.73,1.11327 210.5,-0.5 Z"/></g>
<g><path style="opacity:1" fill="#c59c6c" d="M 223.5,15.5 C 244.833,15.5 266.167,15.5 287.5,15.5C 287.5,23.5 287.5,31.5 287.5,39.5C 266.167,39.5 244.833,39.5 223.5,39.5C 223.5,31.5 223.5,23.5 223.5,15.5 Z"/></g>
<g><path style="opacity:1" fill="#b2b2b2" d="M 188.5,55.5 C 232.835,55.3333 277.168,55.5 321.5,56C 327.448,58.4329 328.948,62.5996 326,68.5C 325.097,69.7014 323.931,70.5348 322.5,71C 277.833,71.6667 233.167,71.6667 188.5,71C 183.465,67.9867 182.298,63.8201 185,58.5C 186.145,57.3636 187.312,56.3636 188.5,55.5 Z"/></g>
<g><path style="opacity:1" fill="#cacaca" d="M 215.5,87.5 C 218.898,87.1796 222.232,87.513 225.5,88.5C 227.821,96.7848 229.988,105.118 232,113.5C 232.273,115.329 233.107,116.829 234.5,118C 241.232,119.13 248.065,119.63 255,119.5C 262.242,119.612 269.409,119.112 276.5,118C 277.893,116.829 278.727,115.329 279,113.5C 281.012,105.118 283.179,96.7848 285.5,88.5C 288.768,87.513 292.102,87.1796 295.5,87.5C 295.333,111.836 295.5,136.169 296,160.5C 296.785,162.286 297.951,163.786 299.5,165C 358.494,183.327 397.661,221.827 417,280.5C 433.64,347.695 417.14,405.195 367.5,453C 316.531,494.907 259.531,505.574 196.5,485C 145.039,464.206 110.872,427.372 94,374.5C 76.6425,301.239 96.8092,240.739 154.5,193C 171.715,180.226 190.715,170.893 211.5,165C 213.049,163.786 214.215,162.286 215,160.5C 215.5,136.169 215.667,111.836 215.5,87.5 Z"/></g>
<g><path style="opacity:1" fill="#a17e5c" d="M 241.5,87.5 C 250.5,87.5 259.5,87.5 268.5,87.5C 267.5,92.8333 266.5,98.1667 265.5,103.5C 258.8,103.83 252.134,103.497 245.5,102.5C 244.008,97.5307 242.675,92.5307 241.5,87.5 Z"/></g>
<g><path style="opacity:1" fill="#2a2a2a" d="M 236.5,135.5 C 247.167,136.003 249.833,140.836 244.5,150C 235.42,153.215 231.253,150.048 232,140.5C 233.025,138.313 234.525,136.646 236.5,135.5 Z"/></g>
<g><path style="opacity:1" fill="#272727" d="M 236.5,159.5 C 243.535,158.543 247.201,161.543 247.5,168.5C 246.305,179.848 240.639,188.014 230.5,193C 211.815,197.226 194.482,204.559 178.5,215C 170.344,215.5 167.178,211.667 169,203.5C 178.138,196.01 188.305,190.176 199.5,186C 208.452,182.846 217.452,179.846 226.5,177C 228.378,175.457 229.878,173.624 231,171.5C 230.458,166.259 232.291,162.259 236.5,159.5 Z"/></g>
<g><path style="opacity:1" fill="#262626" d="M 336.5,446.5 C 335.11,443.07 335.276,439.736 337,436.5C 381.533,399.753 398.7,352.753 388.5,295.5C 352.089,319.99 314.422,321.823 275.5,301C 256.686,288.869 237.353,277.536 217.5,267C 182.996,252.568 152.496,258.402 126,284.5C 110.535,341.711 124.369,390.544 167.5,431C 211.025,465.648 258.858,472.814 311,452.5C 314.436,452.635 317.269,453.969 319.5,456.5C 320.204,460.803 318.87,464.303 315.5,467C 248.496,492.202 190.329,479.036 141,427.5C 104.647,382.396 94.9808,332.063 112,276.5C 133.866,251.76 161.366,240.926 194.5,244C 203.336,245.709 212.003,248.042 220.5,251C 232.488,256.66 244.155,262.826 255.5,269.5C 267.205,261.998 279.539,255.498 292.5,250C 328.877,237.784 361.877,243.784 391.5,268C 398.703,274.903 402.87,283.403 404,293.5C 415.185,355.288 397.018,406.455 349.5,447C 344.963,450.452 340.629,450.285 336.5,446.5 Z"/></g>
<g><path style="opacity:1" fill="#44c739" d="M 336.5,446.5 C 330.998,450.085 325.331,453.419 319.5,456.5C 317.269,453.969 314.436,452.635 311,452.5C 258.858,472.814 211.025,465.648 167.5,431C 124.369,390.544 110.535,341.711 126,284.5C 152.496,258.402 182.996,252.568 217.5,267C 237.353,277.536 256.686,288.869 275.5,301C 314.422,321.823 352.089,319.99 388.5,295.5C 398.7,352.753 381.533,399.753 337,436.5C 335.276,439.736 335.11,443.07 336.5,446.5 Z"/></g>
<g><path style="opacity:1" fill="#30a325" d="M 317.5,259.5 C 341.104,257.592 361.771,264.258 379.5,279.5C 370.103,289.035 358.769,295.202 345.5,298C 318.116,302.487 293.449,296.321 271.5,279.5C 285.459,269.517 300.793,262.85 317.5,259.5 Z"/></g>
<g><path style="opacity:1" fill="#262a25" d="M 148.5,287.5 C 159.167,288.003 161.833,292.836 156.5,302C 147.42,305.215 143.253,302.048 144,292.5C 145.025,290.313 146.525,288.646 148.5,287.5 Z"/></g>
<g><path style="opacity:1" fill="#252625" d="M 181.5,311.5 C 204.663,311.162 215.829,322.495 215,345.5C 209.608,361.615 198.441,368.782 181.5,367C 165.395,361.633 158.228,350.466 160,333.5C 163.35,322.318 170.517,314.984 181.5,311.5 Z"/></g>
<g><path style="opacity:1" fill="#8dd784" d="M 183.5,327.5 C 196.018,327.505 200.851,333.505 198,345.5C 190.966,353.413 183.966,353.413 177,345.5C 173.82,337.532 175.987,331.532 183.5,327.5 Z"/></g>
<g><path style="opacity:1" fill="#262a25" d="M 252.5,327.5 C 263.167,328.003 265.833,332.836 260.5,342C 251.42,345.215 247.253,342.048 248,332.5C 249.025,330.313 250.525,328.646 252.5,327.5 Z"/></g>
<g><path style="opacity:1" fill="#262a25" d="M 364.5,327.5 C 375.167,328.003 377.833,332.836 372.5,342C 363.42,345.215 359.253,342.048 360,332.5C 361.025,330.313 362.525,328.646 364.5,327.5 Z"/></g>
<g><path style="opacity:1" fill="#252625" d="M 313.5,335.5 C 327.853,334.253 337.686,340.253 343,353.5C 344.817,368.369 338.651,378.203 324.5,383C 310.082,384.535 300.582,378.368 296,364.5C 294.669,350.493 300.502,340.826 313.5,335.5 Z"/></g>
<g><path style="opacity:1" fill="#8ad382" d="M 316.5,351.5 C 324.658,350.823 328.158,354.49 327,362.5C 324.774,366.861 321.274,368.361 316.5,367C 312.139,364.774 310.639,361.274 312,356.5C 313.025,354.313 314.525,352.646 316.5,351.5 Z"/></g>
<g><path style="opacity:1" fill="#252625" d="M 240.5,375.5 C 265.794,374.515 278.627,386.515 279,411.5C 274.316,431.826 261.483,440.993 240.5,439C 222.131,432.78 213.964,419.946 216,400.5C 218.197,392.32 222.697,385.82 229.5,381C 233.259,379.121 236.925,377.287 240.5,375.5 Z"/></g>
<g><path style="opacity:1" fill="#252725" d="M 183.5,383.5 C 194.18,383.015 199.347,388.015 199,398.5C 196.315,405.841 191.148,408.674 183.5,407C 172.874,399.132 172.874,391.299 183.5,383.5 Z"/></g>
<g><path style="opacity:1" fill="#8dd784" d="M 242.5,391.5 C 258.678,391.168 265.178,398.834 262,414.5C 256.039,423.283 248.206,425.449 238.5,421C 228.083,409.501 229.416,399.667 242.5,391.5 Z"/></g>
<g><path style="opacity:1" fill="#252725" d="M 303.5,399.5 C 314.18,399.015 319.347,404.015 319,414.5C 316.315,421.841 311.148,424.674 303.5,423C 292.874,415.132 292.874,407.299 303.5,399.5 Z"/></g>
</svg>
