<?xml version="1.0" standalone="yes"?>
<svg xmlns="http://www.w3.org/2000/svg" width="512" height="512">
<path style="fill:#010101; stroke:none;" d="M0 0L0 512L512 512L512 0L0 0z"/>
<path style="fill:#67352f; stroke:none;" d="M176 32L176 85C176 90.8154 173.939 101.577 177.028 106.671C181.41 113.899 196.74 119.153 204 123.281C210.917 127.213 218.357 133.058 226 135.351C236.518 138.506 251.046 136 262 136C269.451 136 278.819 137.505 286 135.351C294.633 132.762 303.196 126.053 311 121.579C317.565 117.815 330.988 113.243 334.972 106.671C338.061 101.577 336 90.8154 336 85L336 32L320 32C320 43.7258 322.698 58.7648 315.892 68.9962C304.897 85.5229 280.664 82.1083 273.479 64C269.805 54.7412 272 41.8323 272 32L240 32C240 43.7259 242.698 58.7649 235.892 68.9962C224.897 85.5228 200.664 82.1083 193.479 64C189.805 54.7412 192 41.8322 192 32L176 32z"/>
<path style="fill:#402320; stroke:none;" d="M192.333 60.6667L192.667 61.3333L192.333 60.6667M239.333 60.6667L239.667 61.3333L239.333 60.6667M272.333 60.6667L272.667 61.3333L272.333 60.6667M319.333 60.6667L319.667 61.3333L319.333 60.6667M193 64L194 65L193 64M238 64L239 65L238 64M273 64L274 65L273 64M318 64L319 65L318 64M194 66L195 67L194 66M237 66L238 67L237 66M274 66L275 67L274 66M317 66L318 67L317 66M195 68L196 69L195 68M236 68L237 69L236 68M275 68L276 69L275 68M316 68L317 69L316 68M197 71L198 72L197 71M234 71L235 72L234 71M277 71L278 72L277 71M314 71L315 72L314 71M198 72L199 73L198 72M233 72L234 73L233 72M278 72L279 73L278 72M313 72L314 73L313 72M199 73L200 74L199 73M232 73L233 74L232 73M279 73L280 74L279 73M312 73L313 74L312 73M200 74L201 75L200 74M231 74L232 75L231 74M280 74L281 75L280 74M311 74L312 75L311 74M203 76L204 77L203 76M228 76L229 77L228 76M283 76L284 77L283 76M308 76L309 77L308 76M205 77L206 78L205 77M226 77L227 78L226 77M285 77L286 78L285 77M306 77L307 78L306 77M207 78L208 79L207 78M224 78L225 79L224 78M287 78L288 79L287 78M304 78L305 79L304 78M210.667 79.3333L211.333 79.6667L210.667 79.3333M220.667 79.3333L221.333 79.6667L220.667 79.3333M290.667 79.3333L291.333 79.6667L290.667 79.3333M300.667 79.3333L301.333 79.6667L300.667 79.3333z"/>
<path style="fill:#010101; stroke:none;" d="M216 96L216 112L232 112L232 96L216 96M248 96L248 112L264 112L264 96L248 96M280 96L280 112L296 112L296 96L280 96z"/>
<path style="fill:#402320; stroke:none;" d="M176 107L177 108L176 107M335 107L336 108L335 107M178 108L179 109L178 108M333 108L334 109L333 108M179 109L180 110L179 109M332 109L333 110L332 109M181 110L182 111L181 110M330 110L331 111L330 110M183 111L184 112L183 111M328 111L329 112L328 111M185 112L186 113L185 112M326 112L327 113L326 112M186 113L187 114L186 113M325 113L326 114L325 113M188 114L189 115L188 114M323 114L324 115L323 114M190 115L191 116L190 115M321 115L322 116L321 115M192 116L193 117L192 116M319 116L320 117L319 116M193 117L194 118L193 117M318 117L319 118L318 117M195 118L196 119L195 118M316 118L317 119L316 118M197 119L198 120L197 119M314 119L315 120L314 119M199 120L200 121L199 120M312 120L313 121L312 120M200 121L201 122L200 121M311 121L312 122L311 121M202 122L203 123L202 122M309 122L310 123L309 122M204 123L205 124L204 123M307 123L308 124L307 123M206 124L207 125L206 124M305 124L306 125L305 124M207 125L208 126L207 125M304 125L305 126L304 125M209 126L210 127L209 126M302 126L303 127L302 126M211 127L212 128L211 127M300 127L301 128L300 127M213 128L214 129L213 128M298 128L299 129L298 128M214 129L215 130L214 129M297 129L298 130L297 129M216 130L217 131L216 130M295 130L296 131L295 130M218 131L219 132L218 131M293 131L294 132L293 131M220 132L221 133L220 132M291 132L292 133L291 132M221 133L222 134L221 133M290 133L291 134L290 133M223 134L224 135L223 134M288 134L289 135L288 134M225 135L226 136L225 135M286 135L287 136L286 135z"/>
<path style="fill:#995f5b; stroke:none;" d="M176 152L176 186L178.589 198.972L200 200L200 152L176 152z"/>
<path style="fill:#cfad9b; stroke:none;" d="M216 152L216 200L232 200L232 152L216 152z"/>
<path style="fill:#995f5b; stroke:none;" d="M248 152L248 200L264 200L264 152L248 152z"/>
<path style="fill:#cfad9b; stroke:none;" d="M280 152L280 200L296 200L296 152L280 152z"/>
<path style="fill:#995f5b; stroke:none;" d="M312 152L312 200L333.411 198.972L336 186L336 152L312 152z"/>
<path style="fill:#67352f; stroke:none;" d="M176.333 194.667L176.667 195.333L176.333 194.667M335.333 194.667L335.667 195.333L335.333 194.667z"/>
<path style="fill:#402320; stroke:none;" d="M176 196L177 197L176 196M335 196L336 197L335 196M177 199L178 200L177 199M334 199L335 200L334 199z"/>
<path style="fill:#67352f; stroke:none;" d="M189 216C201.178 231.103 229.837 242.881 232 264L280 264C281.863 245.814 309.448 227.326 323 217C312.496 212.592 294.42 216 283 216L189 216z"/>
<path style="fill:#402320; stroke:none;" d="M320 218L321 219L320 218M192 219L193 220L192 219M319 219L320 220L319 219M193 220L194 221L193 220M318 220L319 221L318 220M194 221L195 222L194 221M317 221L318 222L317 221M195 222L196 223L195 222M316 222L317 223L316 222M196 223L197 224L196 223M315 223L316 224L315 223M197 224L198 225L197 224M314 224L315 225L314 224M198 225L199 226L198 225M313 225L314 226L313 225M199 226L200 227L199 226M312 226L313 227L312 226M204 230L205 231L204 230M307 230L308 231L307 230M205 231L206 232L205 231M306 231L307 232L306 231M206 232L207 233L206 232M305 232L306 233L305 232M210 235L211 236L210 235M301 235L302 236L301 235M211 236L212 237L211 236M300 236L301 237L300 236M212 237L213 238L212 237M299 237L300 238L299 237M216 240L217 241L216 240M295 240L296 241L295 240M217 241L218 242L217 241M294 241L295 242L294 241M218 242L219 243L218 242M293 242L294 243L293 242M219 243L220 244L219 243M292 243L293 244L292 243M220 244L221 245L220 244M291 244L292 245L291 244M221 245L222 246L221 245M290 245L291 246L290 245M222 246L223 247L222 246M289 246L290 247L289 246M223 247L224 248L223 247M288 247L289 248L288 247M224 248L225 249L224 248M287 248L288 249L287 248M225 249L226 250L225 249M286 249L287 250L286 249M226 250L227 251L226 250M285 250L286 251L285 250M228 253L229 254L228 253M283 253L284 254L283 253M229 255L230 256L229 255M282 255L283 256L282 255M230 257L231 258L230 257M281 257L282 258L281 257M231.333 259.667L231.667 260.333L231.333 259.667M280.333 259.667L280.667 260.333L280.333 259.667z"/>
<path style="fill:#995f5b; stroke:none;" d="M192 280L192 296L320 296L320 280L192 280z"/>
<path style="fill:#67352f; stroke:none;" d="M224 312L224 328L288 328L288 312L224 312z"/>
<path style="fill:#402320; stroke:none;" d="M223.333 344.667L223.667 345.333L223.333 344.667z"/>
<path style="fill:#995f5b; stroke:none;" d="M224 344C220.685 386.002 192.931 416.288 152 424L152 440L360 440L360 424C318.873 418.689 291.184 384.349 288 344L224 344z"/>
<path style="fill:#402320; stroke:none;" d="M288 344L288 347L289 347L288 344z"/>
<path style="fill:#67352f; stroke:none;" d="M223 346L223 349L224 349L223 346M288.333 347.667L288.667 348.333L288.333 347.667z"/>
<path style="fill:#402320; stroke:none;" d="M222.333 352.667L222.667 353.333L222.333 352.667M289.333 352.667L289.667 353.333L289.333 352.667z"/>
<path style="fill:#67352f; stroke:none;" d="M222.333 354.667L222.667 355.333L222.333 354.667M289.333 354.667L289.667 355.333L289.333 354.667z"/>
<path style="fill:#402320; stroke:none;" d="M221 358L222 359L221 358M290 358L291 359L290 358z"/>
<path style="fill:#67352f; stroke:none;" d="M221.333 359.667L221.667 360.333L221.333 359.667M290.333 359.667L290.667 360.333L290.333 359.667z"/>
<path style="fill:#010101; stroke:none;" d="M232 360L232 376L248 376L248 360L232 360M264 360L264 376L280 376L280 360L264 360z"/>
<path style="fill:#402320; stroke:none;" d="M220 362L221 363L220 362M291 362L292 363L291 362z"/>
<path style="fill:#67352f; stroke:none;" d="M220 363L221 364L220 363M291 363L292 364L291 363z"/>
<path style="fill:#402320; stroke:none;" d="M219 366L220 367L219 366M292 366L293 367L292 366z"/>
<path style="fill:#67352f; stroke:none;" d="M219 367L220 368L219 367M292 367L293 368L292 367z"/>
<path style="fill:#402320; stroke:none;" d="M218 369L219 370L218 369M293 369L294 370L293 369z"/>
<path style="fill:#67352f; stroke:none;" d="M218 370L219 371L218 370M293 370L294 371L293 370z"/>
<path style="fill:#402320; stroke:none;" d="M217 372L218 373L217 372M294 372L295 373L294 372M216 374L217 375L216 374M295 374L296 375L295 374z"/>
<path style="fill:#67352f; stroke:none;" d="M216 375L217 376L216 375M295 375L296 376L295 375M215 377L216 378L215 377M296 377L297 378L296 377z"/>
<path style="fill:#402320; stroke:none;" d="M214 379L215 380L214 379M297 379L298 380L297 379M213 381L214 382L213 381M298 381L299 382L298 381z"/>
<path style="fill:#67352f; stroke:none;" d="M212 383L213 384L212 383M299 383L300 384L299 383M211 385L212 386L211 385M300 385L301 386L300 385z"/>
<path style="fill:#402320; stroke:none;" d="M210 386L211 387L210 386M301 386L302 387L301 386z"/>
<path style="fill:#67352f; stroke:none;" d="M209 388L210 389L209 388z"/>
<path style="fill:#402320; stroke:none;" d="M302 388L303 389L302 388z"/>
<path style="fill:#67352f; stroke:none;" d="M303 390L304 391L303 390M207 391L208 392L207 391M304 391L305 392L304 391z"/>
<path style="fill:#402320; stroke:none;" d="M206 392L207 393L206 392M305 392L306 393L305 392z"/>
<path style="fill:#67352f; stroke:none;" d="M205 394L206 395L205 394M306 394L307 395L306 394M204 395L205 396L204 395M307 395L308 396L307 395z"/>
<path style="fill:#402320; stroke:none;" d="M203 396L204 397L203 396M308 396L309 397L308 396M202 397L203 398L202 397M309 397L310 398L309 397M194 405L195 406L194 405M317 405L318 406L317 405M193 406L194 407L193 406M318 406L319 407L318 406z"/>
<path style="fill:#67352f; stroke:none;" d="M192 407L193 408L192 407M319 407L320 408L319 407M191 408L192 409L191 408M320 408L321 409L320 408z"/>
<path style="fill:#402320; stroke:none;" d="M189 409L190 410L189 409M322 409L323 410L322 409z"/>
<path style="fill:#67352f; stroke:none;" d="M188 410L189 411L188 410M323 410L324 411L323 410z"/>
<path style="fill:#402320; stroke:none;" d="M186 411L187 412L186 411M325 411L326 412L325 411z"/>
<path style="fill:#67352f; stroke:none;" d="M185 412L186 413L185 412M326 412L327 413L326 412z"/>
<path style="fill:#402320; stroke:none;" d="M183 413L184 414L183 413M328 413L329 414L328 413M181 414L182 415L181 414M330 414L331 415L330 414M179 415L180 416L179 415z"/>
<path style="fill:#67352f; stroke:none;" d="M180 415L181 416L180 415M331 415L332 416L331 415z"/>
<path style="fill:#402320; stroke:none;" d="M332 415L333 416L332 415M177 416L178 417L177 416z"/>
<path style="fill:#67352f; stroke:none;" d="M178 416L179 417L178 416M333 416L334 417L333 416z"/>
<path style="fill:#402320; stroke:none;" d="M334 416L335 417L334 416M175 417L176 418L175 417z"/>
<path style="fill:#67352f; stroke:none;" d="M335 417L336 418L335 417z"/>
<path style="fill:#402320; stroke:none;" d="M336 417L337 418L336 417z"/>
<path style="fill:#67352f; stroke:none;" d="M173 418L174 419L173 418M338 418L339 419L338 418z"/>
<path style="fill:#402320; stroke:none;" d="M170 419L171 420L170 419z"/>
<path style="fill:#67352f; stroke:none;" d="M171 419L172 420L171 419M340 419L341 420L340 419z"/>
<path style="fill:#402320; stroke:none;" d="M341 419L342 420L341 419M167 420L168 421L167 420z"/>
<path style="fill:#67352f; stroke:none;" d="M168 420L169 421L168 420M343 420L344 421L343 420z"/>
<path style="fill:#402320; stroke:none;" d="M344 420L345 421L344 420M163 421L164 422L163 421z"/>
<path style="fill:#67352f; stroke:none;" d="M164 421L165 422L164 421M347 421L348 422L347 421z"/>
<path style="fill:#402320; stroke:none;" d="M348 421L349 422L348 421M158.667 422.333L159.333 422.667L158.667 422.333z"/>
<path style="fill:#67352f; stroke:none;" d="M160 422L161 423L160 422M351 422L352 423L351 422z"/>
<path style="fill:#402320; stroke:none;" d="M352.667 422.333L353.333 422.667L352.667 422.333M152 423L153 424L152 423z"/>
<path style="fill:#67352f; stroke:none;" d="M153.667 423.333L154.333 423.667L153.667 423.333M356 423L356 424L359 424L356 423z"/>
<path style="fill:#402320; stroke:none;" d="M359 423L360 424L359 423z"/>
<path style="fill:#67352f; stroke:none;" d="M152 456L152 480L360 480L360 456L152 456z"/>
</svg>
